%TF.GenerationSoftware,KiCad,Pcbnew,(6.0.1-0)*%
%TF.CreationDate,2022-02-06T09:10:27-08:00*%
%TF.ProjectId,power-wedge-control,706f7765-722d-4776-9564-67652d636f6e,1*%
%TF.SameCoordinates,Original*%
%TF.FileFunction,Copper,L1,Top*%
%TF.FilePolarity,Positive*%
%FSLAX46Y46*%
G04 Gerber Fmt 4.6, Leading zero omitted, Abs format (unit mm)*
G04 Created by KiCad (PCBNEW (6.0.1-0)) date 2022-02-06 09:10:27*
%MOMM*%
%LPD*%
G01*
G04 APERTURE LIST*
G04 Aperture macros list*
%AMRoundRect*
0 Rectangle with rounded corners*
0 $1 Rounding radius*
0 $2 $3 $4 $5 $6 $7 $8 $9 X,Y pos of 4 corners*
0 Add a 4 corners polygon primitive as box body*
4,1,4,$2,$3,$4,$5,$6,$7,$8,$9,$2,$3,0*
0 Add four circle primitives for the rounded corners*
1,1,$1+$1,$2,$3*
1,1,$1+$1,$4,$5*
1,1,$1+$1,$6,$7*
1,1,$1+$1,$8,$9*
0 Add four rect primitives between the rounded corners*
20,1,$1+$1,$2,$3,$4,$5,0*
20,1,$1+$1,$4,$5,$6,$7,0*
20,1,$1+$1,$6,$7,$8,$9,0*
20,1,$1+$1,$8,$9,$2,$3,0*%
G04 Aperture macros list end*
%TA.AperFunction,ComponentPad*%
%ADD10R,2.400000X2.400000*%
%TD*%
%TA.AperFunction,ComponentPad*%
%ADD11C,2.400000*%
%TD*%
%TA.AperFunction,ComponentPad*%
%ADD12R,1.700000X1.700000*%
%TD*%
%TA.AperFunction,ComponentPad*%
%ADD13O,1.700000X1.700000*%
%TD*%
%TA.AperFunction,SMDPad,CuDef*%
%ADD14RoundRect,0.150000X-0.587500X-0.150000X0.587500X-0.150000X0.587500X0.150000X-0.587500X0.150000X0*%
%TD*%
%TA.AperFunction,SMDPad,CuDef*%
%ADD15RoundRect,0.150000X-0.150000X0.587500X-0.150000X-0.587500X0.150000X-0.587500X0.150000X0.587500X0*%
%TD*%
%TA.AperFunction,SMDPad,CuDef*%
%ADD16RoundRect,0.200000X0.275000X-0.200000X0.275000X0.200000X-0.275000X0.200000X-0.275000X-0.200000X0*%
%TD*%
%TA.AperFunction,SMDPad,CuDef*%
%ADD17RoundRect,0.200000X-0.275000X0.200000X-0.275000X-0.200000X0.275000X-0.200000X0.275000X0.200000X0*%
%TD*%
%TA.AperFunction,SMDPad,CuDef*%
%ADD18R,1.300000X1.700000*%
%TD*%
%TA.AperFunction,SMDPad,CuDef*%
%ADD19RoundRect,0.200000X-0.200000X-0.275000X0.200000X-0.275000X0.200000X0.275000X-0.200000X0.275000X0*%
%TD*%
%TA.AperFunction,SMDPad,CuDef*%
%ADD20RoundRect,0.200000X0.200000X0.275000X-0.200000X0.275000X-0.200000X-0.275000X0.200000X-0.275000X0*%
%TD*%
%TA.AperFunction,SMDPad,CuDef*%
%ADD21RoundRect,0.225000X0.250000X-0.225000X0.250000X0.225000X-0.250000X0.225000X-0.250000X-0.225000X0*%
%TD*%
%TA.AperFunction,SMDPad,CuDef*%
%ADD22RoundRect,0.218750X0.256250X-0.218750X0.256250X0.218750X-0.256250X0.218750X-0.256250X-0.218750X0*%
%TD*%
%TA.AperFunction,SMDPad,CuDef*%
%ADD23RoundRect,0.225000X-0.225000X-0.250000X0.225000X-0.250000X0.225000X0.250000X-0.225000X0.250000X0*%
%TD*%
%TA.AperFunction,SMDPad,CuDef*%
%ADD24RoundRect,0.150000X0.512500X0.150000X-0.512500X0.150000X-0.512500X-0.150000X0.512500X-0.150000X0*%
%TD*%
%TA.AperFunction,SMDPad,CuDef*%
%ADD25RoundRect,0.225000X0.225000X0.250000X-0.225000X0.250000X-0.225000X-0.250000X0.225000X-0.250000X0*%
%TD*%
%TA.AperFunction,SMDPad,CuDef*%
%ADD26RoundRect,0.250000X-0.325000X-0.650000X0.325000X-0.650000X0.325000X0.650000X-0.325000X0.650000X0*%
%TD*%
%TA.AperFunction,SMDPad,CuDef*%
%ADD27RoundRect,0.218750X-0.218750X-0.256250X0.218750X-0.256250X0.218750X0.256250X-0.218750X0.256250X0*%
%TD*%
%TA.AperFunction,SMDPad,CuDef*%
%ADD28R,2.200000X1.200000*%
%TD*%
%TA.AperFunction,SMDPad,CuDef*%
%ADD29R,6.400000X5.800000*%
%TD*%
%TA.AperFunction,SMDPad,CuDef*%
%ADD30RoundRect,0.150000X0.587500X0.150000X-0.587500X0.150000X-0.587500X-0.150000X0.587500X-0.150000X0*%
%TD*%
%TA.AperFunction,SMDPad,CuDef*%
%ADD31R,1.780000X2.000000*%
%TD*%
%TA.AperFunction,SMDPad,CuDef*%
%ADD32R,0.650000X0.400000*%
%TD*%
%TA.AperFunction,SMDPad,CuDef*%
%ADD33R,1.750000X0.700000*%
%TD*%
%TA.AperFunction,SMDPad,CuDef*%
%ADD34R,1.000000X1.450000*%
%TD*%
%TA.AperFunction,SMDPad,CuDef*%
%ADD35R,1.550000X1.000000*%
%TD*%
%TA.AperFunction,SMDPad,CuDef*%
%ADD36R,1.500000X1.500000*%
%TD*%
%TA.AperFunction,SMDPad,CuDef*%
%ADD37R,1.500000X0.800000*%
%TD*%
%TA.AperFunction,SMDPad,CuDef*%
%ADD38R,1.500000X1.300000*%
%TD*%
%TA.AperFunction,SMDPad,CuDef*%
%ADD39R,1.400000X0.800000*%
%TD*%
%TA.AperFunction,SMDPad,CuDef*%
%ADD40RoundRect,0.150000X-0.150000X0.825000X-0.150000X-0.825000X0.150000X-0.825000X0.150000X0.825000X0*%
%TD*%
%TA.AperFunction,SMDPad,CuDef*%
%ADD41RoundRect,0.218750X0.218750X0.256250X-0.218750X0.256250X-0.218750X-0.256250X0.218750X-0.256250X0*%
%TD*%
%TA.AperFunction,SMDPad,CuDef*%
%ADD42RoundRect,0.250000X0.325000X0.650000X-0.325000X0.650000X-0.325000X-0.650000X0.325000X-0.650000X0*%
%TD*%
%TA.AperFunction,SMDPad,CuDef*%
%ADD43RoundRect,0.250000X0.650000X-0.325000X0.650000X0.325000X-0.650000X0.325000X-0.650000X-0.325000X0*%
%TD*%
%TA.AperFunction,SMDPad,CuDef*%
%ADD44R,0.400000X0.650000*%
%TD*%
%TA.AperFunction,ComponentPad*%
%ADD45C,1.500000*%
%TD*%
%TA.AperFunction,ComponentPad*%
%ADD46R,1.600000X1.600000*%
%TD*%
%TA.AperFunction,ComponentPad*%
%ADD47C,1.600000*%
%TD*%
%TA.AperFunction,ComponentPad*%
%ADD48O,1.600000X1.600000*%
%TD*%
%TA.AperFunction,ViaPad*%
%ADD49C,0.800000*%
%TD*%
%TA.AperFunction,ViaPad*%
%ADD50C,1.600000*%
%TD*%
%TA.AperFunction,ViaPad*%
%ADD51C,0.600000*%
%TD*%
%TA.AperFunction,Conductor*%
%ADD52C,0.400000*%
%TD*%
%TA.AperFunction,Conductor*%
%ADD53C,0.800000*%
%TD*%
%TA.AperFunction,Conductor*%
%ADD54C,0.300000*%
%TD*%
G04 APERTURE END LIST*
D10*
%TO.P,J1,1,Pin_1*%
%TO.N,+12V*%
X126908800Y-134655400D03*
D11*
%TO.P,J1,2,Pin_2*%
%TO.N,GND*%
X130408800Y-134655400D03*
%TD*%
D10*
%TO.P,J2,1,Pin_1*%
%TO.N,/RELAY_DN+*%
X115830800Y-134655400D03*
D11*
%TO.P,J2,2,Pin_2*%
%TO.N,GND*%
X119330800Y-134655400D03*
%TO.P,J2,3,Pin_3*%
%TO.N,/RELAY_UP+*%
X122830800Y-134655400D03*
%TD*%
D12*
%TO.P,J3,1,Pin_1*%
%TO.N,/EN_RELAY_DN*%
X120000000Y-100700000D03*
D13*
%TO.P,J3,2,Pin_2*%
%TO.N,/EN_RELAY_UP*%
X122540000Y-100700000D03*
%TD*%
D14*
%TO.P,Q1,1,B*%
%TO.N,Net-(Q1-Pad1)*%
X124722200Y-107945000D03*
%TO.P,Q1,2,E*%
%TO.N,GND*%
X124722200Y-109845000D03*
%TO.P,Q1,3,C*%
%TO.N,Net-(Q1-Pad3)*%
X126597200Y-108895000D03*
%TD*%
D15*
%TO.P,Q2,1,G*%
%TO.N,Net-(Q2-Pad1)*%
X124466000Y-120756200D03*
%TO.P,Q2,2,S*%
%TO.N,+12V*%
X122566000Y-120756200D03*
%TO.P,Q2,3,D*%
%TO.N,/RELAY_UP+*%
X123516000Y-122631200D03*
%TD*%
%TO.P,Q4,1,G*%
%TO.N,Net-(Q4-Pad1)*%
X117608000Y-120756200D03*
%TO.P,Q4,2,S*%
%TO.N,+12V*%
X115708000Y-120756200D03*
%TO.P,Q4,3,D*%
%TO.N,/RELAY_DN+*%
X116658000Y-122631200D03*
%TD*%
D16*
%TO.P,R2,1*%
%TO.N,Net-(Q2-Pad1)*%
X124874500Y-116499600D03*
%TO.P,R2,2*%
%TO.N,Net-(Q6-Pad3)*%
X124874500Y-114849600D03*
%TD*%
D17*
%TO.P,R3,1*%
%TO.N,+12V*%
X126056000Y-120434600D03*
%TO.P,R3,2*%
%TO.N,Net-(Q2-Pad1)*%
X126056000Y-122084600D03*
%TD*%
D16*
%TO.P,R5,1*%
%TO.N,Net-(Q4-Pad1)*%
X116111500Y-116499600D03*
%TO.P,R5,2*%
%TO.N,Net-(Q5-Pad3)*%
X116111500Y-114849600D03*
%TD*%
D18*
%TO.P,D1,1,K*%
%TO.N,/RELAY_UP+*%
X124402400Y-124866400D03*
%TO.P,D1,2,A*%
%TO.N,GND*%
X120902400Y-124866400D03*
%TD*%
%TO.P,D2,1,K*%
%TO.N,/RELAY_DN+*%
X115822400Y-124866400D03*
%TO.P,D2,2,A*%
%TO.N,GND*%
X119322400Y-124866400D03*
%TD*%
D14*
%TO.P,Q3,1,B*%
%TO.N,Net-(Q3-Pad1)*%
X115972200Y-107945000D03*
%TO.P,Q3,2,E*%
%TO.N,GND*%
X115972200Y-109845000D03*
%TO.P,Q3,3,C*%
%TO.N,Net-(Q3-Pad3)*%
X117847200Y-108895000D03*
%TD*%
D17*
%TO.P,R6,1*%
%TO.N,+12V*%
X119198000Y-120434600D03*
%TO.P,R6,2*%
%TO.N,Net-(Q4-Pad1)*%
X119198000Y-122084600D03*
%TD*%
D19*
%TO.P,R4,1*%
%TO.N,Net-(Q3-Pad1)*%
X116084700Y-106395000D03*
%TO.P,R4,2*%
%TO.N,/EN_RELAY_DN*%
X117734700Y-106395000D03*
%TD*%
D20*
%TO.P,R1,1*%
%TO.N,Net-(Q1-Pad1)*%
X126484700Y-106395000D03*
%TO.P,R1,2*%
%TO.N,/EN_RELAY_UP*%
X124834700Y-106395000D03*
%TD*%
D21*
%TO.P,C1,1*%
%TO.N,/ANGL1_REF5V*%
X173350000Y-118400000D03*
%TO.P,C1,2*%
%TO.N,GND*%
X173350000Y-116850000D03*
%TD*%
%TO.P,C2,1*%
%TO.N,/ANGL2_REF5V*%
X185041600Y-118427800D03*
%TO.P,C2,2*%
%TO.N,GND*%
X185041600Y-116877800D03*
%TD*%
%TO.P,C3,1*%
%TO.N,/ANGL1_REF5V*%
X171600000Y-118400000D03*
%TO.P,C3,2*%
%TO.N,GND*%
X171600000Y-116850000D03*
%TD*%
%TO.P,C4,1*%
%TO.N,/ANGL2_REF5V*%
X183291600Y-118427800D03*
%TO.P,C4,2*%
%TO.N,GND*%
X183291600Y-116877800D03*
%TD*%
D10*
%TO.P,J4,1,Pin_1*%
%TO.N,GND*%
X170744000Y-134631200D03*
D11*
%TO.P,J4,2,Pin_2*%
%TO.N,/ANGL1*%
X174244000Y-134631200D03*
%TO.P,J4,3,Pin_3*%
%TO.N,/SENS_PWR*%
X177744000Y-134631200D03*
%TD*%
D10*
%TO.P,J5,1,Pin_1*%
%TO.N,GND*%
X181869200Y-134631200D03*
D11*
%TO.P,J5,2,Pin_2*%
%TO.N,/ANGL2*%
X185369200Y-134631200D03*
%TO.P,J5,3,Pin_3*%
%TO.N,/SENS_PWR*%
X188869200Y-134631200D03*
%TD*%
D22*
%TO.P,L1,1,1*%
%TO.N,/ANGL1*%
X171600000Y-121687500D03*
%TO.P,L1,2,2*%
%TO.N,/ANGL1_REF5V*%
X171600000Y-120112500D03*
%TD*%
%TO.P,L2,1,1*%
%TO.N,/ANGL2*%
X186800000Y-121687500D03*
%TO.P,L2,2,2*%
%TO.N,/ANGL2_REF5V*%
X186800000Y-120112500D03*
%TD*%
D23*
%TO.P,C10,1*%
%TO.N,Net-(C10-Pad1)*%
X171400000Y-93064000D03*
%TO.P,C10,2*%
%TO.N,GND*%
X172950000Y-93064000D03*
%TD*%
D19*
%TO.P,R14,1*%
%TO.N,Net-(LED4-Pad2)*%
X116084700Y-104895000D03*
%TO.P,R14,2*%
%TO.N,/EN_RELAY_DN*%
X117734700Y-104895000D03*
%TD*%
D20*
%TO.P,R24,1*%
%TO.N,Net-(A1-Pad10)*%
X168513000Y-123131000D03*
%TO.P,R24,2*%
%TO.N,/EN_MANUAL*%
X166863000Y-123131000D03*
%TD*%
D23*
%TO.P,C9,1*%
%TO.N,Net-(C10-Pad1)*%
X171400000Y-91442000D03*
%TO.P,C9,2*%
%TO.N,GND*%
X172950000Y-91442000D03*
%TD*%
D17*
%TO.P,R19,1*%
%TO.N,/BTN_UP*%
X173200000Y-84775000D03*
%TO.P,R19,2*%
%TO.N,Net-(R19-Pad2)*%
X173200000Y-86425000D03*
%TD*%
D24*
%TO.P,U11,1*%
%TO.N,Net-(U11-Pad1)*%
X121627500Y-94475000D03*
%TO.P,U11,2*%
%TO.N,Net-(U11-Pad2)*%
X121627500Y-93525000D03*
%TO.P,U11,3,GND*%
%TO.N,GND*%
X121627500Y-92575000D03*
%TO.P,U11,4*%
%TO.N,/EN_RELAY_UP*%
X119352500Y-92575000D03*
%TO.P,U11,5,VCC*%
%TO.N,+3V3*%
X119352500Y-94475000D03*
%TD*%
D25*
%TO.P,C8,1*%
%TO.N,+5V*%
X158310800Y-107718800D03*
%TO.P,C8,2*%
%TO.N,GND*%
X156760800Y-107718800D03*
%TD*%
D24*
%TO.P,U10,1*%
%TO.N,Net-(U10-Pad1)*%
X121627500Y-97975000D03*
%TO.P,U10,2*%
%TO.N,Net-(U10-Pad2)*%
X121627500Y-97025000D03*
%TO.P,U10,3,GND*%
%TO.N,GND*%
X121627500Y-96075000D03*
%TO.P,U10,4*%
%TO.N,/EN_RELAY_DN*%
X119352500Y-96075000D03*
%TO.P,U10,5,VCC*%
%TO.N,+3V3*%
X119352500Y-97975000D03*
%TD*%
D17*
%TO.P,R7,1*%
%TO.N,GND*%
X175100000Y-116800000D03*
%TO.P,R7,2*%
%TO.N,/ANGL1_REF5V*%
X175100000Y-118450000D03*
%TD*%
D26*
%TO.P,C14,1*%
%TO.N,+3V3*%
X152200000Y-109700000D03*
%TO.P,C14,2*%
%TO.N,GND*%
X155150000Y-109700000D03*
%TD*%
D21*
%TO.P,C6,1*%
%TO.N,+12V*%
X155656200Y-115250200D03*
%TO.P,C6,2*%
%TO.N,GND*%
X155656200Y-113700200D03*
%TD*%
D27*
%TO.P,LED3,1,K*%
%TO.N,GND*%
X124872200Y-103395000D03*
%TO.P,LED3,2,A*%
%TO.N,Net-(LED3-Pad2)*%
X126447200Y-103395000D03*
%TD*%
D28*
%TO.P,U1,1,GND*%
%TO.N,GND*%
X156028200Y-112195200D03*
D29*
%TO.P,U1,2,VO*%
%TO.N,+5V*%
X162328200Y-114475200D03*
D28*
%TO.P,U1,3,VI*%
%TO.N,+12V*%
X156028200Y-116755200D03*
%TD*%
D19*
%TO.P,R18,1*%
%TO.N,Net-(C11-Pad1)*%
X178121000Y-93064000D03*
%TO.P,R18,2*%
%TO.N,/~{SW2}*%
X179771000Y-93064000D03*
%TD*%
D21*
%TO.P,C16,1*%
%TO.N,+3V3*%
X129590800Y-84544200D03*
%TO.P,C16,2*%
%TO.N,GND*%
X129590800Y-82994200D03*
%TD*%
D20*
%TO.P,R25,1*%
%TO.N,+12V*%
X169013000Y-130331000D03*
%TO.P,R25,2*%
%TO.N,Net-(J7-Pad4)*%
X167363000Y-130331000D03*
%TD*%
D23*
%TO.P,C13,1*%
%TO.N,/SENS_PWR*%
X179158600Y-130251200D03*
%TO.P,C13,2*%
%TO.N,GND*%
X180708600Y-130251200D03*
%TD*%
D30*
%TO.P,Q5,1,B*%
%TO.N,Net-(Q5-Pad1)*%
X117847200Y-113345000D03*
%TO.P,Q5,2,E*%
%TO.N,Net-(Q3-Pad3)*%
X117847200Y-111445000D03*
%TO.P,Q5,3,C*%
%TO.N,Net-(Q5-Pad3)*%
X115972200Y-112395000D03*
%TD*%
D25*
%TO.P,C12,1*%
%TO.N,Net-(C11-Pad1)*%
X176525000Y-91442000D03*
%TO.P,C12,2*%
%TO.N,GND*%
X174975000Y-91442000D03*
%TD*%
D27*
%TO.P,LED1,1,K*%
%TO.N,GND*%
X121509300Y-128371600D03*
%TO.P,LED1,2,A*%
%TO.N,Net-(LED1-Pad2)*%
X123084300Y-128371600D03*
%TD*%
D23*
%TO.P,C15,1*%
%TO.N,+3V3*%
X153712800Y-107718800D03*
%TO.P,C15,2*%
%TO.N,GND*%
X155262800Y-107718800D03*
%TD*%
D19*
%TO.P,R21,1*%
%TO.N,Net-(R21-Pad1)*%
X152591000Y-130962400D03*
%TO.P,R21,2*%
%TO.N,/SW1EXT*%
X154241000Y-130962400D03*
%TD*%
%TO.P,R9,1*%
%TO.N,Net-(LED1-Pad2)*%
X121471800Y-126796800D03*
%TO.P,R9,2*%
%TO.N,/RELAY_UP+*%
X123121800Y-126796800D03*
%TD*%
D31*
%TO.P,U7,1*%
%TO.N,Net-(R22-Pad1)*%
X137261600Y-127040600D03*
%TO.P,U7,2*%
%TO.N,GND*%
X139801600Y-127040600D03*
%TO.P,U7,3*%
X139801600Y-117510600D03*
%TO.P,U7,4*%
%TO.N,/~{SW2}*%
X137261600Y-117510600D03*
%TD*%
D32*
%TO.P,U5,1,A1*%
%TO.N,/CS*%
X133800000Y-87450000D03*
%TO.P,U5,2,GND*%
%TO.N,GND*%
X133800000Y-86800000D03*
%TO.P,U5,3,A2*%
%TO.N,/MOSI*%
X133800000Y-86150000D03*
%TO.P,U5,4,Y2*%
%TO.N,/SD_DI*%
X131900000Y-86150000D03*
%TO.P,U5,5,VCC*%
%TO.N,+3V3*%
X131900000Y-86800000D03*
%TO.P,U5,6,Y1*%
%TO.N,/SD_CS*%
X131900000Y-87450000D03*
%TD*%
D19*
%TO.P,R15,1*%
%TO.N,/~{SW1}*%
X168215000Y-91442000D03*
%TO.P,R15,2*%
%TO.N,/BTN_PWR*%
X169865000Y-91442000D03*
%TD*%
D20*
%TO.P,R13,1*%
%TO.N,Net-(LED3-Pad2)*%
X126484700Y-104895000D03*
%TO.P,R13,2*%
%TO.N,/EN_RELAY_UP*%
X124834700Y-104895000D03*
%TD*%
D33*
%TO.P,J9,1,DAT2*%
%TO.N,unconnected-(J9-Pad1)*%
X115580000Y-87726200D03*
%TO.P,J9,2,DAT3/CD*%
%TO.N,/SD_CS*%
X115580000Y-86626200D03*
%TO.P,J9,3,CMD*%
%TO.N,/SD_DI*%
X115580000Y-85526200D03*
%TO.P,J9,4,VDD*%
%TO.N,+3V3*%
X115580000Y-84426200D03*
%TO.P,J9,5,CLK*%
%TO.N,/SD_CLK*%
X115580000Y-83326200D03*
%TO.P,J9,6,VSS*%
%TO.N,GND*%
X115580000Y-82226200D03*
%TO.P,J9,7,DAT0*%
%TO.N,/SD_DO*%
X115580000Y-81126200D03*
%TO.P,J9,8,DAT1*%
%TO.N,unconnected-(J9-Pad8)*%
X115580000Y-80026200D03*
D34*
%TO.P,J9,9,DET_B*%
%TO.N,unconnected-(J9-Pad9)*%
X124805000Y-78901200D03*
D35*
%TO.P,J9,10,DET_A*%
%TO.N,unconnected-(J9-Pad10)*%
X126380000Y-90126200D03*
D36*
%TO.P,J9,11,SHIELD*%
%TO.N,GND*%
X115705000Y-90176200D03*
D37*
X123305000Y-78576200D03*
D38*
X115705000Y-78826200D03*
D39*
X123955000Y-90526200D03*
%TD*%
D40*
%TO.P,U8,1,1A*%
%TO.N,Net-(U8-Pad1)*%
X132700000Y-92750000D03*
%TO.P,U8,2,1B*%
%TO.N,/MCU_RELAY_DN*%
X131430000Y-92750000D03*
%TO.P,U8,3,1Y*%
%TO.N,Net-(U10-Pad2)*%
X130160000Y-92750000D03*
%TO.P,U8,4,2A*%
%TO.N,Net-(U8-Pad4)*%
X128890000Y-92750000D03*
%TO.P,U8,5,2B*%
%TO.N,/MCU_RELAY_UP*%
X127620000Y-92750000D03*
%TO.P,U8,6,2Y*%
%TO.N,Net-(U11-Pad2)*%
X126350000Y-92750000D03*
%TO.P,U8,7,GND*%
%TO.N,GND*%
X125080000Y-92750000D03*
%TO.P,U8,8,3Y*%
%TO.N,Net-(U10-Pad1)*%
X125080000Y-97700000D03*
%TO.P,U8,9,3A*%
%TO.N,/BTN_DN*%
X126350000Y-97700000D03*
%TO.P,U8,10,3B*%
%TO.N,/EN_MANUAL*%
X127620000Y-97700000D03*
%TO.P,U8,11,4Y*%
%TO.N,Net-(U11-Pad1)*%
X128890000Y-97700000D03*
%TO.P,U8,12,4A*%
%TO.N,/BTN_UP*%
X130160000Y-97700000D03*
%TO.P,U8,13,4B*%
%TO.N,/EN_MANUAL*%
X131430000Y-97700000D03*
%TO.P,U8,14,VCC*%
%TO.N,+3V3*%
X132700000Y-97700000D03*
%TD*%
D41*
%TO.P,LED4,1,K*%
%TO.N,GND*%
X117697200Y-103395000D03*
%TO.P,LED4,2,A*%
%TO.N,Net-(LED4-Pad2)*%
X116122200Y-103395000D03*
%TD*%
%TO.P,LED2,1,K*%
%TO.N,GND*%
X118664700Y-128371600D03*
%TO.P,LED2,2,A*%
%TO.N,Net-(LED2-Pad2)*%
X117089700Y-128371600D03*
%TD*%
D19*
%TO.P,R22,1*%
%TO.N,Net-(R22-Pad1)*%
X152591000Y-129743200D03*
%TO.P,R22,2*%
%TO.N,/SW2EXT*%
X154241000Y-129743200D03*
%TD*%
D24*
%TO.P,U3,1,IN*%
%TO.N,+5V*%
X157098500Y-106128800D03*
%TO.P,U3,2,GND*%
%TO.N,GND*%
X157098500Y-105178800D03*
%TO.P,U3,3,EN*%
%TO.N,+5V*%
X157098500Y-104228800D03*
%TO.P,U3,4,NC*%
%TO.N,GND*%
X154823500Y-104228800D03*
%TO.P,U3,5,OUT*%
%TO.N,+3V3*%
X154823500Y-106128800D03*
%TD*%
D10*
%TO.P,J6,1,Pin_1*%
%TO.N,GND*%
X134498800Y-134655400D03*
D11*
%TO.P,J6,2,Pin_2*%
%TO.N,/SRCK*%
X137998800Y-134655400D03*
%TO.P,J6,3,Pin_3*%
%TO.N,/RCK*%
X141498800Y-134655400D03*
%TO.P,J6,4,Pin_4*%
%TO.N,/G*%
X144998800Y-134655400D03*
%TO.P,J6,5,Pin_5*%
%TO.N,/SER_IN*%
X148498800Y-134655400D03*
%TO.P,J6,6,Pin_6*%
%TO.N,/UI_PWR*%
X151998800Y-134655400D03*
%TD*%
D18*
%TO.P,D3,1,K*%
%TO.N,Net-(C10-Pad1)*%
X171400000Y-95064000D03*
%TO.P,D3,2,A*%
%TO.N,/~{SW1}*%
X167900000Y-95064000D03*
%TD*%
D20*
%TO.P,R23,1*%
%TO.N,GND*%
X136915000Y-99475000D03*
%TO.P,R23,2*%
%TO.N,/EN_MANUAL*%
X135265000Y-99475000D03*
%TD*%
D10*
%TO.P,J7,1,Pin_1*%
%TO.N,GND*%
X156113600Y-134655400D03*
D11*
%TO.P,J7,2,Pin_2*%
%TO.N,/SW1EXT*%
X159613600Y-134655400D03*
%TO.P,J7,3,Pin_3*%
%TO.N,/SW2EXT*%
X163113600Y-134655400D03*
%TO.P,J7,4,Pin_4*%
%TO.N,Net-(J7-Pad4)*%
X166613600Y-134655400D03*
%TD*%
D27*
%TO.P,L3,1,1*%
%TO.N,+5V*%
X173431100Y-114122200D03*
%TO.P,L3,2,2*%
%TO.N,/SENS_PWR*%
X175006100Y-114122200D03*
%TD*%
D17*
%TO.P,R8,1*%
%TO.N,GND*%
X186791600Y-116827800D03*
%TO.P,R8,2*%
%TO.N,/ANGL2_REF5V*%
X186791600Y-118477800D03*
%TD*%
D18*
%TO.P,D4,1,K*%
%TO.N,Net-(C11-Pad1)*%
X176500000Y-95064000D03*
%TO.P,D4,2,A*%
%TO.N,/~{SW2}*%
X180000000Y-95064000D03*
%TD*%
D20*
%TO.P,R10,1*%
%TO.N,Net-(LED2-Pad2)*%
X118702200Y-126796800D03*
%TO.P,R10,2*%
%TO.N,/RELAY_DN+*%
X117052200Y-126796800D03*
%TD*%
D30*
%TO.P,Q6,1,B*%
%TO.N,Net-(Q6-Pad1)*%
X126597200Y-113345000D03*
%TO.P,Q6,2,E*%
%TO.N,Net-(Q1-Pad3)*%
X126597200Y-111445000D03*
%TO.P,Q6,3,C*%
%TO.N,Net-(Q6-Pad3)*%
X124722200Y-112395000D03*
%TD*%
D25*
%TO.P,C11,1*%
%TO.N,Net-(C11-Pad1)*%
X176500000Y-93064000D03*
%TO.P,C11,2*%
%TO.N,GND*%
X174950000Y-93064000D03*
%TD*%
D42*
%TO.P,C7,1*%
%TO.N,+5V*%
X159823600Y-109700000D03*
%TO.P,C7,2*%
%TO.N,GND*%
X156873600Y-109700000D03*
%TD*%
D17*
%TO.P,R20,1*%
%TO.N,/BTN_DN*%
X174700000Y-84775000D03*
%TO.P,R20,2*%
%TO.N,Net-(R20-Pad2)*%
X174700000Y-86425000D03*
%TD*%
D20*
%TO.P,R16,1*%
%TO.N,Net-(C10-Pad1)*%
X169865000Y-93064000D03*
%TO.P,R16,2*%
%TO.N,/~{SW1}*%
X168215000Y-93064000D03*
%TD*%
%TO.P,R17,1*%
%TO.N,/~{SW2}*%
X179771000Y-91442000D03*
%TO.P,R17,2*%
%TO.N,/BTN_PWR*%
X178121000Y-91442000D03*
%TD*%
D43*
%TO.P,C5,1*%
%TO.N,+12V*%
X153421000Y-115950200D03*
%TO.P,C5,2*%
%TO.N,GND*%
X153421000Y-113000200D03*
%TD*%
D17*
%TO.P,R11,1*%
%TO.N,Net-(Q5-Pad1)*%
X117762500Y-114849600D03*
%TO.P,R11,2*%
%TO.N,/EN_OUTPUT*%
X117762500Y-116499600D03*
%TD*%
D31*
%TO.P,U4,1*%
%TO.N,Net-(R21-Pad1)*%
X131572000Y-127040600D03*
%TO.P,U4,2*%
%TO.N,GND*%
X134112000Y-127040600D03*
%TO.P,U4,3*%
X134112000Y-117510600D03*
%TO.P,U4,4*%
%TO.N,/~{SW1}*%
X131572000Y-117510600D03*
%TD*%
D44*
%TO.P,U9,1,A1*%
%TO.N,/EN_MANUAL*%
X135440000Y-98025000D03*
%TO.P,U9,2,GND*%
%TO.N,GND*%
X136090000Y-98025000D03*
%TO.P,U9,3,A2*%
%TO.N,/EN_MANUAL*%
X136740000Y-98025000D03*
%TO.P,U9,4,Y2*%
%TO.N,Net-(U8-Pad4)*%
X136740000Y-96125000D03*
%TO.P,U9,5,VCC*%
%TO.N,+3V3*%
X136090000Y-96125000D03*
%TO.P,U9,6,Y1*%
%TO.N,Net-(U8-Pad1)*%
X135440000Y-96125000D03*
%TD*%
D32*
%TO.P,U6,1,A1*%
%TO.N,/SCK*%
X133800000Y-84550000D03*
%TO.P,U6,2,GND*%
%TO.N,GND*%
X133800000Y-83900000D03*
%TO.P,U6,3,A2*%
%TO.N,/SD_DO*%
X133800000Y-83250000D03*
%TO.P,U6,4,Y2*%
%TO.N,/MISO*%
X131900000Y-83250000D03*
%TO.P,U6,5,VCC*%
%TO.N,+3V3*%
X131900000Y-83900000D03*
%TO.P,U6,6,Y1*%
%TO.N,/SD_CLK*%
X131900000Y-84550000D03*
%TD*%
D17*
%TO.P,R12,1*%
%TO.N,Net-(Q6-Pad1)*%
X126525500Y-114849600D03*
%TO.P,R12,2*%
%TO.N,/EN_OUTPUT*%
X126525500Y-116499600D03*
%TD*%
D44*
%TO.P,U2,1,A1*%
%TO.N,Net-(C10-Pad1)*%
X173300000Y-89918000D03*
%TO.P,U2,2,GND*%
%TO.N,GND*%
X173950000Y-89918000D03*
%TO.P,U2,3,A2*%
%TO.N,Net-(C11-Pad1)*%
X174600000Y-89918000D03*
%TO.P,U2,4,Y2*%
%TO.N,Net-(R20-Pad2)*%
X174600000Y-88018000D03*
%TO.P,U2,5,VCC*%
%TO.N,/BTN_PWR*%
X173950000Y-88018000D03*
%TO.P,U2,6,Y1*%
%TO.N,Net-(R19-Pad2)*%
X173300000Y-88018000D03*
%TD*%
D45*
%TO.P,TP4,1,1*%
%TO.N,/EN_MANUAL*%
X135238000Y-101181000D03*
%TD*%
%TO.P,TP1,1,1*%
%TO.N,+12V*%
X154863800Y-120675400D03*
%TD*%
D46*
%TO.P,J10,1,Pin_1*%
%TO.N,Net-(A1-Pad32)*%
X140843000Y-82372200D03*
D47*
%TO.P,J10,2,Pin_2*%
%TO.N,Net-(A1-Pad31)*%
X143383000Y-82372200D03*
%TO.P,J10,3,Pin_3*%
%TO.N,/AREF*%
X145923000Y-82372200D03*
%TO.P,J10,4,Pin_4*%
%TO.N,GND*%
X148463000Y-82372200D03*
%TO.P,J10,5,Pin_5*%
%TO.N,/SCK*%
X151003000Y-82372200D03*
%TO.P,J10,6,Pin_6*%
%TO.N,/MISO*%
X153543000Y-82372200D03*
%TO.P,J10,7,Pin_7*%
%TO.N,/MOSI*%
X156083000Y-82372200D03*
%TO.P,J10,8,Pin_8*%
%TO.N,/CS*%
X158623000Y-82372200D03*
%TO.P,J10,9,Pin_9*%
%TO.N,/SRCK*%
X161163000Y-82372200D03*
%TO.P,J10,10,Pin_10*%
%TO.N,/RCK*%
X163703000Y-82372200D03*
%TD*%
D46*
%TO.P,A1,1,NC*%
%TO.N,unconnected-(A1-Pad1)*%
X149987000Y-127635000D03*
D48*
%TO.P,A1,2,IOREF*%
%TO.N,unconnected-(A1-Pad2)*%
X152527000Y-127635000D03*
%TO.P,A1,3,~{RESET}*%
%TO.N,unconnected-(A1-Pad3)*%
X155067000Y-127635000D03*
%TO.P,A1,4,3V3*%
%TO.N,unconnected-(A1-Pad4)*%
X157607000Y-127635000D03*
%TO.P,A1,5,+5V*%
%TO.N,unconnected-(A1-Pad5)*%
X160147000Y-127635000D03*
%TO.P,A1,6,GND*%
%TO.N,GND*%
X162687000Y-127635000D03*
%TO.P,A1,7,GND*%
X165227000Y-127635000D03*
%TO.P,A1,8,VIN*%
%TO.N,+12V*%
X167767000Y-127635000D03*
%TO.P,A1,9,A0*%
%TO.N,Net-(A1-Pad9)*%
X172847000Y-127635000D03*
%TO.P,A1,10,A1*%
%TO.N,Net-(A1-Pad10)*%
X175387000Y-127635000D03*
%TO.P,A1,11,A2*%
%TO.N,/ANGL1_REF5V*%
X177927000Y-127635000D03*
%TO.P,A1,12,A3*%
%TO.N,/ANGL2_REF5V*%
X180467000Y-127635000D03*
%TO.P,A1,13,SDA/A4*%
%TO.N,Net-(A1-Pad13)*%
X183007000Y-127635000D03*
%TO.P,A1,14,SCL/A5*%
%TO.N,Net-(A1-Pad14)*%
X185547000Y-127635000D03*
%TO.P,A1,15,D0/RX*%
%TO.N,Net-(A1-Pad15)*%
X185547000Y-79375000D03*
%TO.P,A1,16,D1/TX*%
%TO.N,Net-(A1-Pad16)*%
X183007000Y-79375000D03*
%TO.P,A1,17,D2*%
%TO.N,/MCU_RELAY_DN*%
X180467000Y-79375000D03*
%TO.P,A1,18,D3*%
%TO.N,/MCU_RELAY_UP*%
X177927000Y-79375000D03*
%TO.P,A1,19,D4*%
%TO.N,/BTN_DN*%
X175387000Y-79375000D03*
%TO.P,A1,20,D5*%
%TO.N,/BTN_UP*%
X172847000Y-79375000D03*
%TO.P,A1,21,D6*%
%TO.N,/SER_IN*%
X170307000Y-79375000D03*
%TO.P,A1,22,D7*%
%TO.N,/G*%
X167767000Y-79375000D03*
%TO.P,A1,23,D8*%
%TO.N,/RCK*%
X163707000Y-79375000D03*
%TO.P,A1,24,D9*%
%TO.N,/SRCK*%
X161167000Y-79375000D03*
%TO.P,A1,25,D10*%
%TO.N,/CS*%
X158627000Y-79375000D03*
%TO.P,A1,26,D11*%
%TO.N,/MOSI*%
X156087000Y-79375000D03*
%TO.P,A1,27,D12*%
%TO.N,/MISO*%
X153547000Y-79375000D03*
%TO.P,A1,28,D13*%
%TO.N,/SCK*%
X151007000Y-79375000D03*
%TO.P,A1,29,GND*%
%TO.N,GND*%
X148467000Y-79375000D03*
%TO.P,A1,30,AREF*%
%TO.N,/AREF*%
X145927000Y-79375000D03*
%TO.P,A1,31,SDA/A4*%
%TO.N,Net-(A1-Pad31)*%
X143387000Y-79375000D03*
%TO.P,A1,32,SCL/A5*%
%TO.N,Net-(A1-Pad32)*%
X140847000Y-79375000D03*
%TD*%
D45*
%TO.P,TP2,1,1*%
%TO.N,+5V*%
X165404800Y-110032800D03*
%TD*%
D12*
%TO.P,SW1,1,A*%
%TO.N,/EN_MANUAL*%
X121325000Y-105525000D03*
D13*
%TO.P,SW1,2,B*%
%TO.N,+3V3*%
X121325000Y-108065000D03*
%TD*%
D12*
%TO.P,J8,1,Pin_1*%
%TO.N,/ANGL1_REF5V*%
X177546000Y-118857000D03*
D13*
%TO.P,J8,2,Pin_2*%
%TO.N,/SENS_PWR*%
X177546000Y-116317000D03*
%TO.P,J8,3,Pin_3*%
%TO.N,/ANGL2_REF5V*%
X177546000Y-113777000D03*
%TO.P,J8,4,Pin_4*%
%TO.N,GND*%
X177546000Y-111237000D03*
%TD*%
D12*
%TO.P,JP1,1,A*%
%TO.N,+3V3*%
X121318500Y-113129600D03*
D13*
%TO.P,JP1,2,B*%
%TO.N,/EN_OUTPUT*%
X121318500Y-115669600D03*
%TD*%
D46*
%TO.P,J12,1,Pin_1*%
%TO.N,Net-(A1-Pad14)*%
X185521600Y-123926600D03*
D47*
%TO.P,J12,2,Pin_2*%
%TO.N,Net-(A1-Pad13)*%
X182981600Y-123926600D03*
%TO.P,J12,3,Pin_3*%
%TO.N,/ANGL2_REF5V*%
X180441600Y-123926600D03*
%TO.P,J12,4,Pin_4*%
%TO.N,/ANGL1_REF5V*%
X177901600Y-123926600D03*
%TO.P,J12,5,Pin_5*%
%TO.N,Net-(A1-Pad10)*%
X175361600Y-123926600D03*
%TO.P,J12,6,Pin_6*%
%TO.N,Net-(A1-Pad9)*%
X172821600Y-123926600D03*
%TD*%
D45*
%TO.P,TP3,1,1*%
%TO.N,+3V3*%
X150342600Y-109702600D03*
%TD*%
D46*
%TO.P,J11,1,Pin_1*%
%TO.N,Net-(A1-Pad15)*%
X185552400Y-82372200D03*
D47*
%TO.P,J11,2,Pin_2*%
%TO.N,Net-(A1-Pad16)*%
X183012400Y-82372200D03*
%TO.P,J11,3,Pin_3*%
%TO.N,/MCU_RELAY_DN*%
X180472400Y-82372200D03*
%TO.P,J11,4,Pin_4*%
%TO.N,/MCU_RELAY_UP*%
X177932400Y-82372200D03*
%TO.P,J11,5,Pin_5*%
%TO.N,/BTN_DN*%
X175392400Y-82372200D03*
%TO.P,J11,6,Pin_6*%
%TO.N,/BTN_UP*%
X172852400Y-82372200D03*
%TO.P,J11,7,Pin_7*%
%TO.N,/SER_IN*%
X170312400Y-82372200D03*
%TO.P,J11,8,Pin_8*%
%TO.N,/G*%
X167772400Y-82372200D03*
%TD*%
D49*
%TO.N,GND*%
X184150000Y-116840000D03*
X122690000Y-92625000D03*
X141122400Y-127812800D03*
X149860000Y-101600000D03*
X120112400Y-124866400D03*
X125159700Y-102395000D03*
X149860000Y-118110000D03*
X149860000Y-120650000D03*
X154940000Y-101600000D03*
X149860000Y-115570000D03*
X124159700Y-110645000D03*
X120620400Y-128371600D03*
X117200000Y-82200000D03*
X122690000Y-96025000D03*
X181406800Y-129590800D03*
X154691000Y-113713200D03*
X117659700Y-102395000D03*
X151130000Y-100330000D03*
X134823200Y-128473200D03*
X153670000Y-100330000D03*
X134900000Y-86800000D03*
X156011800Y-110970000D03*
X148590000Y-121920000D03*
X119553600Y-128371600D03*
X156011800Y-108531600D03*
X172466000Y-116840000D03*
X148590000Y-102870000D03*
X149860000Y-104140000D03*
X128727200Y-83007200D03*
X122580400Y-90525600D03*
X115671600Y-91490800D03*
X154843400Y-103096000D03*
X151130000Y-114300000D03*
X161772600Y-103809800D03*
X151130000Y-121920000D03*
X151500000Y-113000000D03*
X185928000Y-116840000D03*
X174244000Y-116840000D03*
X134900000Y-83900000D03*
X154386200Y-111884400D03*
X147320000Y-104140000D03*
X152400000Y-104213600D03*
X147320000Y-101600000D03*
X117200000Y-78800000D03*
X141122400Y-126847600D03*
X148590000Y-116840000D03*
X124390000Y-92625000D03*
X151130000Y-119380000D03*
X139090400Y-116078000D03*
X133400800Y-116078000D03*
X151130000Y-102870000D03*
X115409700Y-110645000D03*
X133400800Y-128473200D03*
X157276800Y-113690400D03*
X148590000Y-119380000D03*
X156011800Y-107007600D03*
X140512800Y-116078000D03*
X155961000Y-105178800D03*
X163245800Y-102336600D03*
X158399400Y-105178800D03*
X160401000Y-102362000D03*
X158800000Y-103700000D03*
X121869200Y-78603280D03*
X163245800Y-105181400D03*
X153670000Y-102870000D03*
X134823200Y-116078000D03*
X160426400Y-105181400D03*
X149860000Y-113030000D03*
X151130000Y-116840000D03*
X136440000Y-99075000D03*
X148590000Y-100330000D03*
X148590000Y-114300000D03*
X152400000Y-101600000D03*
X173971000Y-93064000D03*
X173971000Y-91464000D03*
D50*
%TO.N,+12V*%
X147878800Y-124500000D03*
X142388000Y-124481000D03*
D49*
%TO.N,Net-(Q2-Pad1)*%
X124862200Y-117475000D03*
X125090800Y-121818400D03*
%TO.N,Net-(Q4-Pad1)*%
X118232800Y-121818400D03*
X116099200Y-117475000D03*
%TO.N,+5V*%
X164900000Y-98904400D03*
%TO.N,/BTN_DN*%
X146839058Y-95962345D03*
X130979809Y-94581500D03*
X126338000Y-96281000D03*
X142788054Y-95950497D03*
%TO.N,/BTN_UP*%
X142238534Y-95054142D03*
X130238000Y-96281000D03*
X147700000Y-95150020D03*
X131830253Y-95381000D03*
%TO.N,Net-(A1-Pad10)*%
X169288000Y-123131000D03*
%TO.N,/~{SW1}*%
X142788054Y-97000000D03*
X146685134Y-97000497D03*
%TO.N,/~{SW2}*%
X146685134Y-98050000D03*
X142788054Y-98050000D03*
%TO.N,/UI_PWR*%
X146800000Y-113700000D03*
%TO.N,/BTN_PWR*%
X164896800Y-95656400D03*
%TO.N,+3V3*%
X123800000Y-86100000D03*
X127572396Y-100424500D03*
X132900000Y-88500000D03*
X128117600Y-112420400D03*
X118300000Y-94500000D03*
X118300000Y-98000000D03*
X147784174Y-111200000D03*
X117195600Y-84429600D03*
X143437574Y-111300000D03*
X133438000Y-100424500D03*
X136090076Y-95331576D03*
X130500000Y-83900000D03*
X133438000Y-97681000D03*
D51*
%TO.N,Net-(R21-Pad1)*%
X143537574Y-128981200D03*
X147234654Y-128821923D03*
%TO.N,Net-(R22-Pad1)*%
X147234654Y-127812800D03*
X143537574Y-127812800D03*
D49*
%TO.N,/MCU_RELAY_DN*%
X146135614Y-90981000D03*
X142732869Y-91179778D03*
%TO.N,/MCU_RELAY_UP*%
X145586094Y-90081000D03*
X142787312Y-90131688D03*
%TO.N,/EN_MANUAL*%
X130988000Y-121099500D03*
X143437574Y-125831000D03*
X147334654Y-125981000D03*
X129799500Y-118181000D03*
X123343782Y-102975218D03*
X156138000Y-125781000D03*
X158738000Y-123131000D03*
%TO.N,Net-(U8-Pad1)*%
X133438000Y-92781000D03*
X134838000Y-96181000D03*
%TO.N,Net-(U10-Pad2)*%
X127924668Y-95690332D03*
X130090000Y-94025000D03*
%TD*%
D52*
%TO.N,GND*%
X119322400Y-124866400D02*
X120112400Y-124866400D01*
X155656200Y-113700200D02*
X157267000Y-113700200D01*
X183291600Y-116877800D02*
X184112200Y-116877800D01*
X185041600Y-116877800D02*
X184187800Y-116877800D01*
X122581000Y-90526200D02*
X122580400Y-90525600D01*
X156011800Y-107718800D02*
X155262800Y-107718800D01*
X154823500Y-104228800D02*
X155011000Y-104228800D01*
X124159700Y-110407500D02*
X124722200Y-109845000D01*
X140573800Y-127812800D02*
X141122400Y-127812800D01*
X117173800Y-82226200D02*
X117200000Y-82200000D01*
X173950000Y-91443000D02*
X173971000Y-91464000D01*
X171600000Y-116850000D02*
X172456000Y-116850000D01*
X115409700Y-110407500D02*
X115409700Y-110645000D01*
X155656200Y-113700200D02*
X155656200Y-112567200D01*
X149860000Y-101600000D02*
X151130000Y-100330000D01*
X134823200Y-116799400D02*
X134823200Y-116078000D01*
X185890200Y-116877800D02*
X185928000Y-116840000D01*
X160426400Y-105181400D02*
X161772600Y-103835200D01*
X133800000Y-83900000D02*
X134900000Y-83900000D01*
X121896280Y-78576200D02*
X121869200Y-78603280D01*
X154386200Y-112035000D02*
X153421000Y-113000200D01*
X151500000Y-113000000D02*
X151500000Y-113930000D01*
X148590000Y-119380000D02*
X149860000Y-120650000D01*
X134823200Y-127751800D02*
X134823200Y-128473200D01*
X124159700Y-110645000D02*
X124159700Y-110407500D01*
X155656200Y-112567200D02*
X156028200Y-112195200D01*
X148590000Y-116840000D02*
X149860000Y-118110000D01*
X115705000Y-91457400D02*
X115671600Y-91490800D01*
X173971000Y-91464000D02*
X173971000Y-93064000D01*
X151500000Y-113930000D02*
X151130000Y-114300000D01*
X152400000Y-104213600D02*
X153029800Y-104228800D01*
X155986480Y-105661320D02*
X156469000Y-105178800D01*
X140512800Y-116799400D02*
X140512800Y-116078000D01*
X173340000Y-116840000D02*
X173350000Y-116850000D01*
X148590000Y-114300000D02*
X149860000Y-115570000D01*
X136090000Y-98025000D02*
X136090000Y-98725000D01*
X134112000Y-117510600D02*
X133400800Y-116799400D01*
X185940200Y-116827800D02*
X185928000Y-116840000D01*
X117697200Y-103395000D02*
X117697200Y-102432500D01*
X156011800Y-107007600D02*
X155986480Y-106982280D01*
X139801600Y-117510600D02*
X139090400Y-116799400D01*
X155986480Y-106982280D02*
X155986480Y-105661320D01*
X124955000Y-92625000D02*
X124390000Y-92625000D01*
X155150000Y-109700000D02*
X156873600Y-109700000D01*
X163245800Y-102336600D02*
X163245800Y-105181400D01*
X156028200Y-112195200D02*
X154697000Y-112195200D01*
X121627500Y-92575000D02*
X122640000Y-92575000D01*
X148467000Y-82368200D02*
X148463000Y-82372200D01*
X160401000Y-102362000D02*
X163245800Y-102336600D01*
X180708600Y-130251200D02*
X181369000Y-129590800D01*
X156469000Y-105178800D02*
X157098500Y-105178800D01*
X172456000Y-116850000D02*
X172466000Y-116840000D01*
X154697000Y-112195200D02*
X154386200Y-111884400D01*
X153421000Y-113000200D02*
X153978000Y-113000200D01*
X174284000Y-116800000D02*
X174244000Y-116840000D01*
X149860000Y-104140000D02*
X151130000Y-102870000D01*
X124872200Y-103395000D02*
X124872200Y-102682500D01*
X117697200Y-102432500D02*
X117659700Y-102395000D01*
X185041600Y-116877800D02*
X185890200Y-116877800D01*
X151130000Y-116840000D02*
X151130000Y-114300000D01*
X151130000Y-102870000D02*
X153670000Y-102870000D01*
X128740200Y-82994200D02*
X128727200Y-83007200D01*
X118664700Y-128371600D02*
X119553600Y-128371600D01*
X157098500Y-105178800D02*
X158399400Y-105178800D01*
X158399400Y-104100600D02*
X158800000Y-103700000D01*
X174244000Y-116840000D02*
X173360000Y-116840000D01*
X148467000Y-79375000D02*
X148467000Y-82368200D01*
X139090400Y-116799400D02*
X139090400Y-116078000D01*
X134112000Y-127040600D02*
X134823200Y-127751800D01*
X186791600Y-116827800D02*
X185940200Y-116827800D01*
X122640000Y-96075000D02*
X122690000Y-96025000D01*
X161772600Y-103835200D02*
X161772600Y-103809800D01*
X153421000Y-113000200D02*
X151500200Y-113000200D01*
X125080000Y-92750000D02*
X124955000Y-92625000D01*
X172950000Y-93064000D02*
X174950000Y-93064000D01*
X173360000Y-116840000D02*
X173350000Y-116850000D01*
X123955000Y-90526200D02*
X122581000Y-90526200D01*
X154823500Y-104228800D02*
X154823500Y-103115900D01*
X115705000Y-78826200D02*
X117173800Y-78826200D01*
X129590800Y-82994200D02*
X128740200Y-82994200D01*
X172466000Y-116840000D02*
X173340000Y-116840000D01*
X133400800Y-127751800D02*
X133400800Y-128473200D01*
X122640000Y-92575000D02*
X122690000Y-92625000D01*
X157267000Y-113700200D02*
X157276800Y-113690400D01*
X121509300Y-128371600D02*
X120620400Y-128371600D01*
X148590000Y-114300000D02*
X149860000Y-113030000D01*
X156028200Y-112195200D02*
X156028200Y-110986400D01*
X155011000Y-104228800D02*
X155961000Y-105178800D01*
X134112000Y-117510600D02*
X134823200Y-116799400D01*
X157098500Y-105178800D02*
X155961000Y-105178800D01*
X123305000Y-78576200D02*
X121896280Y-78576200D01*
X136840000Y-99475000D02*
X136915000Y-99475000D01*
X115705000Y-90176200D02*
X115705000Y-91457400D01*
X124872200Y-102682500D02*
X125159700Y-102395000D01*
X154823500Y-103115900D02*
X154843400Y-103096000D01*
X152400000Y-101600000D02*
X153670000Y-100330000D01*
X120112400Y-124866400D02*
X120902400Y-124866400D01*
X139994600Y-126847600D02*
X141122400Y-126847600D01*
X155656200Y-113700200D02*
X154704000Y-113700200D01*
X173950000Y-89918000D02*
X173950000Y-91443000D01*
X156011800Y-108531600D02*
X156011800Y-110970000D01*
X184187800Y-116877800D02*
X184150000Y-116840000D01*
X117173800Y-78826200D02*
X117200000Y-78800000D01*
X175100000Y-116800000D02*
X174284000Y-116800000D01*
X139801600Y-127040600D02*
X139994600Y-126847600D01*
X156028200Y-110986400D02*
X156011800Y-110970000D01*
X148590000Y-102870000D02*
X149860000Y-104140000D01*
X115972200Y-109845000D02*
X115409700Y-110407500D01*
X136090000Y-98725000D02*
X136440000Y-99075000D01*
X133800000Y-86800000D02*
X134900000Y-86800000D01*
X148590000Y-121920000D02*
X151130000Y-121920000D01*
X153978000Y-113000200D02*
X154691000Y-113713200D01*
X136440000Y-99075000D02*
X136840000Y-99475000D01*
X139801600Y-127040600D02*
X140573800Y-127812800D01*
X156011800Y-107718800D02*
X156011800Y-107007600D01*
X153029800Y-104228800D02*
X154823500Y-104228800D01*
X172950000Y-91442000D02*
X174975000Y-91442000D01*
X156760800Y-107718800D02*
X156011800Y-107718800D01*
X134112000Y-127040600D02*
X133400800Y-127751800D01*
X121627500Y-96075000D02*
X122640000Y-96075000D01*
X184112200Y-116877800D02*
X184150000Y-116840000D01*
X154704000Y-113700200D02*
X154691000Y-113713200D01*
X147320000Y-101600000D02*
X148590000Y-100330000D01*
X158399400Y-105178800D02*
X158399400Y-104100600D01*
X154386200Y-111884400D02*
X154386200Y-112035000D01*
X181369000Y-129590800D02*
X181406800Y-129590800D01*
X115580000Y-82226200D02*
X117173800Y-82226200D01*
X133400800Y-116799400D02*
X133400800Y-116078000D01*
X156011800Y-108531600D02*
X156011800Y-107718800D01*
X151500200Y-113000200D02*
X151500000Y-113000000D01*
X139801600Y-117510600D02*
X140512800Y-116799400D01*
D53*
%TO.N,/RELAY_UP+*%
X124323600Y-126796800D02*
X124402400Y-126875600D01*
X124402400Y-127663800D02*
X124404000Y-127665400D01*
X124404000Y-127665400D02*
X124404000Y-131272400D01*
X122830800Y-132845600D02*
X122830800Y-134655400D01*
X124402400Y-126875600D02*
X124402400Y-127663800D01*
X124402400Y-124866400D02*
X124402400Y-123517600D01*
X123121800Y-126796800D02*
X124323600Y-126796800D01*
X124402400Y-126875600D02*
X124402400Y-124866400D01*
X124404000Y-131272400D02*
X122830800Y-132845600D01*
X124402400Y-123517600D02*
X123516000Y-122631200D01*
%TO.N,/RELAY_DN+*%
X115824000Y-130365400D02*
X115830800Y-130372200D01*
X115896000Y-126796800D02*
X115822400Y-126870400D01*
X115830800Y-130372200D02*
X115830800Y-134655400D01*
X115824000Y-127545400D02*
X115822400Y-127543800D01*
X115822400Y-127543800D02*
X115822400Y-126870400D01*
X115822400Y-126870400D02*
X115822400Y-124866400D01*
X117052200Y-126796800D02*
X115896000Y-126796800D01*
X115822400Y-123466800D02*
X116658000Y-122631200D01*
X115824000Y-130365400D02*
X115824000Y-127545400D01*
X115822400Y-124866400D02*
X115822400Y-123466800D01*
%TO.N,+12V*%
X153000000Y-124500000D02*
X154138000Y-124500000D01*
X169013000Y-130331000D02*
X169013000Y-129456000D01*
X154956200Y-115950200D02*
X155656200Y-115250200D01*
X119198000Y-120434600D02*
X119198000Y-119024400D01*
X126665600Y-119888000D02*
X127741518Y-120963918D01*
X115708000Y-119720400D02*
X116505600Y-118922800D01*
X153421000Y-115950200D02*
X154956200Y-115950200D01*
X157995300Y-124518100D02*
X157574300Y-124097100D01*
X122652400Y-118922800D02*
X125700400Y-118922800D01*
X154138000Y-124500000D02*
X166000000Y-124500000D01*
X153421000Y-115950200D02*
X153421000Y-124079000D01*
X127741518Y-124499118D02*
X126908800Y-125331836D01*
X154138000Y-124500000D02*
X153842000Y-124500000D01*
X126119000Y-120434600D02*
X126665600Y-119888000D01*
X132650482Y-124499118D02*
X132687800Y-124461800D01*
X166000000Y-124500000D02*
X167767000Y-126267000D01*
X132650482Y-124499118D02*
X127741518Y-124499118D01*
X155656200Y-116383200D02*
X156028200Y-116755200D01*
X167767000Y-126267000D02*
X167767000Y-127635000D01*
X119096400Y-118922800D02*
X122652400Y-118922800D01*
X127741518Y-120963918D02*
X127741518Y-124499118D01*
X122566000Y-120756200D02*
X122566000Y-119009200D01*
X122566000Y-119009200D02*
X122652400Y-118922800D01*
X126908800Y-125331836D02*
X126908800Y-134655400D01*
X147878800Y-124500000D02*
X153000000Y-124500000D01*
X126056000Y-120434600D02*
X126119000Y-120434600D01*
X119198000Y-119024400D02*
X119096400Y-118922800D01*
X155656200Y-115250200D02*
X155656200Y-116383200D01*
X116505600Y-118922800D02*
X119096400Y-118922800D01*
X169013000Y-129456000D02*
X167767000Y-128210000D01*
X115708000Y-120756200D02*
X115708000Y-119720400D01*
X125700400Y-118922800D02*
X126665600Y-119888000D01*
X153842000Y-124500000D02*
X153421000Y-124079000D01*
X153421000Y-124079000D02*
X153000000Y-124500000D01*
X167767000Y-128210000D02*
X167767000Y-127635000D01*
X142388000Y-124481000D02*
X132650482Y-124499118D01*
D54*
%TO.N,/EN_RELAY_UP*%
X120500000Y-98300000D02*
X122540000Y-100340000D01*
X124834700Y-104895000D02*
X124834700Y-106395000D01*
X119352500Y-92575000D02*
X120075000Y-92575000D01*
X122540000Y-100700000D02*
X122540000Y-103302100D01*
X120500000Y-93000000D02*
X120500000Y-98300000D01*
X122540000Y-100340000D02*
X122540000Y-100700000D01*
X124834700Y-104895000D02*
X124132900Y-104895000D01*
X122540000Y-103302100D02*
X124132900Y-104895000D01*
X120075000Y-92575000D02*
X120500000Y-93000000D01*
%TO.N,/EN_RELAY_DN*%
X120000000Y-103409100D02*
X118514100Y-104895000D01*
X119352500Y-96075000D02*
X118340000Y-96075000D01*
X117734700Y-104895000D02*
X117734700Y-106395000D01*
X117500489Y-96914511D02*
X117500489Y-99500489D01*
X118340000Y-96075000D02*
X117500489Y-96914511D01*
X118700000Y-100700000D02*
X120000000Y-100700000D01*
X117734700Y-104895000D02*
X118514100Y-104895000D01*
X117500489Y-99500489D02*
X118700000Y-100700000D01*
X120000000Y-100700000D02*
X120000000Y-103409100D01*
%TO.N,Net-(Q1-Pad3)*%
X126597200Y-108895000D02*
X126597200Y-111445000D01*
%TO.N,Net-(Q1-Pad1)*%
X126484700Y-107070000D02*
X125609700Y-107945000D01*
X125609700Y-107945000D02*
X124722200Y-107945000D01*
X126484700Y-106395000D02*
X126484700Y-107070000D01*
%TO.N,Net-(Q2-Pad1)*%
X124874500Y-117462700D02*
X124862200Y-117475000D01*
X126056000Y-122084600D02*
X125357000Y-122084600D01*
X125357000Y-122084600D02*
X125090800Y-121818400D01*
X124466000Y-120756200D02*
X124466000Y-121193600D01*
X124874500Y-116499600D02*
X124874500Y-117462700D01*
X124466000Y-121193600D02*
X125090800Y-121818400D01*
%TO.N,Net-(Q3-Pad3)*%
X117847200Y-108895000D02*
X117847200Y-111445000D01*
%TO.N,Net-(Q3-Pad1)*%
X116084700Y-106395000D02*
X116084700Y-107832500D01*
X116084700Y-107832500D02*
X115972200Y-107945000D01*
%TO.N,Net-(Q4-Pad1)*%
X116111500Y-117462700D02*
X116099200Y-117475000D01*
X117608000Y-121193600D02*
X118232800Y-121818400D01*
X116111500Y-116499600D02*
X116111500Y-117462700D01*
X119198000Y-122084600D02*
X118499000Y-122084600D01*
X118499000Y-122084600D02*
X118232800Y-121818400D01*
X117608000Y-120756200D02*
X117608000Y-121193600D01*
%TO.N,Net-(A1-Pad15)*%
X185547000Y-82366800D02*
X185552400Y-82372200D01*
X185547000Y-79375000D02*
X185547000Y-82366800D01*
%TO.N,Net-(A1-Pad16)*%
X183007000Y-79375000D02*
X183007000Y-82366800D01*
X183007000Y-82366800D02*
X183012400Y-82372200D01*
%TO.N,/ANGL1*%
X171550489Y-121737011D02*
X171550489Y-131937689D01*
X171600000Y-121687500D02*
X171550489Y-121737011D01*
X171550489Y-131937689D02*
X174244000Y-134631200D01*
D52*
%TO.N,+5V*%
X159823600Y-109231600D02*
X158310800Y-107718800D01*
X164868200Y-102104800D02*
X163931600Y-101168200D01*
X157690800Y-106128800D02*
X158191200Y-106629200D01*
X164900000Y-102104800D02*
X164900000Y-98904400D01*
X173431100Y-114122200D02*
X172077800Y-114122200D01*
X158310800Y-107341100D02*
X157098500Y-106128800D01*
X159823600Y-111970600D02*
X162328200Y-114475200D01*
X159823600Y-109700000D02*
X159823600Y-111970600D01*
X157487600Y-106128800D02*
X158343600Y-106984800D01*
X164900000Y-102104800D02*
X164868200Y-102104800D01*
X164900000Y-112000000D02*
X164900000Y-105591000D01*
X164900000Y-105591000D02*
X164868200Y-105591000D01*
X162328200Y-114475200D02*
X171724800Y-114475200D01*
X157098500Y-106128800D02*
X157487600Y-106128800D01*
X158310800Y-107718800D02*
X158310800Y-107341100D01*
X162424800Y-114475200D02*
X164900000Y-112000000D01*
X164900000Y-105591000D02*
X164900000Y-102104800D01*
X159823600Y-109700000D02*
X159823600Y-109231600D01*
X172077800Y-114122200D02*
X171724800Y-114475200D01*
X164868200Y-105591000D02*
X163449000Y-107010200D01*
X162328200Y-114475200D02*
X162424800Y-114475200D01*
X157098500Y-106128800D02*
X157690800Y-106128800D01*
D54*
%TO.N,/ANGL2*%
X186800000Y-133200400D02*
X185369200Y-134631200D01*
X186800000Y-121687500D02*
X186800000Y-133200400D01*
%TO.N,/BTN_DN*%
X175387000Y-82366800D02*
X175392400Y-82372200D01*
X143038045Y-94681045D02*
X141638962Y-93281962D01*
X133037500Y-94581500D02*
X130979809Y-94581500D01*
X175387000Y-79375000D02*
X175387000Y-82366800D01*
X149500000Y-95949520D02*
X146851883Y-95949520D01*
X141638962Y-93281962D02*
X134337039Y-93281961D01*
X175392400Y-83586000D02*
X175392400Y-82372200D01*
X142788054Y-95950497D02*
X143038045Y-95700506D01*
X143038045Y-95700506D02*
X143038045Y-94681045D01*
X126350000Y-96293000D02*
X126338000Y-96281000D01*
X146851883Y-95949520D02*
X146839058Y-95962345D01*
X174700000Y-84278400D02*
X175392400Y-83586000D01*
X174700000Y-84775000D02*
X174700000Y-84278400D01*
X126350000Y-97700000D02*
X126350000Y-96293000D01*
X134337039Y-93281961D02*
X133037500Y-94581500D01*
X174202151Y-85600000D02*
X170155236Y-85600000D01*
X170155236Y-85600000D02*
X159805716Y-95949520D01*
X174700000Y-84775000D02*
X174700000Y-85102151D01*
X174700000Y-85102151D02*
X174202151Y-85600000D01*
X159805716Y-95949520D02*
X149500000Y-95949520D01*
%TO.N,/BTN_UP*%
X141411343Y-93831481D02*
X134587519Y-93831481D01*
X130160000Y-97700000D02*
X130160000Y-96359000D01*
X172847000Y-79375000D02*
X172847000Y-82366800D01*
X142238534Y-95054142D02*
X142238534Y-94658672D01*
X169927618Y-85050480D02*
X159578098Y-95400000D01*
X173200000Y-83995200D02*
X172852400Y-83647600D01*
X172924520Y-85050480D02*
X169927618Y-85050480D01*
X134587519Y-93831481D02*
X133038000Y-95381000D01*
X173200000Y-84775000D02*
X172924520Y-85050480D01*
X172852400Y-83647600D02*
X172852400Y-82372200D01*
X148950020Y-95150020D02*
X147700000Y-95150020D01*
X159578098Y-95400000D02*
X149200000Y-95400000D01*
X133038000Y-95381000D02*
X131830253Y-95381000D01*
X149200000Y-95400000D02*
X148950020Y-95150020D01*
X130160000Y-96359000D02*
X130238000Y-96281000D01*
X172847000Y-82366800D02*
X172852400Y-82372200D01*
X142238534Y-94658672D02*
X141411343Y-93831481D01*
X173200000Y-84775000D02*
X173200000Y-83995200D01*
%TO.N,Net-(A1-Pad9)*%
X172821600Y-127609600D02*
X172847000Y-127635000D01*
X172821600Y-123926600D02*
X172821600Y-127609600D01*
%TO.N,/CS*%
X158623000Y-82372200D02*
X154496161Y-86499039D01*
X158627000Y-79375000D02*
X158627000Y-82368200D01*
X133950000Y-87600000D02*
X133800000Y-87450000D01*
X136700961Y-86499039D02*
X135600000Y-87600000D01*
X135600000Y-87600000D02*
X133950000Y-87600000D01*
X154496161Y-86499039D02*
X136700961Y-86499039D01*
X158627000Y-82368200D02*
X158623000Y-82372200D01*
%TO.N,Net-(A1-Pad10)*%
X175361600Y-123926600D02*
X175361600Y-127609600D01*
X175361600Y-127609600D02*
X175387000Y-127635000D01*
%TO.N,/ANGL1_REF5V*%
X175950000Y-118450000D02*
X176357000Y-118857000D01*
X175100000Y-118450000D02*
X173400000Y-118450000D01*
X176357000Y-118857000D02*
X177546000Y-118857000D01*
X177901600Y-123926600D02*
X177901600Y-120401600D01*
X173350000Y-118400000D02*
X171600000Y-118400000D01*
X177901600Y-127609600D02*
X177927000Y-127635000D01*
X177901600Y-120401600D02*
X177546000Y-120046000D01*
X171600000Y-118400000D02*
X171600000Y-120112500D01*
X177901600Y-123926600D02*
X177901600Y-127609600D01*
X177546000Y-120046000D02*
X177546000Y-118857000D01*
X175100000Y-118450000D02*
X175950000Y-118450000D01*
X173400000Y-118450000D02*
X173350000Y-118400000D01*
%TO.N,/ANGL2_REF5V*%
X180784200Y-118427800D02*
X180467000Y-118745000D01*
X179598200Y-115829200D02*
X177546000Y-113777000D01*
X186800000Y-118486200D02*
X186791600Y-118477800D01*
X180441600Y-118770400D02*
X180441600Y-123926600D01*
X186741600Y-118427800D02*
X186791600Y-118477800D01*
X180441600Y-116672600D02*
X179598200Y-115829200D01*
X180441600Y-118770400D02*
X180441600Y-116672600D01*
X180467000Y-118745000D02*
X180441600Y-118770400D01*
X180657800Y-118427800D02*
X180467000Y-118237000D01*
X183291600Y-118427800D02*
X185041600Y-118427800D01*
X185041600Y-118427800D02*
X186741600Y-118427800D01*
X180441600Y-123926600D02*
X180441600Y-127609600D01*
X182472200Y-118427800D02*
X180784200Y-118427800D01*
X183291600Y-118427800D02*
X182472200Y-118427800D01*
X180441600Y-127609600D02*
X180467000Y-127635000D01*
X182472200Y-118427800D02*
X182454000Y-118446000D01*
X186800000Y-120112500D02*
X186800000Y-118486200D01*
X180784200Y-118427800D02*
X180657800Y-118427800D01*
%TO.N,/MOSI*%
X156087000Y-79375000D02*
X156087000Y-82368200D01*
X156087000Y-82368200D02*
X156083000Y-82372200D01*
X152505680Y-85949520D02*
X134000480Y-85949520D01*
X134000480Y-85949520D02*
X133800000Y-86150000D01*
X156083000Y-82372200D02*
X152505680Y-85949520D01*
%TO.N,Net-(A1-Pad13)*%
X182981600Y-123926600D02*
X182981600Y-127609600D01*
X182981600Y-127609600D02*
X183007000Y-127635000D01*
%TO.N,Net-(A1-Pad14)*%
X185521600Y-123926600D02*
X185521600Y-127609600D01*
X185521600Y-127609600D02*
X185547000Y-127635000D01*
%TO.N,/AREF*%
X145927000Y-79375000D02*
X145927000Y-82368200D01*
X145927000Y-82368200D02*
X145923000Y-82372200D01*
%TO.N,Net-(A1-Pad31)*%
X143387000Y-82368200D02*
X143383000Y-82372200D01*
X143387000Y-79375000D02*
X143387000Y-82368200D01*
%TO.N,Net-(A1-Pad32)*%
X140847000Y-79375000D02*
X140847000Y-82368200D01*
X140847000Y-82368200D02*
X140843000Y-82372200D01*
%TO.N,/EN_OUTPUT*%
X125697500Y-115671600D02*
X124074800Y-115671600D01*
X120148000Y-116499600D02*
X120978000Y-115669600D01*
X126525500Y-116499600D02*
X125697500Y-115671600D01*
X120978000Y-115669600D02*
X121318500Y-115669600D01*
X117762500Y-116499600D02*
X120148000Y-116499600D01*
X124072800Y-115669600D02*
X121318500Y-115669600D01*
X124074800Y-115671600D02*
X124072800Y-115669600D01*
%TO.N,Net-(C10-Pad1)*%
X173300000Y-89918000D02*
X172217000Y-89918000D01*
X169865000Y-93064000D02*
X171400000Y-93064000D01*
X171400000Y-90735000D02*
X171400000Y-91442000D01*
X171400000Y-91442000D02*
X171400000Y-95064000D01*
X172217000Y-89918000D02*
X171400000Y-90735000D01*
%TO.N,/SER_IN*%
X147360148Y-94310590D02*
X145885634Y-95785104D01*
X145885634Y-95785104D02*
X145885634Y-129390082D01*
X145885634Y-129390082D02*
X148498800Y-132003249D01*
X170307000Y-79375000D02*
X170307000Y-82366800D01*
X159890370Y-94310590D02*
X147360148Y-94310590D01*
X170307000Y-82366800D02*
X170312400Y-82372200D01*
X170312400Y-83888560D02*
X159890370Y-94310590D01*
X148498800Y-132003249D02*
X148498800Y-134655400D01*
X170312400Y-82372200D02*
X170312400Y-83888560D01*
%TO.N,/G*%
X145336114Y-95557486D02*
X145336114Y-131836114D01*
X167767000Y-82366800D02*
X167772400Y-82372200D01*
X164392811Y-89031011D02*
X159662752Y-93761070D01*
X145336114Y-131836114D02*
X144998800Y-132173428D01*
X147132530Y-93761070D02*
X145336114Y-95557486D01*
X167767000Y-79375000D02*
X167767000Y-82366800D01*
X144998800Y-132173428D02*
X144998800Y-134655400D01*
X167772400Y-82372200D02*
X167772400Y-85651422D01*
X159662752Y-93761070D02*
X147132530Y-93761070D01*
X167777400Y-85646422D02*
X164392811Y-89031011D01*
X167772400Y-85651422D02*
X164392811Y-89031011D01*
%TO.N,/RCK*%
X141498800Y-134655400D02*
X144786594Y-131367606D01*
X163707000Y-79375000D02*
X163707000Y-82368200D01*
X144786594Y-88909544D02*
X146098059Y-87598079D01*
X144786594Y-131367606D02*
X144786594Y-88909544D01*
X158477121Y-87598079D02*
X163703000Y-82372200D01*
X163707000Y-82368200D02*
X163703000Y-82372200D01*
X146098059Y-87598079D02*
X158477121Y-87598079D01*
%TO.N,/SRCK*%
X156486641Y-87048559D02*
X161163000Y-82372200D01*
X142666500Y-132212300D02*
X144237074Y-130641726D01*
X161167000Y-82368200D02*
X161163000Y-82372200D01*
X145870441Y-87048559D02*
X156486641Y-87048559D01*
X140441900Y-132212300D02*
X142666500Y-132212300D01*
X144237074Y-88681926D02*
X145870441Y-87048559D01*
X161167000Y-79375000D02*
X161167000Y-82368200D01*
X144237074Y-130641726D02*
X144237074Y-88681926D01*
X137998800Y-134655400D02*
X140441900Y-132212300D01*
%TO.N,Net-(LED1-Pad2)*%
X121509500Y-126796800D02*
X123084300Y-128371600D01*
X121471800Y-126796800D02*
X121509500Y-126796800D01*
%TO.N,Net-(Q5-Pad1)*%
X117762500Y-114849600D02*
X117762500Y-113429700D01*
X117762500Y-113429700D02*
X117847200Y-113345000D01*
%TO.N,Net-(LED2-Pad2)*%
X117089700Y-128371600D02*
X117127400Y-128371600D01*
X117127400Y-128371600D02*
X118702200Y-126796800D01*
%TO.N,Net-(Q6-Pad1)*%
X126525500Y-114849600D02*
X126525500Y-113416700D01*
X126525500Y-113416700D02*
X126597200Y-113345000D01*
%TO.N,Net-(Q5-Pad3)*%
X116111500Y-112534300D02*
X115972200Y-112395000D01*
X116111500Y-114849600D02*
X116111500Y-112534300D01*
D52*
%TO.N,/SENS_PWR*%
X179176511Y-133198689D02*
X177744000Y-134631200D01*
X177200900Y-116317000D02*
X177546000Y-116317000D01*
X175006100Y-114122200D02*
X177200900Y-116317000D01*
X177546000Y-116317000D02*
X178547000Y-116317000D01*
X188869200Y-136430800D02*
X187700000Y-137600000D01*
X179176511Y-116946511D02*
X179176511Y-133198689D01*
X179000000Y-137600000D02*
X177744000Y-136344000D01*
X187700000Y-137600000D02*
X179000000Y-137600000D01*
X177744000Y-136344000D02*
X177744000Y-134631200D01*
X188869200Y-134631200D02*
X188869200Y-136430800D01*
X178547000Y-116317000D02*
X179176511Y-116946511D01*
D54*
%TO.N,Net-(Q6-Pad3)*%
X124874500Y-114849600D02*
X124874500Y-112547300D01*
X124874500Y-112547300D02*
X124722200Y-112395000D01*
%TO.N,Net-(LED3-Pad2)*%
X126484700Y-104895000D02*
X126484700Y-103432500D01*
X126484700Y-103432500D02*
X126447200Y-103395000D01*
%TO.N,Net-(LED4-Pad2)*%
X116122200Y-104857500D02*
X116084700Y-104895000D01*
X116122200Y-103395000D02*
X116122200Y-104857500D01*
%TO.N,Net-(C11-Pad1)*%
X176525000Y-91442000D02*
X176525000Y-93039000D01*
X174600000Y-89918000D02*
X175625000Y-89918000D01*
X175625000Y-89918000D02*
X176525000Y-90818000D01*
X176525000Y-90818000D02*
X176525000Y-91442000D01*
X176525000Y-93039000D02*
X176500000Y-93064000D01*
X176500000Y-93064000D02*
X178121000Y-93064000D01*
X176500000Y-93064000D02*
X176500000Y-95064000D01*
%TO.N,/~{SW1}*%
X168215000Y-91442000D02*
X168215000Y-93064000D01*
X147572381Y-97250481D02*
X147339281Y-97250481D01*
X168215000Y-93773200D02*
X167900000Y-94088200D01*
X132948720Y-114650480D02*
X131572000Y-116027200D01*
X140747382Y-114650480D02*
X132948720Y-114650480D01*
X131572000Y-116027200D02*
X131572000Y-117510600D01*
X167900000Y-95064000D02*
X167900000Y-96550480D01*
X167200000Y-97250480D02*
X147572381Y-97250481D01*
X168215000Y-93064000D02*
X168215000Y-93773200D01*
X167900000Y-96550480D02*
X167200000Y-97250480D01*
X142707374Y-97000000D02*
X141988543Y-97718831D01*
X142788054Y-97000000D02*
X142707374Y-97000000D01*
X141988543Y-98425000D02*
X142088543Y-98525000D01*
X147339281Y-97250481D02*
X146935118Y-97250481D01*
X146935118Y-97250481D02*
X146685134Y-97000497D01*
X142088543Y-98525000D02*
X142088543Y-113309319D01*
X167900000Y-94088200D02*
X167900000Y-95064000D01*
X141988543Y-97718831D02*
X141988543Y-98425000D01*
X142088543Y-113309319D02*
X140747382Y-114650480D01*
%TO.N,/~{SW2}*%
X146685134Y-98050000D02*
X147550000Y-98050000D01*
X180071000Y-94993000D02*
X180000000Y-95064000D01*
X179200000Y-97800000D02*
X147800000Y-97800000D01*
X179771000Y-91442000D02*
X179771000Y-93064000D01*
X180000000Y-97000000D02*
X179200000Y-97800000D01*
X142638063Y-98199991D02*
X142638063Y-113536937D01*
X140975000Y-115200000D02*
X138088800Y-115200000D01*
X142788054Y-98050000D02*
X142638063Y-98199991D01*
X179771000Y-93764000D02*
X180071000Y-94064000D01*
X147550000Y-98050000D02*
X147800000Y-97800000D01*
X146715837Y-97800000D02*
X146715837Y-98019297D01*
X137261600Y-116027200D02*
X137261600Y-117510600D01*
X179771000Y-93064000D02*
X179771000Y-93764000D01*
X138088800Y-115200000D02*
X137261600Y-116027200D01*
X180000000Y-95064000D02*
X180000000Y-97000000D01*
X146715837Y-98019297D02*
X146685134Y-98050000D01*
X142638063Y-113536937D02*
X140975000Y-115200000D01*
X180071000Y-94064000D02*
X180071000Y-94993000D01*
D52*
%TO.N,/UI_PWR*%
X151998800Y-134655400D02*
X146485154Y-129141753D01*
X146485154Y-121300000D02*
X146485154Y-114014846D01*
X146485154Y-129141753D02*
X146485154Y-121300000D01*
X146485154Y-114014846D02*
X146800000Y-113700000D01*
%TO.N,/BTN_PWR*%
X176677200Y-88964000D02*
X178121000Y-90407800D01*
X173950000Y-88885000D02*
X173871000Y-88964000D01*
X173871000Y-88964000D02*
X171294200Y-88964000D01*
X169865000Y-90393200D02*
X171294200Y-88964000D01*
X173950000Y-88018000D02*
X173950000Y-88885000D01*
X169865000Y-91442000D02*
X169865000Y-90393200D01*
X164896800Y-91706286D02*
X164896800Y-95656400D01*
X166209886Y-90393200D02*
X164896800Y-91706286D01*
X173871000Y-88964000D02*
X176677200Y-88964000D01*
X178121000Y-90407800D02*
X178121000Y-91442000D01*
X169771000Y-91348000D02*
X169865000Y-91442000D01*
X169865000Y-90393200D02*
X166209886Y-90393200D01*
D54*
%TO.N,Net-(R19-Pad2)*%
X173200000Y-87093000D02*
X173200000Y-86425000D01*
X173300000Y-88018000D02*
X173300000Y-87193000D01*
X173300000Y-87193000D02*
X173200000Y-87093000D01*
%TO.N,Net-(R20-Pad2)*%
X174600000Y-88018000D02*
X174600000Y-87135000D01*
X174600000Y-87135000D02*
X174700000Y-87035000D01*
X174700000Y-87035000D02*
X174700000Y-86425000D01*
%TO.N,/MISO*%
X133100000Y-85400000D02*
X132800000Y-85100000D01*
X132574022Y-83250000D02*
X131900000Y-83250000D01*
X153543000Y-82372200D02*
X150515200Y-85400000D01*
X132800000Y-85100000D02*
X132800000Y-83475978D01*
X150515200Y-85400000D02*
X133100000Y-85400000D01*
X153547000Y-82368200D02*
X153543000Y-82372200D01*
X132800000Y-83475978D02*
X132574022Y-83250000D01*
X153547000Y-79375000D02*
X153547000Y-82368200D01*
%TO.N,/SCK*%
X151003000Y-82372200D02*
X148524720Y-84850480D01*
X151007000Y-79375000D02*
X151007000Y-82368200D01*
X144362680Y-84850480D02*
X144870680Y-84850480D01*
X151007000Y-82368200D02*
X151003000Y-82372200D01*
X148072520Y-84850480D02*
X144870680Y-84850480D01*
X148524720Y-84850480D02*
X144362680Y-84850480D01*
X134100480Y-84850480D02*
X144362680Y-84850480D01*
X133800000Y-84550000D02*
X134100480Y-84850480D01*
D52*
%TO.N,+3V3*%
X149284174Y-109700000D02*
X152200000Y-109700000D01*
X143637554Y-111100020D02*
X143637554Y-90180554D01*
X119352500Y-97975000D02*
X118325000Y-97975000D01*
X128950000Y-118550000D02*
X128950000Y-117669000D01*
X136090000Y-96125000D02*
X136090000Y-95331652D01*
X132700000Y-97700000D02*
X133419000Y-97700000D01*
X128117600Y-100969704D02*
X128117600Y-112420400D01*
X140900000Y-120250000D02*
X143437574Y-117712426D01*
X117192200Y-84426200D02*
X117195600Y-84429600D01*
X132674022Y-86800000D02*
X132900000Y-87025978D01*
X153712800Y-107239500D02*
X154823500Y-106128800D01*
X147784174Y-111200000D02*
X149284174Y-109700000D01*
X132900000Y-88500000D02*
X142357000Y-88500000D01*
X133438000Y-100424500D02*
X128494500Y-100424500D01*
X131900000Y-83900000D02*
X130500000Y-83900000D01*
X128950000Y-113252800D02*
X128950000Y-117669000D01*
X132900000Y-88200000D02*
X132900000Y-88500000D01*
X128117600Y-100969704D02*
X128117600Y-100801400D01*
X130500000Y-83900000D02*
X128300000Y-86100000D01*
X133419000Y-97700000D02*
X133438000Y-97681000D01*
X127572396Y-100424500D02*
X128117600Y-100969704D01*
X136090000Y-95331652D02*
X136090076Y-95331576D01*
X143437574Y-117712426D02*
X143437574Y-111300000D01*
X115580000Y-84426200D02*
X117192200Y-84426200D01*
X118300000Y-94500000D02*
X119327500Y-94500000D01*
X143637554Y-89780554D02*
X143637554Y-90180554D01*
X131900000Y-86800000D02*
X132674022Y-86800000D01*
X128117600Y-100801400D02*
X128494500Y-100424500D01*
X153712800Y-107718800D02*
X153712800Y-107239500D01*
X128300000Y-86100000D02*
X123800000Y-86100000D01*
X119327500Y-94500000D02*
X119352500Y-94475000D01*
X128117600Y-112420400D02*
X128950000Y-113252800D01*
X121318500Y-108071500D02*
X121325000Y-108065000D01*
X132900000Y-87025978D02*
X132900000Y-88200000D01*
X152200000Y-109700000D02*
X152200000Y-109231600D01*
X121318500Y-113129600D02*
X121318500Y-108071500D01*
X152200000Y-109231600D02*
X153712800Y-107718800D01*
X142357000Y-88500000D02*
X143637554Y-89780554D01*
X143437574Y-111300000D02*
X143637554Y-111100020D01*
X128950000Y-118550000D02*
X130650000Y-120250000D01*
X118325000Y-97975000D02*
X118300000Y-98000000D01*
X128494500Y-100424500D02*
X127572396Y-100424500D01*
X130650000Y-120250000D02*
X140900000Y-120250000D01*
D54*
%TO.N,/SD_CS*%
X119878624Y-89437860D02*
X123416418Y-89437858D01*
X129704276Y-87450000D02*
X131900000Y-87450000D01*
X124755236Y-88099040D02*
X129055238Y-88099038D01*
X117066964Y-86626200D02*
X119878624Y-89437860D01*
X115580000Y-86626200D02*
X117066964Y-86626200D01*
X129055238Y-88099038D02*
X129704276Y-87450000D01*
X123416418Y-89437858D02*
X124755236Y-88099040D01*
%TO.N,/SD_DI*%
X130227138Y-86150000D02*
X131900000Y-86150000D01*
X124527618Y-87549520D02*
X128827619Y-87549519D01*
X123188799Y-88888339D02*
X124527618Y-87549520D01*
X115580000Y-85526200D02*
X116744102Y-85526200D01*
X120106242Y-88888340D02*
X123188799Y-88888339D01*
X116744102Y-85526200D02*
X120106242Y-88888340D01*
X128827619Y-87549519D02*
X130227138Y-86150000D01*
%TO.N,/SD_CLK*%
X115580000Y-83326200D02*
X117260600Y-83326200D01*
X120333860Y-88338820D02*
X122961180Y-88338820D01*
X131050000Y-84550000D02*
X131900000Y-84550000D01*
X128600000Y-87000000D02*
X131050000Y-84550000D01*
X118694200Y-86699160D02*
X120333860Y-88338820D01*
X118694200Y-84759800D02*
X118694200Y-86699160D01*
X124300000Y-87000000D02*
X128600000Y-87000000D01*
X117260600Y-83326200D02*
X118694200Y-84759800D01*
X122961180Y-88338820D02*
X124300000Y-87000000D01*
%TO.N,/SD_DO*%
X125319271Y-82130311D02*
X131530311Y-82130311D01*
X115580000Y-81126200D02*
X118610440Y-81126200D01*
X131530311Y-82130311D02*
X133030311Y-82130311D01*
X122591740Y-79402780D02*
X125319271Y-82130311D01*
X118610440Y-81126200D02*
X120333860Y-79402780D01*
X133800000Y-82900000D02*
X133800000Y-83250000D01*
X133030311Y-82130311D02*
X133800000Y-82900000D01*
X120333860Y-79402780D02*
X122591740Y-79402780D01*
%TO.N,/SW1EXT*%
X154241000Y-130911600D02*
X154432000Y-130911600D01*
X159613600Y-133156600D02*
X158888000Y-132431000D01*
X155088000Y-132431000D02*
X154241000Y-131584000D01*
X154241000Y-131584000D02*
X154241000Y-130962400D01*
X159613600Y-134655400D02*
X159613600Y-133156600D01*
X154482800Y-130962400D02*
X154241000Y-130962400D01*
X158888000Y-132431000D02*
X155088000Y-132431000D01*
%TO.N,/SW2EXT*%
X155738480Y-131881480D02*
X161788480Y-131881480D01*
X154900200Y-129743200D02*
X155338000Y-130181000D01*
X155338000Y-130181000D02*
X155338000Y-131481000D01*
X163113600Y-133206600D02*
X163113600Y-134655400D01*
X155338000Y-131481000D02*
X155738480Y-131881480D01*
X161788480Y-131881480D02*
X163113600Y-133206600D01*
X154241000Y-129743200D02*
X154900200Y-129743200D01*
%TO.N,Net-(R21-Pad1)*%
X131572000Y-128371600D02*
X132527920Y-129327520D01*
X131572000Y-127040600D02*
X131572000Y-128371600D01*
X150391131Y-131978400D02*
X147234654Y-128821923D01*
X152591000Y-131584200D02*
X152591000Y-130962400D01*
X152196800Y-131978400D02*
X150391131Y-131978400D01*
X143191254Y-129327520D02*
X143537574Y-128981200D01*
X152591000Y-131584200D02*
X152196800Y-131978400D01*
X132527920Y-129327520D02*
X143191254Y-129327520D01*
%TO.N,Net-(R22-Pad1)*%
X138226800Y-128778000D02*
X137261600Y-127812800D01*
X152591000Y-129743200D02*
X149165054Y-129743200D01*
X141935200Y-128778000D02*
X138226800Y-128778000D01*
X143537574Y-127812800D02*
X142900400Y-127812800D01*
X149165054Y-129743200D02*
X147234654Y-127812800D01*
X137261600Y-127812800D02*
X137261600Y-127040600D01*
X142900400Y-127812800D02*
X141935200Y-128778000D01*
%TO.N,/MCU_RELAY_DN*%
X142612647Y-91300000D02*
X142732869Y-91179778D01*
X165650480Y-83872382D02*
X158291382Y-91231480D01*
X180467000Y-82366800D02*
X180472400Y-82372200D01*
X131430000Y-91570000D02*
X131700000Y-91300000D01*
X166974030Y-77625970D02*
X165650480Y-78949520D01*
X158291382Y-91231480D02*
X146988480Y-91231480D01*
X180467000Y-79375000D02*
X178717970Y-77625970D01*
X131700000Y-91300000D02*
X141688054Y-91300000D01*
X141688054Y-91300000D02*
X142612647Y-91300000D01*
X180467000Y-79375000D02*
X180467000Y-82366800D01*
X165650480Y-78949520D02*
X165650480Y-83872382D01*
X178717970Y-77625970D02*
X166974030Y-77625970D01*
X146738000Y-90981000D02*
X146135614Y-90981000D01*
X146988480Y-91231480D02*
X146738000Y-90981000D01*
X131430000Y-92750000D02*
X131430000Y-91570000D01*
%TO.N,/MCU_RELAY_UP*%
X177927000Y-82366800D02*
X177932400Y-82372200D01*
X167224511Y-78175489D02*
X176727489Y-78175489D01*
X127620000Y-92750000D02*
X127620000Y-91580000D01*
X166200000Y-84100000D02*
X166200000Y-79200000D01*
X166200000Y-79200000D02*
X167224511Y-78175489D01*
X145336103Y-91312169D02*
X145804934Y-91781000D01*
X127620000Y-91580000D02*
X128449520Y-90750480D01*
X142018792Y-90131688D02*
X142787312Y-90131688D01*
X141400000Y-90750480D02*
X142018792Y-90131688D01*
X158519000Y-91781000D02*
X166200000Y-84100000D01*
X145586094Y-90081000D02*
X145336103Y-90330991D01*
X145336103Y-90330991D02*
X145336103Y-91312169D01*
X176727489Y-78175489D02*
X177927000Y-79375000D01*
X128449520Y-90750480D02*
X141400000Y-90750480D01*
X177927000Y-79375000D02*
X177927000Y-82366800D01*
X145804934Y-91781000D02*
X158519000Y-91781000D01*
%TO.N,/EN_MANUAL*%
X166863000Y-123131000D02*
X158738000Y-123131000D01*
X130990000Y-99625000D02*
X129290000Y-99625000D01*
X129549520Y-117931020D02*
X129549520Y-104269480D01*
X148688000Y-125981000D02*
X147334654Y-125981000D01*
X128094000Y-99625000D02*
X127894000Y-99625000D01*
X141306500Y-121099500D02*
X130988000Y-121099500D01*
X126516000Y-100259000D02*
X125194000Y-101581000D01*
X129799500Y-118181000D02*
X129549520Y-117931020D01*
X129549520Y-104269480D02*
X132288000Y-101531000D01*
X148888000Y-125781000D02*
X148688000Y-125981000D01*
X125194000Y-101581000D02*
X124738000Y-101581000D01*
X135440000Y-98025000D02*
X135440000Y-98525000D01*
X135440000Y-97525000D02*
X135890000Y-97075000D01*
X143088000Y-122881000D02*
X141306500Y-121099500D01*
X124738000Y-101581000D02*
X123343782Y-102975218D01*
X135890000Y-97075000D02*
X136290000Y-97075000D01*
X143587511Y-125681063D02*
X143587511Y-123380511D01*
X135265000Y-101154000D02*
X135238000Y-101181000D01*
X127150000Y-99625000D02*
X126516000Y-100259000D01*
X127620000Y-99387000D02*
X127382000Y-99625000D01*
X127894000Y-99625000D02*
X127382000Y-99625000D01*
X136290000Y-97075000D02*
X136740000Y-97525000D01*
X134425000Y-99475000D02*
X135265000Y-99475000D01*
X135265000Y-99475000D02*
X135265000Y-101154000D01*
X143587511Y-123380511D02*
X143088000Y-122881000D01*
X129290000Y-99625000D02*
X128094000Y-99625000D01*
X127382000Y-99625000D02*
X127150000Y-99625000D01*
X131430000Y-97700000D02*
X131430000Y-99185000D01*
X143437574Y-125831000D02*
X143587511Y-125681063D01*
X127620000Y-99351000D02*
X127894000Y-99625000D01*
X127620000Y-97700000D02*
X127620000Y-99351000D01*
X130990000Y-99625000D02*
X131725000Y-99625000D01*
X135440000Y-98025000D02*
X135440000Y-97525000D01*
X131430000Y-99185000D02*
X131430000Y-99330000D01*
X131430000Y-99330000D02*
X131135000Y-99625000D01*
X156138000Y-125781000D02*
X148888000Y-125781000D01*
X127620000Y-99351000D02*
X127620000Y-99387000D01*
X131135000Y-99625000D02*
X130990000Y-99625000D01*
X135265000Y-98700000D02*
X135265000Y-99475000D01*
X135238000Y-101181000D02*
X134888000Y-101531000D01*
X131725000Y-99625000D02*
X134275000Y-99625000D01*
X134275000Y-99625000D02*
X134425000Y-99475000D01*
X136740000Y-97525000D02*
X136740000Y-98025000D01*
X135440000Y-98525000D02*
X135265000Y-98700000D01*
X131430000Y-99330000D02*
X131725000Y-99625000D01*
X134888000Y-101531000D02*
X132288000Y-101531000D01*
%TO.N,Net-(U8-Pad1)*%
X135440000Y-96125000D02*
X134894000Y-96125000D01*
X133438000Y-92781000D02*
X132731000Y-92781000D01*
X134894000Y-96125000D02*
X134838000Y-96181000D01*
X132731000Y-92781000D02*
X132700000Y-92750000D01*
%TO.N,Net-(U10-Pad2)*%
X130160000Y-92750000D02*
X130160000Y-93955000D01*
X127658375Y-95424039D02*
X124490961Y-95424039D01*
X127924668Y-95690332D02*
X127658375Y-95424039D01*
X130160000Y-93955000D02*
X130090000Y-94025000D01*
X122890000Y-97025000D02*
X121627500Y-97025000D01*
X124490961Y-95424039D02*
X122890000Y-97025000D01*
%TO.N,Net-(U8-Pad4)*%
X128890000Y-94747862D02*
X129523138Y-95381000D01*
X129523138Y-95381000D02*
X130468680Y-95381000D01*
X136738000Y-94381000D02*
X137038000Y-94681000D01*
X130468680Y-95381000D02*
X131268680Y-96181000D01*
X137038000Y-94681000D02*
X137038000Y-95827000D01*
X134838000Y-94381000D02*
X136738000Y-94381000D01*
X131268680Y-96181000D02*
X133038000Y-96181000D01*
X137038000Y-95827000D02*
X136740000Y-96125000D01*
X128890000Y-92750000D02*
X128890000Y-94747862D01*
X133038000Y-96181000D02*
X134838000Y-94381000D01*
%TO.N,Net-(U11-Pad2)*%
X124590000Y-94325000D02*
X123790000Y-93525000D01*
X126350000Y-92750000D02*
X126350000Y-93565000D01*
X123790000Y-93525000D02*
X121627500Y-93525000D01*
X125590000Y-94325000D02*
X124590000Y-94325000D01*
X126350000Y-93565000D02*
X125590000Y-94325000D01*
%TO.N,Net-(U10-Pad1)*%
X121627500Y-97975000D02*
X123940000Y-97975000D01*
X123940000Y-97975000D02*
X124215000Y-97700000D01*
X124215000Y-97700000D02*
X125080000Y-97700000D01*
%TO.N,Net-(U11-Pad1)*%
X124817619Y-94874519D02*
X128239519Y-94874519D01*
X121627500Y-94475000D02*
X123962862Y-94475000D01*
X124362382Y-94874520D02*
X124817619Y-94874519D01*
X123962862Y-94475000D02*
X124362382Y-94874520D01*
X128239519Y-94874519D02*
X128890000Y-95525000D01*
X128890000Y-95525000D02*
X128890000Y-97700000D01*
D52*
%TO.N,Net-(J7-Pad4)*%
X167363000Y-130331000D02*
X167363000Y-131006000D01*
X167363000Y-131006000D02*
X166613600Y-131755400D01*
X166613600Y-131755400D02*
X166613600Y-134655400D01*
%TD*%
%TA.AperFunction,Conductor*%
%TO.N,GND*%
G36*
X174438662Y-114891674D02*
G01*
X174539461Y-114951287D01*
X174547074Y-114953499D01*
X174547077Y-114953500D01*
X174683528Y-114993142D01*
X174683532Y-114993143D01*
X174689708Y-114994937D01*
X174696119Y-114995442D01*
X174696121Y-114995442D01*
X174722357Y-114997507D01*
X174722365Y-114997507D01*
X174724813Y-114997700D01*
X174738705Y-114997700D01*
X174980175Y-114997699D01*
X175048294Y-115017701D01*
X175069269Y-115034604D01*
X175766221Y-115731556D01*
X175800247Y-115793868D01*
X175795182Y-115864683D01*
X175752635Y-115921519D01*
X175686115Y-115946330D01*
X175639447Y-115940885D01*
X175511356Y-115900744D01*
X175498306Y-115898131D01*
X175434479Y-115892266D01*
X175428691Y-115892000D01*
X175372115Y-115892000D01*
X175356876Y-115896475D01*
X175355671Y-115897865D01*
X175354000Y-115905548D01*
X175354000Y-116527885D01*
X175358475Y-116543124D01*
X175359865Y-116544329D01*
X175367548Y-116546000D01*
X176064884Y-116546000D01*
X176080123Y-116541525D01*
X176101405Y-116516964D01*
X176161131Y-116478580D01*
X176232128Y-116478580D01*
X176291854Y-116516963D01*
X176318337Y-116566864D01*
X176324945Y-116591525D01*
X176366425Y-116746330D01*
X176458898Y-116944638D01*
X176584402Y-117123877D01*
X176739123Y-117278598D01*
X176743631Y-117281755D01*
X176743634Y-117281757D01*
X176809373Y-117327788D01*
X176880066Y-117377287D01*
X176880067Y-117377288D01*
X176924395Y-117432745D01*
X176931704Y-117503364D01*
X176899673Y-117566725D01*
X176838472Y-117602710D01*
X176807797Y-117606501D01*
X176664482Y-117606501D01*
X176659589Y-117607276D01*
X176659588Y-117607276D01*
X176580494Y-117619802D01*
X176580492Y-117619803D01*
X176570696Y-117621354D01*
X176457658Y-117678950D01*
X176367950Y-117768658D01*
X176313427Y-117875665D01*
X176264680Y-117927279D01*
X176195765Y-117944345D01*
X176166009Y-117939458D01*
X176134228Y-117930225D01*
X176122995Y-117926379D01*
X176101287Y-117917784D01*
X176082547Y-117910364D01*
X176074006Y-117909466D01*
X176074005Y-117909466D01*
X176067592Y-117908792D01*
X176045617Y-117904480D01*
X176031175Y-117900285D01*
X176023692Y-117899735D01*
X176022792Y-117899669D01*
X176022781Y-117899669D01*
X176020485Y-117899500D01*
X175985783Y-117899500D01*
X175972613Y-117898810D01*
X175941090Y-117895497D01*
X175932546Y-117894599D01*
X175925648Y-117895766D01*
X175857677Y-117878107D01*
X175822471Y-117846726D01*
X175803282Y-117821718D01*
X175796735Y-117816694D01*
X175765027Y-117792363D01*
X175723160Y-117735024D01*
X175718939Y-117664153D01*
X175753704Y-117602251D01*
X175776461Y-117584625D01*
X175808571Y-117565179D01*
X175820443Y-117555869D01*
X175930869Y-117445443D01*
X175940176Y-117433574D01*
X176021079Y-117299988D01*
X176027285Y-117286243D01*
X176074256Y-117136356D01*
X176076869Y-117123306D01*
X176081913Y-117068414D01*
X176078525Y-117056876D01*
X176077135Y-117055671D01*
X176069452Y-117054000D01*
X174391115Y-117054000D01*
X174375876Y-117058474D01*
X174374111Y-117060512D01*
X174314385Y-117098896D01*
X174278886Y-117104000D01*
X170635115Y-117104000D01*
X170619876Y-117108475D01*
X170618671Y-117109865D01*
X170617000Y-117117548D01*
X170617000Y-117120438D01*
X170617337Y-117126953D01*
X170626894Y-117219057D01*
X170629788Y-117232456D01*
X170679381Y-117381107D01*
X170685555Y-117394286D01*
X170767788Y-117527173D01*
X170776824Y-117538574D01*
X170850415Y-117612037D01*
X170884494Y-117674320D01*
X170879491Y-117745140D01*
X170860956Y-117778437D01*
X170857438Y-117782972D01*
X170851830Y-117788580D01*
X170847794Y-117795404D01*
X170847792Y-117795407D01*
X170811920Y-117856064D01*
X170771382Y-117924610D01*
X170727291Y-118076373D01*
X170724500Y-118111837D01*
X170724501Y-118688162D01*
X170727291Y-118723627D01*
X170729086Y-118729807D01*
X170729087Y-118729810D01*
X170759520Y-118834562D01*
X170771382Y-118875390D01*
X170775419Y-118882216D01*
X170847792Y-119004593D01*
X170847794Y-119004596D01*
X170851830Y-119011420D01*
X170963580Y-119123170D01*
X170987640Y-119137399D01*
X171036091Y-119189289D01*
X171049500Y-119245851D01*
X171049500Y-119276463D01*
X171029498Y-119344584D01*
X170987640Y-119384915D01*
X170961191Y-119400557D01*
X170850557Y-119511191D01*
X170846521Y-119518015D01*
X170846519Y-119518018D01*
X170810735Y-119578526D01*
X170770913Y-119645861D01*
X170768701Y-119653474D01*
X170768700Y-119653477D01*
X170745434Y-119733563D01*
X170727263Y-119796108D01*
X170726758Y-119802519D01*
X170726758Y-119802521D01*
X170724694Y-119828752D01*
X170724500Y-119831213D01*
X170724501Y-120393786D01*
X170727263Y-120428892D01*
X170729059Y-120435075D01*
X170729060Y-120435079D01*
X170768700Y-120571523D01*
X170770913Y-120579139D01*
X170800770Y-120629624D01*
X170846519Y-120706982D01*
X170846521Y-120706985D01*
X170850557Y-120713809D01*
X170947653Y-120810905D01*
X170981679Y-120873217D01*
X170976614Y-120944032D01*
X170947653Y-120989095D01*
X170850557Y-121086191D01*
X170846521Y-121093015D01*
X170846519Y-121093018D01*
X170810735Y-121153526D01*
X170770913Y-121220861D01*
X170727263Y-121371108D01*
X170726758Y-121377519D01*
X170726758Y-121377521D01*
X170724694Y-121403752D01*
X170724500Y-121406213D01*
X170724501Y-121968786D01*
X170727263Y-122003892D01*
X170770913Y-122154139D01*
X170810735Y-122221474D01*
X170846519Y-122281982D01*
X170846521Y-122281985D01*
X170850557Y-122288809D01*
X170961191Y-122399443D01*
X170959169Y-122401465D01*
X170992777Y-122447989D01*
X170999989Y-122490006D01*
X170999989Y-131922696D01*
X170999878Y-131927972D01*
X170997279Y-131989983D01*
X170999241Y-131998348D01*
X171007216Y-132032351D01*
X171009379Y-132044022D01*
X171015283Y-132087121D01*
X171018695Y-132095005D01*
X171018695Y-132095006D01*
X171021254Y-132100919D01*
X171028288Y-132122188D01*
X171031721Y-132136825D01*
X171035858Y-132144350D01*
X171035859Y-132144353D01*
X171052684Y-132174957D01*
X171057900Y-132185602D01*
X171075184Y-132225544D01*
X171084647Y-132237230D01*
X171097134Y-132255814D01*
X171104382Y-132268997D01*
X171111386Y-132277111D01*
X171135922Y-132301647D01*
X171144747Y-132311448D01*
X171164695Y-132336081D01*
X171170103Y-132342759D01*
X171177101Y-132347732D01*
X171177106Y-132347737D01*
X171185437Y-132353657D01*
X171201543Y-132367268D01*
X171542380Y-132708105D01*
X171576406Y-132770417D01*
X171571341Y-132841232D01*
X171528794Y-132898068D01*
X171462274Y-132922879D01*
X171453285Y-132923200D01*
X171016115Y-132923200D01*
X171000876Y-132927675D01*
X170999671Y-132929065D01*
X170998000Y-132936748D01*
X170998000Y-136321084D01*
X171002475Y-136336323D01*
X171003865Y-136337528D01*
X171011548Y-136339199D01*
X171988669Y-136339199D01*
X171995490Y-136338829D01*
X172046352Y-136333305D01*
X172061604Y-136329679D01*
X172182054Y-136284524D01*
X172197649Y-136275986D01*
X172299724Y-136199485D01*
X172312285Y-136186924D01*
X172388786Y-136084849D01*
X172397324Y-136069254D01*
X172442478Y-135948806D01*
X172446105Y-135933551D01*
X172451631Y-135882686D01*
X172452000Y-135875872D01*
X172452000Y-135087546D01*
X172472002Y-135019425D01*
X172525658Y-134972932D01*
X172595932Y-134962828D01*
X172660512Y-134992322D01*
X172700519Y-135058133D01*
X172717127Y-135127311D01*
X172813534Y-135360059D01*
X172945164Y-135574859D01*
X172948376Y-135578619D01*
X172948379Y-135578624D01*
X172993853Y-135631867D01*
X173108776Y-135766424D01*
X173112538Y-135769637D01*
X173296576Y-135926821D01*
X173296581Y-135926824D01*
X173300341Y-135930036D01*
X173304558Y-135932620D01*
X173489998Y-136046258D01*
X173515141Y-136061666D01*
X173519711Y-136063559D01*
X173519715Y-136063561D01*
X173743316Y-136156179D01*
X173747889Y-136158073D01*
X173813851Y-136173909D01*
X173988039Y-136215728D01*
X173988045Y-136215729D01*
X173992852Y-136216883D01*
X174244000Y-136236649D01*
X174495148Y-136216883D01*
X174499955Y-136215729D01*
X174499961Y-136215728D01*
X174674149Y-136173909D01*
X174740111Y-136158073D01*
X174744684Y-136156179D01*
X174968285Y-136063561D01*
X174968289Y-136063559D01*
X174972859Y-136061666D01*
X174998003Y-136046258D01*
X175183442Y-135932620D01*
X175187659Y-135930036D01*
X175191419Y-135926824D01*
X175191424Y-135926821D01*
X175375462Y-135769637D01*
X175379224Y-135766424D01*
X175494147Y-135631867D01*
X175539621Y-135578624D01*
X175539624Y-135578619D01*
X175542836Y-135574859D01*
X175674466Y-135360059D01*
X175770873Y-135127311D01*
X175810362Y-134962828D01*
X175828528Y-134887161D01*
X175828529Y-134887155D01*
X175829683Y-134882348D01*
X175849449Y-134631200D01*
X175829683Y-134380052D01*
X175827591Y-134371335D01*
X175772028Y-134139901D01*
X175770873Y-134135089D01*
X175749924Y-134084513D01*
X175676361Y-133906915D01*
X175676359Y-133906911D01*
X175674466Y-133902341D01*
X175542836Y-133687541D01*
X175539624Y-133683781D01*
X175539621Y-133683776D01*
X175382437Y-133499738D01*
X175379224Y-133495976D01*
X175306325Y-133433714D01*
X175191424Y-133335579D01*
X175191419Y-133335576D01*
X175187659Y-133332364D01*
X174972859Y-133200734D01*
X174968289Y-133198841D01*
X174968285Y-133198839D01*
X174744684Y-133106221D01*
X174744682Y-133106220D01*
X174740111Y-133104327D01*
X174655711Y-133084065D01*
X174499961Y-133046672D01*
X174499955Y-133046671D01*
X174495148Y-133045517D01*
X174244000Y-133025751D01*
X173992852Y-133045517D01*
X173988045Y-133046671D01*
X173988039Y-133046672D01*
X173832289Y-133084065D01*
X173747889Y-133104327D01*
X173743314Y-133106222D01*
X173743311Y-133106223D01*
X173647310Y-133145987D01*
X173576720Y-133153576D01*
X173509998Y-133118673D01*
X172137894Y-131746570D01*
X172103869Y-131684258D01*
X172100989Y-131657475D01*
X172100989Y-128812460D01*
X172120991Y-128744339D01*
X172174647Y-128697846D01*
X172244921Y-128687742D01*
X172276724Y-128696691D01*
X172474436Y-128781635D01*
X172554088Y-128799658D01*
X172683995Y-128829054D01*
X172684001Y-128829055D01*
X172689632Y-128830329D01*
X172695403Y-128830556D01*
X172695405Y-128830556D01*
X172763211Y-128833220D01*
X172910098Y-128838991D01*
X173019275Y-128823161D01*
X173122738Y-128808160D01*
X173122743Y-128808159D01*
X173128452Y-128807331D01*
X173133916Y-128805476D01*
X173133921Y-128805475D01*
X173331907Y-128738268D01*
X173331912Y-128738266D01*
X173337379Y-128736410D01*
X173365323Y-128720761D01*
X173424282Y-128687742D01*
X173529884Y-128628602D01*
X173542757Y-128617896D01*
X173695086Y-128491204D01*
X173699518Y-128487518D01*
X173840602Y-128317884D01*
X173905606Y-128201812D01*
X173945586Y-128130422D01*
X173945587Y-128130420D01*
X173948410Y-128125379D01*
X173950266Y-128119912D01*
X173950268Y-128119907D01*
X173997264Y-127981460D01*
X174038101Y-127923383D01*
X174103854Y-127896605D01*
X174173646Y-127909626D01*
X174225319Y-127958313D01*
X174238700Y-127990946D01*
X174249089Y-128031855D01*
X174249091Y-128031860D01*
X174250511Y-128037452D01*
X174252928Y-128042694D01*
X174252928Y-128042695D01*
X174306990Y-128159964D01*
X174342883Y-128237821D01*
X174470222Y-128418002D01*
X174628264Y-128571961D01*
X174633060Y-128575166D01*
X174633063Y-128575168D01*
X174714687Y-128629707D01*
X174811717Y-128694540D01*
X174817020Y-128696818D01*
X174817023Y-128696820D01*
X174983649Y-128768408D01*
X175014436Y-128781635D01*
X175094088Y-128799658D01*
X175223995Y-128829054D01*
X175224001Y-128829055D01*
X175229632Y-128830329D01*
X175235403Y-128830556D01*
X175235405Y-128830556D01*
X175303211Y-128833220D01*
X175450098Y-128838991D01*
X175559275Y-128823161D01*
X175662738Y-128808160D01*
X175662743Y-128808159D01*
X175668452Y-128807331D01*
X175673916Y-128805476D01*
X175673921Y-128805475D01*
X175871907Y-128738268D01*
X175871912Y-128738266D01*
X175877379Y-128736410D01*
X175905323Y-128720761D01*
X175964282Y-128687742D01*
X176069884Y-128628602D01*
X176082757Y-128617896D01*
X176235086Y-128491204D01*
X176239518Y-128487518D01*
X176380602Y-128317884D01*
X176445606Y-128201812D01*
X176485586Y-128130422D01*
X176485587Y-128130420D01*
X176488410Y-128125379D01*
X176490266Y-128119912D01*
X176490268Y-128119907D01*
X176537264Y-127981460D01*
X176578101Y-127923383D01*
X176643854Y-127896605D01*
X176713646Y-127909626D01*
X176765319Y-127958313D01*
X176778700Y-127990946D01*
X176789089Y-128031855D01*
X176789091Y-128031860D01*
X176790511Y-128037452D01*
X176792928Y-128042694D01*
X176792928Y-128042695D01*
X176846990Y-128159964D01*
X176882883Y-128237821D01*
X177010222Y-128418002D01*
X177168264Y-128571961D01*
X177173060Y-128575166D01*
X177173063Y-128575168D01*
X177254687Y-128629707D01*
X177351717Y-128694540D01*
X177357020Y-128696818D01*
X177357023Y-128696820D01*
X177523649Y-128768408D01*
X177554436Y-128781635D01*
X177634088Y-128799658D01*
X177763995Y-128829054D01*
X177764001Y-128829055D01*
X177769632Y-128830329D01*
X177775403Y-128830556D01*
X177775405Y-128830556D01*
X177843211Y-128833220D01*
X177990098Y-128838991D01*
X178099275Y-128823161D01*
X178202738Y-128808160D01*
X178202743Y-128808159D01*
X178208452Y-128807331D01*
X178213916Y-128805476D01*
X178213921Y-128805475D01*
X178394021Y-128744339D01*
X178409511Y-128739081D01*
X178480445Y-128736125D01*
X178541717Y-128771988D01*
X178573874Y-128835285D01*
X178576011Y-128858394D01*
X178576011Y-129422009D01*
X178556009Y-129490130D01*
X178539106Y-129511104D01*
X178435430Y-129614780D01*
X178431394Y-129621604D01*
X178431392Y-129621607D01*
X178395727Y-129681914D01*
X178354982Y-129750810D01*
X178310891Y-129902573D01*
X178308100Y-129938037D01*
X178308101Y-130564362D01*
X178310891Y-130599827D01*
X178312686Y-130606007D01*
X178312687Y-130606010D01*
X178325307Y-130649448D01*
X178354982Y-130751590D01*
X178359019Y-130758416D01*
X178431392Y-130880793D01*
X178431394Y-130880796D01*
X178435430Y-130887620D01*
X178539106Y-130991296D01*
X178573132Y-131053608D01*
X178576011Y-131080391D01*
X178576011Y-132897762D01*
X178556009Y-132965883D01*
X178539107Y-132986857D01*
X178479293Y-133046672D01*
X178428002Y-133097963D01*
X178365690Y-133131988D01*
X178290689Y-133125277D01*
X178240111Y-133104327D01*
X178155711Y-133084065D01*
X177999961Y-133046672D01*
X177999955Y-133046671D01*
X177995148Y-133045517D01*
X177744000Y-133025751D01*
X177492852Y-133045517D01*
X177488045Y-133046671D01*
X177488039Y-133046672D01*
X177332289Y-133084065D01*
X177247889Y-133104327D01*
X177243318Y-133106220D01*
X177243316Y-133106221D01*
X177019715Y-133198839D01*
X177019711Y-133198841D01*
X177015141Y-133200734D01*
X176800341Y-133332364D01*
X176796581Y-133335576D01*
X176796576Y-133335579D01*
X176681675Y-133433714D01*
X176608776Y-133495976D01*
X176605563Y-133499738D01*
X176448379Y-133683776D01*
X176448376Y-133683781D01*
X176445164Y-133687541D01*
X176313534Y-133902341D01*
X176311641Y-133906911D01*
X176311639Y-133906915D01*
X176238076Y-134084513D01*
X176217127Y-134135089D01*
X176215972Y-134139901D01*
X176160410Y-134371335D01*
X176158317Y-134380052D01*
X176138551Y-134631200D01*
X176158317Y-134882348D01*
X176159471Y-134887155D01*
X176159472Y-134887161D01*
X176177638Y-134962828D01*
X176217127Y-135127311D01*
X176313534Y-135360059D01*
X176445164Y-135574859D01*
X176448376Y-135578619D01*
X176448379Y-135578624D01*
X176493853Y-135631867D01*
X176608776Y-135766424D01*
X176612538Y-135769637D01*
X176796576Y-135926821D01*
X176796581Y-135926824D01*
X176800341Y-135930036D01*
X176804558Y-135932620D01*
X176989998Y-136046258D01*
X177015141Y-136061666D01*
X177019711Y-136063559D01*
X177065719Y-136082616D01*
X177120999Y-136127165D01*
X177143500Y-136199025D01*
X177143500Y-136296381D01*
X177142422Y-136312827D01*
X177138318Y-136344000D01*
X177143500Y-136383361D01*
X177158956Y-136500762D01*
X177219464Y-136646841D01*
X177315718Y-136772282D01*
X177322264Y-136777305D01*
X177340671Y-136791429D01*
X177353062Y-136802297D01*
X178541703Y-137990938D01*
X178552570Y-138003328D01*
X178571718Y-138028282D01*
X178697159Y-138124536D01*
X178843238Y-138185044D01*
X179000000Y-138205682D01*
X179008188Y-138204604D01*
X179031173Y-138201578D01*
X179047619Y-138200500D01*
X187652381Y-138200500D01*
X187668827Y-138201578D01*
X187700000Y-138205682D01*
X187708188Y-138204604D01*
X187739361Y-138200500D01*
X187848574Y-138186122D01*
X187856762Y-138185044D01*
X188002841Y-138124536D01*
X188128282Y-138028282D01*
X188147430Y-138003328D01*
X188158297Y-137990938D01*
X189260146Y-136889090D01*
X189272537Y-136878223D01*
X189290929Y-136864110D01*
X189297482Y-136859082D01*
X189393736Y-136733641D01*
X189454244Y-136587562D01*
X189469700Y-136470161D01*
X189474882Y-136430800D01*
X189470778Y-136399627D01*
X189469700Y-136383181D01*
X189469700Y-136199025D01*
X189489702Y-136130904D01*
X189547481Y-136082616D01*
X189593489Y-136063559D01*
X189598059Y-136061666D01*
X189623203Y-136046258D01*
X189808642Y-135932620D01*
X189812859Y-135930036D01*
X189816619Y-135926824D01*
X189816624Y-135926821D01*
X190000662Y-135769637D01*
X190004424Y-135766424D01*
X190119347Y-135631866D01*
X190178796Y-135593058D01*
X190249791Y-135592550D01*
X190309790Y-135630507D01*
X190339743Y-135694875D01*
X190341157Y-135713724D01*
X190340114Y-140519027D01*
X190320097Y-140587144D01*
X190266431Y-140633625D01*
X190214114Y-140645000D01*
X168776000Y-140645000D01*
X168707879Y-140624998D01*
X168661386Y-140571342D01*
X168650000Y-140519000D01*
X168650000Y-135875869D01*
X169036001Y-135875869D01*
X169036371Y-135882690D01*
X169041895Y-135933552D01*
X169045521Y-135948804D01*
X169090676Y-136069254D01*
X169099214Y-136084849D01*
X169175715Y-136186924D01*
X169188276Y-136199485D01*
X169290351Y-136275986D01*
X169305946Y-136284524D01*
X169426394Y-136329678D01*
X169441649Y-136333305D01*
X169492514Y-136338831D01*
X169499328Y-136339200D01*
X170471885Y-136339200D01*
X170487124Y-136334725D01*
X170488329Y-136333335D01*
X170490000Y-136325652D01*
X170490000Y-134903315D01*
X170485525Y-134888076D01*
X170484135Y-134886871D01*
X170476452Y-134885200D01*
X169054116Y-134885200D01*
X169038877Y-134889675D01*
X169037672Y-134891065D01*
X169036001Y-134898748D01*
X169036001Y-135875869D01*
X168650000Y-135875869D01*
X168650000Y-134359085D01*
X169036000Y-134359085D01*
X169040475Y-134374324D01*
X169041865Y-134375529D01*
X169049548Y-134377200D01*
X170471885Y-134377200D01*
X170487124Y-134372725D01*
X170488329Y-134371335D01*
X170490000Y-134363652D01*
X170490000Y-132941316D01*
X170485525Y-132926077D01*
X170484135Y-132924872D01*
X170476452Y-132923201D01*
X169499331Y-132923201D01*
X169492510Y-132923571D01*
X169441648Y-132929095D01*
X169426396Y-132932721D01*
X169305946Y-132977876D01*
X169290351Y-132986414D01*
X169188276Y-133062915D01*
X169175715Y-133075476D01*
X169099214Y-133177551D01*
X169090676Y-133193146D01*
X169045522Y-133313594D01*
X169041895Y-133328849D01*
X169036369Y-133379714D01*
X169036000Y-133386528D01*
X169036000Y-134359085D01*
X168650000Y-134359085D01*
X168650000Y-131332500D01*
X168670002Y-131264379D01*
X168723658Y-131217886D01*
X168776000Y-131206500D01*
X168947954Y-131206500D01*
X169252360Y-131206499D01*
X169256444Y-131205961D01*
X169256450Y-131205961D01*
X169361575Y-131192122D01*
X169361577Y-131192122D01*
X169369762Y-131191044D01*
X169515841Y-131130536D01*
X169641282Y-131034282D01*
X169737536Y-130908841D01*
X169798044Y-130762762D01*
X169813500Y-130645361D01*
X169813500Y-129465083D01*
X169813507Y-129463763D01*
X169814367Y-129381640D01*
X169814441Y-129374593D01*
X169805384Y-129332704D01*
X169803324Y-129320126D01*
X169799331Y-129284524D01*
X169799330Y-129284522D01*
X169798546Y-129277528D01*
X169787650Y-129246241D01*
X169783489Y-129231436D01*
X169777978Y-129205944D01*
X169777977Y-129205942D01*
X169776489Y-129199058D01*
X169758375Y-129160213D01*
X169753579Y-129148401D01*
X169741802Y-129114580D01*
X169741801Y-129114578D01*
X169739485Y-129107927D01*
X169721932Y-129079836D01*
X169714593Y-129066319D01*
X169703568Y-129042676D01*
X169703568Y-129042675D01*
X169700591Y-129036292D01*
X169696270Y-129030721D01*
X169674321Y-129002424D01*
X169667026Y-128991969D01*
X169644316Y-128955625D01*
X169615997Y-128927107D01*
X169615415Y-128926485D01*
X169614901Y-128925823D01*
X169589041Y-128899963D01*
X169517770Y-128828193D01*
X169516743Y-128827541D01*
X169515535Y-128826457D01*
X168910140Y-128221062D01*
X168876114Y-128158750D01*
X168879922Y-128091466D01*
X168937475Y-127921921D01*
X168937476Y-127921916D01*
X168939331Y-127916452D01*
X168940159Y-127910743D01*
X168940160Y-127910738D01*
X168970458Y-127701772D01*
X168970991Y-127698098D01*
X168972643Y-127635000D01*
X168952454Y-127415289D01*
X168892565Y-127202936D01*
X168794980Y-127005053D01*
X168675042Y-126844437D01*
X168650310Y-126777887D01*
X168650000Y-126769048D01*
X168650000Y-124405410D01*
X168660606Y-124354812D01*
X168669602Y-124334295D01*
X168789748Y-124060293D01*
X168835420Y-124005940D01*
X168867861Y-123991294D01*
X168869762Y-123991044D01*
X168877392Y-123987884D01*
X168877394Y-123987883D01*
X168927586Y-123967092D01*
X169015841Y-123930536D01*
X169018718Y-123928329D01*
X169085626Y-123912096D01*
X169096285Y-123913059D01*
X169197772Y-123926600D01*
X169264150Y-123935457D01*
X169264153Y-123935457D01*
X169271130Y-123936388D01*
X169278142Y-123935750D01*
X169278146Y-123935750D01*
X169442960Y-123920751D01*
X169442961Y-123920751D01*
X169449981Y-123920112D01*
X169620782Y-123864615D01*
X169626833Y-123861008D01*
X169768992Y-123776265D01*
X169768994Y-123776264D01*
X169775044Y-123772657D01*
X169905099Y-123648807D01*
X169931348Y-123609300D01*
X170000582Y-123505093D01*
X170004483Y-123499222D01*
X170046744Y-123387969D01*
X170065757Y-123337919D01*
X170065758Y-123337914D01*
X170068257Y-123331336D01*
X170072403Y-123301834D01*
X170092700Y-123157416D01*
X170092700Y-123157411D01*
X170093251Y-123153493D01*
X170093565Y-123131000D01*
X170073546Y-122952528D01*
X170052269Y-122891427D01*
X170016803Y-122789584D01*
X170014485Y-122782927D01*
X170002683Y-122764039D01*
X169923049Y-122636599D01*
X169919316Y-122630625D01*
X169812973Y-122523537D01*
X169797733Y-122508190D01*
X169797729Y-122508187D01*
X169792770Y-122503193D01*
X169700071Y-122444364D01*
X169671373Y-122426152D01*
X169624574Y-122372763D01*
X169612899Y-122318023D01*
X169617162Y-122010079D01*
X169692344Y-116578126D01*
X170617071Y-116578126D01*
X170621475Y-116593124D01*
X170622865Y-116594329D01*
X170630548Y-116596000D01*
X171327885Y-116596000D01*
X171343124Y-116591525D01*
X171344329Y-116590135D01*
X171346000Y-116582452D01*
X171346000Y-116577885D01*
X171854000Y-116577885D01*
X171858475Y-116593124D01*
X171859865Y-116594329D01*
X171867548Y-116596000D01*
X173077885Y-116596000D01*
X173093124Y-116591525D01*
X173094329Y-116590135D01*
X173096000Y-116582452D01*
X173096000Y-116577885D01*
X173604000Y-116577885D01*
X173608475Y-116593124D01*
X173609865Y-116594329D01*
X173617548Y-116596000D01*
X174058885Y-116596000D01*
X174074124Y-116591526D01*
X174075889Y-116589488D01*
X174135615Y-116551104D01*
X174171114Y-116546000D01*
X174827885Y-116546000D01*
X174843124Y-116541525D01*
X174844329Y-116540135D01*
X174846000Y-116532452D01*
X174846000Y-115910116D01*
X174841525Y-115894877D01*
X174840135Y-115893672D01*
X174832452Y-115892001D01*
X174771295Y-115892001D01*
X174765546Y-115892264D01*
X174701685Y-115898132D01*
X174688649Y-115900743D01*
X174538757Y-115947715D01*
X174525012Y-115953921D01*
X174391426Y-116034824D01*
X174379557Y-116044131D01*
X174306776Y-116116912D01*
X174244464Y-116150938D01*
X174173649Y-116145873D01*
X174128664Y-116116991D01*
X174062572Y-116051015D01*
X174051160Y-116042002D01*
X173918120Y-115959996D01*
X173904939Y-115953849D01*
X173756186Y-115904509D01*
X173742810Y-115901642D01*
X173651903Y-115892328D01*
X173645486Y-115892000D01*
X173622115Y-115892000D01*
X173606876Y-115896475D01*
X173605671Y-115897865D01*
X173604000Y-115905548D01*
X173604000Y-116577885D01*
X173096000Y-116577885D01*
X173096000Y-115910115D01*
X173091525Y-115894876D01*
X173090135Y-115893671D01*
X173082452Y-115892000D01*
X173054562Y-115892000D01*
X173048047Y-115892337D01*
X172955943Y-115901894D01*
X172942544Y-115904788D01*
X172793893Y-115954381D01*
X172780714Y-115960555D01*
X172647827Y-116042788D01*
X172636426Y-116051824D01*
X172564205Y-116124172D01*
X172501922Y-116158252D01*
X172431102Y-116153249D01*
X172386013Y-116124328D01*
X172312571Y-116051014D01*
X172301160Y-116042002D01*
X172168120Y-115959996D01*
X172154939Y-115953849D01*
X172006186Y-115904509D01*
X171992810Y-115901642D01*
X171901903Y-115892328D01*
X171895486Y-115892000D01*
X171872115Y-115892000D01*
X171856876Y-115896475D01*
X171855671Y-115897865D01*
X171854000Y-115905548D01*
X171854000Y-116577885D01*
X171346000Y-116577885D01*
X171346000Y-115910115D01*
X171341525Y-115894876D01*
X171340135Y-115893671D01*
X171332452Y-115892000D01*
X171304562Y-115892000D01*
X171298047Y-115892337D01*
X171205943Y-115901894D01*
X171192544Y-115904788D01*
X171043893Y-115954381D01*
X171030714Y-115960555D01*
X170897827Y-116042788D01*
X170886426Y-116051824D01*
X170776014Y-116162429D01*
X170767002Y-116173840D01*
X170684996Y-116306880D01*
X170678849Y-116320061D01*
X170629509Y-116468814D01*
X170626642Y-116482190D01*
X170617328Y-116573097D01*
X170617071Y-116578126D01*
X169692344Y-116578126D01*
X169695943Y-116318116D01*
X169719111Y-116247033D01*
X169915797Y-115969359D01*
X169975165Y-115923919D01*
X170244369Y-115825028D01*
X170676139Y-115666419D01*
X170697521Y-115660638D01*
X171168053Y-115576947D01*
X171190118Y-115575000D01*
X174250000Y-115575000D01*
X174248918Y-115153306D01*
X174248525Y-115000453D01*
X174268353Y-114932281D01*
X174321889Y-114885650D01*
X174392136Y-114875366D01*
X174438662Y-114891674D01*
G37*
%TD.AperFunction*%
%TA.AperFunction,Conductor*%
G36*
X190296007Y-77001002D02*
G01*
X190342500Y-77054658D01*
X190353886Y-77107025D01*
X190341639Y-133499738D01*
X190341628Y-133549280D01*
X190321611Y-133617397D01*
X190267945Y-133663878D01*
X190197669Y-133673967D01*
X190133095Y-133644460D01*
X190119817Y-133631084D01*
X190108127Y-133617397D01*
X190004424Y-133495976D01*
X189931525Y-133433714D01*
X189816624Y-133335579D01*
X189816619Y-133335576D01*
X189812859Y-133332364D01*
X189598059Y-133200734D01*
X189593489Y-133198841D01*
X189593485Y-133198839D01*
X189369884Y-133106221D01*
X189369882Y-133106220D01*
X189365311Y-133104327D01*
X189280911Y-133084065D01*
X189125161Y-133046672D01*
X189125155Y-133046671D01*
X189120348Y-133045517D01*
X188869200Y-133025751D01*
X188618052Y-133045517D01*
X188613245Y-133046671D01*
X188613239Y-133046672D01*
X188457489Y-133084065D01*
X188373089Y-133104327D01*
X188368518Y-133106220D01*
X188368516Y-133106221D01*
X188144915Y-133198839D01*
X188144911Y-133198841D01*
X188140341Y-133200734D01*
X187925541Y-133332364D01*
X187921781Y-133335576D01*
X187921776Y-133335579D01*
X187806875Y-133433714D01*
X187733976Y-133495976D01*
X187730763Y-133499738D01*
X187573579Y-133683776D01*
X187573576Y-133683781D01*
X187570364Y-133687541D01*
X187438734Y-133902341D01*
X187436841Y-133906911D01*
X187436839Y-133906915D01*
X187363276Y-134084513D01*
X187342327Y-134135089D01*
X187341172Y-134139901D01*
X187285610Y-134371335D01*
X187283517Y-134380052D01*
X187263751Y-134631200D01*
X187283517Y-134882348D01*
X187284671Y-134887155D01*
X187284672Y-134887161D01*
X187302838Y-134962828D01*
X187342327Y-135127311D01*
X187438734Y-135360059D01*
X187570364Y-135574859D01*
X187573576Y-135578619D01*
X187573579Y-135578624D01*
X187619053Y-135631867D01*
X187733976Y-135766424D01*
X187737738Y-135769637D01*
X187921776Y-135926821D01*
X187921781Y-135926824D01*
X187925541Y-135930036D01*
X187929758Y-135932620D01*
X188115198Y-136046258D01*
X188140341Y-136061666D01*
X188144915Y-136063561D01*
X188149324Y-136065807D01*
X188148446Y-136067530D01*
X188197321Y-136106939D01*
X188219723Y-136174308D01*
X188202146Y-136243095D01*
X188182898Y-136267866D01*
X187488170Y-136962595D01*
X187425857Y-136996620D01*
X187399074Y-136999500D01*
X179300925Y-136999500D01*
X179232804Y-136979498D01*
X179211830Y-136962595D01*
X178485456Y-136236221D01*
X178451430Y-136173909D01*
X178456495Y-136103094D01*
X178499042Y-136046258D01*
X178508716Y-136039693D01*
X178683442Y-135932620D01*
X178687659Y-135930036D01*
X178691419Y-135926824D01*
X178691424Y-135926821D01*
X178751081Y-135875869D01*
X180161201Y-135875869D01*
X180161571Y-135882690D01*
X180167095Y-135933552D01*
X180170721Y-135948804D01*
X180215876Y-136069254D01*
X180224414Y-136084849D01*
X180300915Y-136186924D01*
X180313476Y-136199485D01*
X180415551Y-136275986D01*
X180431146Y-136284524D01*
X180551594Y-136329678D01*
X180566849Y-136333305D01*
X180617714Y-136338831D01*
X180624528Y-136339200D01*
X181597085Y-136339200D01*
X181612324Y-136334725D01*
X181613529Y-136333335D01*
X181615200Y-136325652D01*
X181615200Y-134903315D01*
X181610725Y-134888076D01*
X181609335Y-134886871D01*
X181601652Y-134885200D01*
X180179316Y-134885200D01*
X180164077Y-134889675D01*
X180162872Y-134891065D01*
X180161201Y-134898748D01*
X180161201Y-135875869D01*
X178751081Y-135875869D01*
X178875462Y-135769637D01*
X178879224Y-135766424D01*
X178994147Y-135631867D01*
X179039621Y-135578624D01*
X179039624Y-135578619D01*
X179042836Y-135574859D01*
X179174466Y-135360059D01*
X179270873Y-135127311D01*
X179310362Y-134962828D01*
X179328528Y-134887161D01*
X179328529Y-134887155D01*
X179329683Y-134882348D01*
X179349449Y-134631200D01*
X179329683Y-134380052D01*
X179327591Y-134371335D01*
X179324650Y-134359085D01*
X180161200Y-134359085D01*
X180165675Y-134374324D01*
X180167065Y-134375529D01*
X180174748Y-134377200D01*
X181597085Y-134377200D01*
X181612324Y-134372725D01*
X181613529Y-134371335D01*
X181615200Y-134363652D01*
X181615200Y-132941316D01*
X181610725Y-132926077D01*
X181609335Y-132924872D01*
X181601652Y-132923201D01*
X180624531Y-132923201D01*
X180617710Y-132923571D01*
X180566848Y-132929095D01*
X180551596Y-132932721D01*
X180431146Y-132977876D01*
X180415551Y-132986414D01*
X180313476Y-133062915D01*
X180300915Y-133075476D01*
X180224414Y-133177551D01*
X180215876Y-133193146D01*
X180170722Y-133313594D01*
X180167095Y-133328849D01*
X180161569Y-133379714D01*
X180161200Y-133386528D01*
X180161200Y-134359085D01*
X179324650Y-134359085D01*
X179272028Y-134139901D01*
X179270873Y-134135089D01*
X179249923Y-134084511D01*
X179242334Y-134013923D01*
X179277237Y-133947198D01*
X179397746Y-133826690D01*
X179567461Y-133656975D01*
X179579852Y-133646109D01*
X179598240Y-133632000D01*
X179598243Y-133631997D01*
X179604793Y-133626971D01*
X179612140Y-133617397D01*
X179665923Y-133547305D01*
X179701047Y-133501530D01*
X179761555Y-133355451D01*
X179777011Y-133238050D01*
X179782193Y-133198689D01*
X179778089Y-133167516D01*
X179777011Y-133151070D01*
X179777011Y-131135410D01*
X179797013Y-131067289D01*
X179850669Y-131020796D01*
X179920943Y-131010692D01*
X179985523Y-131040186D01*
X179992028Y-131046236D01*
X180021028Y-131075185D01*
X180032440Y-131084198D01*
X180165480Y-131166204D01*
X180178661Y-131172351D01*
X180327414Y-131221691D01*
X180340790Y-131224558D01*
X180431697Y-131233872D01*
X180436726Y-131234129D01*
X180451724Y-131229725D01*
X180452929Y-131228335D01*
X180454600Y-131220652D01*
X180454600Y-131216085D01*
X180962600Y-131216085D01*
X180967075Y-131231324D01*
X180968465Y-131232529D01*
X180976148Y-131234200D01*
X180979038Y-131234200D01*
X180985553Y-131233863D01*
X181077657Y-131224306D01*
X181091056Y-131221412D01*
X181239707Y-131171819D01*
X181252886Y-131165645D01*
X181385773Y-131083412D01*
X181397174Y-131074376D01*
X181507586Y-130963771D01*
X181516598Y-130952360D01*
X181598604Y-130819320D01*
X181604751Y-130806139D01*
X181654091Y-130657386D01*
X181656958Y-130644010D01*
X181666272Y-130553103D01*
X181666600Y-130546687D01*
X181666600Y-130523315D01*
X181662125Y-130508076D01*
X181660735Y-130506871D01*
X181653052Y-130505200D01*
X180980715Y-130505200D01*
X180965476Y-130509675D01*
X180964271Y-130511065D01*
X180962600Y-130518748D01*
X180962600Y-131216085D01*
X180454600Y-131216085D01*
X180454600Y-129979085D01*
X180962600Y-129979085D01*
X180967075Y-129994324D01*
X180968465Y-129995529D01*
X180976148Y-129997200D01*
X181648485Y-129997200D01*
X181663724Y-129992725D01*
X181664929Y-129991335D01*
X181666600Y-129983652D01*
X181666600Y-129955762D01*
X181666263Y-129949247D01*
X181656706Y-129857143D01*
X181653812Y-129843744D01*
X181604219Y-129695093D01*
X181598045Y-129681914D01*
X181515812Y-129549027D01*
X181506776Y-129537626D01*
X181396171Y-129427214D01*
X181384760Y-129418202D01*
X181251720Y-129336196D01*
X181238539Y-129330049D01*
X181089786Y-129280709D01*
X181076410Y-129277842D01*
X180985503Y-129268528D01*
X180980474Y-129268271D01*
X180965476Y-129272675D01*
X180964271Y-129274065D01*
X180962600Y-129281748D01*
X180962600Y-129979085D01*
X180454600Y-129979085D01*
X180454600Y-129286315D01*
X180450125Y-129271076D01*
X180448735Y-129269871D01*
X180441052Y-129268200D01*
X180438162Y-129268200D01*
X180431647Y-129268537D01*
X180339543Y-129278094D01*
X180326144Y-129280988D01*
X180177493Y-129330581D01*
X180164314Y-129336755D01*
X180031427Y-129418988D01*
X180020026Y-129428024D01*
X179992185Y-129455914D01*
X179929902Y-129489994D01*
X179859082Y-129484991D01*
X179802209Y-129442494D01*
X179777340Y-129375996D01*
X179777011Y-129366897D01*
X179777011Y-128836529D01*
X179797013Y-128768408D01*
X179850669Y-128721915D01*
X179920943Y-128711811D01*
X179952746Y-128720760D01*
X180094436Y-128781635D01*
X180174088Y-128799658D01*
X180303995Y-128829054D01*
X180304001Y-128829055D01*
X180309632Y-128830329D01*
X180315403Y-128830556D01*
X180315405Y-128830556D01*
X180383211Y-128833220D01*
X180530098Y-128838991D01*
X180639275Y-128823161D01*
X180742738Y-128808160D01*
X180742743Y-128808159D01*
X180748452Y-128807331D01*
X180753916Y-128805476D01*
X180753921Y-128805475D01*
X180951907Y-128738268D01*
X180951912Y-128738266D01*
X180957379Y-128736410D01*
X180985323Y-128720761D01*
X181044282Y-128687742D01*
X181149884Y-128628602D01*
X181162757Y-128617896D01*
X181315086Y-128491204D01*
X181319518Y-128487518D01*
X181460602Y-128317884D01*
X181525606Y-128201812D01*
X181565586Y-128130422D01*
X181565587Y-128130420D01*
X181568410Y-128125379D01*
X181570266Y-128119912D01*
X181570268Y-128119907D01*
X181617264Y-127981460D01*
X181658101Y-127923383D01*
X181723854Y-127896605D01*
X181793646Y-127909626D01*
X181845319Y-127958313D01*
X181858700Y-127990946D01*
X181869089Y-128031855D01*
X181869091Y-128031860D01*
X181870511Y-128037452D01*
X181872928Y-128042694D01*
X181872928Y-128042695D01*
X181926990Y-128159964D01*
X181962883Y-128237821D01*
X182090222Y-128418002D01*
X182248264Y-128571961D01*
X182253060Y-128575166D01*
X182253063Y-128575168D01*
X182334687Y-128629707D01*
X182431717Y-128694540D01*
X182437020Y-128696818D01*
X182437023Y-128696820D01*
X182603649Y-128768408D01*
X182634436Y-128781635D01*
X182714088Y-128799658D01*
X182843995Y-128829054D01*
X182844001Y-128829055D01*
X182849632Y-128830329D01*
X182855403Y-128830556D01*
X182855405Y-128830556D01*
X182923211Y-128833220D01*
X183070098Y-128838991D01*
X183179275Y-128823161D01*
X183282738Y-128808160D01*
X183282743Y-128808159D01*
X183288452Y-128807331D01*
X183293916Y-128805476D01*
X183293921Y-128805475D01*
X183491907Y-128738268D01*
X183491912Y-128738266D01*
X183497379Y-128736410D01*
X183525323Y-128720761D01*
X183584282Y-128687742D01*
X183689884Y-128628602D01*
X183702757Y-128617896D01*
X183855086Y-128491204D01*
X183859518Y-128487518D01*
X184000602Y-128317884D01*
X184065606Y-128201812D01*
X184105586Y-128130422D01*
X184105587Y-128130420D01*
X184108410Y-128125379D01*
X184110266Y-128119912D01*
X184110268Y-128119907D01*
X184157264Y-127981460D01*
X184198101Y-127923383D01*
X184263854Y-127896605D01*
X184333646Y-127909626D01*
X184385319Y-127958313D01*
X184398700Y-127990946D01*
X184409089Y-128031855D01*
X184409091Y-128031860D01*
X184410511Y-128037452D01*
X184412928Y-128042694D01*
X184412928Y-128042695D01*
X184466990Y-128159964D01*
X184502883Y-128237821D01*
X184630222Y-128418002D01*
X184788264Y-128571961D01*
X184793060Y-128575166D01*
X184793063Y-128575168D01*
X184874687Y-128629707D01*
X184971717Y-128694540D01*
X184977020Y-128696818D01*
X184977023Y-128696820D01*
X185143649Y-128768408D01*
X185174436Y-128781635D01*
X185254088Y-128799658D01*
X185383995Y-128829054D01*
X185384001Y-128829055D01*
X185389632Y-128830329D01*
X185395403Y-128830556D01*
X185395405Y-128830556D01*
X185463211Y-128833220D01*
X185610098Y-128838991D01*
X185719275Y-128823161D01*
X185822738Y-128808160D01*
X185822743Y-128808159D01*
X185828452Y-128807331D01*
X185833916Y-128805476D01*
X185833921Y-128805475D01*
X186031907Y-128738268D01*
X186031912Y-128738266D01*
X186037379Y-128736410D01*
X186061935Y-128722658D01*
X186131144Y-128706825D01*
X186197926Y-128730923D01*
X186241078Y-128787300D01*
X186249500Y-128832593D01*
X186249500Y-132920185D01*
X186229498Y-132988306D01*
X186212595Y-133009280D01*
X186103202Y-133118673D01*
X186040890Y-133152699D01*
X185965890Y-133145987D01*
X185869889Y-133106223D01*
X185869886Y-133106222D01*
X185865311Y-133104327D01*
X185780911Y-133084065D01*
X185625161Y-133046672D01*
X185625155Y-133046671D01*
X185620348Y-133045517D01*
X185369200Y-133025751D01*
X185118052Y-133045517D01*
X185113245Y-133046671D01*
X185113239Y-133046672D01*
X184957489Y-133084065D01*
X184873089Y-133104327D01*
X184868518Y-133106220D01*
X184868516Y-133106221D01*
X184644915Y-133198839D01*
X184644911Y-133198841D01*
X184640341Y-133200734D01*
X184425541Y-133332364D01*
X184421781Y-133335576D01*
X184421776Y-133335579D01*
X184306875Y-133433714D01*
X184233976Y-133495976D01*
X184230763Y-133499738D01*
X184073579Y-133683776D01*
X184073576Y-133683781D01*
X184070364Y-133687541D01*
X183938734Y-133902341D01*
X183936841Y-133906911D01*
X183936839Y-133906915D01*
X183863276Y-134084513D01*
X183842327Y-134135089D01*
X183841172Y-134139901D01*
X183825718Y-134204270D01*
X183790366Y-134265839D01*
X183727339Y-134298522D01*
X183656648Y-134291941D01*
X183600737Y-134248187D01*
X183577199Y-134174856D01*
X183577199Y-133386531D01*
X183576829Y-133379710D01*
X183571305Y-133328848D01*
X183567679Y-133313596D01*
X183522524Y-133193146D01*
X183513986Y-133177551D01*
X183437485Y-133075476D01*
X183424924Y-133062915D01*
X183322849Y-132986414D01*
X183307254Y-132977876D01*
X183186806Y-132932722D01*
X183171551Y-132929095D01*
X183120686Y-132923569D01*
X183113872Y-132923200D01*
X182141315Y-132923200D01*
X182126076Y-132927675D01*
X182124871Y-132929065D01*
X182123200Y-132936748D01*
X182123200Y-136321084D01*
X182127675Y-136336323D01*
X182129065Y-136337528D01*
X182136748Y-136339199D01*
X183113869Y-136339199D01*
X183120690Y-136338829D01*
X183171552Y-136333305D01*
X183186804Y-136329679D01*
X183307254Y-136284524D01*
X183322849Y-136275986D01*
X183424924Y-136199485D01*
X183437485Y-136186924D01*
X183513986Y-136084849D01*
X183522524Y-136069254D01*
X183567678Y-135948806D01*
X183571305Y-135933551D01*
X183576831Y-135882686D01*
X183577200Y-135875872D01*
X183577200Y-135087546D01*
X183597202Y-135019425D01*
X183650858Y-134972932D01*
X183721132Y-134962828D01*
X183785712Y-134992322D01*
X183825719Y-135058133D01*
X183842327Y-135127311D01*
X183938734Y-135360059D01*
X184070364Y-135574859D01*
X184073576Y-135578619D01*
X184073579Y-135578624D01*
X184119053Y-135631867D01*
X184233976Y-135766424D01*
X184237738Y-135769637D01*
X184421776Y-135926821D01*
X184421781Y-135926824D01*
X184425541Y-135930036D01*
X184429758Y-135932620D01*
X184615198Y-136046258D01*
X184640341Y-136061666D01*
X184644911Y-136063559D01*
X184644915Y-136063561D01*
X184868516Y-136156179D01*
X184873089Y-136158073D01*
X184939051Y-136173909D01*
X185113239Y-136215728D01*
X185113245Y-136215729D01*
X185118052Y-136216883D01*
X185369200Y-136236649D01*
X185620348Y-136216883D01*
X185625155Y-136215729D01*
X185625161Y-136215728D01*
X185799349Y-136173909D01*
X185865311Y-136158073D01*
X185869884Y-136156179D01*
X186093485Y-136063561D01*
X186093489Y-136063559D01*
X186098059Y-136061666D01*
X186123203Y-136046258D01*
X186308642Y-135932620D01*
X186312859Y-135930036D01*
X186316619Y-135926824D01*
X186316624Y-135926821D01*
X186500662Y-135769637D01*
X186504424Y-135766424D01*
X186619347Y-135631867D01*
X186664821Y-135578624D01*
X186664824Y-135578619D01*
X186668036Y-135574859D01*
X186799666Y-135360059D01*
X186896073Y-135127311D01*
X186935562Y-134962828D01*
X186953728Y-134887161D01*
X186953729Y-134887155D01*
X186954883Y-134882348D01*
X186974649Y-134631200D01*
X186954883Y-134380052D01*
X186952791Y-134371335D01*
X186897228Y-134139901D01*
X186896073Y-134135089D01*
X186854412Y-134034510D01*
X186846823Y-133963922D01*
X186881726Y-133897198D01*
X187178642Y-133600282D01*
X187182451Y-133596629D01*
X187221833Y-133560415D01*
X187228156Y-133554601D01*
X187251099Y-133517598D01*
X187257800Y-133507848D01*
X187284112Y-133473183D01*
X187289646Y-133459204D01*
X187299707Y-133439201D01*
X187307635Y-133426414D01*
X187319775Y-133384628D01*
X187323621Y-133373395D01*
X187336473Y-133340935D01*
X187339636Y-133332947D01*
X187341208Y-133317992D01*
X187345520Y-133296017D01*
X187349715Y-133281575D01*
X187350500Y-133270885D01*
X187350500Y-133236183D01*
X187351190Y-133223013D01*
X187353531Y-133200734D01*
X187355401Y-133182946D01*
X187353969Y-133174481D01*
X187353969Y-133174472D01*
X187352265Y-133164400D01*
X187350500Y-133143387D01*
X187350500Y-122523537D01*
X187370502Y-122455416D01*
X187412360Y-122415085D01*
X187438809Y-122399443D01*
X187549443Y-122288809D01*
X187553479Y-122281985D01*
X187553481Y-122281982D01*
X187589265Y-122221474D01*
X187629087Y-122154139D01*
X187672737Y-122003892D01*
X187673242Y-121997479D01*
X187675307Y-121971243D01*
X187675307Y-121971235D01*
X187675500Y-121968787D01*
X187675499Y-121406214D01*
X187672737Y-121371108D01*
X187629087Y-121220861D01*
X187589265Y-121153526D01*
X187553481Y-121093018D01*
X187553479Y-121093015D01*
X187549443Y-121086191D01*
X187452347Y-120989095D01*
X187418321Y-120926783D01*
X187423386Y-120855968D01*
X187452347Y-120810905D01*
X187549443Y-120713809D01*
X187553479Y-120706985D01*
X187553481Y-120706982D01*
X187599230Y-120629624D01*
X187629087Y-120579139D01*
X187631300Y-120571523D01*
X187670942Y-120435072D01*
X187670943Y-120435068D01*
X187672737Y-120428892D01*
X187673242Y-120422479D01*
X187675307Y-120396243D01*
X187675307Y-120396235D01*
X187675500Y-120393787D01*
X187675499Y-119831214D01*
X187672737Y-119796108D01*
X187654567Y-119733563D01*
X187631300Y-119653477D01*
X187631299Y-119653474D01*
X187629087Y-119645861D01*
X187589265Y-119578526D01*
X187553481Y-119518018D01*
X187553479Y-119518015D01*
X187549443Y-119511191D01*
X187438809Y-119400557D01*
X187414232Y-119386022D01*
X187365781Y-119334129D01*
X187353076Y-119264279D01*
X187380152Y-119198648D01*
X187401669Y-119177608D01*
X187488332Y-119111109D01*
X187488336Y-119111105D01*
X187494882Y-119106082D01*
X187591136Y-118980641D01*
X187651644Y-118834562D01*
X187667100Y-118717161D01*
X187667099Y-118238440D01*
X187651644Y-118121038D01*
X187591136Y-117974959D01*
X187515771Y-117876741D01*
X187499905Y-117856064D01*
X187494882Y-117849518D01*
X187488335Y-117844494D01*
X187456627Y-117820163D01*
X187414760Y-117762824D01*
X187410539Y-117691953D01*
X187445304Y-117630051D01*
X187468061Y-117612425D01*
X187500171Y-117592979D01*
X187512043Y-117583669D01*
X187622469Y-117473243D01*
X187631776Y-117461374D01*
X187712679Y-117327788D01*
X187718885Y-117314043D01*
X187765856Y-117164156D01*
X187768469Y-117151106D01*
X187773513Y-117096214D01*
X187770125Y-117084676D01*
X187768735Y-117083471D01*
X187761052Y-117081800D01*
X186082715Y-117081800D01*
X186067476Y-117086274D01*
X186065711Y-117088312D01*
X186005985Y-117126696D01*
X185970486Y-117131800D01*
X182326715Y-117131800D01*
X182311476Y-117136275D01*
X182310271Y-117137665D01*
X182308600Y-117145348D01*
X182308600Y-117148238D01*
X182308937Y-117154753D01*
X182318494Y-117246857D01*
X182321388Y-117260256D01*
X182370981Y-117408907D01*
X182377155Y-117422086D01*
X182459388Y-117554973D01*
X182468424Y-117566374D01*
X182542015Y-117639837D01*
X182576094Y-117702120D01*
X182571091Y-117772940D01*
X182552556Y-117806237D01*
X182549039Y-117810771D01*
X182543430Y-117816380D01*
X182539393Y-117823207D01*
X182536887Y-117826437D01*
X182479330Y-117868003D01*
X182432057Y-117875099D01*
X182419906Y-117874590D01*
X182411543Y-117876552D01*
X182409539Y-117876741D01*
X182397683Y-117877300D01*
X181118100Y-117877300D01*
X181049979Y-117857298D01*
X181003486Y-117803642D01*
X180992100Y-117751300D01*
X180992100Y-116687593D01*
X180992211Y-116682317D01*
X180994450Y-116628891D01*
X180994810Y-116620306D01*
X180991437Y-116605926D01*
X182308671Y-116605926D01*
X182313075Y-116620924D01*
X182314465Y-116622129D01*
X182322148Y-116623800D01*
X183019485Y-116623800D01*
X183034724Y-116619325D01*
X183035929Y-116617935D01*
X183037600Y-116610252D01*
X183037600Y-116605685D01*
X183545600Y-116605685D01*
X183550075Y-116620924D01*
X183551465Y-116622129D01*
X183559148Y-116623800D01*
X184769485Y-116623800D01*
X184784724Y-116619325D01*
X184785929Y-116617935D01*
X184787600Y-116610252D01*
X184787600Y-116605685D01*
X185295600Y-116605685D01*
X185300075Y-116620924D01*
X185301465Y-116622129D01*
X185309148Y-116623800D01*
X185750485Y-116623800D01*
X185765724Y-116619326D01*
X185767489Y-116617288D01*
X185827215Y-116578904D01*
X185862714Y-116573800D01*
X186519485Y-116573800D01*
X186534724Y-116569325D01*
X186535929Y-116567935D01*
X186537600Y-116560252D01*
X186537600Y-116555685D01*
X187045600Y-116555685D01*
X187050075Y-116570924D01*
X187051465Y-116572129D01*
X187059148Y-116573800D01*
X187756484Y-116573800D01*
X187771723Y-116569325D01*
X187772928Y-116567935D01*
X187773891Y-116563506D01*
X187768468Y-116504485D01*
X187765857Y-116491449D01*
X187718885Y-116341557D01*
X187712679Y-116327812D01*
X187631776Y-116194226D01*
X187622469Y-116182357D01*
X187512043Y-116071931D01*
X187500174Y-116062624D01*
X187366588Y-115981721D01*
X187352843Y-115975515D01*
X187202956Y-115928544D01*
X187189906Y-115925931D01*
X187126079Y-115920066D01*
X187120291Y-115919800D01*
X187063715Y-115919800D01*
X187048476Y-115924275D01*
X187047271Y-115925665D01*
X187045600Y-115933348D01*
X187045600Y-116555685D01*
X186537600Y-116555685D01*
X186537600Y-115937916D01*
X186533125Y-115922677D01*
X186531735Y-115921472D01*
X186524052Y-115919801D01*
X186462895Y-115919801D01*
X186457146Y-115920064D01*
X186393285Y-115925932D01*
X186380249Y-115928543D01*
X186230357Y-115975515D01*
X186216612Y-115981721D01*
X186083026Y-116062624D01*
X186071157Y-116071931D01*
X185998376Y-116144712D01*
X185936064Y-116178738D01*
X185865249Y-116173673D01*
X185820264Y-116144791D01*
X185754172Y-116078815D01*
X185742760Y-116069802D01*
X185609720Y-115987796D01*
X185596539Y-115981649D01*
X185447786Y-115932309D01*
X185434410Y-115929442D01*
X185343503Y-115920128D01*
X185337086Y-115919800D01*
X185313715Y-115919800D01*
X185298476Y-115924275D01*
X185297271Y-115925665D01*
X185295600Y-115933348D01*
X185295600Y-116605685D01*
X184787600Y-116605685D01*
X184787600Y-115937915D01*
X184783125Y-115922676D01*
X184781735Y-115921471D01*
X184774052Y-115919800D01*
X184746162Y-115919800D01*
X184739647Y-115920137D01*
X184647543Y-115929694D01*
X184634144Y-115932588D01*
X184485493Y-115982181D01*
X184472314Y-115988355D01*
X184339427Y-116070588D01*
X184328026Y-116079624D01*
X184255805Y-116151972D01*
X184193522Y-116186052D01*
X184122702Y-116181049D01*
X184077613Y-116152128D01*
X184004171Y-116078814D01*
X183992760Y-116069802D01*
X183859720Y-115987796D01*
X183846539Y-115981649D01*
X183697786Y-115932309D01*
X183684410Y-115929442D01*
X183593503Y-115920128D01*
X183587086Y-115919800D01*
X183563715Y-115919800D01*
X183548476Y-115924275D01*
X183547271Y-115925665D01*
X183545600Y-115933348D01*
X183545600Y-116605685D01*
X183037600Y-116605685D01*
X183037600Y-115937915D01*
X183033125Y-115922676D01*
X183031735Y-115921471D01*
X183024052Y-115919800D01*
X182996162Y-115919800D01*
X182989647Y-115920137D01*
X182897543Y-115929694D01*
X182884144Y-115932588D01*
X182735493Y-115982181D01*
X182722314Y-115988355D01*
X182589427Y-116070588D01*
X182578026Y-116079624D01*
X182467614Y-116190229D01*
X182458602Y-116201640D01*
X182376596Y-116334680D01*
X182370449Y-116347861D01*
X182321109Y-116496614D01*
X182318242Y-116509990D01*
X182308928Y-116600897D01*
X182308671Y-116605926D01*
X180991437Y-116605926D01*
X180988717Y-116594329D01*
X180984873Y-116577938D01*
X180982710Y-116566267D01*
X180977972Y-116531681D01*
X180976806Y-116523168D01*
X180970835Y-116509370D01*
X180963801Y-116488101D01*
X180962329Y-116481825D01*
X180960368Y-116473464D01*
X180956231Y-116465939D01*
X180956230Y-116465936D01*
X180939405Y-116435332D01*
X180934189Y-116424687D01*
X180916905Y-116384745D01*
X180907442Y-116373059D01*
X180894954Y-116354474D01*
X180890890Y-116347082D01*
X180887707Y-116341292D01*
X180880703Y-116333178D01*
X180856167Y-116308642D01*
X180847342Y-116298841D01*
X180827394Y-116274208D01*
X180827393Y-116274207D01*
X180821986Y-116267530D01*
X180806655Y-116256634D01*
X180790549Y-116243024D01*
X180037309Y-115489785D01*
X180037303Y-115489778D01*
X178782990Y-114235466D01*
X178748966Y-114173155D01*
X178750379Y-114113761D01*
X178761057Y-114073911D01*
X178782207Y-113994977D01*
X178801277Y-113777000D01*
X178782207Y-113559023D01*
X178725575Y-113347670D01*
X178723252Y-113342688D01*
X178635425Y-113154343D01*
X178635423Y-113154340D01*
X178633102Y-113149362D01*
X178507598Y-112970123D01*
X178352877Y-112815402D01*
X178348369Y-112812245D01*
X178348366Y-112812243D01*
X178178148Y-112693055D01*
X178178145Y-112693053D01*
X178173639Y-112689898D01*
X178168653Y-112687573D01*
X178168646Y-112687569D01*
X178153060Y-112680301D01*
X178099775Y-112633383D01*
X178080315Y-112565106D01*
X178100858Y-112497146D01*
X178150879Y-112452955D01*
X178239100Y-112409736D01*
X178247945Y-112404464D01*
X178421328Y-112280792D01*
X178429200Y-112274139D01*
X178580052Y-112123812D01*
X178586730Y-112115965D01*
X178711003Y-111943020D01*
X178716313Y-111934183D01*
X178810670Y-111743267D01*
X178814469Y-111733672D01*
X178876377Y-111529910D01*
X178878555Y-111519837D01*
X178879986Y-111508962D01*
X178877775Y-111494778D01*
X178864617Y-111491000D01*
X176229225Y-111491000D01*
X176215694Y-111494973D01*
X176214257Y-111504966D01*
X176244565Y-111639446D01*
X176247645Y-111649275D01*
X176327770Y-111846603D01*
X176332413Y-111855794D01*
X176443694Y-112037388D01*
X176449777Y-112045699D01*
X176589213Y-112206667D01*
X176596580Y-112213883D01*
X176760434Y-112349916D01*
X176768876Y-112355828D01*
X176945533Y-112459058D01*
X176994256Y-112510697D01*
X177007327Y-112580480D01*
X176980595Y-112646252D01*
X176935211Y-112682041D01*
X176918362Y-112689898D01*
X176739123Y-112815402D01*
X176584402Y-112970123D01*
X176458898Y-113149362D01*
X176456577Y-113154340D01*
X176456575Y-113154343D01*
X176368748Y-113342688D01*
X176366425Y-113347670D01*
X176309793Y-113559023D01*
X176290723Y-113777000D01*
X176309793Y-113994977D01*
X176366425Y-114206330D01*
X176368747Y-114211310D01*
X176368748Y-114211312D01*
X176437482Y-114358712D01*
X176448143Y-114428904D01*
X176419163Y-114493716D01*
X176359743Y-114532573D01*
X176288749Y-114533136D01*
X176234192Y-114501057D01*
X175881004Y-114147869D01*
X175846978Y-114085557D01*
X175844099Y-114058774D01*
X175844099Y-113803414D01*
X175841337Y-113768308D01*
X175828877Y-113725417D01*
X175799900Y-113625677D01*
X175799899Y-113625674D01*
X175797687Y-113618061D01*
X175740699Y-113521700D01*
X175722081Y-113490218D01*
X175722079Y-113490215D01*
X175718043Y-113483391D01*
X175607409Y-113372757D01*
X175600585Y-113368721D01*
X175600582Y-113368719D01*
X175540074Y-113332935D01*
X175472739Y-113293113D01*
X175465126Y-113290901D01*
X175465123Y-113290900D01*
X175328672Y-113251258D01*
X175328668Y-113251257D01*
X175322492Y-113249463D01*
X175316081Y-113248958D01*
X175316079Y-113248958D01*
X175289843Y-113246893D01*
X175289835Y-113246893D01*
X175287387Y-113246700D01*
X175006271Y-113246700D01*
X174724814Y-113246701D01*
X174689708Y-113249463D01*
X174683525Y-113251259D01*
X174683521Y-113251260D01*
X174547077Y-113290900D01*
X174547074Y-113290901D01*
X174539461Y-113293113D01*
X174434160Y-113355388D01*
X174365348Y-113372847D01*
X174298016Y-113350331D01*
X174253547Y-113294987D01*
X174244024Y-113247257D01*
X174238180Y-110971183D01*
X176210389Y-110971183D01*
X176211912Y-110979607D01*
X176224292Y-110983000D01*
X177273885Y-110983000D01*
X177289124Y-110978525D01*
X177290329Y-110977135D01*
X177292000Y-110969452D01*
X177292000Y-110964885D01*
X177800000Y-110964885D01*
X177804475Y-110980124D01*
X177805865Y-110981329D01*
X177813548Y-110983000D01*
X178864344Y-110983000D01*
X178877875Y-110979027D01*
X178879180Y-110969947D01*
X178837214Y-110802875D01*
X178833894Y-110793124D01*
X178748972Y-110597814D01*
X178744105Y-110588739D01*
X178628426Y-110409926D01*
X178622136Y-110401757D01*
X178478806Y-110244240D01*
X178471273Y-110237215D01*
X178304139Y-110105222D01*
X178295552Y-110099517D01*
X178109117Y-109996599D01*
X178099705Y-109992369D01*
X177898959Y-109921280D01*
X177888988Y-109918646D01*
X177817837Y-109905972D01*
X177804540Y-109907432D01*
X177800000Y-109921989D01*
X177800000Y-110964885D01*
X177292000Y-110964885D01*
X177292000Y-109920102D01*
X177288082Y-109906758D01*
X177273806Y-109904771D01*
X177235324Y-109910660D01*
X177225288Y-109913051D01*
X177022868Y-109979212D01*
X177013359Y-109983209D01*
X176824463Y-110081542D01*
X176815738Y-110087036D01*
X176645433Y-110214905D01*
X176637726Y-110221748D01*
X176490590Y-110375717D01*
X176484104Y-110383727D01*
X176364098Y-110559649D01*
X176359000Y-110568623D01*
X176269338Y-110761783D01*
X176265775Y-110771470D01*
X176210389Y-110971183D01*
X174238180Y-110971183D01*
X174236672Y-110383727D01*
X174232702Y-108837426D01*
X174252530Y-108769256D01*
X174269489Y-108748126D01*
X174448994Y-108568159D01*
X174511261Y-108534054D01*
X174538198Y-108531140D01*
X187884000Y-108531003D01*
X188138000Y-108531000D01*
X188138000Y-83581000D01*
X187910569Y-83467902D01*
X187609055Y-83317964D01*
X186822796Y-82926970D01*
X186770707Y-82878728D01*
X186752900Y-82814150D01*
X186752899Y-81545637D01*
X186752899Y-81540682D01*
X186752124Y-81535788D01*
X186739598Y-81456694D01*
X186739597Y-81456692D01*
X186738046Y-81446896D01*
X186680450Y-81333858D01*
X186590742Y-81244150D01*
X186477704Y-81186554D01*
X186467915Y-81185004D01*
X186467913Y-81185003D01*
X186440551Y-81180670D01*
X186383919Y-81171700D01*
X186223500Y-81171700D01*
X186155379Y-81151698D01*
X186108886Y-81098042D01*
X186097500Y-81045700D01*
X186097500Y-80516591D01*
X186117502Y-80448470D01*
X186161933Y-80406657D01*
X186224842Y-80371426D01*
X186224845Y-80371424D01*
X186229884Y-80368602D01*
X186399518Y-80227518D01*
X186515811Y-80087692D01*
X186536908Y-80062326D01*
X186536910Y-80062323D01*
X186540602Y-80057884D01*
X186648410Y-79865379D01*
X186650266Y-79859912D01*
X186650268Y-79859907D01*
X186717475Y-79661921D01*
X186717476Y-79661916D01*
X186719331Y-79656452D01*
X186720159Y-79650743D01*
X186720160Y-79650738D01*
X186750458Y-79441772D01*
X186750991Y-79438098D01*
X186752643Y-79375000D01*
X186732454Y-79155289D01*
X186672565Y-78942936D01*
X186574980Y-78745053D01*
X186442967Y-78568267D01*
X186280949Y-78418499D01*
X186094350Y-78300764D01*
X185889421Y-78219006D01*
X185883761Y-78217880D01*
X185883757Y-78217879D01*
X185678691Y-78177089D01*
X185678688Y-78177089D01*
X185673024Y-78175962D01*
X185667249Y-78175886D01*
X185667245Y-78175886D01*
X185556504Y-78174437D01*
X185452406Y-78173074D01*
X185446709Y-78174053D01*
X185446708Y-78174053D01*
X185240654Y-78209459D01*
X185240653Y-78209459D01*
X185234957Y-78210438D01*
X185027957Y-78286804D01*
X185022996Y-78289756D01*
X185022995Y-78289756D01*
X184907898Y-78358232D01*
X184838341Y-78399614D01*
X184672457Y-78545090D01*
X184535863Y-78718360D01*
X184433131Y-78913620D01*
X184403269Y-79009793D01*
X184397432Y-79028591D01*
X184358129Y-79087716D01*
X184293100Y-79116207D01*
X184222990Y-79105017D01*
X184170060Y-79057700D01*
X184155830Y-79025428D01*
X184134134Y-78948500D01*
X184132565Y-78942936D01*
X184034980Y-78745053D01*
X183902967Y-78568267D01*
X183740949Y-78418499D01*
X183554350Y-78300764D01*
X183349421Y-78219006D01*
X183343761Y-78217880D01*
X183343757Y-78217879D01*
X183138691Y-78177089D01*
X183138688Y-78177089D01*
X183133024Y-78175962D01*
X183127249Y-78175886D01*
X183127245Y-78175886D01*
X183016504Y-78174437D01*
X182912406Y-78173074D01*
X182906709Y-78174053D01*
X182906708Y-78174053D01*
X182700654Y-78209459D01*
X182700653Y-78209459D01*
X182694957Y-78210438D01*
X182487957Y-78286804D01*
X182482996Y-78289756D01*
X182482995Y-78289756D01*
X182367898Y-78358232D01*
X182298341Y-78399614D01*
X182132457Y-78545090D01*
X181995863Y-78718360D01*
X181893131Y-78913620D01*
X181863269Y-79009793D01*
X181857432Y-79028591D01*
X181818129Y-79087716D01*
X181753100Y-79116207D01*
X181682990Y-79105017D01*
X181630060Y-79057700D01*
X181615830Y-79025428D01*
X181594134Y-78948500D01*
X181592565Y-78942936D01*
X181494980Y-78745053D01*
X181362967Y-78568267D01*
X181200949Y-78418499D01*
X181014350Y-78300764D01*
X180809421Y-78219006D01*
X180803761Y-78217880D01*
X180803757Y-78217879D01*
X180598691Y-78177089D01*
X180598688Y-78177089D01*
X180593024Y-78175962D01*
X180587249Y-78175886D01*
X180587245Y-78175886D01*
X180476504Y-78174437D01*
X180372406Y-78173074D01*
X180366711Y-78174053D01*
X180366706Y-78174053D01*
X180156111Y-78210239D01*
X180085587Y-78202062D01*
X180045682Y-78175157D01*
X179117829Y-77247305D01*
X179114199Y-77243519D01*
X179077985Y-77204137D01*
X179072171Y-77197814D01*
X179073105Y-77196955D01*
X179038183Y-77145249D01*
X179036562Y-77074271D01*
X179073572Y-77013684D01*
X179137463Y-76982724D01*
X179158237Y-76981000D01*
X190227886Y-76981000D01*
X190296007Y-77001002D01*
G37*
%TD.AperFunction*%
%TD*%
%TA.AperFunction,Conductor*%
%TO.N,+5V*%
G36*
X187449931Y-84201002D02*
G01*
X187470905Y-84217905D01*
X187651095Y-84398095D01*
X187685121Y-84460407D01*
X187688000Y-84487190D01*
X187688000Y-107724810D01*
X187667998Y-107792931D01*
X187651095Y-107813905D01*
X187470905Y-107994095D01*
X187408593Y-108028121D01*
X187381810Y-108031000D01*
X173800000Y-108031000D01*
X173800000Y-113270459D01*
X173779998Y-113338580D01*
X173726342Y-113385073D01*
X173709499Y-113391355D01*
X173687976Y-113397675D01*
X173686771Y-113399065D01*
X173685100Y-113406748D01*
X173685100Y-114250200D01*
X173665098Y-114318321D01*
X173611442Y-114364814D01*
X173559100Y-114376200D01*
X172757716Y-114376200D01*
X172742477Y-114380675D01*
X172741272Y-114382065D01*
X172739601Y-114389748D01*
X172739601Y-114419776D01*
X172739970Y-114426594D01*
X172745027Y-114473152D01*
X172748656Y-114488411D01*
X172790265Y-114599407D01*
X172798797Y-114614992D01*
X172869247Y-114708992D01*
X172881809Y-114721554D01*
X172950685Y-114773174D01*
X172993200Y-114830034D01*
X172998225Y-114900852D01*
X172964166Y-114963145D01*
X172901834Y-114997135D01*
X172875120Y-115000000D01*
X170800000Y-115000000D01*
X169950000Y-115312500D01*
X169338399Y-115537353D01*
X169100000Y-115625000D01*
X169099130Y-115878999D01*
X169093141Y-117627993D01*
X169077590Y-122168900D01*
X169057355Y-122236952D01*
X169003540Y-122283261D01*
X168933232Y-122293124D01*
X168903373Y-122284878D01*
X168877392Y-122274116D01*
X168877389Y-122274115D01*
X168869762Y-122270956D01*
X168861574Y-122269878D01*
X168756448Y-122256038D01*
X168756447Y-122256038D01*
X168752361Y-122255500D01*
X168513030Y-122255500D01*
X168273640Y-122255501D01*
X168269556Y-122256039D01*
X168269550Y-122256039D01*
X168164425Y-122269878D01*
X168164423Y-122269878D01*
X168156238Y-122270956D01*
X168010159Y-122331464D01*
X167987200Y-122349081D01*
X167911767Y-122406963D01*
X167884718Y-122427718D01*
X167788464Y-122553159D01*
X167785799Y-122551114D01*
X167745750Y-122589309D01*
X167676038Y-122602754D01*
X167610124Y-122576375D01*
X167589020Y-122552020D01*
X167587536Y-122553159D01*
X167496305Y-122434264D01*
X167491282Y-122427718D01*
X167464234Y-122406963D01*
X167388800Y-122349081D01*
X167365841Y-122331464D01*
X167219762Y-122270956D01*
X167211574Y-122269878D01*
X167106448Y-122256038D01*
X167106447Y-122256038D01*
X167102361Y-122255500D01*
X166863030Y-122255500D01*
X166623640Y-122255501D01*
X166619556Y-122256039D01*
X166619550Y-122256039D01*
X166514425Y-122269878D01*
X166514423Y-122269878D01*
X166506238Y-122270956D01*
X166360159Y-122331464D01*
X166337200Y-122349081D01*
X166261767Y-122406963D01*
X166234718Y-122427718D01*
X166172969Y-122508192D01*
X166155311Y-122531204D01*
X166097973Y-122573071D01*
X166055348Y-122580500D01*
X159371988Y-122580500D01*
X159303867Y-122560498D01*
X159282586Y-122543287D01*
X159242770Y-122503193D01*
X159091136Y-122406963D01*
X159061352Y-122396357D01*
X158928586Y-122349081D01*
X158928581Y-122349080D01*
X158921951Y-122346719D01*
X158914965Y-122345886D01*
X158914961Y-122345885D01*
X158787177Y-122330648D01*
X158743624Y-122325455D01*
X158736621Y-122326191D01*
X158736620Y-122326191D01*
X158639170Y-122336433D01*
X158569332Y-122323661D01*
X158517485Y-122275158D01*
X158500000Y-122211123D01*
X158500000Y-117394028D01*
X158874201Y-117394028D01*
X158875409Y-117406288D01*
X158886515Y-117462131D01*
X158895833Y-117484627D01*
X158938183Y-117548008D01*
X158955392Y-117565217D01*
X159018775Y-117607568D01*
X159041266Y-117616884D01*
X159097115Y-117627993D01*
X159109370Y-117629200D01*
X162056085Y-117629200D01*
X162071324Y-117624725D01*
X162072529Y-117623335D01*
X162074200Y-117615652D01*
X162074200Y-117611084D01*
X162582200Y-117611084D01*
X162586675Y-117626323D01*
X162588065Y-117627528D01*
X162595748Y-117629199D01*
X165547028Y-117629199D01*
X165559288Y-117627991D01*
X165615131Y-117616885D01*
X165637627Y-117607567D01*
X165701008Y-117565217D01*
X165718217Y-117548008D01*
X165760568Y-117484625D01*
X165769884Y-117462134D01*
X165780993Y-117406285D01*
X165782200Y-117394030D01*
X165782200Y-114747315D01*
X165777725Y-114732076D01*
X165776335Y-114730871D01*
X165768652Y-114729200D01*
X162600315Y-114729200D01*
X162585076Y-114733675D01*
X162583871Y-114735065D01*
X162582200Y-114742748D01*
X162582200Y-117611084D01*
X162074200Y-117611084D01*
X162074200Y-114747315D01*
X162069725Y-114732076D01*
X162068335Y-114730871D01*
X162060652Y-114729200D01*
X158892316Y-114729200D01*
X158877077Y-114733675D01*
X158875872Y-114735065D01*
X158874201Y-114742748D01*
X158874201Y-117394028D01*
X158500000Y-117394028D01*
X158500000Y-114203085D01*
X158874200Y-114203085D01*
X158878675Y-114218324D01*
X158880065Y-114219529D01*
X158887748Y-114221200D01*
X162056085Y-114221200D01*
X162071324Y-114216725D01*
X162072529Y-114215335D01*
X162074200Y-114207652D01*
X162074200Y-114203085D01*
X162582200Y-114203085D01*
X162586675Y-114218324D01*
X162588065Y-114219529D01*
X162595748Y-114221200D01*
X165764084Y-114221200D01*
X165779323Y-114216725D01*
X165780528Y-114215335D01*
X165782199Y-114207652D01*
X165782199Y-113850085D01*
X172739600Y-113850085D01*
X172744075Y-113865324D01*
X172745465Y-113866529D01*
X172753148Y-113868200D01*
X173158985Y-113868200D01*
X173174224Y-113863725D01*
X173175429Y-113862335D01*
X173177100Y-113854652D01*
X173177100Y-113411316D01*
X173172625Y-113396077D01*
X173171235Y-113394872D01*
X173165042Y-113393525D01*
X173164206Y-113393570D01*
X173117648Y-113398627D01*
X173102389Y-113402256D01*
X172991393Y-113443865D01*
X172975808Y-113452397D01*
X172881808Y-113522847D01*
X172869247Y-113535408D01*
X172798797Y-113629408D01*
X172790265Y-113644993D01*
X172748654Y-113755994D01*
X172745028Y-113771241D01*
X172739969Y-113817809D01*
X172739600Y-113824621D01*
X172739600Y-113850085D01*
X165782199Y-113850085D01*
X165782199Y-111556372D01*
X165780991Y-111544112D01*
X165769885Y-111488269D01*
X165760567Y-111465773D01*
X165718217Y-111402392D01*
X165701008Y-111385183D01*
X165637625Y-111342832D01*
X165615134Y-111333516D01*
X165559285Y-111322407D01*
X165547030Y-111321200D01*
X162600315Y-111321200D01*
X162585076Y-111325675D01*
X162583871Y-111327065D01*
X162582200Y-111334748D01*
X162582200Y-114203085D01*
X162074200Y-114203085D01*
X162074200Y-111339316D01*
X162069725Y-111324077D01*
X162068335Y-111322872D01*
X162060652Y-111321201D01*
X159109372Y-111321201D01*
X159097112Y-111322409D01*
X159041269Y-111333515D01*
X159018773Y-111342833D01*
X158955392Y-111385183D01*
X158938183Y-111402392D01*
X158895832Y-111465775D01*
X158886516Y-111488266D01*
X158875407Y-111544115D01*
X158874200Y-111556370D01*
X158874200Y-114203085D01*
X158500000Y-114203085D01*
X158500000Y-110898992D01*
X164903437Y-110898992D01*
X164908347Y-110905551D01*
X164995526Y-110954274D01*
X165006766Y-110959184D01*
X165182304Y-111016220D01*
X165194278Y-111018853D01*
X165377560Y-111040708D01*
X165389809Y-111040965D01*
X165573844Y-111026804D01*
X165585924Y-111024673D01*
X165763692Y-110975039D01*
X165775125Y-110970605D01*
X165897329Y-110908875D01*
X165907613Y-110899230D01*
X165905375Y-110892586D01*
X165417611Y-110404821D01*
X165403668Y-110397208D01*
X165401834Y-110397339D01*
X165395220Y-110401590D01*
X164910194Y-110886617D01*
X164903437Y-110898992D01*
X158500000Y-110898992D01*
X158500000Y-110394292D01*
X158994601Y-110394292D01*
X158994970Y-110401110D01*
X159000441Y-110451482D01*
X159004070Y-110466741D01*
X159048822Y-110586118D01*
X159057354Y-110601704D01*
X159133172Y-110702867D01*
X159145733Y-110715428D01*
X159246896Y-110791246D01*
X159262482Y-110799778D01*
X159381865Y-110844533D01*
X159397110Y-110848158D01*
X159447492Y-110853631D01*
X159454306Y-110854000D01*
X159551485Y-110854000D01*
X159566724Y-110849525D01*
X159567929Y-110848135D01*
X159569600Y-110840452D01*
X159569600Y-110835884D01*
X160077600Y-110835884D01*
X160082075Y-110851123D01*
X160083465Y-110852328D01*
X160091148Y-110853999D01*
X160192892Y-110853999D01*
X160199710Y-110853630D01*
X160250082Y-110848159D01*
X160265341Y-110844530D01*
X160384718Y-110799778D01*
X160400304Y-110791246D01*
X160501467Y-110715428D01*
X160514028Y-110702867D01*
X160589846Y-110601704D01*
X160598378Y-110586118D01*
X160643133Y-110466735D01*
X160646758Y-110451490D01*
X160652231Y-110401108D01*
X160652600Y-110394294D01*
X160652600Y-110024857D01*
X164396556Y-110024857D01*
X164412000Y-110208778D01*
X164414214Y-110220840D01*
X164465090Y-110398263D01*
X164469606Y-110409668D01*
X164528917Y-110525075D01*
X164538638Y-110535296D01*
X164545437Y-110532952D01*
X165032779Y-110045611D01*
X165039156Y-110033932D01*
X165769208Y-110033932D01*
X165769339Y-110035766D01*
X165773590Y-110042380D01*
X166258532Y-110527321D01*
X166270907Y-110534078D01*
X166277641Y-110529037D01*
X166323393Y-110448501D01*
X166328383Y-110437292D01*
X166386642Y-110262159D01*
X166389360Y-110250192D01*
X166412823Y-110064472D01*
X166413314Y-110057445D01*
X166413609Y-110036305D01*
X166413316Y-110029313D01*
X166395045Y-109842979D01*
X166392662Y-109830941D01*
X166339317Y-109654254D01*
X166334643Y-109642913D01*
X166280405Y-109540906D01*
X166270545Y-109530825D01*
X166263418Y-109533393D01*
X165776821Y-110019989D01*
X165769208Y-110033932D01*
X165039156Y-110033932D01*
X165040392Y-110031668D01*
X165040261Y-110029834D01*
X165036010Y-110023220D01*
X164550862Y-109538073D01*
X164538487Y-109531316D01*
X164532098Y-109536098D01*
X164480490Y-109629972D01*
X164475661Y-109641238D01*
X164419850Y-109817177D01*
X164417302Y-109829166D01*
X164396727Y-110012589D01*
X164396556Y-110024857D01*
X160652600Y-110024857D01*
X160652600Y-109972115D01*
X160648125Y-109956876D01*
X160646735Y-109955671D01*
X160639052Y-109954000D01*
X160095715Y-109954000D01*
X160080476Y-109958475D01*
X160079271Y-109959865D01*
X160077600Y-109967548D01*
X160077600Y-110835884D01*
X159569600Y-110835884D01*
X159569600Y-109972115D01*
X159565125Y-109956876D01*
X159563735Y-109955671D01*
X159556052Y-109954000D01*
X159012716Y-109954000D01*
X158997477Y-109958475D01*
X158996272Y-109959865D01*
X158994601Y-109967548D01*
X158994601Y-110394292D01*
X158500000Y-110394292D01*
X158500000Y-109427885D01*
X158994600Y-109427885D01*
X158999075Y-109443124D01*
X159000465Y-109444329D01*
X159008148Y-109446000D01*
X159551485Y-109446000D01*
X159566724Y-109441525D01*
X159567929Y-109440135D01*
X159569600Y-109432452D01*
X159569600Y-109427885D01*
X160077600Y-109427885D01*
X160082075Y-109443124D01*
X160083465Y-109444329D01*
X160091148Y-109446000D01*
X160634484Y-109446000D01*
X160649723Y-109441525D01*
X160650928Y-109440135D01*
X160652599Y-109432452D01*
X160652599Y-109166863D01*
X164902583Y-109166863D01*
X164905038Y-109173827D01*
X165391989Y-109660779D01*
X165405932Y-109668392D01*
X165407766Y-109668261D01*
X165414380Y-109664010D01*
X165899686Y-109178703D01*
X165906443Y-109166328D01*
X165901784Y-109160104D01*
X165801168Y-109105701D01*
X165789862Y-109100949D01*
X165613546Y-109046370D01*
X165601533Y-109043904D01*
X165417971Y-109024611D01*
X165405703Y-109024526D01*
X165221898Y-109041253D01*
X165209849Y-109043551D01*
X165032784Y-109095664D01*
X165021416Y-109100257D01*
X164912732Y-109157076D01*
X164902583Y-109166863D01*
X160652599Y-109166863D01*
X160652599Y-109005708D01*
X160652230Y-108998890D01*
X160646759Y-108948518D01*
X160643130Y-108933259D01*
X160598378Y-108813882D01*
X160589846Y-108798296D01*
X160514028Y-108697133D01*
X160501467Y-108684572D01*
X160400304Y-108608754D01*
X160384718Y-108600222D01*
X160265335Y-108555467D01*
X160250090Y-108551842D01*
X160199708Y-108546369D01*
X160192894Y-108546000D01*
X160095715Y-108546000D01*
X160080476Y-108550475D01*
X160079271Y-108551865D01*
X160077600Y-108559548D01*
X160077600Y-109427885D01*
X159569600Y-109427885D01*
X159569600Y-108564116D01*
X159565125Y-108548877D01*
X159563735Y-108547672D01*
X159556052Y-108546001D01*
X159454308Y-108546001D01*
X159447490Y-108546370D01*
X159397118Y-108551841D01*
X159381859Y-108555470D01*
X159262482Y-108600222D01*
X159246896Y-108608754D01*
X159145733Y-108684572D01*
X159133172Y-108697133D01*
X159057354Y-108798296D01*
X159048822Y-108813882D01*
X159004067Y-108933265D01*
X159000442Y-108948510D01*
X158994969Y-108998892D01*
X158994600Y-109005706D01*
X158994600Y-109427885D01*
X158500000Y-109427885D01*
X158500000Y-108700000D01*
X158407509Y-108541444D01*
X158407633Y-108535703D01*
X158447296Y-108476819D01*
X158512497Y-108448725D01*
X158527736Y-108447800D01*
X158577727Y-108447800D01*
X158584541Y-108447431D01*
X158631866Y-108442290D01*
X158647111Y-108438665D01*
X158759788Y-108396425D01*
X158775375Y-108387892D01*
X158870810Y-108316366D01*
X158883366Y-108303810D01*
X158954892Y-108208375D01*
X158963425Y-108192788D01*
X159005665Y-108080111D01*
X159009290Y-108064866D01*
X159014431Y-108017541D01*
X159014800Y-108010727D01*
X159014800Y-107990915D01*
X159010325Y-107975676D01*
X159008935Y-107974471D01*
X159001252Y-107972800D01*
X158182800Y-107972800D01*
X158114679Y-107952798D01*
X158068186Y-107899142D01*
X158056800Y-107846800D01*
X158056800Y-107446685D01*
X158564800Y-107446685D01*
X158569275Y-107461924D01*
X158570665Y-107463129D01*
X158578348Y-107464800D01*
X158996685Y-107464800D01*
X159011924Y-107460325D01*
X159013129Y-107458935D01*
X159014800Y-107451252D01*
X159014800Y-107426873D01*
X159014431Y-107420059D01*
X159009290Y-107372734D01*
X159005665Y-107357489D01*
X158963425Y-107244812D01*
X158954892Y-107229225D01*
X158883366Y-107133790D01*
X158870810Y-107121234D01*
X158775375Y-107049708D01*
X158759788Y-107041175D01*
X158647111Y-106998935D01*
X158631866Y-106995310D01*
X158584541Y-106990169D01*
X158582107Y-106990037D01*
X158567676Y-106994275D01*
X158566471Y-106995665D01*
X158564800Y-107003348D01*
X158564800Y-107446685D01*
X158056800Y-107446685D01*
X158056800Y-107007915D01*
X158052325Y-106992676D01*
X158050935Y-106991471D01*
X158043376Y-106989827D01*
X158037059Y-106990169D01*
X157989734Y-106995310D01*
X157974489Y-106998935D01*
X157861812Y-107041175D01*
X157846225Y-107049708D01*
X157744447Y-107125988D01*
X157677940Y-107150836D01*
X157608558Y-107135783D01*
X157560045Y-107088649D01*
X157433834Y-106872286D01*
X157416787Y-106803367D01*
X157439708Y-106736172D01*
X157495318Y-106692035D01*
X157542670Y-106682799D01*
X157637840Y-106682799D01*
X157647687Y-106682024D01*
X157727607Y-106669367D01*
X157746233Y-106663315D01*
X157842593Y-106614217D01*
X157858436Y-106602706D01*
X157934906Y-106526236D01*
X157946417Y-106510393D01*
X157995514Y-106414034D01*
X158004324Y-106386921D01*
X158044398Y-106328316D01*
X158109794Y-106300679D01*
X158124139Y-106299858D01*
X163989684Y-106299038D01*
X164261800Y-106299000D01*
X164261800Y-101396800D01*
X164007804Y-101395323D01*
X162603491Y-101387159D01*
X160160661Y-101372956D01*
X160160660Y-101372956D01*
X159893000Y-101371400D01*
X159726972Y-101563627D01*
X159726973Y-101563627D01*
X159718042Y-101573967D01*
X159718041Y-101573968D01*
X158566562Y-102907153D01*
X158565510Y-102908356D01*
X158554883Y-102920349D01*
X158501184Y-102956064D01*
X158463677Y-102968832D01*
X158463674Y-102968833D01*
X158457007Y-102971103D01*
X158304045Y-103065206D01*
X158299014Y-103070132D01*
X158299011Y-103070135D01*
X158272992Y-103095615D01*
X158175732Y-103190859D01*
X158171913Y-103196784D01*
X158171912Y-103196786D01*
X158099321Y-103309425D01*
X158078446Y-103341817D01*
X158076035Y-103348440D01*
X158076034Y-103348443D01*
X158019013Y-103505107D01*
X157993845Y-103546769D01*
X157888523Y-103662624D01*
X157827900Y-103699575D01*
X157756923Y-103697885D01*
X157755467Y-103697286D01*
X157727605Y-103688233D01*
X157647685Y-103675575D01*
X157637842Y-103674800D01*
X157370615Y-103674800D01*
X157355376Y-103679275D01*
X157354171Y-103680665D01*
X157352500Y-103688348D01*
X157352500Y-104108651D01*
X157146000Y-104200000D01*
X156844500Y-104200000D01*
X156844500Y-103692916D01*
X156840025Y-103677677D01*
X156838635Y-103676472D01*
X156830952Y-103674801D01*
X156559160Y-103674801D01*
X156549316Y-103675576D01*
X156545716Y-103676146D01*
X156475305Y-103667049D01*
X156420989Y-103621330D01*
X156400000Y-103551698D01*
X156400000Y-98706190D01*
X156420002Y-98638069D01*
X156436905Y-98617095D01*
X156617095Y-98436905D01*
X156679407Y-98402879D01*
X156706190Y-98400000D01*
X173800000Y-98400000D01*
X173799958Y-98350500D01*
X179185007Y-98350500D01*
X179190284Y-98350611D01*
X179252294Y-98353210D01*
X179267195Y-98349715D01*
X179294662Y-98343273D01*
X179306333Y-98341110D01*
X179321229Y-98339069D01*
X179349432Y-98335206D01*
X179363230Y-98329235D01*
X179384499Y-98322201D01*
X179390775Y-98320729D01*
X179399136Y-98318768D01*
X179406661Y-98314631D01*
X179406664Y-98314630D01*
X179437268Y-98297805D01*
X179447913Y-98292589D01*
X179487855Y-98275305D01*
X179499541Y-98265842D01*
X179518126Y-98253354D01*
X179525518Y-98249290D01*
X179531308Y-98246107D01*
X179539422Y-98239103D01*
X179563958Y-98214567D01*
X179573759Y-98205742D01*
X179598392Y-98185794D01*
X179598393Y-98185793D01*
X179605070Y-98180386D01*
X179615966Y-98165054D01*
X179629576Y-98148949D01*
X180378654Y-97399870D01*
X180382464Y-97396217D01*
X180421833Y-97360015D01*
X180428156Y-97354201D01*
X180451099Y-97317198D01*
X180457800Y-97307448D01*
X180484112Y-97272783D01*
X180489646Y-97258804D01*
X180499707Y-97238801D01*
X180507635Y-97226014D01*
X180519775Y-97184228D01*
X180523621Y-97172995D01*
X180536473Y-97140535D01*
X180539636Y-97132547D01*
X180541208Y-97117592D01*
X180545520Y-97095617D01*
X180549715Y-97081175D01*
X180550500Y-97070485D01*
X180550500Y-97035783D01*
X180551190Y-97022613D01*
X180554503Y-96991088D01*
X180555401Y-96982546D01*
X180553969Y-96974081D01*
X180553969Y-96974072D01*
X180552265Y-96964000D01*
X180550500Y-96942987D01*
X180550500Y-96440499D01*
X180570502Y-96372378D01*
X180624158Y-96325885D01*
X180671685Y-96315546D01*
X180671633Y-96314887D01*
X180676464Y-96314507D01*
X180676500Y-96314499D01*
X180681518Y-96314499D01*
X180686412Y-96313724D01*
X180765506Y-96301198D01*
X180765508Y-96301197D01*
X180775304Y-96299646D01*
X180888342Y-96242050D01*
X180978050Y-96152342D01*
X181035646Y-96039304D01*
X181037972Y-96024622D01*
X181041530Y-96002151D01*
X181050500Y-95945519D01*
X181050499Y-94182482D01*
X181035646Y-94088696D01*
X180978050Y-93975658D01*
X180888342Y-93885950D01*
X180775304Y-93828354D01*
X180765515Y-93826804D01*
X180765513Y-93826803D01*
X180738151Y-93822470D01*
X180681519Y-93813500D01*
X180636653Y-93813500D01*
X180568532Y-93793498D01*
X180538728Y-93766788D01*
X180536839Y-93764454D01*
X180524354Y-93745874D01*
X180520286Y-93738475D01*
X180517107Y-93732692D01*
X180517106Y-93732690D01*
X180517594Y-93732422D01*
X180496534Y-93669258D01*
X180506042Y-93616477D01*
X180552884Y-93503391D01*
X180556044Y-93495762D01*
X180571500Y-93378361D01*
X180571499Y-92749640D01*
X180556044Y-92632238D01*
X180495536Y-92486159D01*
X180399282Y-92360718D01*
X180391303Y-92354595D01*
X180389177Y-92352964D01*
X180386936Y-92349895D01*
X180386891Y-92349850D01*
X180386898Y-92349843D01*
X180347309Y-92295627D01*
X180343085Y-92224756D01*
X180377848Y-92162853D01*
X180389177Y-92153036D01*
X180392735Y-92150306D01*
X180392736Y-92150305D01*
X180399282Y-92145282D01*
X180495536Y-92019841D01*
X180556044Y-91873762D01*
X180571500Y-91756361D01*
X180571499Y-91127640D01*
X180556044Y-91010238D01*
X180495536Y-90864159D01*
X180399282Y-90738718D01*
X180273841Y-90642464D01*
X180127762Y-90581956D01*
X180031561Y-90569291D01*
X180014448Y-90567038D01*
X180014447Y-90567038D01*
X180010361Y-90566500D01*
X179771030Y-90566500D01*
X179531640Y-90566501D01*
X179527556Y-90567039D01*
X179527550Y-90567039D01*
X179422425Y-90580878D01*
X179422423Y-90580878D01*
X179414238Y-90581956D01*
X179268159Y-90642464D01*
X179142718Y-90738718D01*
X179046464Y-90864159D01*
X179043799Y-90862114D01*
X179003750Y-90900309D01*
X178934038Y-90913754D01*
X178868124Y-90887375D01*
X178847020Y-90863020D01*
X178845536Y-90864159D01*
X178749282Y-90738718D01*
X178751614Y-90736928D01*
X178724379Y-90687052D01*
X178721500Y-90660269D01*
X178721500Y-90455426D01*
X178722578Y-90438979D01*
X178725605Y-90415988D01*
X178726683Y-90407800D01*
X178706044Y-90251038D01*
X178645536Y-90104959D01*
X178573450Y-90011015D01*
X178549282Y-89979518D01*
X178524328Y-89960370D01*
X178511938Y-89949503D01*
X177135492Y-88573057D01*
X177124632Y-88560675D01*
X177105482Y-88535718D01*
X176980041Y-88439464D01*
X176833962Y-88378956D01*
X176716561Y-88363500D01*
X176677200Y-88358318D01*
X176669012Y-88359396D01*
X176646027Y-88362422D01*
X176629581Y-88363500D01*
X175326500Y-88363500D01*
X175258379Y-88343498D01*
X175211886Y-88289842D01*
X175200500Y-88237500D01*
X175200499Y-87666437D01*
X175200499Y-87661482D01*
X175185646Y-87567696D01*
X175164233Y-87525670D01*
X175150500Y-87468468D01*
X175150500Y-87394470D01*
X175170502Y-87326349D01*
X175176136Y-87318292D01*
X175178918Y-87314627D01*
X175178918Y-87314626D01*
X175184112Y-87307784D01*
X175189646Y-87293807D01*
X175199709Y-87273798D01*
X175203111Y-87268312D01*
X175203113Y-87268308D01*
X175207635Y-87261014D01*
X175218704Y-87222915D01*
X175256917Y-87163080D01*
X175273173Y-87151470D01*
X175277841Y-87149536D01*
X175403282Y-87053282D01*
X175499536Y-86927841D01*
X175560044Y-86781762D01*
X175575500Y-86664361D01*
X175575499Y-86185640D01*
X175569030Y-86136495D01*
X175561122Y-86076425D01*
X175561122Y-86076423D01*
X175560044Y-86068238D01*
X175499536Y-85922159D01*
X175403282Y-85796718D01*
X175277841Y-85700464D01*
X175279886Y-85697799D01*
X175241691Y-85657750D01*
X175228246Y-85588038D01*
X175254625Y-85522124D01*
X175278980Y-85501020D01*
X175277841Y-85499536D01*
X175396736Y-85408305D01*
X175403282Y-85403282D01*
X175499536Y-85277841D01*
X175560044Y-85131762D01*
X175575500Y-85014361D01*
X175575499Y-84535640D01*
X175565596Y-84460407D01*
X175561122Y-84426425D01*
X175561122Y-84426423D01*
X175560044Y-84418238D01*
X175533940Y-84355217D01*
X175526351Y-84284629D01*
X175558130Y-84221142D01*
X175619188Y-84184914D01*
X175650349Y-84181000D01*
X187381810Y-84181000D01*
X187449931Y-84201002D01*
G37*
%TD.AperFunction*%
%TD*%
%TA.AperFunction,Conductor*%
%TO.N,GND*%
G36*
X163464931Y-101874002D02*
G01*
X163485905Y-101890905D01*
X163666095Y-102071095D01*
X163700121Y-102133407D01*
X163703000Y-102160190D01*
X163703000Y-105586460D01*
X163682998Y-105654581D01*
X163666156Y-105675494D01*
X163485844Y-105856053D01*
X163423555Y-105890121D01*
X163396861Y-105893019D01*
X158606242Y-105899580D01*
X158538093Y-105879671D01*
X158517035Y-105862737D01*
X158336966Y-105682915D01*
X158302898Y-105620626D01*
X158300000Y-105593758D01*
X158300000Y-104177170D01*
X158308243Y-104132345D01*
X158460657Y-103731948D01*
X158484307Y-103692988D01*
X159934768Y-102063848D01*
X159977304Y-102032670D01*
X160350996Y-101865037D01*
X160402567Y-101854000D01*
X163396810Y-101854000D01*
X163464931Y-101874002D01*
G37*
%TD.AperFunction*%
%TD*%
%TA.AperFunction,Conductor*%
%TO.N,+12V*%
G36*
X157661931Y-115220002D02*
G01*
X157682905Y-115236905D01*
X157863095Y-115417095D01*
X157897121Y-115479407D01*
X157900000Y-115506190D01*
X157900000Y-122776063D01*
X157893833Y-122814999D01*
X157852326Y-122942744D01*
X157832540Y-123131000D01*
X157852326Y-123319256D01*
X157854366Y-123325534D01*
X157893833Y-123447001D01*
X157900000Y-123485937D01*
X157900000Y-124193810D01*
X157879998Y-124261931D01*
X157863095Y-124282905D01*
X157682905Y-124463095D01*
X157620593Y-124497121D01*
X157593810Y-124500000D01*
X153406190Y-124500000D01*
X153338069Y-124479998D01*
X153317095Y-124463095D01*
X153136905Y-124282905D01*
X153102879Y-124220593D01*
X153100000Y-124193810D01*
X153100000Y-121541592D01*
X154362437Y-121541592D01*
X154367347Y-121548151D01*
X154454526Y-121596874D01*
X154465766Y-121601784D01*
X154641304Y-121658820D01*
X154653278Y-121661453D01*
X154836560Y-121683308D01*
X154848809Y-121683565D01*
X155032844Y-121669404D01*
X155044924Y-121667273D01*
X155222692Y-121617639D01*
X155234125Y-121613205D01*
X155356329Y-121551475D01*
X155366613Y-121541830D01*
X155364375Y-121535186D01*
X154876611Y-121047421D01*
X154862668Y-121039808D01*
X154860834Y-121039939D01*
X154854220Y-121044190D01*
X154369194Y-121529217D01*
X154362437Y-121541592D01*
X153100000Y-121541592D01*
X153100000Y-120667457D01*
X153855556Y-120667457D01*
X153871000Y-120851378D01*
X153873214Y-120863440D01*
X153924090Y-121040863D01*
X153928606Y-121052268D01*
X153987917Y-121167675D01*
X153997638Y-121177896D01*
X154004437Y-121175552D01*
X154491779Y-120688211D01*
X154498156Y-120676532D01*
X155228208Y-120676532D01*
X155228339Y-120678366D01*
X155232590Y-120684980D01*
X155717532Y-121169921D01*
X155729907Y-121176678D01*
X155736641Y-121171637D01*
X155782393Y-121091101D01*
X155787383Y-121079892D01*
X155845642Y-120904759D01*
X155848360Y-120892792D01*
X155871823Y-120707072D01*
X155872314Y-120700045D01*
X155872609Y-120678905D01*
X155872316Y-120671913D01*
X155854045Y-120485579D01*
X155851662Y-120473541D01*
X155798317Y-120296854D01*
X155793643Y-120285513D01*
X155739405Y-120183506D01*
X155729545Y-120173425D01*
X155722418Y-120175993D01*
X155235821Y-120662589D01*
X155228208Y-120676532D01*
X154498156Y-120676532D01*
X154499392Y-120674268D01*
X154499261Y-120672434D01*
X154495010Y-120665820D01*
X154009862Y-120180673D01*
X153997487Y-120173916D01*
X153991098Y-120178698D01*
X153939490Y-120272572D01*
X153934661Y-120283838D01*
X153878850Y-120459777D01*
X153876302Y-120471766D01*
X153855727Y-120655189D01*
X153855556Y-120667457D01*
X153100000Y-120667457D01*
X153100000Y-119809463D01*
X154361583Y-119809463D01*
X154364038Y-119816427D01*
X154850989Y-120303379D01*
X154864932Y-120310992D01*
X154866766Y-120310861D01*
X154873380Y-120306610D01*
X155358686Y-119821303D01*
X155365443Y-119808928D01*
X155360784Y-119802704D01*
X155260168Y-119748301D01*
X155248862Y-119743549D01*
X155072546Y-119688970D01*
X155060533Y-119686504D01*
X154876971Y-119667211D01*
X154864703Y-119667126D01*
X154680898Y-119683853D01*
X154668849Y-119686151D01*
X154491784Y-119738264D01*
X154480416Y-119742857D01*
X154371732Y-119799676D01*
X154361583Y-119809463D01*
X153100000Y-119809463D01*
X153100000Y-117374028D01*
X154674201Y-117374028D01*
X154675409Y-117386288D01*
X154686515Y-117442131D01*
X154695833Y-117464627D01*
X154738183Y-117528008D01*
X154755392Y-117545217D01*
X154818775Y-117587568D01*
X154841266Y-117596884D01*
X154897115Y-117607993D01*
X154909370Y-117609200D01*
X155756085Y-117609200D01*
X155771324Y-117604725D01*
X155772529Y-117603335D01*
X155774200Y-117595652D01*
X155774200Y-117591084D01*
X156282200Y-117591084D01*
X156286675Y-117606323D01*
X156288065Y-117607528D01*
X156295748Y-117609199D01*
X157147028Y-117609199D01*
X157159288Y-117607991D01*
X157215131Y-117596885D01*
X157237627Y-117587567D01*
X157301008Y-117545217D01*
X157318217Y-117528008D01*
X157360568Y-117464625D01*
X157369884Y-117442134D01*
X157380993Y-117386285D01*
X157382200Y-117374030D01*
X157382200Y-117027315D01*
X157377725Y-117012076D01*
X157376335Y-117010871D01*
X157368652Y-117009200D01*
X156300315Y-117009200D01*
X156285076Y-117013675D01*
X156283871Y-117015065D01*
X156282200Y-117022748D01*
X156282200Y-117591084D01*
X155774200Y-117591084D01*
X155774200Y-117027315D01*
X155769725Y-117012076D01*
X155768335Y-117010871D01*
X155760652Y-117009200D01*
X154692316Y-117009200D01*
X154677077Y-117013675D01*
X154675872Y-117015065D01*
X154674201Y-117022748D01*
X154674201Y-117374028D01*
X153100000Y-117374028D01*
X153100000Y-116887876D01*
X153120002Y-116819755D01*
X153140484Y-116802007D01*
X153165329Y-116773335D01*
X153167000Y-116765652D01*
X153167000Y-115822200D01*
X153187002Y-115754079D01*
X153240658Y-115707586D01*
X153293000Y-115696200D01*
X153549000Y-115696200D01*
X153617121Y-115716202D01*
X153663614Y-115769858D01*
X153675000Y-115822200D01*
X153675000Y-116761084D01*
X153679475Y-116776323D01*
X153680865Y-116777528D01*
X153688548Y-116779199D01*
X154115292Y-116779199D01*
X154122110Y-116778830D01*
X154172482Y-116773359D01*
X154187741Y-116769730D01*
X154307118Y-116724978D01*
X154322704Y-116716446D01*
X154423867Y-116640628D01*
X154436428Y-116628067D01*
X154509641Y-116530379D01*
X154566500Y-116487864D01*
X154637319Y-116482838D01*
X154663405Y-116495905D01*
X154687748Y-116501200D01*
X157364084Y-116501200D01*
X157379323Y-116496725D01*
X157380528Y-116495335D01*
X157382199Y-116487652D01*
X157382199Y-116136372D01*
X157380991Y-116124112D01*
X157369885Y-116068269D01*
X157360567Y-116045773D01*
X157318217Y-115982392D01*
X157301008Y-115965183D01*
X157237625Y-115922832D01*
X157215134Y-115913516D01*
X157159285Y-115902407D01*
X157147030Y-115901200D01*
X156435857Y-115901200D01*
X156367736Y-115881198D01*
X156321243Y-115827542D01*
X156311139Y-115757268D01*
X156325336Y-115714692D01*
X156333826Y-115699184D01*
X156376065Y-115586511D01*
X156379690Y-115571266D01*
X156384831Y-115523941D01*
X156384963Y-115521507D01*
X156380725Y-115507076D01*
X156379335Y-115505871D01*
X156371652Y-115504200D01*
X154945315Y-115504200D01*
X154930076Y-115508675D01*
X154928871Y-115510065D01*
X154927227Y-115517624D01*
X154927569Y-115523941D01*
X154932710Y-115571266D01*
X154936335Y-115586511D01*
X154978575Y-115699188D01*
X154988462Y-115717247D01*
X155003630Y-115786604D01*
X154978892Y-115853152D01*
X154922103Y-115895761D01*
X154902520Y-115901333D01*
X154841269Y-115913515D01*
X154818774Y-115922833D01*
X154771000Y-115954754D01*
X154703247Y-115975968D01*
X154634780Y-115957185D01*
X154587338Y-115904367D01*
X154574999Y-115849988D01*
X154574999Y-115580908D01*
X154574630Y-115574090D01*
X154569159Y-115523718D01*
X154565530Y-115508459D01*
X154520780Y-115389087D01*
X154519370Y-115386511D01*
X154518747Y-115383663D01*
X154517628Y-115380678D01*
X154518059Y-115380516D01*
X154504200Y-115317154D01*
X154528935Y-115250606D01*
X154585722Y-115207994D01*
X154629889Y-115200000D01*
X157593810Y-115200000D01*
X157661931Y-115220002D01*
G37*
%TD.AperFunction*%
%TD*%
%TA.AperFunction,Conductor*%
%TO.N,+3V3*%
G36*
X153871629Y-105820002D02*
G01*
X153899902Y-105844857D01*
X153921060Y-105869992D01*
X153937012Y-105874800D01*
X154674800Y-105874800D01*
X154800000Y-106000000D01*
X154705882Y-106376471D01*
X154702507Y-106382800D01*
X153936552Y-106382800D01*
X153923316Y-106386687D01*
X153921625Y-106399073D01*
X153926486Y-106414034D01*
X153975583Y-106510393D01*
X153987094Y-106526236D01*
X154063564Y-106602706D01*
X154079407Y-106614217D01*
X154175768Y-106663315D01*
X154194392Y-106669367D01*
X154274315Y-106682025D01*
X154284158Y-106682800D01*
X154332507Y-106682800D01*
X154400628Y-106702802D01*
X154447121Y-106756458D01*
X154457225Y-106826732D01*
X154443686Y-106868088D01*
X154367583Y-107010781D01*
X154317881Y-107061471D01*
X154248659Y-107077244D01*
X154185294Y-107053944D01*
X154185252Y-107054021D01*
X154184738Y-107053740D01*
X154180842Y-107052307D01*
X154177376Y-107049709D01*
X154161788Y-107041175D01*
X154049111Y-106998935D01*
X154033866Y-106995310D01*
X153986541Y-106990169D01*
X153984107Y-106990037D01*
X153969676Y-106994275D01*
X153968471Y-106995665D01*
X153966800Y-107003348D01*
X153966800Y-108447800D01*
X153966012Y-108447800D01*
X153967271Y-108459758D01*
X153961658Y-108496414D01*
X153961657Y-108496418D01*
X153951292Y-108564116D01*
X153928389Y-108713704D01*
X153925452Y-108732884D01*
X153921133Y-108751508D01*
X153507249Y-110071390D01*
X153097957Y-111376629D01*
X153058488Y-111435644D01*
X153052314Y-111440482D01*
X152788885Y-111633954D01*
X152722141Y-111658156D01*
X152714300Y-111658400D01*
X146562134Y-111658400D01*
X146494013Y-111638398D01*
X146447520Y-111584742D01*
X146436134Y-111532400D01*
X146436134Y-110568792D01*
X149841237Y-110568792D01*
X149846147Y-110575351D01*
X149933326Y-110624074D01*
X149944566Y-110628984D01*
X150120104Y-110686020D01*
X150132078Y-110688653D01*
X150315360Y-110710508D01*
X150327609Y-110710765D01*
X150511644Y-110696604D01*
X150523724Y-110694473D01*
X150701492Y-110644839D01*
X150712925Y-110640405D01*
X150835129Y-110578675D01*
X150845413Y-110569030D01*
X150843175Y-110562386D01*
X150355411Y-110074621D01*
X150341468Y-110067008D01*
X150339634Y-110067139D01*
X150333020Y-110071390D01*
X149847994Y-110556417D01*
X149841237Y-110568792D01*
X146436134Y-110568792D01*
X146436134Y-109694657D01*
X149334356Y-109694657D01*
X149349800Y-109878578D01*
X149352014Y-109890640D01*
X149402890Y-110068063D01*
X149407406Y-110079468D01*
X149466717Y-110194875D01*
X149476438Y-110205096D01*
X149483237Y-110202752D01*
X149970579Y-109715411D01*
X149976956Y-109703732D01*
X150707008Y-109703732D01*
X150707139Y-109705566D01*
X150711390Y-109712180D01*
X151196332Y-110197121D01*
X151210269Y-110204731D01*
X151236011Y-110202890D01*
X151305385Y-110217981D01*
X151355588Y-110268183D01*
X151371001Y-110328569D01*
X151371001Y-110394292D01*
X151371370Y-110401110D01*
X151376841Y-110451482D01*
X151380470Y-110466741D01*
X151425222Y-110586118D01*
X151433754Y-110601704D01*
X151509572Y-110702867D01*
X151522133Y-110715428D01*
X151623296Y-110791246D01*
X151638882Y-110799778D01*
X151758265Y-110844533D01*
X151773510Y-110848158D01*
X151823892Y-110853631D01*
X151830706Y-110854000D01*
X151927885Y-110854000D01*
X151943124Y-110849525D01*
X151944329Y-110848135D01*
X151946000Y-110840452D01*
X151946000Y-110835884D01*
X152454000Y-110835884D01*
X152458475Y-110851123D01*
X152459865Y-110852328D01*
X152467548Y-110853999D01*
X152569292Y-110853999D01*
X152576110Y-110853630D01*
X152626482Y-110848159D01*
X152641741Y-110844530D01*
X152761118Y-110799778D01*
X152776704Y-110791246D01*
X152877867Y-110715428D01*
X152890428Y-110702867D01*
X152966246Y-110601704D01*
X152974778Y-110586118D01*
X153019533Y-110466735D01*
X153023158Y-110451490D01*
X153028631Y-110401108D01*
X153029000Y-110394294D01*
X153029000Y-109972115D01*
X153024525Y-109956876D01*
X153023135Y-109955671D01*
X153015452Y-109954000D01*
X152472115Y-109954000D01*
X152456876Y-109958475D01*
X152455671Y-109959865D01*
X152454000Y-109967548D01*
X152454000Y-110835884D01*
X151946000Y-110835884D01*
X151946000Y-109427885D01*
X152454000Y-109427885D01*
X152458475Y-109443124D01*
X152459865Y-109444329D01*
X152467548Y-109446000D01*
X153010884Y-109446000D01*
X153026123Y-109441525D01*
X153027328Y-109440135D01*
X153028999Y-109432452D01*
X153028999Y-109005708D01*
X153028630Y-108998890D01*
X153023159Y-108948518D01*
X153019530Y-108933259D01*
X152974778Y-108813882D01*
X152966246Y-108798296D01*
X152890428Y-108697133D01*
X152877867Y-108684572D01*
X152776704Y-108608754D01*
X152761118Y-108600222D01*
X152641735Y-108555467D01*
X152626490Y-108551842D01*
X152576108Y-108546369D01*
X152569294Y-108546000D01*
X152472115Y-108546000D01*
X152456876Y-108550475D01*
X152455671Y-108551865D01*
X152454000Y-108559548D01*
X152454000Y-109427885D01*
X151946000Y-109427885D01*
X151946000Y-108564116D01*
X151941525Y-108548877D01*
X151940135Y-108547672D01*
X151932452Y-108546001D01*
X151830708Y-108546001D01*
X151823890Y-108546370D01*
X151773518Y-108551841D01*
X151758259Y-108555470D01*
X151638882Y-108600222D01*
X151623296Y-108608754D01*
X151522133Y-108684572D01*
X151509572Y-108697133D01*
X151433754Y-108798296D01*
X151425222Y-108813882D01*
X151380467Y-108933265D01*
X151376842Y-108948510D01*
X151371369Y-108998892D01*
X151371000Y-109005706D01*
X151371000Y-109078771D01*
X151350998Y-109146892D01*
X151297342Y-109193385D01*
X151227068Y-109203489D01*
X151216850Y-109201586D01*
X151210021Y-109200021D01*
X151201218Y-109203193D01*
X150714621Y-109689789D01*
X150707008Y-109703732D01*
X149976956Y-109703732D01*
X149978192Y-109701468D01*
X149978061Y-109699634D01*
X149973810Y-109693020D01*
X149488662Y-109207873D01*
X149476287Y-109201116D01*
X149469898Y-109205898D01*
X149418290Y-109299772D01*
X149413461Y-109311038D01*
X149357650Y-109486977D01*
X149355102Y-109498966D01*
X149334527Y-109682389D01*
X149334356Y-109694657D01*
X146436134Y-109694657D01*
X146436134Y-108836663D01*
X149840383Y-108836663D01*
X149842838Y-108843627D01*
X150329789Y-109330579D01*
X150343732Y-109338192D01*
X150345566Y-109338061D01*
X150352180Y-109333810D01*
X150837486Y-108848503D01*
X150844243Y-108836128D01*
X150839584Y-108829904D01*
X150738968Y-108775501D01*
X150727662Y-108770749D01*
X150551346Y-108716170D01*
X150539333Y-108713704D01*
X150355771Y-108694411D01*
X150343503Y-108694326D01*
X150159698Y-108711053D01*
X150147649Y-108713351D01*
X149970584Y-108765464D01*
X149959216Y-108770057D01*
X149850532Y-108826876D01*
X149840383Y-108836663D01*
X146436134Y-108836663D01*
X146436134Y-108010727D01*
X153008800Y-108010727D01*
X153009169Y-108017541D01*
X153014310Y-108064866D01*
X153017935Y-108080111D01*
X153060175Y-108192788D01*
X153068708Y-108208375D01*
X153140234Y-108303810D01*
X153152790Y-108316366D01*
X153248225Y-108387892D01*
X153263812Y-108396425D01*
X153376489Y-108438665D01*
X153391734Y-108442290D01*
X153439059Y-108447431D01*
X153441493Y-108447563D01*
X153455924Y-108443325D01*
X153457129Y-108441935D01*
X153458800Y-108434252D01*
X153458800Y-107990915D01*
X153454325Y-107975676D01*
X153452935Y-107974471D01*
X153445252Y-107972800D01*
X153026915Y-107972800D01*
X153011676Y-107977275D01*
X153010471Y-107978665D01*
X153008800Y-107986348D01*
X153008800Y-108010727D01*
X146436134Y-108010727D01*
X146436134Y-107446685D01*
X153008800Y-107446685D01*
X153013275Y-107461924D01*
X153014665Y-107463129D01*
X153022348Y-107464800D01*
X153440685Y-107464800D01*
X153455924Y-107460325D01*
X153457129Y-107458935D01*
X153458800Y-107451252D01*
X153458800Y-107007915D01*
X153454325Y-106992676D01*
X153452935Y-106991471D01*
X153445376Y-106989827D01*
X153439059Y-106990169D01*
X153391734Y-106995310D01*
X153376489Y-106998935D01*
X153263812Y-107041175D01*
X153248225Y-107049708D01*
X153152790Y-107121234D01*
X153140234Y-107133790D01*
X153068708Y-107229225D01*
X153060175Y-107244812D01*
X153017935Y-107357489D01*
X153014310Y-107372734D01*
X153009169Y-107420059D01*
X153008800Y-107426873D01*
X153008800Y-107446685D01*
X146436134Y-107446685D01*
X146436134Y-105926000D01*
X146456136Y-105857879D01*
X146509792Y-105811386D01*
X146562134Y-105800000D01*
X153803508Y-105800000D01*
X153871629Y-105820002D01*
G37*
%TD.AperFunction*%
%TD*%
%TA.AperFunction,Conductor*%
%TO.N,GND*%
G36*
X156854478Y-107302139D02*
G01*
X156911527Y-107312787D01*
X156954650Y-107329466D01*
X156986731Y-107349293D01*
X156993928Y-107353741D01*
X157028129Y-107384851D01*
X157063165Y-107431113D01*
X157075415Y-107450831D01*
X157350512Y-108001024D01*
X157363140Y-108044367D01*
X157370797Y-108118172D01*
X157372976Y-108124703D01*
X157372977Y-108124708D01*
X157420314Y-108266592D01*
X157424337Y-108278652D01*
X157513360Y-108422511D01*
X157518542Y-108427684D01*
X157594474Y-108503484D01*
X157618154Y-108536308D01*
X157869915Y-109039830D01*
X157875675Y-109053241D01*
X157888206Y-109087812D01*
X157894902Y-109116178D01*
X157899154Y-109152696D01*
X157900000Y-109167268D01*
X157900000Y-114209929D01*
X157897592Y-114234444D01*
X157885633Y-114294735D01*
X157866921Y-114340049D01*
X157839847Y-114380713D01*
X157805255Y-114415457D01*
X157764709Y-114442709D01*
X157719475Y-114461619D01*
X157670615Y-114471531D01*
X157659231Y-114473840D01*
X157634731Y-114476354D01*
X156952198Y-114479324D01*
X156439310Y-114481555D01*
X156371103Y-114461849D01*
X156363147Y-114456198D01*
X156358911Y-114451969D01*
X156243313Y-114380713D01*
X156221127Y-114367037D01*
X156221125Y-114367036D01*
X156214897Y-114363197D01*
X156054324Y-114309937D01*
X156047488Y-114309237D01*
X156047485Y-114309236D01*
X155997403Y-114304105D01*
X155954407Y-114299700D01*
X155658500Y-114299700D01*
X155357994Y-114299701D01*
X155354750Y-114300038D01*
X155354742Y-114300038D01*
X155310320Y-114304647D01*
X155256828Y-114310197D01*
X155096348Y-114363737D01*
X154952489Y-114452760D01*
X154947315Y-114457943D01*
X154943270Y-114461149D01*
X154877460Y-114487786D01*
X154865554Y-114488402D01*
X153040786Y-114496342D01*
X152200000Y-114500000D01*
X152200000Y-115086666D01*
X152179998Y-115154787D01*
X152179706Y-115155196D01*
X152178016Y-115156889D01*
X152086186Y-115305866D01*
X152031090Y-115471972D01*
X152020500Y-115575334D01*
X152020500Y-116325066D01*
X152031359Y-116429719D01*
X152086744Y-116595729D01*
X152090600Y-116601960D01*
X152178834Y-116744545D01*
X152176892Y-116745747D01*
X152199382Y-116801297D01*
X152200000Y-116813762D01*
X152200000Y-123233589D01*
X152197579Y-123258171D01*
X152185554Y-123318622D01*
X152166740Y-123364042D01*
X152139529Y-123404766D01*
X152104766Y-123439529D01*
X152064042Y-123466740D01*
X152018622Y-123485554D01*
X151958171Y-123497579D01*
X151933589Y-123500000D01*
X148757733Y-123500000D01*
X148685465Y-123477215D01*
X148531534Y-123369432D01*
X148526556Y-123367111D01*
X148526553Y-123367109D01*
X148330278Y-123275584D01*
X148330276Y-123275583D01*
X148325296Y-123273261D01*
X148319988Y-123271839D01*
X148319986Y-123271838D01*
X148110807Y-123215789D01*
X148110805Y-123215789D01*
X148105492Y-123214365D01*
X147878800Y-123194532D01*
X147652108Y-123214365D01*
X147646795Y-123215789D01*
X147646793Y-123215789D01*
X147437614Y-123271838D01*
X147437612Y-123271839D01*
X147432304Y-123273261D01*
X147427324Y-123275583D01*
X147427322Y-123275584D01*
X147364904Y-123304690D01*
X147294712Y-123315351D01*
X147229899Y-123286371D01*
X147191043Y-123226951D01*
X147185654Y-123190495D01*
X147185654Y-114594826D01*
X147205656Y-114526705D01*
X147248147Y-114486192D01*
X147252730Y-114484151D01*
X147405871Y-114372888D01*
X147411140Y-114367037D01*
X147528114Y-114237124D01*
X147528115Y-114237123D01*
X147532533Y-114232216D01*
X147627179Y-114068284D01*
X147685674Y-113888256D01*
X147705460Y-113700000D01*
X147685674Y-113511744D01*
X147627179Y-113331716D01*
X147532533Y-113167784D01*
X147405871Y-113027112D01*
X147252730Y-112915849D01*
X147079803Y-112838856D01*
X146981788Y-112818022D01*
X146901103Y-112800872D01*
X146901099Y-112800872D01*
X146894646Y-112799500D01*
X146705354Y-112799500D01*
X146698899Y-112800872D01*
X146698890Y-112800873D01*
X146688328Y-112803118D01*
X146617538Y-112797715D01*
X146560906Y-112754897D01*
X146536414Y-112688259D01*
X146536134Y-112679871D01*
X146536134Y-112326000D01*
X146556136Y-112257879D01*
X146609792Y-112211386D01*
X146662134Y-112200000D01*
X153800000Y-112200000D01*
X154852352Y-107512252D01*
X154861607Y-107485523D01*
X154891905Y-107422126D01*
X154926854Y-107378087D01*
X154970310Y-107343305D01*
X155020934Y-107318851D01*
X155047430Y-107312787D01*
X155089425Y-107303176D01*
X155117534Y-107300000D01*
X156831360Y-107300000D01*
X156854478Y-107302139D01*
G37*
%TD.AperFunction*%
%TD*%
%TA.AperFunction,Conductor*%
%TO.N,GND*%
G36*
X155493810Y-98399988D02*
G01*
X155561930Y-98419993D01*
X155582902Y-98436894D01*
X155763097Y-98617096D01*
X155797121Y-98679409D01*
X155800000Y-98706190D01*
X155800000Y-103667268D01*
X155779998Y-103735389D01*
X155726342Y-103781882D01*
X155656068Y-103791986D01*
X155591488Y-103762492D01*
X155584905Y-103756363D01*
X155583436Y-103754894D01*
X155567593Y-103743383D01*
X155471232Y-103694285D01*
X155452608Y-103688233D01*
X155372685Y-103675575D01*
X155362842Y-103674800D01*
X155095615Y-103674800D01*
X155080376Y-103679275D01*
X155079171Y-103680665D01*
X155077500Y-103688348D01*
X155077500Y-104764684D01*
X155081975Y-104779923D01*
X155083365Y-104781128D01*
X155091048Y-104782799D01*
X155362840Y-104782799D01*
X155372687Y-104782024D01*
X155452607Y-104769367D01*
X155471233Y-104763315D01*
X155567593Y-104714217D01*
X155583436Y-104702706D01*
X155584905Y-104701237D01*
X155587129Y-104700022D01*
X155591457Y-104696878D01*
X155591863Y-104697437D01*
X155647217Y-104667211D01*
X155718032Y-104672276D01*
X155774868Y-104714823D01*
X155799679Y-104781343D01*
X155800000Y-104790332D01*
X155800000Y-104993841D01*
X155779998Y-105061962D01*
X155763135Y-105082896D01*
X155582866Y-105263321D01*
X155520569Y-105297372D01*
X155493844Y-105300263D01*
X149526069Y-105305377D01*
X146562242Y-105307917D01*
X146494104Y-105287973D01*
X146447565Y-105234357D01*
X146436134Y-105181917D01*
X146436134Y-104499073D01*
X153921625Y-104499073D01*
X153926486Y-104514034D01*
X153975583Y-104610393D01*
X153987094Y-104626236D01*
X154063564Y-104702706D01*
X154079407Y-104714217D01*
X154175768Y-104763315D01*
X154194392Y-104769367D01*
X154274315Y-104782025D01*
X154284158Y-104782800D01*
X154551385Y-104782800D01*
X154566624Y-104778325D01*
X154567829Y-104776935D01*
X154569500Y-104769252D01*
X154569500Y-104500915D01*
X154565025Y-104485676D01*
X154563635Y-104484471D01*
X154555952Y-104482800D01*
X153936552Y-104482800D01*
X153923316Y-104486687D01*
X153921625Y-104499073D01*
X146436134Y-104499073D01*
X146436134Y-103958845D01*
X153921521Y-103958845D01*
X153923038Y-103970588D01*
X153937012Y-103974800D01*
X154551385Y-103974800D01*
X154566624Y-103970325D01*
X154567829Y-103968935D01*
X154569500Y-103961252D01*
X154569500Y-103692916D01*
X154565025Y-103677677D01*
X154563635Y-103676472D01*
X154555952Y-103674801D01*
X154284160Y-103674801D01*
X154274313Y-103675576D01*
X154194393Y-103688233D01*
X154175767Y-103694285D01*
X154079407Y-103743383D01*
X154063564Y-103754894D01*
X153987094Y-103831364D01*
X153975583Y-103847207D01*
X153926484Y-103943569D01*
X153921521Y-103958845D01*
X146436134Y-103958845D01*
X146436134Y-98968344D01*
X146456136Y-98900223D01*
X146509792Y-98853730D01*
X146578798Y-98843451D01*
X146604382Y-98846864D01*
X146668264Y-98855388D01*
X146675276Y-98854750D01*
X146675280Y-98854750D01*
X146840094Y-98839751D01*
X146840095Y-98839751D01*
X146847115Y-98839112D01*
X147017916Y-98783615D01*
X147147799Y-98706190D01*
X147166126Y-98695265D01*
X147166128Y-98695264D01*
X147172178Y-98691657D01*
X147231407Y-98635254D01*
X147294532Y-98602762D01*
X147318299Y-98600500D01*
X147535007Y-98600500D01*
X147540284Y-98600611D01*
X147602294Y-98603210D01*
X147613848Y-98600500D01*
X147644662Y-98593273D01*
X147656333Y-98591110D01*
X147671229Y-98589069D01*
X147699432Y-98585206D01*
X147713230Y-98579235D01*
X147734499Y-98572201D01*
X147740775Y-98570729D01*
X147749136Y-98568768D01*
X147756661Y-98564631D01*
X147756664Y-98564630D01*
X147787268Y-98547805D01*
X147797913Y-98542589D01*
X147837855Y-98525305D01*
X147849541Y-98515842D01*
X147868126Y-98503354D01*
X147875518Y-98499290D01*
X147881308Y-98496107D01*
X147889422Y-98489103D01*
X147913958Y-98464567D01*
X147923759Y-98455742D01*
X147955071Y-98430386D01*
X147956780Y-98432497D01*
X148006187Y-98403466D01*
X148036833Y-98399683D01*
X155493810Y-98399988D01*
G37*
%TD.AperFunction*%
%TD*%
M02*
