%FSLAX45Y45*%
G04 Gerber Fmt 4.5, Leading zero omitted, Abs format (unit mm)*
G04 Created by KiCad (PCBNEW (6.0.1-0)) date 2022-02-06 09:10:40*
%MOMM*%
%LPD*%
G01*
G04 APERTURE LIST*
%TA.AperFunction,Profile*%
%ADD10C,0.050000*%
%TD*%
%ADD11C,0.200000*%
%ADD12C,0.030000*%
%ADD13C,0.040000*%
%ADD14C,0.070000*%
%ADD15C,0.080000*%
%ADD16C,0.100000*%
%ADD17C,0.120000*%
G04 APERTURE END LIST*
D10*
X19075400Y-7658100D02*
X19074000Y-14104500D01*
X19074000Y-14104500D02*
X11353800Y-14104500D01*
X11353800Y-14104500D02*
X11353800Y-7658100D01*
X11353800Y-7658100D02*
X19075400Y-7658100D01*
D11*
D12*
X14338757Y-12766280D02*
X14368757Y-12796280D01*
X14368757Y-12766280D02*
X14338757Y-12796280D01*
X14338757Y-12883120D02*
X14368757Y-12913120D01*
X14368757Y-12883120D02*
X14338757Y-12913120D01*
X14708465Y-12766280D02*
X14738465Y-12796280D01*
X14738465Y-12766280D02*
X14708465Y-12796280D01*
X14708465Y-12867192D02*
X14738465Y-12897192D01*
X14738465Y-12867192D02*
X14708465Y-12897192D01*
D13*
X11560970Y-11064500D02*
G75*
G03*
X11560970Y-11064500I-20000J0D01*
G01*
X11587160Y-9149080D02*
G75*
G03*
X11587160Y-9149080I-20000J0D01*
G01*
X11629920Y-11747500D02*
G75*
G03*
X11629920Y-11747500I-20000J0D01*
G01*
X11739560Y-8442960D02*
G75*
G03*
X11739560Y-8442960I-20000J0D01*
G01*
X11740000Y-7880000D02*
G75*
G03*
X11740000Y-7880000I-20000J0D01*
G01*
X11740000Y-8220000D02*
G75*
G03*
X11740000Y-8220000I-20000J0D01*
G01*
X11785970Y-10239500D02*
G75*
G03*
X11785970Y-10239500I-20000J0D01*
G01*
X11843280Y-12181840D02*
G75*
G03*
X11843280Y-12181840I-20000J0D01*
G01*
X11850000Y-9450000D02*
G75*
G03*
X11850000Y-9450000I-20000J0D01*
G01*
X11850000Y-9800000D02*
G75*
G03*
X11850000Y-9800000I-20000J0D01*
G01*
X11975360Y-12837160D02*
G75*
G03*
X11975360Y-12837160I-20000J0D01*
G01*
X12031240Y-12486640D02*
G75*
G03*
X12031240Y-12486640I-20000J0D01*
G01*
X12082040Y-12837160D02*
G75*
G03*
X12082040Y-12837160I-20000J0D01*
G01*
X12206920Y-7860328D02*
G75*
G03*
X12206920Y-7860328I-20000J0D01*
G01*
X12278040Y-9052560D02*
G75*
G03*
X12278040Y-9052560I-20000J0D01*
G01*
X12289000Y-9262500D02*
G75*
G03*
X12289000Y-9262500I-20000J0D01*
G01*
X12289000Y-9602500D02*
G75*
G03*
X12289000Y-9602500I-20000J0D01*
G01*
X12354378Y-10297522D02*
G75*
G03*
X12354378Y-10297522I-20000J0D01*
G01*
X12400000Y-8610000D02*
G75*
G03*
X12400000Y-8610000I-20000J0D01*
G01*
X12435970Y-11064500D02*
G75*
G03*
X12435970Y-11064500I-20000J0D01*
G01*
X12459000Y-9262500D02*
G75*
G03*
X12459000Y-9262500I-20000J0D01*
G01*
X12506220Y-11747500D02*
G75*
G03*
X12506220Y-11747500I-20000J0D01*
G01*
X12529080Y-12181840D02*
G75*
G03*
X12529080Y-12181840I-20000J0D01*
G01*
X12535970Y-10239500D02*
G75*
G03*
X12535970Y-10239500I-20000J0D01*
G01*
X12653800Y-9628100D02*
G75*
G03*
X12653800Y-9628100I-20000J0D01*
G01*
X12777240Y-10042450D02*
G75*
G03*
X12777240Y-10042450I-20000J0D01*
G01*
X12812467Y-9569033D02*
G75*
G03*
X12812467Y-9569033I-20000J0D01*
G01*
X12831760Y-11242040D02*
G75*
G03*
X12831760Y-11242040I-20000J0D01*
G01*
X12892720Y-8300720D02*
G75*
G03*
X12892720Y-8300720I-20000J0D01*
G01*
X12999950Y-11818100D02*
G75*
G03*
X12999950Y-11818100I-20000J0D01*
G01*
X13029000Y-9402500D02*
G75*
G03*
X13029000Y-9402500I-20000J0D01*
G01*
X13043800Y-9628100D02*
G75*
G03*
X13043800Y-9628100I-20000J0D01*
G01*
X13070000Y-8390000D02*
G75*
G03*
X13070000Y-8390000I-20000J0D01*
G01*
X13117981Y-9458150D02*
G75*
G03*
X13117981Y-9458150I-20000J0D01*
G01*
X13118800Y-12109950D02*
G75*
G03*
X13118800Y-12109950I-20000J0D01*
G01*
X13203025Y-9538100D02*
G75*
G03*
X13203025Y-9538100I-20000J0D01*
G01*
X13310000Y-8850000D02*
G75*
G03*
X13310000Y-8850000I-20000J0D01*
G01*
X13360080Y-11607800D02*
G75*
G03*
X13360080Y-11607800I-20000J0D01*
G01*
X13360080Y-12847320D02*
G75*
G03*
X13360080Y-12847320I-20000J0D01*
G01*
X13363800Y-9278100D02*
G75*
G03*
X13363800Y-9278100I-20000J0D01*
G01*
X13363800Y-9768100D02*
G75*
G03*
X13363800Y-9768100I-20000J0D01*
G01*
X13363800Y-10042450D02*
G75*
G03*
X13363800Y-10042450I-20000J0D01*
G01*
X13502320Y-11607800D02*
G75*
G03*
X13502320Y-11607800I-20000J0D01*
G01*
X13502320Y-12847320D02*
G75*
G03*
X13502320Y-12847320I-20000J0D01*
G01*
X13503800Y-9618100D02*
G75*
G03*
X13503800Y-9618100I-20000J0D01*
G01*
X13510000Y-8390000D02*
G75*
G03*
X13510000Y-8390000I-20000J0D01*
G01*
X13510000Y-8680000D02*
G75*
G03*
X13510000Y-8680000I-20000J0D01*
G01*
X13629008Y-9533158D02*
G75*
G03*
X13629008Y-9533158I-20000J0D01*
G01*
X13664000Y-9907500D02*
G75*
G03*
X13664000Y-9907500I-20000J0D01*
G01*
X13929040Y-11607800D02*
G75*
G03*
X13929040Y-11607800I-20000J0D01*
G01*
X14071280Y-11607800D02*
G75*
G03*
X14071280Y-11607800I-20000J0D01*
G01*
X14132240Y-12684760D02*
G75*
G03*
X14132240Y-12684760I-20000J0D01*
G01*
X14132240Y-12781280D02*
G75*
G03*
X14132240Y-12781280I-20000J0D01*
G01*
X14243853Y-9505414D02*
G75*
G03*
X14243853Y-9505414I-20000J0D01*
G01*
X14293287Y-9117978D02*
G75*
G03*
X14293287Y-9117978I-20000J0D01*
G01*
X14298731Y-9013169D02*
G75*
G03*
X14298731Y-9013169I-20000J0D01*
G01*
X14298805Y-9595050D02*
G75*
G03*
X14298805Y-9595050I-20000J0D01*
G01*
X14298805Y-9700000D02*
G75*
G03*
X14298805Y-9700000I-20000J0D01*
G01*
X14298805Y-9805000D02*
G75*
G03*
X14298805Y-9805000I-20000J0D01*
G01*
X14363757Y-11130000D02*
G75*
G03*
X14363757Y-11130000I-20000J0D01*
G01*
X14363757Y-12583100D02*
G75*
G03*
X14363757Y-12583100I-20000J0D01*
G01*
X14578609Y-9008100D02*
G75*
G03*
X14578609Y-9008100I-20000J0D01*
G01*
X14633561Y-9098100D02*
G75*
G03*
X14633561Y-9098100I-20000J0D01*
G01*
X14688513Y-9700050D02*
G75*
G03*
X14688513Y-9700050I-20000J0D01*
G01*
X14688513Y-9805000D02*
G75*
G03*
X14688513Y-9805000I-20000J0D01*
G01*
X14700000Y-11370000D02*
G75*
G03*
X14700000Y-11370000I-20000J0D01*
G01*
X14703906Y-9596235D02*
G75*
G03*
X14703906Y-9596235I-20000J0D01*
G01*
X14752000Y-10160000D02*
G75*
G03*
X14752000Y-10160000I-20000J0D01*
G01*
X14752000Y-10414000D02*
G75*
G03*
X14752000Y-10414000I-20000J0D01*
G01*
X14753465Y-12598100D02*
G75*
G03*
X14753465Y-12598100I-20000J0D01*
G01*
X14790000Y-9515002D02*
G75*
G03*
X14790000Y-9515002I-20000J0D01*
G01*
X14798417Y-11120000D02*
G75*
G03*
X14798417Y-11120000I-20000J0D01*
G01*
X14879000Y-10033000D02*
G75*
G03*
X14879000Y-10033000I-20000J0D01*
G01*
X14879000Y-10287000D02*
G75*
G03*
X14879000Y-10287000I-20000J0D01*
G01*
X14879000Y-11430000D02*
G75*
G03*
X14879000Y-11430000I-20000J0D01*
G01*
X14879000Y-11684000D02*
G75*
G03*
X14879000Y-11684000I-20000J0D01*
G01*
X14879000Y-11938000D02*
G75*
G03*
X14879000Y-11938000I-20000J0D01*
G01*
X14879000Y-12192000D02*
G75*
G03*
X14879000Y-12192000I-20000J0D01*
G01*
X15006000Y-10160000D02*
G75*
G03*
X15006000Y-10160000I-20000J0D01*
G01*
X15006000Y-10414000D02*
G75*
G03*
X15006000Y-10414000I-20000J0D01*
G01*
X15006000Y-11303000D02*
G75*
G03*
X15006000Y-11303000I-20000J0D01*
G01*
X15006000Y-11557000D02*
G75*
G03*
X15006000Y-11557000I-20000J0D01*
G01*
X15006000Y-11811000D02*
G75*
G03*
X15006000Y-11811000I-20000J0D01*
G01*
X15006000Y-12065000D02*
G75*
G03*
X15006000Y-12065000I-20000J0D01*
G01*
X15133000Y-10033000D02*
G75*
G03*
X15133000Y-10033000I-20000J0D01*
G01*
X15133000Y-10287000D02*
G75*
G03*
X15133000Y-10287000I-20000J0D01*
G01*
X15133000Y-11430000D02*
G75*
G03*
X15133000Y-11430000I-20000J0D01*
G01*
X15133000Y-11684000D02*
G75*
G03*
X15133000Y-11684000I-20000J0D01*
G01*
X15133000Y-11938000D02*
G75*
G03*
X15133000Y-11938000I-20000J0D01*
G01*
X15133000Y-12192000D02*
G75*
G03*
X15133000Y-12192000I-20000J0D01*
G01*
X15170000Y-11300000D02*
G75*
G03*
X15170000Y-11300000I-20000J0D01*
G01*
X15260000Y-10160000D02*
G75*
G03*
X15260000Y-10160000I-20000J0D01*
G01*
X15260000Y-10421360D02*
G75*
G03*
X15260000Y-10421360I-20000J0D01*
G01*
X15387000Y-10033000D02*
G75*
G03*
X15387000Y-10033000I-20000J0D01*
G01*
X15387000Y-10287000D02*
G75*
G03*
X15387000Y-10287000I-20000J0D01*
G01*
X15458620Y-11188440D02*
G75*
G03*
X15458620Y-11188440I-20000J0D01*
G01*
X15489100Y-11371320D02*
G75*
G03*
X15489100Y-11371320I-20000J0D01*
G01*
X15504340Y-10309600D02*
G75*
G03*
X15504340Y-10309600I-20000J0D01*
G01*
X15514000Y-10160000D02*
G75*
G03*
X15514000Y-10160000I-20000J0D01*
G01*
X15616100Y-10517880D02*
G75*
G03*
X15616100Y-10517880I-20000J0D01*
G01*
X15621180Y-10700760D02*
G75*
G03*
X15621180Y-10700760I-20000J0D01*
G01*
X15621180Y-10853160D02*
G75*
G03*
X15621180Y-10853160I-20000J0D01*
G01*
X15621180Y-11097000D02*
G75*
G03*
X15621180Y-11097000I-20000J0D01*
G01*
X15633800Y-12578100D02*
G75*
G03*
X15633800Y-12578100I-20000J0D01*
G01*
X15747680Y-11369040D02*
G75*
G03*
X15747680Y-11369040I-20000J0D01*
G01*
X15859940Y-10517880D02*
G75*
G03*
X15859940Y-10517880I-20000J0D01*
G01*
X15893800Y-12313100D02*
G75*
G03*
X15893800Y-12313100I-20000J0D01*
G01*
X15900000Y-10370000D02*
G75*
G03*
X15900000Y-10370000I-20000J0D01*
G01*
X16060100Y-10236200D02*
G75*
G03*
X16060100Y-10236200I-20000J0D01*
G01*
X16062640Y-10518140D02*
G75*
G03*
X16062640Y-10518140I-20000J0D01*
G01*
X16197260Y-10380980D02*
G75*
G03*
X16197260Y-10380980I-20000J0D01*
G01*
X16344580Y-10233660D02*
G75*
G03*
X16344580Y-10233660I-20000J0D01*
G01*
X16344580Y-10518140D02*
G75*
G03*
X16344580Y-10518140I-20000J0D01*
G01*
X16509680Y-9565640D02*
G75*
G03*
X16509680Y-9565640I-20000J0D01*
G01*
X16510000Y-9890440D02*
G75*
G03*
X16510000Y-9890440I-20000J0D01*
G01*
X16948800Y-12313100D02*
G75*
G03*
X16948800Y-12313100I-20000J0D01*
G01*
X17266600Y-11684000D02*
G75*
G03*
X17266600Y-11684000I-20000J0D01*
G01*
X17417100Y-9146400D02*
G75*
G03*
X17417100Y-9146400I-20000J0D01*
G01*
X17417100Y-9306400D02*
G75*
G03*
X17417100Y-9306400I-20000J0D01*
G01*
X17444400Y-11684000D02*
G75*
G03*
X17444400Y-11684000I-20000J0D01*
G01*
X18160680Y-12959080D02*
G75*
G03*
X18160680Y-12959080I-20000J0D01*
G01*
X18435000Y-11684000D02*
G75*
G03*
X18435000Y-11684000I-20000J0D01*
G01*
X18612800Y-11684000D02*
G75*
G03*
X18612800Y-11684000I-20000J0D01*
G01*
D14*
X13523800Y-10083100D02*
X13523800Y-10153100D01*
X13488800Y-10118100D02*
X13558800Y-10118100D01*
X15034260Y-10935260D02*
X15034260Y-11005260D01*
X14999260Y-10970260D02*
X15069260Y-10970260D01*
X15486380Y-12032540D02*
X15486380Y-12102540D01*
X15451380Y-12067540D02*
X15521380Y-12067540D01*
X16540480Y-10968280D02*
X16540480Y-11038280D01*
X16505480Y-11003280D02*
X16575480Y-11003280D01*
D15*
X14267084Y-12476384D02*
X14267084Y-12419815D01*
X14210515Y-12419815D01*
X14210515Y-12476384D01*
X14267084Y-12476384D01*
X14816164Y-12478284D02*
X14816164Y-12421715D01*
X14759595Y-12421715D01*
X14759595Y-12478284D01*
X14816164Y-12478284D01*
D16*
X12000000Y-10120000D02*
X12050000Y-10070000D01*
X12000000Y-10020000D01*
X11950000Y-10070000D01*
X12000000Y-10120000D01*
X12131850Y-11362960D02*
X12181850Y-11312960D01*
X12131850Y-11262960D01*
X12081850Y-11312960D01*
X12131850Y-11362960D01*
X12131850Y-11616960D02*
X12181850Y-11566960D01*
X12131850Y-11516960D01*
X12081850Y-11566960D01*
X12131850Y-11616960D01*
X12132500Y-10602500D02*
X12182500Y-10552500D01*
X12132500Y-10502500D01*
X12082500Y-10552500D01*
X12132500Y-10602500D01*
X12132500Y-10856500D02*
X12182500Y-10806500D01*
X12132500Y-10756500D01*
X12082500Y-10806500D01*
X12132500Y-10856500D01*
X12254000Y-10120000D02*
X12304000Y-10070000D01*
X12254000Y-10020000D01*
X12204000Y-10070000D01*
X12254000Y-10120000D01*
X14084300Y-8287220D02*
X14134300Y-8237220D01*
X14084300Y-8187220D01*
X14034300Y-8237220D01*
X14084300Y-8287220D01*
X14084700Y-7987500D02*
X14134700Y-7937500D01*
X14084700Y-7887500D01*
X14034700Y-7937500D01*
X14084700Y-7987500D01*
X14338300Y-8287220D02*
X14388300Y-8237220D01*
X14338300Y-8187220D01*
X14288300Y-8237220D01*
X14338300Y-8287220D01*
X14338700Y-7987500D02*
X14388700Y-7937500D01*
X14338700Y-7887500D01*
X14288700Y-7937500D01*
X14338700Y-7987500D01*
X14592300Y-8287220D02*
X14642300Y-8237220D01*
X14592300Y-8187220D01*
X14542300Y-8237220D01*
X14592300Y-8287220D01*
X14592700Y-7987500D02*
X14642700Y-7937500D01*
X14592700Y-7887500D01*
X14542700Y-7937500D01*
X14592700Y-7987500D01*
X14846300Y-8287220D02*
X14896300Y-8237220D01*
X14846300Y-8187220D01*
X14796300Y-8237220D01*
X14846300Y-8287220D01*
X14846700Y-7987500D02*
X14896700Y-7937500D01*
X14846700Y-7887500D01*
X14796700Y-7937500D01*
X14846700Y-7987500D01*
X14998700Y-12813500D02*
X15048700Y-12763500D01*
X14998700Y-12713500D01*
X14948700Y-12763500D01*
X14998700Y-12813500D01*
X15100300Y-8287220D02*
X15150300Y-8237220D01*
X15100300Y-8187220D01*
X15050300Y-8237220D01*
X15100300Y-8287220D01*
X15100700Y-7987500D02*
X15150700Y-7937500D01*
X15100700Y-7887500D01*
X15050700Y-7937500D01*
X15100700Y-7987500D01*
X15252700Y-12813500D02*
X15302700Y-12763500D01*
X15252700Y-12713500D01*
X15202700Y-12763500D01*
X15252700Y-12813500D01*
X15354300Y-8287220D02*
X15404300Y-8237220D01*
X15354300Y-8187220D01*
X15304300Y-8237220D01*
X15354300Y-8287220D01*
X15354700Y-7987500D02*
X15404700Y-7937500D01*
X15354700Y-7887500D01*
X15304700Y-7937500D01*
X15354700Y-7987500D01*
X15506700Y-12813500D02*
X15556700Y-12763500D01*
X15506700Y-12713500D01*
X15456700Y-12763500D01*
X15506700Y-12813500D01*
X15608300Y-8287220D02*
X15658300Y-8237220D01*
X15608300Y-8187220D01*
X15558300Y-8237220D01*
X15608300Y-8287220D01*
X15608700Y-7987500D02*
X15658700Y-7937500D01*
X15608700Y-7887500D01*
X15558700Y-7937500D01*
X15608700Y-7987500D01*
X15760700Y-12813500D02*
X15810700Y-12763500D01*
X15760700Y-12713500D01*
X15710700Y-12763500D01*
X15760700Y-12813500D01*
X15862300Y-8287220D02*
X15912300Y-8237220D01*
X15862300Y-8187220D01*
X15812300Y-8237220D01*
X15862300Y-8287220D01*
X15862700Y-7987500D02*
X15912700Y-7937500D01*
X15862700Y-7887500D01*
X15812700Y-7937500D01*
X15862700Y-7987500D01*
X16014700Y-12813500D02*
X16064700Y-12763500D01*
X16014700Y-12713500D01*
X15964700Y-12763500D01*
X16014700Y-12813500D01*
X16116300Y-8287220D02*
X16166300Y-8237220D01*
X16116300Y-8187220D01*
X16066300Y-8237220D01*
X16116300Y-8287220D01*
X16116700Y-7987500D02*
X16166700Y-7937500D01*
X16116700Y-7887500D01*
X16066700Y-7937500D01*
X16116700Y-7987500D01*
X16268700Y-12813500D02*
X16318700Y-12763500D01*
X16268700Y-12713500D01*
X16218700Y-12763500D01*
X16268700Y-12813500D01*
X16370300Y-8287220D02*
X16420300Y-8237220D01*
X16370300Y-8187220D01*
X16320300Y-8237220D01*
X16370300Y-8287220D01*
X16370700Y-7987500D02*
X16420700Y-7937500D01*
X16370700Y-7887500D01*
X16320700Y-7937500D01*
X16370700Y-7987500D01*
X16522700Y-12813500D02*
X16572700Y-12763500D01*
X16522700Y-12713500D01*
X16472700Y-12763500D01*
X16522700Y-12813500D01*
X16776700Y-7987500D02*
X16826700Y-7937500D01*
X16776700Y-7887500D01*
X16726700Y-7937500D01*
X16776700Y-7987500D01*
X16776700Y-12813500D02*
X16826700Y-12763500D01*
X16776700Y-12713500D01*
X16726700Y-12763500D01*
X16776700Y-12813500D01*
X16777240Y-8287220D02*
X16827240Y-8237220D01*
X16777240Y-8187220D01*
X16727240Y-8237220D01*
X16777240Y-8287220D01*
X17030700Y-7987500D02*
X17080700Y-7937500D01*
X17030700Y-7887500D01*
X16980700Y-7937500D01*
X17030700Y-7987500D01*
X17031240Y-8287220D02*
X17081240Y-8237220D01*
X17031240Y-8187220D01*
X16981240Y-8237220D01*
X17031240Y-8287220D01*
X17282160Y-12442660D02*
X17332160Y-12392660D01*
X17282160Y-12342660D01*
X17232160Y-12392660D01*
X17282160Y-12442660D01*
X17284700Y-7987500D02*
X17334700Y-7937500D01*
X17284700Y-7887500D01*
X17234700Y-7937500D01*
X17284700Y-7987500D01*
X17284700Y-12813500D02*
X17334700Y-12763500D01*
X17284700Y-12713500D01*
X17234700Y-12763500D01*
X17284700Y-12813500D01*
X17285240Y-8287220D02*
X17335240Y-8237220D01*
X17285240Y-8187220D01*
X17235240Y-8237220D01*
X17285240Y-8287220D01*
X17536160Y-12442660D02*
X17586160Y-12392660D01*
X17536160Y-12342660D01*
X17486160Y-12392660D01*
X17536160Y-12442660D01*
X17538700Y-7987500D02*
X17588700Y-7937500D01*
X17538700Y-7887500D01*
X17488700Y-7937500D01*
X17538700Y-7987500D01*
X17538700Y-12813500D02*
X17588700Y-12763500D01*
X17538700Y-12713500D01*
X17488700Y-12763500D01*
X17538700Y-12813500D01*
X17539240Y-8287220D02*
X17589240Y-8237220D01*
X17539240Y-8187220D01*
X17489240Y-8237220D01*
X17539240Y-8287220D01*
X17754600Y-11173700D02*
X17804600Y-11123700D01*
X17754600Y-11073700D01*
X17704600Y-11123700D01*
X17754600Y-11173700D01*
X17754600Y-11427700D02*
X17804600Y-11377700D01*
X17754600Y-11327700D01*
X17704600Y-11377700D01*
X17754600Y-11427700D01*
X17754600Y-11681700D02*
X17804600Y-11631700D01*
X17754600Y-11581700D01*
X17704600Y-11631700D01*
X17754600Y-11681700D01*
X17754600Y-11935700D02*
X17804600Y-11885700D01*
X17754600Y-11835700D01*
X17704600Y-11885700D01*
X17754600Y-11935700D01*
X17790160Y-12442660D02*
X17840160Y-12392660D01*
X17790160Y-12342660D01*
X17740160Y-12392660D01*
X17790160Y-12442660D01*
X17792700Y-7987500D02*
X17842700Y-7937500D01*
X17792700Y-7887500D01*
X17742700Y-7937500D01*
X17792700Y-7987500D01*
X17792700Y-12813500D02*
X17842700Y-12763500D01*
X17792700Y-12713500D01*
X17742700Y-12763500D01*
X17792700Y-12813500D01*
X17793240Y-8287220D02*
X17843240Y-8237220D01*
X17793240Y-8187220D01*
X17743240Y-8237220D01*
X17793240Y-8287220D01*
X18044160Y-12442660D02*
X18094160Y-12392660D01*
X18044160Y-12342660D01*
X17994160Y-12392660D01*
X18044160Y-12442660D01*
X18046700Y-7987500D02*
X18096700Y-7937500D01*
X18046700Y-7887500D01*
X17996700Y-7937500D01*
X18046700Y-7987500D01*
X18046700Y-12813500D02*
X18096700Y-12763500D01*
X18046700Y-12713500D01*
X17996700Y-12763500D01*
X18046700Y-12813500D01*
X18047240Y-8287220D02*
X18097240Y-8237220D01*
X18047240Y-8187220D01*
X17997240Y-8237220D01*
X18047240Y-8287220D01*
X18298160Y-12442660D02*
X18348160Y-12392660D01*
X18298160Y-12342660D01*
X18248160Y-12392660D01*
X18298160Y-12442660D01*
X18300700Y-7987500D02*
X18350700Y-7937500D01*
X18300700Y-7887500D01*
X18250700Y-7937500D01*
X18300700Y-7987500D01*
X18300700Y-12813500D02*
X18350700Y-12763500D01*
X18300700Y-12713500D01*
X18250700Y-12763500D01*
X18300700Y-12813500D01*
X18301240Y-8287220D02*
X18351240Y-8237220D01*
X18301240Y-8187220D01*
X18251240Y-8237220D01*
X18301240Y-8287220D01*
X18552160Y-12442660D02*
X18602160Y-12392660D01*
X18552160Y-12342660D01*
X18502160Y-12392660D01*
X18552160Y-12442660D01*
X18554700Y-7987500D02*
X18604700Y-7937500D01*
X18554700Y-7887500D01*
X18504700Y-7937500D01*
X18554700Y-7987500D01*
X18554700Y-12813500D02*
X18604700Y-12763500D01*
X18554700Y-12713500D01*
X18504700Y-12763500D01*
X18554700Y-12813500D01*
X18555240Y-8287220D02*
X18605240Y-8237220D01*
X18555240Y-8187220D01*
X18505240Y-8237220D01*
X18555240Y-8287220D01*
D17*
X11523080Y-13405540D02*
X11643080Y-13525540D01*
X11643080Y-13405540D02*
X11523080Y-13525540D01*
X11643080Y-13465540D02*
G75*
G03*
X11643080Y-13465540I-60000J0D01*
G01*
X11873080Y-13405540D02*
X11993080Y-13525540D01*
X11993080Y-13405540D02*
X11873080Y-13525540D01*
X11993080Y-13465540D02*
G75*
G03*
X11993080Y-13465540I-60000J0D01*
G01*
X12223080Y-13405540D02*
X12343080Y-13525540D01*
X12343080Y-13405540D02*
X12223080Y-13525540D01*
X12343080Y-13465540D02*
G75*
G03*
X12343080Y-13465540I-60000J0D01*
G01*
X12630880Y-13405540D02*
X12750880Y-13525540D01*
X12750880Y-13405540D02*
X12630880Y-13525540D01*
X12750880Y-13465540D02*
G75*
G03*
X12750880Y-13465540I-60000J0D01*
G01*
X12980880Y-13405540D02*
X13100880Y-13525540D01*
X13100880Y-13405540D02*
X12980880Y-13525540D01*
X13100880Y-13465540D02*
G75*
G03*
X13100880Y-13465540I-60000J0D01*
G01*
X13389880Y-13405540D02*
X13509880Y-13525540D01*
X13509880Y-13405540D02*
X13389880Y-13525540D01*
X13509880Y-13465540D02*
G75*
G03*
X13509880Y-13465540I-60000J0D01*
G01*
X13739880Y-13405540D02*
X13859880Y-13525540D01*
X13859880Y-13405540D02*
X13739880Y-13525540D01*
X13859880Y-13465540D02*
G75*
G03*
X13859880Y-13465540I-60000J0D01*
G01*
X14089880Y-13405540D02*
X14209880Y-13525540D01*
X14209880Y-13405540D02*
X14089880Y-13525540D01*
X14209880Y-13465540D02*
G75*
G03*
X14209880Y-13465540I-60000J0D01*
G01*
X14439880Y-13405540D02*
X14559880Y-13525540D01*
X14559880Y-13405540D02*
X14439880Y-13525540D01*
X14559880Y-13465540D02*
G75*
G03*
X14559880Y-13465540I-60000J0D01*
G01*
X14789880Y-13405540D02*
X14909880Y-13525540D01*
X14909880Y-13405540D02*
X14789880Y-13525540D01*
X14909880Y-13465540D02*
G75*
G03*
X14909880Y-13465540I-60000J0D01*
G01*
X15139880Y-13405540D02*
X15259880Y-13525540D01*
X15259880Y-13405540D02*
X15139880Y-13525540D01*
X15259880Y-13465540D02*
G75*
G03*
X15259880Y-13465540I-60000J0D01*
G01*
X15551360Y-13405540D02*
X15671360Y-13525540D01*
X15671360Y-13405540D02*
X15551360Y-13525540D01*
X15671360Y-13465540D02*
G75*
G03*
X15671360Y-13465540I-60000J0D01*
G01*
X15901360Y-13405540D02*
X16021360Y-13525540D01*
X16021360Y-13405540D02*
X15901360Y-13525540D01*
X16021360Y-13465540D02*
G75*
G03*
X16021360Y-13465540I-60000J0D01*
G01*
X16251360Y-13405540D02*
X16371360Y-13525540D01*
X16371360Y-13405540D02*
X16251360Y-13525540D01*
X16371360Y-13465540D02*
G75*
G03*
X16371360Y-13465540I-60000J0D01*
G01*
X16601360Y-13405540D02*
X16721360Y-13525540D01*
X16721360Y-13405540D02*
X16601360Y-13525540D01*
X16721360Y-13465540D02*
G75*
G03*
X16721360Y-13465540I-60000J0D01*
G01*
X17014400Y-13403120D02*
X17134400Y-13523120D01*
X17134400Y-13403120D02*
X17014400Y-13523120D01*
X17134400Y-13463120D02*
G75*
G03*
X17134400Y-13463120I-60000J0D01*
G01*
X17364400Y-13403120D02*
X17484400Y-13523120D01*
X17484400Y-13403120D02*
X17364400Y-13523120D01*
X17484400Y-13463120D02*
G75*
G03*
X17484400Y-13463120I-60000J0D01*
G01*
X17714400Y-13403120D02*
X17834400Y-13523120D01*
X17834400Y-13403120D02*
X17714400Y-13523120D01*
X17834400Y-13463120D02*
G75*
G03*
X17834400Y-13463120I-60000J0D01*
G01*
X18126920Y-13403120D02*
X18246920Y-13523120D01*
X18246920Y-13403120D02*
X18126920Y-13523120D01*
X18246920Y-13463120D02*
G75*
G03*
X18246920Y-13463120I-60000J0D01*
G01*
X18476920Y-13403120D02*
X18596920Y-13523120D01*
X18596920Y-13403120D02*
X18476920Y-13523120D01*
X18596920Y-13463120D02*
G75*
G03*
X18596920Y-13463120I-60000J0D01*
G01*
X18826920Y-13403120D02*
X18946920Y-13523120D01*
X18946920Y-13403120D02*
X18826920Y-13523120D01*
X18946920Y-13463120D02*
G75*
G03*
X18946920Y-13463120I-60000J0D01*
G01*
D11*
X11608919Y-14417476D02*
X11608919Y-14217476D01*
X11656538Y-14217476D01*
X11685109Y-14227000D01*
X11704157Y-14246048D01*
X11713681Y-14265095D01*
X11723205Y-14303190D01*
X11723205Y-14331762D01*
X11713681Y-14369857D01*
X11704157Y-14388905D01*
X11685109Y-14407952D01*
X11656538Y-14417476D01*
X11608919Y-14417476D01*
X11808919Y-14417476D02*
X11808919Y-14284143D01*
X11808919Y-14322238D02*
X11818443Y-14303190D01*
X11827967Y-14293667D01*
X11847014Y-14284143D01*
X11866062Y-14284143D01*
X11932728Y-14417476D02*
X11932728Y-14284143D01*
X11932728Y-14217476D02*
X11923205Y-14227000D01*
X11932728Y-14236524D01*
X11942252Y-14227000D01*
X11932728Y-14217476D01*
X11932728Y-14236524D01*
X12056538Y-14417476D02*
X12037490Y-14407952D01*
X12027967Y-14388905D01*
X12027967Y-14217476D01*
X12161300Y-14417476D02*
X12142252Y-14407952D01*
X12132728Y-14388905D01*
X12132728Y-14217476D01*
X12389871Y-14417476D02*
X12389871Y-14217476D01*
X12456538Y-14360333D01*
X12523205Y-14217476D01*
X12523205Y-14417476D01*
X12704157Y-14417476D02*
X12704157Y-14312714D01*
X12694633Y-14293667D01*
X12675586Y-14284143D01*
X12637490Y-14284143D01*
X12618443Y-14293667D01*
X12704157Y-14407952D02*
X12685109Y-14417476D01*
X12637490Y-14417476D01*
X12618443Y-14407952D01*
X12608919Y-14388905D01*
X12608919Y-14369857D01*
X12618443Y-14350809D01*
X12637490Y-14341286D01*
X12685109Y-14341286D01*
X12704157Y-14331762D01*
X12799395Y-14284143D02*
X12799395Y-14484143D01*
X12799395Y-14293667D02*
X12818443Y-14284143D01*
X12856538Y-14284143D01*
X12875586Y-14293667D01*
X12885109Y-14303190D01*
X12894633Y-14322238D01*
X12894633Y-14379381D01*
X12885109Y-14398428D01*
X12875586Y-14407952D01*
X12856538Y-14417476D01*
X12818443Y-14417476D01*
X12799395Y-14407952D01*
X12980348Y-14398428D02*
X12989871Y-14407952D01*
X12980348Y-14417476D01*
X12970824Y-14407952D01*
X12980348Y-14398428D01*
X12980348Y-14417476D01*
X12980348Y-14293667D02*
X12989871Y-14303190D01*
X12980348Y-14312714D01*
X12970824Y-14303190D01*
X12980348Y-14293667D01*
X12980348Y-14312714D01*
D12*
X11321300Y-14732000D02*
X11351300Y-14762000D01*
X11351300Y-14732000D02*
X11321300Y-14762000D01*
D11*
X11647014Y-14637476D02*
X11666062Y-14637476D01*
X11685109Y-14647000D01*
X11694633Y-14656524D01*
X11704157Y-14675571D01*
X11713681Y-14713667D01*
X11713681Y-14761286D01*
X11704157Y-14799381D01*
X11694633Y-14818428D01*
X11685109Y-14827952D01*
X11666062Y-14837476D01*
X11647014Y-14837476D01*
X11627967Y-14827952D01*
X11618443Y-14818428D01*
X11608919Y-14799381D01*
X11599395Y-14761286D01*
X11599395Y-14713667D01*
X11608919Y-14675571D01*
X11618443Y-14656524D01*
X11627967Y-14647000D01*
X11647014Y-14637476D01*
X11799395Y-14818428D02*
X11808919Y-14827952D01*
X11799395Y-14837476D01*
X11789871Y-14827952D01*
X11799395Y-14818428D01*
X11799395Y-14837476D01*
X11875586Y-14637476D02*
X11999395Y-14637476D01*
X11932728Y-14713667D01*
X11961300Y-14713667D01*
X11980348Y-14723190D01*
X11989871Y-14732714D01*
X11999395Y-14751762D01*
X11999395Y-14799381D01*
X11989871Y-14818428D01*
X11980348Y-14827952D01*
X11961300Y-14837476D01*
X11904157Y-14837476D01*
X11885109Y-14827952D01*
X11875586Y-14818428D01*
X12123205Y-14637476D02*
X12142252Y-14637476D01*
X12161300Y-14647000D01*
X12170824Y-14656524D01*
X12180348Y-14675571D01*
X12189871Y-14713667D01*
X12189871Y-14761286D01*
X12180348Y-14799381D01*
X12170824Y-14818428D01*
X12161300Y-14827952D01*
X12142252Y-14837476D01*
X12123205Y-14837476D01*
X12104157Y-14827952D01*
X12094633Y-14818428D01*
X12085109Y-14799381D01*
X12075586Y-14761286D01*
X12075586Y-14713667D01*
X12085109Y-14675571D01*
X12094633Y-14656524D01*
X12104157Y-14647000D01*
X12123205Y-14637476D01*
X12313681Y-14637476D02*
X12332728Y-14637476D01*
X12351776Y-14647000D01*
X12361300Y-14656524D01*
X12370824Y-14675571D01*
X12380348Y-14713667D01*
X12380348Y-14761286D01*
X12370824Y-14799381D01*
X12361300Y-14818428D01*
X12351776Y-14827952D01*
X12332728Y-14837476D01*
X12313681Y-14837476D01*
X12294633Y-14827952D01*
X12285109Y-14818428D01*
X12275586Y-14799381D01*
X12266062Y-14761286D01*
X12266062Y-14713667D01*
X12275586Y-14675571D01*
X12285109Y-14656524D01*
X12294633Y-14647000D01*
X12313681Y-14637476D01*
X12466062Y-14837476D02*
X12466062Y-14704143D01*
X12466062Y-14723190D02*
X12475586Y-14713667D01*
X12494633Y-14704143D01*
X12523205Y-14704143D01*
X12542252Y-14713667D01*
X12551776Y-14732714D01*
X12551776Y-14837476D01*
X12551776Y-14732714D02*
X12561300Y-14713667D01*
X12580348Y-14704143D01*
X12608919Y-14704143D01*
X12627967Y-14713667D01*
X12637490Y-14732714D01*
X12637490Y-14837476D01*
X12732728Y-14837476D02*
X12732728Y-14704143D01*
X12732728Y-14723190D02*
X12742252Y-14713667D01*
X12761300Y-14704143D01*
X12789871Y-14704143D01*
X12808919Y-14713667D01*
X12818443Y-14732714D01*
X12818443Y-14837476D01*
X12818443Y-14732714D02*
X12827967Y-14713667D01*
X12847014Y-14704143D01*
X12875586Y-14704143D01*
X12894633Y-14713667D01*
X12904157Y-14732714D01*
X12904157Y-14837476D01*
X13294633Y-14627952D02*
X13123205Y-14885095D01*
X13551776Y-14637476D02*
X13570824Y-14637476D01*
X13589871Y-14647000D01*
X13599395Y-14656524D01*
X13608919Y-14675571D01*
X13618443Y-14713667D01*
X13618443Y-14761286D01*
X13608919Y-14799381D01*
X13599395Y-14818428D01*
X13589871Y-14827952D01*
X13570824Y-14837476D01*
X13551776Y-14837476D01*
X13532728Y-14827952D01*
X13523205Y-14818428D01*
X13513681Y-14799381D01*
X13504157Y-14761286D01*
X13504157Y-14713667D01*
X13513681Y-14675571D01*
X13523205Y-14656524D01*
X13532728Y-14647000D01*
X13551776Y-14637476D01*
X13704157Y-14818428D02*
X13713681Y-14827952D01*
X13704157Y-14837476D01*
X13694633Y-14827952D01*
X13704157Y-14818428D01*
X13704157Y-14837476D01*
X13837490Y-14637476D02*
X13856538Y-14637476D01*
X13875586Y-14647000D01*
X13885109Y-14656524D01*
X13894633Y-14675571D01*
X13904157Y-14713667D01*
X13904157Y-14761286D01*
X13894633Y-14799381D01*
X13885109Y-14818428D01*
X13875586Y-14827952D01*
X13856538Y-14837476D01*
X13837490Y-14837476D01*
X13818443Y-14827952D01*
X13808919Y-14818428D01*
X13799395Y-14799381D01*
X13789871Y-14761286D01*
X13789871Y-14713667D01*
X13799395Y-14675571D01*
X13808919Y-14656524D01*
X13818443Y-14647000D01*
X13837490Y-14637476D01*
X14094633Y-14837476D02*
X13980348Y-14837476D01*
X14037490Y-14837476D02*
X14037490Y-14637476D01*
X14018443Y-14666048D01*
X13999395Y-14685095D01*
X13980348Y-14694619D01*
X14285109Y-14837476D02*
X14170824Y-14837476D01*
X14227967Y-14837476D02*
X14227967Y-14637476D01*
X14208919Y-14666048D01*
X14189871Y-14685095D01*
X14170824Y-14694619D01*
X14399395Y-14723190D02*
X14380348Y-14713667D01*
X14370824Y-14704143D01*
X14361300Y-14685095D01*
X14361300Y-14675571D01*
X14370824Y-14656524D01*
X14380348Y-14647000D01*
X14399395Y-14637476D01*
X14437490Y-14637476D01*
X14456538Y-14647000D01*
X14466062Y-14656524D01*
X14475586Y-14675571D01*
X14475586Y-14685095D01*
X14466062Y-14704143D01*
X14456538Y-14713667D01*
X14437490Y-14723190D01*
X14399395Y-14723190D01*
X14380348Y-14732714D01*
X14370824Y-14742238D01*
X14361300Y-14761286D01*
X14361300Y-14799381D01*
X14370824Y-14818428D01*
X14380348Y-14827952D01*
X14399395Y-14837476D01*
X14437490Y-14837476D01*
X14456538Y-14827952D01*
X14466062Y-14818428D01*
X14475586Y-14799381D01*
X14475586Y-14761286D01*
X14466062Y-14742238D01*
X14456538Y-14732714D01*
X14437490Y-14723190D01*
X14551776Y-14637476D02*
X14551776Y-14675571D01*
X14627967Y-14637476D02*
X14627967Y-14675571D01*
X14923205Y-14913667D02*
X14913681Y-14904143D01*
X14894633Y-14875571D01*
X14885109Y-14856524D01*
X14875586Y-14827952D01*
X14866062Y-14780333D01*
X14866062Y-14742238D01*
X14875586Y-14694619D01*
X14885109Y-14666048D01*
X14894633Y-14647000D01*
X14913681Y-14618428D01*
X14923205Y-14608905D01*
X15085109Y-14704143D02*
X15085109Y-14837476D01*
X15037490Y-14627952D02*
X14989871Y-14770809D01*
X15113681Y-14770809D01*
X15342252Y-14837476D02*
X15342252Y-14637476D01*
X15427967Y-14837476D02*
X15427967Y-14732714D01*
X15418443Y-14713667D01*
X15399395Y-14704143D01*
X15370824Y-14704143D01*
X15351776Y-14713667D01*
X15342252Y-14723190D01*
X15551776Y-14837476D02*
X15532728Y-14827952D01*
X15523205Y-14818428D01*
X15513681Y-14799381D01*
X15513681Y-14742238D01*
X15523205Y-14723190D01*
X15532728Y-14713667D01*
X15551776Y-14704143D01*
X15580348Y-14704143D01*
X15599395Y-14713667D01*
X15608919Y-14723190D01*
X15618443Y-14742238D01*
X15618443Y-14799381D01*
X15608919Y-14818428D01*
X15599395Y-14827952D01*
X15580348Y-14837476D01*
X15551776Y-14837476D01*
X15732728Y-14837476D02*
X15713681Y-14827952D01*
X15704157Y-14808905D01*
X15704157Y-14637476D01*
X15885109Y-14827952D02*
X15866062Y-14837476D01*
X15827967Y-14837476D01*
X15808919Y-14827952D01*
X15799395Y-14808905D01*
X15799395Y-14732714D01*
X15808919Y-14713667D01*
X15827967Y-14704143D01*
X15866062Y-14704143D01*
X15885109Y-14713667D01*
X15894633Y-14732714D01*
X15894633Y-14751762D01*
X15799395Y-14770809D01*
X15970824Y-14827952D02*
X15989871Y-14837476D01*
X16027967Y-14837476D01*
X16047014Y-14827952D01*
X16056538Y-14808905D01*
X16056538Y-14799381D01*
X16047014Y-14780333D01*
X16027967Y-14770809D01*
X15999395Y-14770809D01*
X15980348Y-14761286D01*
X15970824Y-14742238D01*
X15970824Y-14732714D01*
X15980348Y-14713667D01*
X15999395Y-14704143D01*
X16027967Y-14704143D01*
X16047014Y-14713667D01*
X16123205Y-14913667D02*
X16132728Y-14904143D01*
X16151776Y-14875571D01*
X16161300Y-14856524D01*
X16170824Y-14827952D01*
X16180348Y-14780333D01*
X16180348Y-14742238D01*
X16170824Y-14694619D01*
X16161300Y-14666048D01*
X16151776Y-14647000D01*
X16132728Y-14618428D01*
X16123205Y-14608905D01*
D13*
X11351300Y-15011000D02*
G75*
G03*
X11351300Y-15011000I-20000J0D01*
G01*
D11*
X11647014Y-14901476D02*
X11666062Y-14901476D01*
X11685109Y-14911000D01*
X11694633Y-14920524D01*
X11704157Y-14939571D01*
X11713681Y-14977667D01*
X11713681Y-15025286D01*
X11704157Y-15063381D01*
X11694633Y-15082428D01*
X11685109Y-15091952D01*
X11666062Y-15101476D01*
X11647014Y-15101476D01*
X11627967Y-15091952D01*
X11618443Y-15082428D01*
X11608919Y-15063381D01*
X11599395Y-15025286D01*
X11599395Y-14977667D01*
X11608919Y-14939571D01*
X11618443Y-14920524D01*
X11627967Y-14911000D01*
X11647014Y-14901476D01*
X11799395Y-15082428D02*
X11808919Y-15091952D01*
X11799395Y-15101476D01*
X11789871Y-15091952D01*
X11799395Y-15082428D01*
X11799395Y-15101476D01*
X11980348Y-14968143D02*
X11980348Y-15101476D01*
X11932728Y-14891952D02*
X11885109Y-15034809D01*
X12008919Y-15034809D01*
X12123205Y-14901476D02*
X12142252Y-14901476D01*
X12161300Y-14911000D01*
X12170824Y-14920524D01*
X12180348Y-14939571D01*
X12189871Y-14977667D01*
X12189871Y-15025286D01*
X12180348Y-15063381D01*
X12170824Y-15082428D01*
X12161300Y-15091952D01*
X12142252Y-15101476D01*
X12123205Y-15101476D01*
X12104157Y-15091952D01*
X12094633Y-15082428D01*
X12085109Y-15063381D01*
X12075586Y-15025286D01*
X12075586Y-14977667D01*
X12085109Y-14939571D01*
X12094633Y-14920524D01*
X12104157Y-14911000D01*
X12123205Y-14901476D01*
X12313681Y-14901476D02*
X12332728Y-14901476D01*
X12351776Y-14911000D01*
X12361300Y-14920524D01*
X12370824Y-14939571D01*
X12380348Y-14977667D01*
X12380348Y-15025286D01*
X12370824Y-15063381D01*
X12361300Y-15082428D01*
X12351776Y-15091952D01*
X12332728Y-15101476D01*
X12313681Y-15101476D01*
X12294633Y-15091952D01*
X12285109Y-15082428D01*
X12275586Y-15063381D01*
X12266062Y-15025286D01*
X12266062Y-14977667D01*
X12275586Y-14939571D01*
X12285109Y-14920524D01*
X12294633Y-14911000D01*
X12313681Y-14901476D01*
X12466062Y-15101476D02*
X12466062Y-14968143D01*
X12466062Y-14987190D02*
X12475586Y-14977667D01*
X12494633Y-14968143D01*
X12523205Y-14968143D01*
X12542252Y-14977667D01*
X12551776Y-14996714D01*
X12551776Y-15101476D01*
X12551776Y-14996714D02*
X12561300Y-14977667D01*
X12580348Y-14968143D01*
X12608919Y-14968143D01*
X12627967Y-14977667D01*
X12637490Y-14996714D01*
X12637490Y-15101476D01*
X12732728Y-15101476D02*
X12732728Y-14968143D01*
X12732728Y-14987190D02*
X12742252Y-14977667D01*
X12761300Y-14968143D01*
X12789871Y-14968143D01*
X12808919Y-14977667D01*
X12818443Y-14996714D01*
X12818443Y-15101476D01*
X12818443Y-14996714D02*
X12827967Y-14977667D01*
X12847014Y-14968143D01*
X12875586Y-14968143D01*
X12894633Y-14977667D01*
X12904157Y-14996714D01*
X12904157Y-15101476D01*
X13294633Y-14891952D02*
X13123205Y-15149095D01*
X13551776Y-14901476D02*
X13570824Y-14901476D01*
X13589871Y-14911000D01*
X13599395Y-14920524D01*
X13608919Y-14939571D01*
X13618443Y-14977667D01*
X13618443Y-15025286D01*
X13608919Y-15063381D01*
X13599395Y-15082428D01*
X13589871Y-15091952D01*
X13570824Y-15101476D01*
X13551776Y-15101476D01*
X13532728Y-15091952D01*
X13523205Y-15082428D01*
X13513681Y-15063381D01*
X13504157Y-15025286D01*
X13504157Y-14977667D01*
X13513681Y-14939571D01*
X13523205Y-14920524D01*
X13532728Y-14911000D01*
X13551776Y-14901476D01*
X13704157Y-15082428D02*
X13713681Y-15091952D01*
X13704157Y-15101476D01*
X13694633Y-15091952D01*
X13704157Y-15082428D01*
X13704157Y-15101476D01*
X13837490Y-14901476D02*
X13856538Y-14901476D01*
X13875586Y-14911000D01*
X13885109Y-14920524D01*
X13894633Y-14939571D01*
X13904157Y-14977667D01*
X13904157Y-15025286D01*
X13894633Y-15063381D01*
X13885109Y-15082428D01*
X13875586Y-15091952D01*
X13856538Y-15101476D01*
X13837490Y-15101476D01*
X13818443Y-15091952D01*
X13808919Y-15082428D01*
X13799395Y-15063381D01*
X13789871Y-15025286D01*
X13789871Y-14977667D01*
X13799395Y-14939571D01*
X13808919Y-14920524D01*
X13818443Y-14911000D01*
X13837490Y-14901476D01*
X14094633Y-15101476D02*
X13980348Y-15101476D01*
X14037490Y-15101476D02*
X14037490Y-14901476D01*
X14018443Y-14930048D01*
X13999395Y-14949095D01*
X13980348Y-14958619D01*
X14275586Y-14901476D02*
X14180348Y-14901476D01*
X14170824Y-14996714D01*
X14180348Y-14987190D01*
X14199395Y-14977667D01*
X14247014Y-14977667D01*
X14266062Y-14987190D01*
X14275586Y-14996714D01*
X14285109Y-15015762D01*
X14285109Y-15063381D01*
X14275586Y-15082428D01*
X14266062Y-15091952D01*
X14247014Y-15101476D01*
X14199395Y-15101476D01*
X14180348Y-15091952D01*
X14170824Y-15082428D01*
X14351776Y-14901476D02*
X14485109Y-14901476D01*
X14399395Y-15101476D01*
X14551776Y-14901476D02*
X14551776Y-14939571D01*
X14627967Y-14901476D02*
X14627967Y-14939571D01*
X14923205Y-15177667D02*
X14913681Y-15168143D01*
X14894633Y-15139571D01*
X14885109Y-15120524D01*
X14875586Y-15091952D01*
X14866062Y-15044333D01*
X14866062Y-15006238D01*
X14875586Y-14958619D01*
X14885109Y-14930048D01*
X14894633Y-14911000D01*
X14913681Y-14882428D01*
X14923205Y-14872905D01*
X15104157Y-15101476D02*
X14989871Y-15101476D01*
X15047014Y-15101476D02*
X15047014Y-14901476D01*
X15027967Y-14930048D01*
X15008919Y-14949095D01*
X14989871Y-14958619D01*
X15180348Y-14920524D02*
X15189871Y-14911000D01*
X15208919Y-14901476D01*
X15256538Y-14901476D01*
X15275586Y-14911000D01*
X15285109Y-14920524D01*
X15294633Y-14939571D01*
X15294633Y-14958619D01*
X15285109Y-14987190D01*
X15170824Y-15101476D01*
X15294633Y-15101476D01*
X15361300Y-14901476D02*
X15485109Y-14901476D01*
X15418443Y-14977667D01*
X15447014Y-14977667D01*
X15466062Y-14987190D01*
X15475586Y-14996714D01*
X15485109Y-15015762D01*
X15485109Y-15063381D01*
X15475586Y-15082428D01*
X15466062Y-15091952D01*
X15447014Y-15101476D01*
X15389871Y-15101476D01*
X15370824Y-15091952D01*
X15361300Y-15082428D01*
X15723205Y-15101476D02*
X15723205Y-14901476D01*
X15808919Y-15101476D02*
X15808919Y-14996714D01*
X15799395Y-14977667D01*
X15780348Y-14968143D01*
X15751776Y-14968143D01*
X15732728Y-14977667D01*
X15723205Y-14987190D01*
X15932728Y-15101476D02*
X15913681Y-15091952D01*
X15904157Y-15082428D01*
X15894633Y-15063381D01*
X15894633Y-15006238D01*
X15904157Y-14987190D01*
X15913681Y-14977667D01*
X15932728Y-14968143D01*
X15961300Y-14968143D01*
X15980348Y-14977667D01*
X15989871Y-14987190D01*
X15999395Y-15006238D01*
X15999395Y-15063381D01*
X15989871Y-15082428D01*
X15980348Y-15091952D01*
X15961300Y-15101476D01*
X15932728Y-15101476D01*
X16113681Y-15101476D02*
X16094633Y-15091952D01*
X16085109Y-15072905D01*
X16085109Y-14901476D01*
X16266062Y-15091952D02*
X16247014Y-15101476D01*
X16208919Y-15101476D01*
X16189871Y-15091952D01*
X16180348Y-15072905D01*
X16180348Y-14996714D01*
X16189871Y-14977667D01*
X16208919Y-14968143D01*
X16247014Y-14968143D01*
X16266062Y-14977667D01*
X16275586Y-14996714D01*
X16275586Y-15015762D01*
X16180348Y-15034809D01*
X16351776Y-15091952D02*
X16370824Y-15101476D01*
X16408919Y-15101476D01*
X16427967Y-15091952D01*
X16437490Y-15072905D01*
X16437490Y-15063381D01*
X16427967Y-15044333D01*
X16408919Y-15034809D01*
X16380348Y-15034809D01*
X16361300Y-15025286D01*
X16351776Y-15006238D01*
X16351776Y-14996714D01*
X16361300Y-14977667D01*
X16380348Y-14968143D01*
X16408919Y-14968143D01*
X16427967Y-14977667D01*
X16504157Y-15177667D02*
X16513681Y-15168143D01*
X16532728Y-15139571D01*
X16542252Y-15120524D01*
X16551776Y-15091952D01*
X16561300Y-15044333D01*
X16561300Y-15006238D01*
X16551776Y-14958619D01*
X16542252Y-14930048D01*
X16532728Y-14911000D01*
X16513681Y-14882428D01*
X16504157Y-14872905D01*
D14*
X11316300Y-15240000D02*
X11316300Y-15310000D01*
X11281300Y-15275000D02*
X11351300Y-15275000D01*
D11*
X11647014Y-15165476D02*
X11666062Y-15165476D01*
X11685109Y-15175000D01*
X11694633Y-15184524D01*
X11704157Y-15203571D01*
X11713681Y-15241667D01*
X11713681Y-15289286D01*
X11704157Y-15327381D01*
X11694633Y-15346428D01*
X11685109Y-15355952D01*
X11666062Y-15365476D01*
X11647014Y-15365476D01*
X11627967Y-15355952D01*
X11618443Y-15346428D01*
X11608919Y-15327381D01*
X11599395Y-15289286D01*
X11599395Y-15241667D01*
X11608919Y-15203571D01*
X11618443Y-15184524D01*
X11627967Y-15175000D01*
X11647014Y-15165476D01*
X11799395Y-15346428D02*
X11808919Y-15355952D01*
X11799395Y-15365476D01*
X11789871Y-15355952D01*
X11799395Y-15346428D01*
X11799395Y-15365476D01*
X11875586Y-15165476D02*
X12008919Y-15165476D01*
X11923205Y-15365476D01*
X12123205Y-15165476D02*
X12142252Y-15165476D01*
X12161300Y-15175000D01*
X12170824Y-15184524D01*
X12180348Y-15203571D01*
X12189871Y-15241667D01*
X12189871Y-15289286D01*
X12180348Y-15327381D01*
X12170824Y-15346428D01*
X12161300Y-15355952D01*
X12142252Y-15365476D01*
X12123205Y-15365476D01*
X12104157Y-15355952D01*
X12094633Y-15346428D01*
X12085109Y-15327381D01*
X12075586Y-15289286D01*
X12075586Y-15241667D01*
X12085109Y-15203571D01*
X12094633Y-15184524D01*
X12104157Y-15175000D01*
X12123205Y-15165476D01*
X12313681Y-15165476D02*
X12332728Y-15165476D01*
X12351776Y-15175000D01*
X12361300Y-15184524D01*
X12370824Y-15203571D01*
X12380348Y-15241667D01*
X12380348Y-15289286D01*
X12370824Y-15327381D01*
X12361300Y-15346428D01*
X12351776Y-15355952D01*
X12332728Y-15365476D01*
X12313681Y-15365476D01*
X12294633Y-15355952D01*
X12285109Y-15346428D01*
X12275586Y-15327381D01*
X12266062Y-15289286D01*
X12266062Y-15241667D01*
X12275586Y-15203571D01*
X12285109Y-15184524D01*
X12294633Y-15175000D01*
X12313681Y-15165476D01*
X12466062Y-15365476D02*
X12466062Y-15232143D01*
X12466062Y-15251190D02*
X12475586Y-15241667D01*
X12494633Y-15232143D01*
X12523205Y-15232143D01*
X12542252Y-15241667D01*
X12551776Y-15260714D01*
X12551776Y-15365476D01*
X12551776Y-15260714D02*
X12561300Y-15241667D01*
X12580348Y-15232143D01*
X12608919Y-15232143D01*
X12627967Y-15241667D01*
X12637490Y-15260714D01*
X12637490Y-15365476D01*
X12732728Y-15365476D02*
X12732728Y-15232143D01*
X12732728Y-15251190D02*
X12742252Y-15241667D01*
X12761300Y-15232143D01*
X12789871Y-15232143D01*
X12808919Y-15241667D01*
X12818443Y-15260714D01*
X12818443Y-15365476D01*
X12818443Y-15260714D02*
X12827967Y-15241667D01*
X12847014Y-15232143D01*
X12875586Y-15232143D01*
X12894633Y-15241667D01*
X12904157Y-15260714D01*
X12904157Y-15365476D01*
X13294633Y-15155952D02*
X13123205Y-15413095D01*
X13551776Y-15165476D02*
X13570824Y-15165476D01*
X13589871Y-15175000D01*
X13599395Y-15184524D01*
X13608919Y-15203571D01*
X13618443Y-15241667D01*
X13618443Y-15289286D01*
X13608919Y-15327381D01*
X13599395Y-15346428D01*
X13589871Y-15355952D01*
X13570824Y-15365476D01*
X13551776Y-15365476D01*
X13532728Y-15355952D01*
X13523205Y-15346428D01*
X13513681Y-15327381D01*
X13504157Y-15289286D01*
X13504157Y-15241667D01*
X13513681Y-15203571D01*
X13523205Y-15184524D01*
X13532728Y-15175000D01*
X13551776Y-15165476D01*
X13704157Y-15346428D02*
X13713681Y-15355952D01*
X13704157Y-15365476D01*
X13694633Y-15355952D01*
X13704157Y-15346428D01*
X13704157Y-15365476D01*
X13837490Y-15165476D02*
X13856538Y-15165476D01*
X13875586Y-15175000D01*
X13885109Y-15184524D01*
X13894633Y-15203571D01*
X13904157Y-15241667D01*
X13904157Y-15289286D01*
X13894633Y-15327381D01*
X13885109Y-15346428D01*
X13875586Y-15355952D01*
X13856538Y-15365476D01*
X13837490Y-15365476D01*
X13818443Y-15355952D01*
X13808919Y-15346428D01*
X13799395Y-15327381D01*
X13789871Y-15289286D01*
X13789871Y-15241667D01*
X13799395Y-15203571D01*
X13808919Y-15184524D01*
X13818443Y-15175000D01*
X13837490Y-15165476D01*
X13980348Y-15184524D02*
X13989871Y-15175000D01*
X14008919Y-15165476D01*
X14056538Y-15165476D01*
X14075586Y-15175000D01*
X14085109Y-15184524D01*
X14094633Y-15203571D01*
X14094633Y-15222619D01*
X14085109Y-15251190D01*
X13970824Y-15365476D01*
X14094633Y-15365476D01*
X14161300Y-15165476D02*
X14294633Y-15165476D01*
X14208919Y-15365476D01*
X14456538Y-15165476D02*
X14418443Y-15165476D01*
X14399395Y-15175000D01*
X14389871Y-15184524D01*
X14370824Y-15213095D01*
X14361300Y-15251190D01*
X14361300Y-15327381D01*
X14370824Y-15346428D01*
X14380348Y-15355952D01*
X14399395Y-15365476D01*
X14437490Y-15365476D01*
X14456538Y-15355952D01*
X14466062Y-15346428D01*
X14475586Y-15327381D01*
X14475586Y-15279762D01*
X14466062Y-15260714D01*
X14456538Y-15251190D01*
X14437490Y-15241667D01*
X14399395Y-15241667D01*
X14380348Y-15251190D01*
X14370824Y-15260714D01*
X14361300Y-15279762D01*
X14551776Y-15165476D02*
X14551776Y-15203571D01*
X14627967Y-15165476D02*
X14627967Y-15203571D01*
X14923205Y-15441667D02*
X14913681Y-15432143D01*
X14894633Y-15403571D01*
X14885109Y-15384524D01*
X14875586Y-15355952D01*
X14866062Y-15308333D01*
X14866062Y-15270238D01*
X14875586Y-15222619D01*
X14885109Y-15194048D01*
X14894633Y-15175000D01*
X14913681Y-15146428D01*
X14923205Y-15136905D01*
X15085109Y-15232143D02*
X15085109Y-15365476D01*
X15037490Y-15155952D02*
X14989871Y-15298809D01*
X15113681Y-15298809D01*
X15342252Y-15365476D02*
X15342252Y-15165476D01*
X15427967Y-15365476D02*
X15427967Y-15260714D01*
X15418443Y-15241667D01*
X15399395Y-15232143D01*
X15370824Y-15232143D01*
X15351776Y-15241667D01*
X15342252Y-15251190D01*
X15551776Y-15365476D02*
X15532728Y-15355952D01*
X15523205Y-15346428D01*
X15513681Y-15327381D01*
X15513681Y-15270238D01*
X15523205Y-15251190D01*
X15532728Y-15241667D01*
X15551776Y-15232143D01*
X15580348Y-15232143D01*
X15599395Y-15241667D01*
X15608919Y-15251190D01*
X15618443Y-15270238D01*
X15618443Y-15327381D01*
X15608919Y-15346428D01*
X15599395Y-15355952D01*
X15580348Y-15365476D01*
X15551776Y-15365476D01*
X15732728Y-15365476D02*
X15713681Y-15355952D01*
X15704157Y-15336905D01*
X15704157Y-15165476D01*
X15885109Y-15355952D02*
X15866062Y-15365476D01*
X15827967Y-15365476D01*
X15808919Y-15355952D01*
X15799395Y-15336905D01*
X15799395Y-15260714D01*
X15808919Y-15241667D01*
X15827967Y-15232143D01*
X15866062Y-15232143D01*
X15885109Y-15241667D01*
X15894633Y-15260714D01*
X15894633Y-15279762D01*
X15799395Y-15298809D01*
X15970824Y-15355952D02*
X15989871Y-15365476D01*
X16027967Y-15365476D01*
X16047014Y-15355952D01*
X16056538Y-15336905D01*
X16056538Y-15327381D01*
X16047014Y-15308333D01*
X16027967Y-15298809D01*
X15999395Y-15298809D01*
X15980348Y-15289286D01*
X15970824Y-15270238D01*
X15970824Y-15260714D01*
X15980348Y-15241667D01*
X15999395Y-15232143D01*
X16027967Y-15232143D01*
X16047014Y-15241667D01*
X16123205Y-15441667D02*
X16132728Y-15432143D01*
X16151776Y-15403571D01*
X16161300Y-15384524D01*
X16170824Y-15355952D01*
X16180348Y-15308333D01*
X16180348Y-15270238D01*
X16170824Y-15222619D01*
X16161300Y-15194048D01*
X16151776Y-15175000D01*
X16132728Y-15146428D01*
X16123205Y-15136905D01*
D15*
X11339584Y-15567284D02*
X11339584Y-15510715D01*
X11283015Y-15510715D01*
X11283015Y-15567284D01*
X11339584Y-15567284D01*
D11*
X11647014Y-15429476D02*
X11666062Y-15429476D01*
X11685109Y-15439000D01*
X11694633Y-15448524D01*
X11704157Y-15467571D01*
X11713681Y-15505667D01*
X11713681Y-15553286D01*
X11704157Y-15591381D01*
X11694633Y-15610428D01*
X11685109Y-15619952D01*
X11666062Y-15629476D01*
X11647014Y-15629476D01*
X11627967Y-15619952D01*
X11618443Y-15610428D01*
X11608919Y-15591381D01*
X11599395Y-15553286D01*
X11599395Y-15505667D01*
X11608919Y-15467571D01*
X11618443Y-15448524D01*
X11627967Y-15439000D01*
X11647014Y-15429476D01*
X11799395Y-15610428D02*
X11808919Y-15619952D01*
X11799395Y-15629476D01*
X11789871Y-15619952D01*
X11799395Y-15610428D01*
X11799395Y-15629476D01*
X11923205Y-15515190D02*
X11904157Y-15505667D01*
X11894633Y-15496143D01*
X11885109Y-15477095D01*
X11885109Y-15467571D01*
X11894633Y-15448524D01*
X11904157Y-15439000D01*
X11923205Y-15429476D01*
X11961300Y-15429476D01*
X11980348Y-15439000D01*
X11989871Y-15448524D01*
X11999395Y-15467571D01*
X11999395Y-15477095D01*
X11989871Y-15496143D01*
X11980348Y-15505667D01*
X11961300Y-15515190D01*
X11923205Y-15515190D01*
X11904157Y-15524714D01*
X11894633Y-15534238D01*
X11885109Y-15553286D01*
X11885109Y-15591381D01*
X11894633Y-15610428D01*
X11904157Y-15619952D01*
X11923205Y-15629476D01*
X11961300Y-15629476D01*
X11980348Y-15619952D01*
X11989871Y-15610428D01*
X11999395Y-15591381D01*
X11999395Y-15553286D01*
X11989871Y-15534238D01*
X11980348Y-15524714D01*
X11961300Y-15515190D01*
X12123205Y-15429476D02*
X12142252Y-15429476D01*
X12161300Y-15439000D01*
X12170824Y-15448524D01*
X12180348Y-15467571D01*
X12189871Y-15505667D01*
X12189871Y-15553286D01*
X12180348Y-15591381D01*
X12170824Y-15610428D01*
X12161300Y-15619952D01*
X12142252Y-15629476D01*
X12123205Y-15629476D01*
X12104157Y-15619952D01*
X12094633Y-15610428D01*
X12085109Y-15591381D01*
X12075586Y-15553286D01*
X12075586Y-15505667D01*
X12085109Y-15467571D01*
X12094633Y-15448524D01*
X12104157Y-15439000D01*
X12123205Y-15429476D01*
X12313681Y-15429476D02*
X12332728Y-15429476D01*
X12351776Y-15439000D01*
X12361300Y-15448524D01*
X12370824Y-15467571D01*
X12380348Y-15505667D01*
X12380348Y-15553286D01*
X12370824Y-15591381D01*
X12361300Y-15610428D01*
X12351776Y-15619952D01*
X12332728Y-15629476D01*
X12313681Y-15629476D01*
X12294633Y-15619952D01*
X12285109Y-15610428D01*
X12275586Y-15591381D01*
X12266062Y-15553286D01*
X12266062Y-15505667D01*
X12275586Y-15467571D01*
X12285109Y-15448524D01*
X12294633Y-15439000D01*
X12313681Y-15429476D01*
X12466062Y-15629476D02*
X12466062Y-15496143D01*
X12466062Y-15515190D02*
X12475586Y-15505667D01*
X12494633Y-15496143D01*
X12523205Y-15496143D01*
X12542252Y-15505667D01*
X12551776Y-15524714D01*
X12551776Y-15629476D01*
X12551776Y-15524714D02*
X12561300Y-15505667D01*
X12580348Y-15496143D01*
X12608919Y-15496143D01*
X12627967Y-15505667D01*
X12637490Y-15524714D01*
X12637490Y-15629476D01*
X12732728Y-15629476D02*
X12732728Y-15496143D01*
X12732728Y-15515190D02*
X12742252Y-15505667D01*
X12761300Y-15496143D01*
X12789871Y-15496143D01*
X12808919Y-15505667D01*
X12818443Y-15524714D01*
X12818443Y-15629476D01*
X12818443Y-15524714D02*
X12827967Y-15505667D01*
X12847014Y-15496143D01*
X12875586Y-15496143D01*
X12894633Y-15505667D01*
X12904157Y-15524714D01*
X12904157Y-15629476D01*
X13294633Y-15419952D02*
X13123205Y-15677095D01*
X13551776Y-15429476D02*
X13570824Y-15429476D01*
X13589871Y-15439000D01*
X13599395Y-15448524D01*
X13608919Y-15467571D01*
X13618443Y-15505667D01*
X13618443Y-15553286D01*
X13608919Y-15591381D01*
X13599395Y-15610428D01*
X13589871Y-15619952D01*
X13570824Y-15629476D01*
X13551776Y-15629476D01*
X13532728Y-15619952D01*
X13523205Y-15610428D01*
X13513681Y-15591381D01*
X13504157Y-15553286D01*
X13504157Y-15505667D01*
X13513681Y-15467571D01*
X13523205Y-15448524D01*
X13532728Y-15439000D01*
X13551776Y-15429476D01*
X13704157Y-15610428D02*
X13713681Y-15619952D01*
X13704157Y-15629476D01*
X13694633Y-15619952D01*
X13704157Y-15610428D01*
X13704157Y-15629476D01*
X13837490Y-15429476D02*
X13856538Y-15429476D01*
X13875586Y-15439000D01*
X13885109Y-15448524D01*
X13894633Y-15467571D01*
X13904157Y-15505667D01*
X13904157Y-15553286D01*
X13894633Y-15591381D01*
X13885109Y-15610428D01*
X13875586Y-15619952D01*
X13856538Y-15629476D01*
X13837490Y-15629476D01*
X13818443Y-15619952D01*
X13808919Y-15610428D01*
X13799395Y-15591381D01*
X13789871Y-15553286D01*
X13789871Y-15505667D01*
X13799395Y-15467571D01*
X13808919Y-15448524D01*
X13818443Y-15439000D01*
X13837490Y-15429476D01*
X13970824Y-15429476D02*
X14094633Y-15429476D01*
X14027967Y-15505667D01*
X14056538Y-15505667D01*
X14075586Y-15515190D01*
X14085109Y-15524714D01*
X14094633Y-15543762D01*
X14094633Y-15591381D01*
X14085109Y-15610428D01*
X14075586Y-15619952D01*
X14056538Y-15629476D01*
X13999395Y-15629476D01*
X13980348Y-15619952D01*
X13970824Y-15610428D01*
X14285109Y-15629476D02*
X14170824Y-15629476D01*
X14227967Y-15629476D02*
X14227967Y-15429476D01*
X14208919Y-15458048D01*
X14189871Y-15477095D01*
X14170824Y-15486619D01*
X14466062Y-15429476D02*
X14370824Y-15429476D01*
X14361300Y-15524714D01*
X14370824Y-15515190D01*
X14389871Y-15505667D01*
X14437490Y-15505667D01*
X14456538Y-15515190D01*
X14466062Y-15524714D01*
X14475586Y-15543762D01*
X14475586Y-15591381D01*
X14466062Y-15610428D01*
X14456538Y-15619952D01*
X14437490Y-15629476D01*
X14389871Y-15629476D01*
X14370824Y-15619952D01*
X14361300Y-15610428D01*
X14551776Y-15429476D02*
X14551776Y-15467571D01*
X14627967Y-15429476D02*
X14627967Y-15467571D01*
X14923205Y-15705667D02*
X14913681Y-15696143D01*
X14894633Y-15667571D01*
X14885109Y-15648524D01*
X14875586Y-15619952D01*
X14866062Y-15572333D01*
X14866062Y-15534238D01*
X14875586Y-15486619D01*
X14885109Y-15458048D01*
X14894633Y-15439000D01*
X14913681Y-15410428D01*
X14923205Y-15400905D01*
X14989871Y-15448524D02*
X14999395Y-15439000D01*
X15018443Y-15429476D01*
X15066062Y-15429476D01*
X15085109Y-15439000D01*
X15094633Y-15448524D01*
X15104157Y-15467571D01*
X15104157Y-15486619D01*
X15094633Y-15515190D01*
X14980348Y-15629476D01*
X15104157Y-15629476D01*
X15342252Y-15629476D02*
X15342252Y-15429476D01*
X15427967Y-15629476D02*
X15427967Y-15524714D01*
X15418443Y-15505667D01*
X15399395Y-15496143D01*
X15370824Y-15496143D01*
X15351776Y-15505667D01*
X15342252Y-15515190D01*
X15551776Y-15629476D02*
X15532728Y-15619952D01*
X15523205Y-15610428D01*
X15513681Y-15591381D01*
X15513681Y-15534238D01*
X15523205Y-15515190D01*
X15532728Y-15505667D01*
X15551776Y-15496143D01*
X15580348Y-15496143D01*
X15599395Y-15505667D01*
X15608919Y-15515190D01*
X15618443Y-15534238D01*
X15618443Y-15591381D01*
X15608919Y-15610428D01*
X15599395Y-15619952D01*
X15580348Y-15629476D01*
X15551776Y-15629476D01*
X15732728Y-15629476D02*
X15713681Y-15619952D01*
X15704157Y-15600905D01*
X15704157Y-15429476D01*
X15885109Y-15619952D02*
X15866062Y-15629476D01*
X15827967Y-15629476D01*
X15808919Y-15619952D01*
X15799395Y-15600905D01*
X15799395Y-15524714D01*
X15808919Y-15505667D01*
X15827967Y-15496143D01*
X15866062Y-15496143D01*
X15885109Y-15505667D01*
X15894633Y-15524714D01*
X15894633Y-15543762D01*
X15799395Y-15562809D01*
X15970824Y-15619952D02*
X15989871Y-15629476D01*
X16027967Y-15629476D01*
X16047014Y-15619952D01*
X16056538Y-15600905D01*
X16056538Y-15591381D01*
X16047014Y-15572333D01*
X16027967Y-15562809D01*
X15999395Y-15562809D01*
X15980348Y-15553286D01*
X15970824Y-15534238D01*
X15970824Y-15524714D01*
X15980348Y-15505667D01*
X15999395Y-15496143D01*
X16027967Y-15496143D01*
X16047014Y-15505667D01*
X16123205Y-15705667D02*
X16132728Y-15696143D01*
X16151776Y-15667571D01*
X16161300Y-15648524D01*
X16170824Y-15619952D01*
X16180348Y-15572333D01*
X16180348Y-15534238D01*
X16170824Y-15486619D01*
X16161300Y-15458048D01*
X16151776Y-15439000D01*
X16132728Y-15410428D01*
X16123205Y-15400905D01*
D16*
X11301300Y-15853000D02*
X11351300Y-15803000D01*
X11301300Y-15753000D01*
X11251300Y-15803000D01*
X11301300Y-15853000D01*
D11*
X11713681Y-15893476D02*
X11599395Y-15893476D01*
X11656538Y-15893476D02*
X11656538Y-15693476D01*
X11637490Y-15722048D01*
X11618443Y-15741095D01*
X11599395Y-15750619D01*
X11799395Y-15874428D02*
X11808919Y-15883952D01*
X11799395Y-15893476D01*
X11789871Y-15883952D01*
X11799395Y-15874428D01*
X11799395Y-15893476D01*
X11932728Y-15693476D02*
X11951776Y-15693476D01*
X11970824Y-15703000D01*
X11980348Y-15712524D01*
X11989871Y-15731571D01*
X11999395Y-15769667D01*
X11999395Y-15817286D01*
X11989871Y-15855381D01*
X11980348Y-15874428D01*
X11970824Y-15883952D01*
X11951776Y-15893476D01*
X11932728Y-15893476D01*
X11913681Y-15883952D01*
X11904157Y-15874428D01*
X11894633Y-15855381D01*
X11885109Y-15817286D01*
X11885109Y-15769667D01*
X11894633Y-15731571D01*
X11904157Y-15712524D01*
X11913681Y-15703000D01*
X11932728Y-15693476D01*
X12123205Y-15693476D02*
X12142252Y-15693476D01*
X12161300Y-15703000D01*
X12170824Y-15712524D01*
X12180348Y-15731571D01*
X12189871Y-15769667D01*
X12189871Y-15817286D01*
X12180348Y-15855381D01*
X12170824Y-15874428D01*
X12161300Y-15883952D01*
X12142252Y-15893476D01*
X12123205Y-15893476D01*
X12104157Y-15883952D01*
X12094633Y-15874428D01*
X12085109Y-15855381D01*
X12075586Y-15817286D01*
X12075586Y-15769667D01*
X12085109Y-15731571D01*
X12094633Y-15712524D01*
X12104157Y-15703000D01*
X12123205Y-15693476D01*
X12313681Y-15693476D02*
X12332728Y-15693476D01*
X12351776Y-15703000D01*
X12361300Y-15712524D01*
X12370824Y-15731571D01*
X12380348Y-15769667D01*
X12380348Y-15817286D01*
X12370824Y-15855381D01*
X12361300Y-15874428D01*
X12351776Y-15883952D01*
X12332728Y-15893476D01*
X12313681Y-15893476D01*
X12294633Y-15883952D01*
X12285109Y-15874428D01*
X12275586Y-15855381D01*
X12266062Y-15817286D01*
X12266062Y-15769667D01*
X12275586Y-15731571D01*
X12285109Y-15712524D01*
X12294633Y-15703000D01*
X12313681Y-15693476D01*
X12466062Y-15893476D02*
X12466062Y-15760143D01*
X12466062Y-15779190D02*
X12475586Y-15769667D01*
X12494633Y-15760143D01*
X12523205Y-15760143D01*
X12542252Y-15769667D01*
X12551776Y-15788714D01*
X12551776Y-15893476D01*
X12551776Y-15788714D02*
X12561300Y-15769667D01*
X12580348Y-15760143D01*
X12608919Y-15760143D01*
X12627967Y-15769667D01*
X12637490Y-15788714D01*
X12637490Y-15893476D01*
X12732728Y-15893476D02*
X12732728Y-15760143D01*
X12732728Y-15779190D02*
X12742252Y-15769667D01*
X12761300Y-15760143D01*
X12789871Y-15760143D01*
X12808919Y-15769667D01*
X12818443Y-15788714D01*
X12818443Y-15893476D01*
X12818443Y-15788714D02*
X12827967Y-15769667D01*
X12847014Y-15760143D01*
X12875586Y-15760143D01*
X12894633Y-15769667D01*
X12904157Y-15788714D01*
X12904157Y-15893476D01*
X13294633Y-15683952D02*
X13123205Y-15941095D01*
X13551776Y-15693476D02*
X13570824Y-15693476D01*
X13589871Y-15703000D01*
X13599395Y-15712524D01*
X13608919Y-15731571D01*
X13618443Y-15769667D01*
X13618443Y-15817286D01*
X13608919Y-15855381D01*
X13599395Y-15874428D01*
X13589871Y-15883952D01*
X13570824Y-15893476D01*
X13551776Y-15893476D01*
X13532728Y-15883952D01*
X13523205Y-15874428D01*
X13513681Y-15855381D01*
X13504157Y-15817286D01*
X13504157Y-15769667D01*
X13513681Y-15731571D01*
X13523205Y-15712524D01*
X13532728Y-15703000D01*
X13551776Y-15693476D01*
X13704157Y-15874428D02*
X13713681Y-15883952D01*
X13704157Y-15893476D01*
X13694633Y-15883952D01*
X13704157Y-15874428D01*
X13704157Y-15893476D01*
X13837490Y-15693476D02*
X13856538Y-15693476D01*
X13875586Y-15703000D01*
X13885109Y-15712524D01*
X13894633Y-15731571D01*
X13904157Y-15769667D01*
X13904157Y-15817286D01*
X13894633Y-15855381D01*
X13885109Y-15874428D01*
X13875586Y-15883952D01*
X13856538Y-15893476D01*
X13837490Y-15893476D01*
X13818443Y-15883952D01*
X13808919Y-15874428D01*
X13799395Y-15855381D01*
X13789871Y-15817286D01*
X13789871Y-15769667D01*
X13799395Y-15731571D01*
X13808919Y-15712524D01*
X13818443Y-15703000D01*
X13837490Y-15693476D01*
X13970824Y-15693476D02*
X14094633Y-15693476D01*
X14027967Y-15769667D01*
X14056538Y-15769667D01*
X14075586Y-15779190D01*
X14085109Y-15788714D01*
X14094633Y-15807762D01*
X14094633Y-15855381D01*
X14085109Y-15874428D01*
X14075586Y-15883952D01*
X14056538Y-15893476D01*
X13999395Y-15893476D01*
X13980348Y-15883952D01*
X13970824Y-15874428D01*
X14189871Y-15893476D02*
X14227967Y-15893476D01*
X14247014Y-15883952D01*
X14256538Y-15874428D01*
X14275586Y-15845857D01*
X14285109Y-15807762D01*
X14285109Y-15731571D01*
X14275586Y-15712524D01*
X14266062Y-15703000D01*
X14247014Y-15693476D01*
X14208919Y-15693476D01*
X14189871Y-15703000D01*
X14180348Y-15712524D01*
X14170824Y-15731571D01*
X14170824Y-15779190D01*
X14180348Y-15798238D01*
X14189871Y-15807762D01*
X14208919Y-15817286D01*
X14247014Y-15817286D01*
X14266062Y-15807762D01*
X14275586Y-15798238D01*
X14285109Y-15779190D01*
X14456538Y-15760143D02*
X14456538Y-15893476D01*
X14408919Y-15683952D02*
X14361300Y-15826809D01*
X14485109Y-15826809D01*
X14551776Y-15693476D02*
X14551776Y-15731571D01*
X14627967Y-15693476D02*
X14627967Y-15731571D01*
X14923205Y-15969667D02*
X14913681Y-15960143D01*
X14894633Y-15931571D01*
X14885109Y-15912524D01*
X14875586Y-15883952D01*
X14866062Y-15836333D01*
X14866062Y-15798238D01*
X14875586Y-15750619D01*
X14885109Y-15722048D01*
X14894633Y-15703000D01*
X14913681Y-15674428D01*
X14923205Y-15664905D01*
X15085109Y-15693476D02*
X15047014Y-15693476D01*
X15027967Y-15703000D01*
X15018443Y-15712524D01*
X14999395Y-15741095D01*
X14989871Y-15779190D01*
X14989871Y-15855381D01*
X14999395Y-15874428D01*
X15008919Y-15883952D01*
X15027967Y-15893476D01*
X15066062Y-15893476D01*
X15085109Y-15883952D01*
X15094633Y-15874428D01*
X15104157Y-15855381D01*
X15104157Y-15807762D01*
X15094633Y-15788714D01*
X15085109Y-15779190D01*
X15066062Y-15769667D01*
X15027967Y-15769667D01*
X15008919Y-15779190D01*
X14999395Y-15788714D01*
X14989871Y-15807762D01*
X15275586Y-15693476D02*
X15237490Y-15693476D01*
X15218443Y-15703000D01*
X15208919Y-15712524D01*
X15189871Y-15741095D01*
X15180348Y-15779190D01*
X15180348Y-15855381D01*
X15189871Y-15874428D01*
X15199395Y-15883952D01*
X15218443Y-15893476D01*
X15256538Y-15893476D01*
X15275586Y-15883952D01*
X15285109Y-15874428D01*
X15294633Y-15855381D01*
X15294633Y-15807762D01*
X15285109Y-15788714D01*
X15275586Y-15779190D01*
X15256538Y-15769667D01*
X15218443Y-15769667D01*
X15199395Y-15779190D01*
X15189871Y-15788714D01*
X15180348Y-15807762D01*
X15532728Y-15893476D02*
X15532728Y-15693476D01*
X15618443Y-15893476D02*
X15618443Y-15788714D01*
X15608919Y-15769667D01*
X15589871Y-15760143D01*
X15561300Y-15760143D01*
X15542252Y-15769667D01*
X15532728Y-15779190D01*
X15742252Y-15893476D02*
X15723205Y-15883952D01*
X15713681Y-15874428D01*
X15704157Y-15855381D01*
X15704157Y-15798238D01*
X15713681Y-15779190D01*
X15723205Y-15769667D01*
X15742252Y-15760143D01*
X15770824Y-15760143D01*
X15789871Y-15769667D01*
X15799395Y-15779190D01*
X15808919Y-15798238D01*
X15808919Y-15855381D01*
X15799395Y-15874428D01*
X15789871Y-15883952D01*
X15770824Y-15893476D01*
X15742252Y-15893476D01*
X15923205Y-15893476D02*
X15904157Y-15883952D01*
X15894633Y-15864905D01*
X15894633Y-15693476D01*
X16075586Y-15883952D02*
X16056538Y-15893476D01*
X16018443Y-15893476D01*
X15999395Y-15883952D01*
X15989871Y-15864905D01*
X15989871Y-15788714D01*
X15999395Y-15769667D01*
X16018443Y-15760143D01*
X16056538Y-15760143D01*
X16075586Y-15769667D01*
X16085109Y-15788714D01*
X16085109Y-15807762D01*
X15989871Y-15826809D01*
X16161300Y-15883952D02*
X16180348Y-15893476D01*
X16218443Y-15893476D01*
X16237490Y-15883952D01*
X16247014Y-15864905D01*
X16247014Y-15855381D01*
X16237490Y-15836333D01*
X16218443Y-15826809D01*
X16189871Y-15826809D01*
X16170824Y-15817286D01*
X16161300Y-15798238D01*
X16161300Y-15788714D01*
X16170824Y-15769667D01*
X16189871Y-15760143D01*
X16218443Y-15760143D01*
X16237490Y-15769667D01*
X16313681Y-15969667D02*
X16323205Y-15960143D01*
X16342252Y-15931571D01*
X16351776Y-15912524D01*
X16361300Y-15883952D01*
X16370824Y-15836333D01*
X16370824Y-15798238D01*
X16361300Y-15750619D01*
X16351776Y-15722048D01*
X16342252Y-15703000D01*
X16323205Y-15674428D01*
X16313681Y-15664905D01*
D17*
X11231300Y-16007000D02*
X11351300Y-16127000D01*
X11351300Y-16007000D02*
X11231300Y-16127000D01*
X11351300Y-16067000D02*
G75*
G03*
X11351300Y-16067000I-60000J0D01*
G01*
D11*
X11713681Y-16157476D02*
X11599395Y-16157476D01*
X11656538Y-16157476D02*
X11656538Y-15957476D01*
X11637490Y-15986048D01*
X11618443Y-16005095D01*
X11599395Y-16014619D01*
X11799395Y-16138428D02*
X11808919Y-16147952D01*
X11799395Y-16157476D01*
X11789871Y-16147952D01*
X11799395Y-16138428D01*
X11799395Y-16157476D01*
X11885109Y-15976524D02*
X11894633Y-15967000D01*
X11913681Y-15957476D01*
X11961300Y-15957476D01*
X11980348Y-15967000D01*
X11989871Y-15976524D01*
X11999395Y-15995571D01*
X11999395Y-16014619D01*
X11989871Y-16043190D01*
X11875586Y-16157476D01*
X11999395Y-16157476D01*
X12123205Y-15957476D02*
X12142252Y-15957476D01*
X12161300Y-15967000D01*
X12170824Y-15976524D01*
X12180348Y-15995571D01*
X12189871Y-16033667D01*
X12189871Y-16081286D01*
X12180348Y-16119381D01*
X12170824Y-16138428D01*
X12161300Y-16147952D01*
X12142252Y-16157476D01*
X12123205Y-16157476D01*
X12104157Y-16147952D01*
X12094633Y-16138428D01*
X12085109Y-16119381D01*
X12075586Y-16081286D01*
X12075586Y-16033667D01*
X12085109Y-15995571D01*
X12094633Y-15976524D01*
X12104157Y-15967000D01*
X12123205Y-15957476D01*
X12313681Y-15957476D02*
X12332728Y-15957476D01*
X12351776Y-15967000D01*
X12361300Y-15976524D01*
X12370824Y-15995571D01*
X12380348Y-16033667D01*
X12380348Y-16081286D01*
X12370824Y-16119381D01*
X12361300Y-16138428D01*
X12351776Y-16147952D01*
X12332728Y-16157476D01*
X12313681Y-16157476D01*
X12294633Y-16147952D01*
X12285109Y-16138428D01*
X12275586Y-16119381D01*
X12266062Y-16081286D01*
X12266062Y-16033667D01*
X12275586Y-15995571D01*
X12285109Y-15976524D01*
X12294633Y-15967000D01*
X12313681Y-15957476D01*
X12466062Y-16157476D02*
X12466062Y-16024143D01*
X12466062Y-16043190D02*
X12475586Y-16033667D01*
X12494633Y-16024143D01*
X12523205Y-16024143D01*
X12542252Y-16033667D01*
X12551776Y-16052714D01*
X12551776Y-16157476D01*
X12551776Y-16052714D02*
X12561300Y-16033667D01*
X12580348Y-16024143D01*
X12608919Y-16024143D01*
X12627967Y-16033667D01*
X12637490Y-16052714D01*
X12637490Y-16157476D01*
X12732728Y-16157476D02*
X12732728Y-16024143D01*
X12732728Y-16043190D02*
X12742252Y-16033667D01*
X12761300Y-16024143D01*
X12789871Y-16024143D01*
X12808919Y-16033667D01*
X12818443Y-16052714D01*
X12818443Y-16157476D01*
X12818443Y-16052714D02*
X12827967Y-16033667D01*
X12847014Y-16024143D01*
X12875586Y-16024143D01*
X12894633Y-16033667D01*
X12904157Y-16052714D01*
X12904157Y-16157476D01*
X13294633Y-15947952D02*
X13123205Y-16205095D01*
X13551776Y-15957476D02*
X13570824Y-15957476D01*
X13589871Y-15967000D01*
X13599395Y-15976524D01*
X13608919Y-15995571D01*
X13618443Y-16033667D01*
X13618443Y-16081286D01*
X13608919Y-16119381D01*
X13599395Y-16138428D01*
X13589871Y-16147952D01*
X13570824Y-16157476D01*
X13551776Y-16157476D01*
X13532728Y-16147952D01*
X13523205Y-16138428D01*
X13513681Y-16119381D01*
X13504157Y-16081286D01*
X13504157Y-16033667D01*
X13513681Y-15995571D01*
X13523205Y-15976524D01*
X13532728Y-15967000D01*
X13551776Y-15957476D01*
X13704157Y-16138428D02*
X13713681Y-16147952D01*
X13704157Y-16157476D01*
X13694633Y-16147952D01*
X13704157Y-16138428D01*
X13704157Y-16157476D01*
X13837490Y-15957476D02*
X13856538Y-15957476D01*
X13875586Y-15967000D01*
X13885109Y-15976524D01*
X13894633Y-15995571D01*
X13904157Y-16033667D01*
X13904157Y-16081286D01*
X13894633Y-16119381D01*
X13885109Y-16138428D01*
X13875586Y-16147952D01*
X13856538Y-16157476D01*
X13837490Y-16157476D01*
X13818443Y-16147952D01*
X13808919Y-16138428D01*
X13799395Y-16119381D01*
X13789871Y-16081286D01*
X13789871Y-16033667D01*
X13799395Y-15995571D01*
X13808919Y-15976524D01*
X13818443Y-15967000D01*
X13837490Y-15957476D01*
X14075586Y-16024143D02*
X14075586Y-16157476D01*
X14027967Y-15947952D02*
X13980348Y-16090809D01*
X14104157Y-16090809D01*
X14161300Y-15957476D02*
X14294633Y-15957476D01*
X14208919Y-16157476D01*
X14361300Y-15976524D02*
X14370824Y-15967000D01*
X14389871Y-15957476D01*
X14437490Y-15957476D01*
X14456538Y-15967000D01*
X14466062Y-15976524D01*
X14475586Y-15995571D01*
X14475586Y-16014619D01*
X14466062Y-16043190D01*
X14351776Y-16157476D01*
X14475586Y-16157476D01*
X14551776Y-15957476D02*
X14551776Y-15995571D01*
X14627967Y-15957476D02*
X14627967Y-15995571D01*
X14923205Y-16233667D02*
X14913681Y-16224143D01*
X14894633Y-16195571D01*
X14885109Y-16176524D01*
X14875586Y-16147952D01*
X14866062Y-16100333D01*
X14866062Y-16062238D01*
X14875586Y-16014619D01*
X14885109Y-15986048D01*
X14894633Y-15967000D01*
X14913681Y-15938428D01*
X14923205Y-15928905D01*
X14989871Y-15976524D02*
X14999395Y-15967000D01*
X15018443Y-15957476D01*
X15066062Y-15957476D01*
X15085109Y-15967000D01*
X15094633Y-15976524D01*
X15104157Y-15995571D01*
X15104157Y-16014619D01*
X15094633Y-16043190D01*
X14980348Y-16157476D01*
X15104157Y-16157476D01*
X15294633Y-16157476D02*
X15180348Y-16157476D01*
X15237490Y-16157476D02*
X15237490Y-15957476D01*
X15218443Y-15986048D01*
X15199395Y-16005095D01*
X15180348Y-16014619D01*
X15532728Y-16157476D02*
X15532728Y-15957476D01*
X15618443Y-16157476D02*
X15618443Y-16052714D01*
X15608919Y-16033667D01*
X15589871Y-16024143D01*
X15561300Y-16024143D01*
X15542252Y-16033667D01*
X15532728Y-16043190D01*
X15742252Y-16157476D02*
X15723205Y-16147952D01*
X15713681Y-16138428D01*
X15704157Y-16119381D01*
X15704157Y-16062238D01*
X15713681Y-16043190D01*
X15723205Y-16033667D01*
X15742252Y-16024143D01*
X15770824Y-16024143D01*
X15789871Y-16033667D01*
X15799395Y-16043190D01*
X15808919Y-16062238D01*
X15808919Y-16119381D01*
X15799395Y-16138428D01*
X15789871Y-16147952D01*
X15770824Y-16157476D01*
X15742252Y-16157476D01*
X15923205Y-16157476D02*
X15904157Y-16147952D01*
X15894633Y-16128905D01*
X15894633Y-15957476D01*
X16075586Y-16147952D02*
X16056538Y-16157476D01*
X16018443Y-16157476D01*
X15999395Y-16147952D01*
X15989871Y-16128905D01*
X15989871Y-16052714D01*
X15999395Y-16033667D01*
X16018443Y-16024143D01*
X16056538Y-16024143D01*
X16075586Y-16033667D01*
X16085109Y-16052714D01*
X16085109Y-16071762D01*
X15989871Y-16090809D01*
X16161300Y-16147952D02*
X16180348Y-16157476D01*
X16218443Y-16157476D01*
X16237490Y-16147952D01*
X16247014Y-16128905D01*
X16247014Y-16119381D01*
X16237490Y-16100333D01*
X16218443Y-16090809D01*
X16189871Y-16090809D01*
X16170824Y-16081286D01*
X16161300Y-16062238D01*
X16161300Y-16052714D01*
X16170824Y-16033667D01*
X16189871Y-16024143D01*
X16218443Y-16024143D01*
X16237490Y-16033667D01*
X16313681Y-16233667D02*
X16323205Y-16224143D01*
X16342252Y-16195571D01*
X16351776Y-16176524D01*
X16361300Y-16147952D01*
X16370824Y-16100333D01*
X16370824Y-16062238D01*
X16361300Y-16014619D01*
X16351776Y-15986048D01*
X16342252Y-15967000D01*
X16323205Y-15938428D01*
X16313681Y-15928905D01*
M02*
