%TF.GenerationSoftware,KiCad,Pcbnew,(6.0.1-0)*%
%TF.CreationDate,2022-02-06T09:10:28-08:00*%
%TF.ProjectId,power-wedge-control,706f7765-722d-4776-9564-67652d636f6e,1*%
%TF.SameCoordinates,Original*%
%TF.FileFunction,Soldermask,Bot*%
%TF.FilePolarity,Negative*%
%FSLAX46Y46*%
G04 Gerber Fmt 4.6, Leading zero omitted, Abs format (unit mm)*
G04 Created by KiCad (PCBNEW (6.0.1-0)) date 2022-02-06 09:10:28*
%MOMM*%
%LPD*%
G01*
G04 APERTURE LIST*
G04 Aperture macros list*
%AMRoundRect*
0 Rectangle with rounded corners*
0 $1 Rounding radius*
0 $2 $3 $4 $5 $6 $7 $8 $9 X,Y pos of 4 corners*
0 Add a 4 corners polygon primitive as box body*
4,1,4,$2,$3,$4,$5,$6,$7,$8,$9,$2,$3,0*
0 Add four circle primitives for the rounded corners*
1,1,$1+$1,$2,$3*
1,1,$1+$1,$4,$5*
1,1,$1+$1,$6,$7*
1,1,$1+$1,$8,$9*
0 Add four rect primitives between the rounded corners*
20,1,$1+$1,$2,$3,$4,$5,0*
20,1,$1+$1,$4,$5,$6,$7,0*
20,1,$1+$1,$6,$7,$8,$9,0*
20,1,$1+$1,$8,$9,$2,$3,0*%
%AMFreePoly0*
4,1,37,0.535921,0.785921,0.550800,0.750000,0.550800,-0.750000,0.535921,-0.785921,0.500000,-0.800800,0.000000,-0.800800,-0.012526,-0.795612,-0.080872,-0.794359,-0.095090,-0.792057,-0.230405,-0.749782,-0.243405,-0.743581,-0.361415,-0.665026,-0.372153,-0.655426,-0.463373,-0.546907,-0.470984,-0.534678,-0.528079,-0.404919,-0.531952,-0.391047,-0.549535,-0.256587,-0.548147,-0.256405,-0.550800,-0.250000,
-0.550800,0.250000,-0.550314,0.251174,-0.550158,0.263925,-0.528347,0.404002,-0.524136,0.417775,-0.463888,0.546100,-0.455980,0.558139,-0.362136,0.664397,-0.351168,0.673732,-0.231273,0.749380,-0.218125,0.755261,-0.081818,0.794218,-0.067547,0.796173,-0.011991,0.795833,0.000000,0.800800,0.500000,0.800800,0.535921,0.785921,0.535921,0.785921,$1*%
%AMFreePoly1*
4,1,37,0.012350,0.795685,0.074215,0.795307,0.088460,0.793178,0.224281,0.752559,0.237356,0.746518,0.356318,0.669411,0.367173,0.659942,0.459711,0.552545,0.467470,0.540411,0.526147,0.411359,0.530190,0.397535,0.550287,0.257202,0.550800,0.250000,0.550800,-0.250000,0.550796,-0.250620,0.550647,-0.262836,0.549947,-0.270644,0.526427,-0.410445,0.522048,-0.424167,0.460236,-0.551746,
0.452182,-0.563686,0.357047,-0.668790,0.345965,-0.677991,0.225155,-0.752168,0.211936,-0.757888,0.075163,-0.795177,0.060870,-0.796957,0.011464,-0.796051,0.000000,-0.800800,-0.500000,-0.800800,-0.535921,-0.785921,-0.550800,-0.750000,-0.550800,0.750000,-0.535921,0.785921,-0.500000,0.800800,0.000000,0.800800,0.012350,0.795685,0.012350,0.795685,$1*%
G04 Aperture macros list end*
%ADD10RoundRect,0.050800X-1.200000X-1.200000X1.200000X-1.200000X1.200000X1.200000X-1.200000X1.200000X0*%
%ADD11C,2.501600*%
%ADD12RoundRect,0.050800X0.850000X-0.850000X0.850000X0.850000X-0.850000X0.850000X-0.850000X-0.850000X0*%
%ADD13O,1.801600X1.801600*%
%ADD14C,1.601600*%
%ADD15FreePoly0,90.000000*%
%ADD16FreePoly1,90.000000*%
%ADD17RoundRect,0.050800X-0.800000X0.800000X-0.800000X-0.800000X0.800000X-0.800000X0.800000X0.800000X0*%
%ADD18C,1.701600*%
%ADD19O,1.701600X1.701600*%
%ADD20RoundRect,0.050800X0.850000X0.850000X-0.850000X0.850000X-0.850000X-0.850000X0.850000X-0.850000X0*%
%ADD21RoundRect,0.050800X-0.850000X-0.850000X0.850000X-0.850000X0.850000X0.850000X-0.850000X0.850000X0*%
%ADD22FreePoly0,270.000000*%
%ADD23FreePoly1,270.000000*%
%ADD24RoundRect,0.050800X0.800000X-0.800000X0.800000X0.800000X-0.800000X0.800000X-0.800000X-0.800000X0*%
G04 APERTURE END LIST*
D10*
%TO.C,J1*%
X126908800Y-134655400D03*
D11*
X130408800Y-134655400D03*
%TD*%
D10*
%TO.C,J2*%
X115830800Y-134655400D03*
D11*
X119330800Y-134655400D03*
X122830800Y-134655400D03*
%TD*%
D12*
%TO.C,J3*%
X120000000Y-100700000D03*
D13*
X122540000Y-100700000D03*
%TD*%
D10*
%TO.C,J4*%
X170744000Y-134631200D03*
D11*
X174244000Y-134631200D03*
X177744000Y-134631200D03*
%TD*%
D10*
%TO.C,J5*%
X181869200Y-134631200D03*
D11*
X185369200Y-134631200D03*
X188869200Y-134631200D03*
%TD*%
D10*
%TO.C,J6*%
X134498800Y-134655400D03*
D11*
X137998800Y-134655400D03*
X141498800Y-134655400D03*
X144998800Y-134655400D03*
X148498800Y-134655400D03*
X151998800Y-134655400D03*
%TD*%
D10*
%TO.C,J7*%
X156113600Y-134655400D03*
D11*
X159613600Y-134655400D03*
X163113600Y-134655400D03*
X166613600Y-134655400D03*
%TD*%
D14*
%TO.C,TP4*%
X135238000Y-101181000D03*
%TD*%
D15*
%TO.C,JP3*%
X164896800Y-97932000D03*
D16*
X164896800Y-96632000D03*
%TD*%
D14*
%TO.C,TP1*%
X154863800Y-120675400D03*
%TD*%
D17*
%TO.C,J10*%
X140843000Y-82372200D03*
D18*
X143383000Y-82372200D03*
X145923000Y-82372200D03*
X148463000Y-82372200D03*
X151003000Y-82372200D03*
X153543000Y-82372200D03*
X156083000Y-82372200D03*
X158623000Y-82372200D03*
X161163000Y-82372200D03*
X163703000Y-82372200D03*
%TD*%
D17*
%TO.C,A1*%
X149987000Y-127635000D03*
D19*
X152527000Y-127635000D03*
X155067000Y-127635000D03*
X157607000Y-127635000D03*
X160147000Y-127635000D03*
X162687000Y-127635000D03*
X165227000Y-127635000D03*
X167767000Y-127635000D03*
X172847000Y-127635000D03*
X175387000Y-127635000D03*
X177927000Y-127635000D03*
X180467000Y-127635000D03*
X183007000Y-127635000D03*
X185547000Y-127635000D03*
X185547000Y-79375000D03*
X183007000Y-79375000D03*
X180467000Y-79375000D03*
X177927000Y-79375000D03*
X175387000Y-79375000D03*
X172847000Y-79375000D03*
X170307000Y-79375000D03*
X167767000Y-79375000D03*
X163707000Y-79375000D03*
X161167000Y-79375000D03*
X158627000Y-79375000D03*
X156087000Y-79375000D03*
X153547000Y-79375000D03*
X151007000Y-79375000D03*
X148467000Y-79375000D03*
X145927000Y-79375000D03*
X143387000Y-79375000D03*
X140847000Y-79375000D03*
%TD*%
D14*
%TO.C,TP2*%
X165404800Y-110032800D03*
%TD*%
D20*
%TO.C,SW1*%
X121325000Y-105525000D03*
D13*
X121325000Y-108065000D03*
%TD*%
D21*
%TO.C,J8*%
X177546000Y-118857000D03*
D13*
X177546000Y-116317000D03*
X177546000Y-113777000D03*
X177546000Y-111237000D03*
%TD*%
D20*
%TO.C,JP1*%
X121318500Y-113129600D03*
D13*
X121318500Y-115669600D03*
%TD*%
D22*
%TO.C,JP2*%
X147000000Y-111350000D03*
D23*
X147000000Y-112650000D03*
%TD*%
D24*
%TO.C,J12*%
X185521600Y-123926600D03*
D18*
X182981600Y-123926600D03*
X180441600Y-123926600D03*
X177901600Y-123926600D03*
X175361600Y-123926600D03*
X172821600Y-123926600D03*
%TD*%
D14*
%TO.C,TP3*%
X150342600Y-109702600D03*
%TD*%
D24*
%TO.C,J11*%
X185552400Y-82372200D03*
D18*
X183012400Y-82372200D03*
X180472400Y-82372200D03*
X177932400Y-82372200D03*
X175392400Y-82372200D03*
X172852400Y-82372200D03*
X170312400Y-82372200D03*
X167772400Y-82372200D03*
%TD*%
M02*
