M48
; DRILL file {KiCad (6.0.1-0)} date Sunday, February 06, 2022 at 09:10:35 AM
; FORMAT={-:-/ absolute / metric / decimal}
; #@! TF.CreationDate,2022-02-06T09:10:35-08:00
; #@! TF.GenerationSoftware,Kicad,Pcbnew,(6.0.1-0)
; #@! TF.FileFunction,Plated,1,2,PTH
FMAT,2
METRIC
; #@! TA.AperFunction,Plated,PTH,ViaDrill
T1C0.300
; #@! TA.AperFunction,Plated,PTH,ViaDrill
T2C0.400
; #@! TA.AperFunction,Plated,PTH,ComponentDrill
T3C0.700
; #@! TA.AperFunction,Plated,PTH,ViaDrill
T4C0.800
; #@! TA.AperFunction,Plated,PTH,ComponentDrill
T5C1.000
; #@! TA.AperFunction,Plated,PTH,ComponentDrill
T6C1.200
%
G90
G05
T1
X143.538Y-127.813
X143.538Y-128.981
X147.235Y-127.813
X147.235Y-128.822
T2
X115.41Y-110.645
X115.672Y-91.491
X116.099Y-117.475
X117.196Y-84.43
X117.2Y-78.8
X117.2Y-82.2
X117.66Y-102.395
X118.233Y-121.818
X118.3Y-94.5
X118.3Y-98.0
X119.554Y-128.372
X120.112Y-124.866
X120.62Y-128.372
X121.869Y-78.603
X122.58Y-90.526
X122.69Y-92.625
X122.69Y-96.025
X123.344Y-102.975
X123.8Y-86.1
X124.16Y-110.645
X124.39Y-92.625
X124.862Y-117.475
X125.091Y-121.818
X125.16Y-102.395
X126.338Y-96.281
X127.572Y-100.424
X127.925Y-95.69
X128.118Y-112.42
X128.727Y-83.007
X129.799Y-118.181
X130.09Y-94.025
X130.238Y-96.281
X130.5Y-83.9
X130.98Y-94.581
X130.988Y-121.099
X131.83Y-95.381
X132.9Y-88.5
X133.401Y-116.078
X133.401Y-128.473
X133.438Y-92.781
X133.438Y-97.681
X133.438Y-100.424
X134.823Y-116.078
X134.823Y-128.473
X134.838Y-96.181
X134.9Y-83.9
X134.9Y-86.8
X136.09Y-95.332
X136.44Y-99.075
X139.09Y-116.078
X140.513Y-116.078
X141.122Y-126.848
X141.122Y-127.813
X142.239Y-95.054
X142.733Y-91.18
X142.787Y-90.132
X142.788Y-95.95
X142.788Y-97.0
X142.788Y-98.05
X143.438Y-111.3
X143.438Y-125.831
X145.586Y-90.081
X146.136Y-90.981
X146.685Y-97.0
X146.685Y-98.05
X146.8Y-113.7
X146.839Y-95.962
X147.32Y-101.6
X147.32Y-104.14
X147.335Y-125.981
X147.7Y-95.15
X147.784Y-111.2
X148.59Y-100.33
X148.59Y-102.87
X148.59Y-114.3
X148.59Y-116.84
X148.59Y-119.38
X148.59Y-121.92
X149.86Y-101.6
X149.86Y-104.14
X149.86Y-113.03
X149.86Y-115.57
X149.86Y-118.11
X149.86Y-120.65
X151.13Y-100.33
X151.13Y-102.87
X151.13Y-114.3
X151.13Y-116.84
X151.13Y-119.38
X151.13Y-121.92
X151.5Y-113.0
X152.4Y-101.6
X152.4Y-104.214
X153.67Y-100.33
X153.67Y-102.87
X154.386Y-111.884
X154.691Y-113.713
X154.843Y-103.096
X154.94Y-101.6
X155.961Y-105.179
X156.012Y-107.008
X156.012Y-108.532
X156.012Y-110.97
X156.138Y-125.781
X157.277Y-113.69
X158.399Y-105.179
X158.738Y-123.131
X158.8Y-103.7
X160.401Y-102.362
X160.426Y-105.181
X161.773Y-103.81
X163.246Y-102.337
X163.246Y-105.181
X164.897Y-95.656
X164.9Y-98.904
X169.288Y-123.131
X172.466Y-116.84
X173.971Y-91.464
X173.971Y-93.064
X174.244Y-116.84
X181.407Y-129.591
X184.15Y-116.84
X185.928Y-116.84
T3
X135.238Y-101.181
X150.343Y-109.703
X154.864Y-120.675
X165.405Y-110.033
T4
X142.388Y-124.481
X147.879Y-124.5
T5
X120.0Y-100.7
X121.319Y-113.13
X121.319Y-115.67
X121.325Y-105.525
X121.325Y-108.065
X122.54Y-100.7
X140.843Y-82.372
X140.847Y-79.375
X143.383Y-82.372
X143.387Y-79.375
X145.923Y-82.372
X145.927Y-79.375
X148.463Y-82.372
X148.467Y-79.375
X149.987Y-127.635
X151.003Y-82.372
X151.007Y-79.375
X152.527Y-127.635
X153.543Y-82.372
X153.547Y-79.375
X155.067Y-127.635
X156.083Y-82.372
X156.087Y-79.375
X157.607Y-127.635
X158.623Y-82.372
X158.627Y-79.375
X160.147Y-127.635
X161.163Y-82.372
X161.167Y-79.375
X162.687Y-127.635
X163.703Y-82.372
X163.707Y-79.375
X165.227Y-127.635
X167.767Y-79.375
X167.767Y-127.635
X167.772Y-82.372
X170.307Y-79.375
X170.312Y-82.372
X172.822Y-123.927
X172.847Y-79.375
X172.847Y-127.635
X172.852Y-82.372
X175.362Y-123.927
X175.387Y-79.375
X175.387Y-127.635
X175.392Y-82.372
X177.546Y-111.237
X177.546Y-113.777
X177.546Y-116.317
X177.546Y-118.857
X177.902Y-123.927
X177.927Y-79.375
X177.927Y-127.635
X177.932Y-82.372
X180.442Y-123.927
X180.467Y-79.375
X180.467Y-127.635
X180.472Y-82.372
X182.982Y-123.927
X183.007Y-79.375
X183.007Y-127.635
X183.012Y-82.372
X185.522Y-123.927
X185.547Y-79.375
X185.547Y-127.635
X185.552Y-82.372
T6
X115.831Y-134.655
X119.331Y-134.655
X122.831Y-134.655
X126.909Y-134.655
X130.409Y-134.655
X134.499Y-134.655
X137.999Y-134.655
X141.499Y-134.655
X144.999Y-134.655
X148.499Y-134.655
X151.999Y-134.655
X156.114Y-134.655
X159.614Y-134.655
X163.114Y-134.655
X166.614Y-134.655
X170.744Y-134.631
X174.244Y-134.631
X177.744Y-134.631
X181.869Y-134.631
X185.369Y-134.631
X188.869Y-134.631
T0
M30
