%TF.GenerationSoftware,KiCad,Pcbnew,(6.0.1-0)*%
%TF.CreationDate,2022-02-06T09:10:27-08:00*%
%TF.ProjectId,power-wedge-control,706f7765-722d-4776-9564-67652d636f6e,1*%
%TF.SameCoordinates,Original*%
%TF.FileFunction,Legend,Top*%
%TF.FilePolarity,Positive*%
%FSLAX46Y46*%
G04 Gerber Fmt 4.6, Leading zero omitted, Abs format (unit mm)*
G04 Created by KiCad (PCBNEW (6.0.1-0)) date 2022-02-06 09:10:27*
%MOMM*%
%LPD*%
G01*
G04 APERTURE LIST*
G04 Aperture macros list*
%AMRoundRect*
0 Rectangle with rounded corners*
0 $1 Rounding radius*
0 $2 $3 $4 $5 $6 $7 $8 $9 X,Y pos of 4 corners*
0 Add a 4 corners polygon primitive as box body*
4,1,4,$2,$3,$4,$5,$6,$7,$8,$9,$2,$3,0*
0 Add four circle primitives for the rounded corners*
1,1,$1+$1,$2,$3*
1,1,$1+$1,$4,$5*
1,1,$1+$1,$6,$7*
1,1,$1+$1,$8,$9*
0 Add four rect primitives between the rounded corners*
20,1,$1+$1,$2,$3,$4,$5,0*
20,1,$1+$1,$4,$5,$6,$7,0*
20,1,$1+$1,$6,$7,$8,$9,0*
20,1,$1+$1,$8,$9,$2,$3,0*%
G04 Aperture macros list end*
%ADD10C,0.300000*%
%ADD11C,0.200000*%
%ADD12C,0.400000*%
%ADD13C,0.150000*%
%ADD14C,0.120000*%
%ADD15RoundRect,0.050800X-1.200000X-1.200000X1.200000X-1.200000X1.200000X1.200000X-1.200000X1.200000X0*%
%ADD16C,2.501600*%
%ADD17RoundRect,0.050800X0.850000X-0.850000X0.850000X0.850000X-0.850000X0.850000X-0.850000X-0.850000X0*%
%ADD18O,1.801600X1.801600*%
%ADD19RoundRect,0.200800X-0.587500X-0.150000X0.587500X-0.150000X0.587500X0.150000X-0.587500X0.150000X0*%
%ADD20RoundRect,0.200800X-0.150000X0.587500X-0.150000X-0.587500X0.150000X-0.587500X0.150000X0.587500X0*%
%ADD21RoundRect,0.250800X0.275000X-0.200000X0.275000X0.200000X-0.275000X0.200000X-0.275000X-0.200000X0*%
%ADD22RoundRect,0.250800X-0.275000X0.200000X-0.275000X-0.200000X0.275000X-0.200000X0.275000X0.200000X0*%
%ADD23RoundRect,0.050800X0.650000X0.850000X-0.650000X0.850000X-0.650000X-0.850000X0.650000X-0.850000X0*%
%ADD24RoundRect,0.050800X-0.650000X-0.850000X0.650000X-0.850000X0.650000X0.850000X-0.650000X0.850000X0*%
%ADD25RoundRect,0.250800X-0.200000X-0.275000X0.200000X-0.275000X0.200000X0.275000X-0.200000X0.275000X0*%
%ADD26RoundRect,0.250800X0.200000X0.275000X-0.200000X0.275000X-0.200000X-0.275000X0.200000X-0.275000X0*%
%ADD27RoundRect,0.275800X0.250000X-0.225000X0.250000X0.225000X-0.250000X0.225000X-0.250000X-0.225000X0*%
%ADD28RoundRect,0.269550X0.256250X-0.218750X0.256250X0.218750X-0.256250X0.218750X-0.256250X-0.218750X0*%
%ADD29RoundRect,0.275800X-0.225000X-0.250000X0.225000X-0.250000X0.225000X0.250000X-0.225000X0.250000X0*%
%ADD30RoundRect,0.200800X0.512500X0.150000X-0.512500X0.150000X-0.512500X-0.150000X0.512500X-0.150000X0*%
%ADD31RoundRect,0.275800X0.225000X0.250000X-0.225000X0.250000X-0.225000X-0.250000X0.225000X-0.250000X0*%
%ADD32RoundRect,0.300800X-0.325000X-0.650000X0.325000X-0.650000X0.325000X0.650000X-0.325000X0.650000X0*%
%ADD33RoundRect,0.269550X-0.218750X-0.256250X0.218750X-0.256250X0.218750X0.256250X-0.218750X0.256250X0*%
%ADD34RoundRect,0.050800X-1.100000X-0.600000X1.100000X-0.600000X1.100000X0.600000X-1.100000X0.600000X0*%
%ADD35RoundRect,0.050800X-3.200000X-2.900000X3.200000X-2.900000X3.200000X2.900000X-3.200000X2.900000X0*%
%ADD36RoundRect,0.200800X0.587500X0.150000X-0.587500X0.150000X-0.587500X-0.150000X0.587500X-0.150000X0*%
%ADD37RoundRect,0.050800X0.890000X-1.000000X0.890000X1.000000X-0.890000X1.000000X-0.890000X-1.000000X0*%
%ADD38RoundRect,0.050800X0.325000X0.200000X-0.325000X0.200000X-0.325000X-0.200000X0.325000X-0.200000X0*%
%ADD39RoundRect,0.050800X-0.875000X0.350000X-0.875000X-0.350000X0.875000X-0.350000X0.875000X0.350000X0*%
%ADD40RoundRect,0.050800X-0.500000X0.725000X-0.500000X-0.725000X0.500000X-0.725000X0.500000X0.725000X0*%
%ADD41RoundRect,0.050800X-0.775000X0.500000X-0.775000X-0.500000X0.775000X-0.500000X0.775000X0.500000X0*%
%ADD42RoundRect,0.050800X-0.750000X0.750000X-0.750000X-0.750000X0.750000X-0.750000X0.750000X0.750000X0*%
%ADD43RoundRect,0.050800X-0.750000X0.400000X-0.750000X-0.400000X0.750000X-0.400000X0.750000X0.400000X0*%
%ADD44RoundRect,0.050800X-0.750000X0.650000X-0.750000X-0.650000X0.750000X-0.650000X0.750000X0.650000X0*%
%ADD45RoundRect,0.050800X-0.700000X0.400000X-0.700000X-0.400000X0.700000X-0.400000X0.700000X0.400000X0*%
%ADD46RoundRect,0.200800X-0.150000X0.825000X-0.150000X-0.825000X0.150000X-0.825000X0.150000X0.825000X0*%
%ADD47RoundRect,0.269550X0.218750X0.256250X-0.218750X0.256250X-0.218750X-0.256250X0.218750X-0.256250X0*%
%ADD48RoundRect,0.300800X0.325000X0.650000X-0.325000X0.650000X-0.325000X-0.650000X0.325000X-0.650000X0*%
%ADD49RoundRect,0.300800X0.650000X-0.325000X0.650000X0.325000X-0.650000X0.325000X-0.650000X-0.325000X0*%
%ADD50RoundRect,0.050800X0.200000X-0.325000X0.200000X0.325000X-0.200000X0.325000X-0.200000X-0.325000X0*%
%ADD51C,1.601600*%
%ADD52RoundRect,0.050800X-0.800000X0.800000X-0.800000X-0.800000X0.800000X-0.800000X0.800000X0.800000X0*%
%ADD53C,1.701600*%
%ADD54O,1.701600X1.701600*%
%ADD55RoundRect,0.050800X0.850000X0.850000X-0.850000X0.850000X-0.850000X-0.850000X0.850000X-0.850000X0*%
%ADD56RoundRect,0.050800X-0.850000X-0.850000X0.850000X-0.850000X0.850000X0.850000X-0.850000X0.850000X0*%
%ADD57RoundRect,0.050800X0.800000X-0.800000X0.800000X0.800000X-0.800000X0.800000X-0.800000X-0.800000X0*%
G04 APERTURE END LIST*
D10*
X116775228Y-130888971D02*
X116275228Y-130174685D01*
X115918085Y-130888971D02*
X115918085Y-129388971D01*
X116489514Y-129388971D01*
X116632371Y-129460400D01*
X116703800Y-129531828D01*
X116775228Y-129674685D01*
X116775228Y-129888971D01*
X116703800Y-130031828D01*
X116632371Y-130103257D01*
X116489514Y-130174685D01*
X115918085Y-130174685D01*
X117989514Y-130817542D02*
X117846657Y-130888971D01*
X117560942Y-130888971D01*
X117418085Y-130817542D01*
X117346657Y-130674685D01*
X117346657Y-130103257D01*
X117418085Y-129960400D01*
X117560942Y-129888971D01*
X117846657Y-129888971D01*
X117989514Y-129960400D01*
X118060942Y-130103257D01*
X118060942Y-130246114D01*
X117346657Y-130388971D01*
X118918085Y-130888971D02*
X118775228Y-130817542D01*
X118703800Y-130674685D01*
X118703800Y-129388971D01*
X120132371Y-130888971D02*
X120132371Y-130103257D01*
X120060942Y-129960400D01*
X119918085Y-129888971D01*
X119632371Y-129888971D01*
X119489514Y-129960400D01*
X120132371Y-130817542D02*
X119989514Y-130888971D01*
X119632371Y-130888971D01*
X119489514Y-130817542D01*
X119418085Y-130674685D01*
X119418085Y-130531828D01*
X119489514Y-130388971D01*
X119632371Y-130317542D01*
X119989514Y-130317542D01*
X120132371Y-130246114D01*
X120703800Y-129888971D02*
X121060942Y-130888971D01*
X121418085Y-129888971D02*
X121060942Y-130888971D01*
X120918085Y-131246114D01*
X120846657Y-131317542D01*
X120703800Y-131388971D01*
X121918085Y-130817542D02*
X122060942Y-130888971D01*
X122346657Y-130888971D01*
X122489514Y-130817542D01*
X122560942Y-130674685D01*
X122560942Y-130603257D01*
X122489514Y-130460400D01*
X122346657Y-130388971D01*
X122132371Y-130388971D01*
X121989514Y-130317542D01*
X121918085Y-130174685D01*
X121918085Y-130103257D01*
X121989514Y-129960400D01*
X122132371Y-129888971D01*
X122346657Y-129888971D01*
X122489514Y-129960400D01*
X125115371Y-130444542D02*
X126258228Y-130444542D01*
X125686800Y-131015971D02*
X125686800Y-129873114D01*
X127758228Y-131015971D02*
X126901085Y-131015971D01*
X127329657Y-131015971D02*
X127329657Y-129515971D01*
X127186800Y-129730257D01*
X127043942Y-129873114D01*
X126901085Y-129944542D01*
X128329657Y-129658828D02*
X128401085Y-129587400D01*
X128543942Y-129515971D01*
X128901085Y-129515971D01*
X129043942Y-129587400D01*
X129115371Y-129658828D01*
X129186800Y-129801685D01*
X129186800Y-129944542D01*
X129115371Y-130158828D01*
X128258228Y-131015971D01*
X129186800Y-131015971D01*
X129615371Y-129515971D02*
X130115371Y-131015971D01*
X130615371Y-129515971D01*
X131115371Y-130444542D02*
X132258228Y-130444542D01*
X162866228Y-109386571D02*
X162151942Y-109386571D01*
X162080514Y-110100857D01*
X162151942Y-110029428D01*
X162294800Y-109958000D01*
X162651942Y-109958000D01*
X162794800Y-110029428D01*
X162866228Y-110100857D01*
X162937657Y-110243714D01*
X162937657Y-110600857D01*
X162866228Y-110743714D01*
X162794800Y-110815142D01*
X162651942Y-110886571D01*
X162294800Y-110886571D01*
X162151942Y-110815142D01*
X162080514Y-110743714D01*
X163366228Y-109386571D02*
X163866228Y-110886571D01*
X164366228Y-109386571D01*
X154555657Y-119522571D02*
X153698514Y-119522571D01*
X154127085Y-119522571D02*
X154127085Y-118022571D01*
X153984228Y-118236857D01*
X153841371Y-118379714D01*
X153698514Y-118451142D01*
X155127085Y-118165428D02*
X155198514Y-118094000D01*
X155341371Y-118022571D01*
X155698514Y-118022571D01*
X155841371Y-118094000D01*
X155912800Y-118165428D01*
X155984228Y-118308285D01*
X155984228Y-118451142D01*
X155912800Y-118665428D01*
X155055657Y-119522571D01*
X155984228Y-119522571D01*
X156412800Y-118022571D02*
X156912800Y-119522571D01*
X157412800Y-118022571D01*
X181459714Y-130409142D02*
X182602571Y-130409142D01*
X183245428Y-130552000D02*
X183959714Y-130552000D01*
X183102571Y-130980571D02*
X183602571Y-129480571D01*
X184102571Y-130980571D01*
X184602571Y-129980571D02*
X184602571Y-130980571D01*
X184602571Y-130123428D02*
X184674000Y-130052000D01*
X184816857Y-129980571D01*
X185031142Y-129980571D01*
X185174000Y-130052000D01*
X185245428Y-130194857D01*
X185245428Y-130980571D01*
X186602571Y-129980571D02*
X186602571Y-131194857D01*
X186531142Y-131337714D01*
X186459714Y-131409142D01*
X186316857Y-131480571D01*
X186102571Y-131480571D01*
X185959714Y-131409142D01*
X186602571Y-130909142D02*
X186459714Y-130980571D01*
X186174000Y-130980571D01*
X186031142Y-130909142D01*
X185959714Y-130837714D01*
X185888285Y-130694857D01*
X185888285Y-130266285D01*
X185959714Y-130123428D01*
X186031142Y-130052000D01*
X186174000Y-129980571D01*
X186459714Y-129980571D01*
X186602571Y-130052000D01*
X187245428Y-129623428D02*
X187316857Y-129552000D01*
X187459714Y-129480571D01*
X187816857Y-129480571D01*
X187959714Y-129552000D01*
X188031142Y-129623428D01*
X188102571Y-129766285D01*
X188102571Y-129909142D01*
X188031142Y-130123428D01*
X187174000Y-130980571D01*
X188102571Y-130980571D01*
X188745428Y-130409142D02*
X189888285Y-130409142D01*
X189316857Y-130980571D02*
X189316857Y-129837714D01*
X135490914Y-131031371D02*
X134633771Y-131031371D01*
X135062342Y-131031371D02*
X135062342Y-129531371D01*
X134919485Y-129745657D01*
X134776628Y-129888514D01*
X134633771Y-129959942D01*
X138276628Y-129531371D02*
X139276628Y-129531371D01*
X138633771Y-131031371D01*
X139776628Y-130959942D02*
X139990914Y-131031371D01*
X140348057Y-131031371D01*
X140490914Y-130959942D01*
X140562342Y-130888514D01*
X140633771Y-130745657D01*
X140633771Y-130602800D01*
X140562342Y-130459942D01*
X140490914Y-130388514D01*
X140348057Y-130317085D01*
X140062342Y-130245657D01*
X139919485Y-130174228D01*
X139848057Y-130102800D01*
X139776628Y-129959942D01*
X139776628Y-129817085D01*
X139848057Y-129674228D01*
X139919485Y-129602800D01*
X140062342Y-129531371D01*
X140419485Y-129531371D01*
X140633771Y-129602800D01*
X141848057Y-130959942D02*
X141705200Y-131031371D01*
X141419485Y-131031371D01*
X141276628Y-130959942D01*
X141205200Y-130817085D01*
X141205200Y-130245657D01*
X141276628Y-130102800D01*
X141419485Y-130031371D01*
X141705200Y-130031371D01*
X141848057Y-130102800D01*
X141919485Y-130245657D01*
X141919485Y-130388514D01*
X141205200Y-130531371D01*
X143205200Y-130031371D02*
X143205200Y-131245657D01*
X143133771Y-131388514D01*
X143062342Y-131459942D01*
X142919485Y-131531371D01*
X142705200Y-131531371D01*
X142562342Y-131459942D01*
X143205200Y-130959942D02*
X143062342Y-131031371D01*
X142776628Y-131031371D01*
X142633771Y-130959942D01*
X142562342Y-130888514D01*
X142490914Y-130745657D01*
X142490914Y-130317085D01*
X142562342Y-130174228D01*
X142633771Y-130102800D01*
X142776628Y-130031371D01*
X143062342Y-130031371D01*
X143205200Y-130102800D01*
X143919485Y-131031371D02*
X143919485Y-129531371D01*
X144276628Y-129531371D01*
X144490914Y-129602800D01*
X144633771Y-129745657D01*
X144705200Y-129888514D01*
X144776628Y-130174228D01*
X144776628Y-130388514D01*
X144705200Y-130674228D01*
X144633771Y-130817085D01*
X144490914Y-130959942D01*
X144276628Y-131031371D01*
X143919485Y-131031371D01*
X145419485Y-131031371D02*
X145419485Y-130031371D01*
X145419485Y-129531371D02*
X145348057Y-129602800D01*
X145419485Y-129674228D01*
X145490914Y-129602800D01*
X145419485Y-129531371D01*
X145419485Y-129674228D01*
X146062342Y-130959942D02*
X146205200Y-131031371D01*
X146490914Y-131031371D01*
X146633771Y-130959942D01*
X146705200Y-130817085D01*
X146705200Y-130745657D01*
X146633771Y-130602800D01*
X146490914Y-130531371D01*
X146276628Y-130531371D01*
X146133771Y-130459942D01*
X146062342Y-130317085D01*
X146062342Y-130245657D01*
X146133771Y-130102800D01*
X146276628Y-130031371D01*
X146490914Y-130031371D01*
X146633771Y-130102800D01*
X147348057Y-130031371D02*
X147348057Y-131531371D01*
X147348057Y-130102800D02*
X147490914Y-130031371D01*
X147776628Y-130031371D01*
X147919485Y-130102800D01*
X147990914Y-130174228D01*
X148062342Y-130317085D01*
X148062342Y-130745657D01*
X147990914Y-130888514D01*
X147919485Y-130959942D01*
X147776628Y-131031371D01*
X147490914Y-131031371D01*
X147348057Y-130959942D01*
X151633771Y-129531371D02*
X151348057Y-129531371D01*
X151205200Y-129602800D01*
X151133771Y-129674228D01*
X150990914Y-129888514D01*
X150919485Y-130174228D01*
X150919485Y-130745657D01*
X150990914Y-130888514D01*
X151062342Y-130959942D01*
X151205200Y-131031371D01*
X151490914Y-131031371D01*
X151633771Y-130959942D01*
X151705200Y-130888514D01*
X151776628Y-130745657D01*
X151776628Y-130388514D01*
X151705200Y-130245657D01*
X151633771Y-130174228D01*
X151490914Y-130102800D01*
X151205200Y-130102800D01*
X151062342Y-130174228D01*
X150990914Y-130245657D01*
X150919485Y-130388514D01*
X116371371Y-128737371D02*
X114871371Y-128737371D01*
X114871371Y-128380228D01*
X114942800Y-128165942D01*
X115085657Y-128023085D01*
X115228514Y-127951657D01*
X115514228Y-127880228D01*
X115728514Y-127880228D01*
X116014228Y-127951657D01*
X116157085Y-128023085D01*
X116299942Y-128165942D01*
X116371371Y-128380228D01*
X116371371Y-128737371D01*
X116371371Y-127237371D02*
X114871371Y-127237371D01*
X116371371Y-126380228D01*
X114871371Y-126380228D01*
X156034457Y-129480571D02*
X156034457Y-130694857D01*
X156105885Y-130837714D01*
X156177314Y-130909142D01*
X156320171Y-130980571D01*
X156605885Y-130980571D01*
X156748742Y-130909142D01*
X156820171Y-130837714D01*
X156891600Y-130694857D01*
X156891600Y-129480571D01*
X157605885Y-130980571D02*
X157605885Y-129480571D01*
X158177314Y-129480571D01*
X158320171Y-129552000D01*
X158391600Y-129623428D01*
X158463028Y-129766285D01*
X158463028Y-129980571D01*
X158391600Y-130123428D01*
X158320171Y-130194857D01*
X158177314Y-130266285D01*
X157605885Y-130266285D01*
X160177314Y-130909142D02*
X160391600Y-130980571D01*
X160748742Y-130980571D01*
X160891600Y-130909142D01*
X160963028Y-130837714D01*
X161034457Y-130694857D01*
X161034457Y-130552000D01*
X160963028Y-130409142D01*
X160891600Y-130337714D01*
X160748742Y-130266285D01*
X160463028Y-130194857D01*
X160320171Y-130123428D01*
X160248742Y-130052000D01*
X160177314Y-129909142D01*
X160177314Y-129766285D01*
X160248742Y-129623428D01*
X160320171Y-129552000D01*
X160463028Y-129480571D01*
X160820171Y-129480571D01*
X161034457Y-129552000D01*
X161534457Y-129980571D02*
X161820171Y-130980571D01*
X162105885Y-130266285D01*
X162391600Y-130980571D01*
X162677314Y-129980571D01*
X164391600Y-130980571D02*
X164391600Y-129480571D01*
X164748742Y-129480571D01*
X164963028Y-129552000D01*
X165105885Y-129694857D01*
X165177314Y-129837714D01*
X165248742Y-130123428D01*
X165248742Y-130337714D01*
X165177314Y-130623428D01*
X165105885Y-130766285D01*
X164963028Y-130909142D01*
X164748742Y-130980571D01*
X164391600Y-130980571D01*
X165891600Y-130980571D02*
X165891600Y-129480571D01*
X166748742Y-130980571D01*
X166748742Y-129480571D01*
X170029714Y-130409142D02*
X171172571Y-130409142D01*
X171815428Y-130552000D02*
X172529714Y-130552000D01*
X171672571Y-130980571D02*
X172172571Y-129480571D01*
X172672571Y-130980571D01*
X173172571Y-129980571D02*
X173172571Y-130980571D01*
X173172571Y-130123428D02*
X173244000Y-130052000D01*
X173386857Y-129980571D01*
X173601142Y-129980571D01*
X173744000Y-130052000D01*
X173815428Y-130194857D01*
X173815428Y-130980571D01*
X175172571Y-129980571D02*
X175172571Y-131194857D01*
X175101142Y-131337714D01*
X175029714Y-131409142D01*
X174886857Y-131480571D01*
X174672571Y-131480571D01*
X174529714Y-131409142D01*
X175172571Y-130909142D02*
X175029714Y-130980571D01*
X174744000Y-130980571D01*
X174601142Y-130909142D01*
X174529714Y-130837714D01*
X174458285Y-130694857D01*
X174458285Y-130266285D01*
X174529714Y-130123428D01*
X174601142Y-130052000D01*
X174744000Y-129980571D01*
X175029714Y-129980571D01*
X175172571Y-130052000D01*
X176672571Y-130980571D02*
X175815428Y-130980571D01*
X176244000Y-130980571D02*
X176244000Y-129480571D01*
X176101142Y-129694857D01*
X175958285Y-129837714D01*
X175815428Y-129909142D01*
X177315428Y-130409142D02*
X178458285Y-130409142D01*
X177886857Y-130980571D02*
X177886857Y-129837714D01*
D11*
X183984190Y-109933380D02*
X183650857Y-109457190D01*
X183412761Y-109933380D02*
X183412761Y-108933380D01*
X183793714Y-108933380D01*
X183888952Y-108981000D01*
X183936571Y-109028619D01*
X183984190Y-109123857D01*
X183984190Y-109266714D01*
X183936571Y-109361952D01*
X183888952Y-109409571D01*
X183793714Y-109457190D01*
X183412761Y-109457190D01*
X184793714Y-109885761D02*
X184698476Y-109933380D01*
X184508000Y-109933380D01*
X184412761Y-109885761D01*
X184365142Y-109790523D01*
X184365142Y-109409571D01*
X184412761Y-109314333D01*
X184508000Y-109266714D01*
X184698476Y-109266714D01*
X184793714Y-109314333D01*
X184841333Y-109409571D01*
X184841333Y-109504809D01*
X184365142Y-109600047D01*
X185174666Y-109266714D02*
X185412761Y-109933380D01*
X185650857Y-109266714D01*
X187317523Y-109933380D02*
X186746095Y-109933380D01*
X187031809Y-109933380D02*
X187031809Y-108933380D01*
X186936571Y-109076238D01*
X186841333Y-109171476D01*
X186746095Y-109219095D01*
D12*
X168189904Y-104325761D02*
X168189904Y-102325761D01*
X168951809Y-102325761D01*
X169142285Y-102421000D01*
X169237523Y-102516238D01*
X169332761Y-102706714D01*
X169332761Y-102992428D01*
X169237523Y-103182904D01*
X169142285Y-103278142D01*
X168951809Y-103373380D01*
X168189904Y-103373380D01*
X170475619Y-104325761D02*
X170285142Y-104230523D01*
X170189904Y-104135285D01*
X170094666Y-103944809D01*
X170094666Y-103373380D01*
X170189904Y-103182904D01*
X170285142Y-103087666D01*
X170475619Y-102992428D01*
X170761333Y-102992428D01*
X170951809Y-103087666D01*
X171047047Y-103182904D01*
X171142285Y-103373380D01*
X171142285Y-103944809D01*
X171047047Y-104135285D01*
X170951809Y-104230523D01*
X170761333Y-104325761D01*
X170475619Y-104325761D01*
X171808952Y-102992428D02*
X172189904Y-104325761D01*
X172570857Y-103373380D01*
X172951809Y-104325761D01*
X173332761Y-102992428D01*
X174856571Y-104230523D02*
X174666095Y-104325761D01*
X174285142Y-104325761D01*
X174094666Y-104230523D01*
X173999428Y-104040047D01*
X173999428Y-103278142D01*
X174094666Y-103087666D01*
X174285142Y-102992428D01*
X174666095Y-102992428D01*
X174856571Y-103087666D01*
X174951809Y-103278142D01*
X174951809Y-103468619D01*
X173999428Y-103659095D01*
X175808952Y-104325761D02*
X175808952Y-102992428D01*
X175808952Y-103373380D02*
X175904190Y-103182904D01*
X175999428Y-103087666D01*
X176189904Y-102992428D01*
X176380380Y-102992428D01*
X178380380Y-102325761D02*
X178856571Y-104325761D01*
X179237523Y-102897190D01*
X179618476Y-104325761D01*
X180094666Y-102325761D01*
X181618476Y-104230523D02*
X181427999Y-104325761D01*
X181047047Y-104325761D01*
X180856571Y-104230523D01*
X180761333Y-104040047D01*
X180761333Y-103278142D01*
X180856571Y-103087666D01*
X181047047Y-102992428D01*
X181427999Y-102992428D01*
X181618476Y-103087666D01*
X181713714Y-103278142D01*
X181713714Y-103468619D01*
X180761333Y-103659095D01*
X183427999Y-104325761D02*
X183427999Y-102325761D01*
X183427999Y-104230523D02*
X183237523Y-104325761D01*
X182856571Y-104325761D01*
X182666095Y-104230523D01*
X182570857Y-104135285D01*
X182475619Y-103944809D01*
X182475619Y-103373380D01*
X182570857Y-103182904D01*
X182666095Y-103087666D01*
X182856571Y-102992428D01*
X183237523Y-102992428D01*
X183427999Y-103087666D01*
X185237523Y-102992428D02*
X185237523Y-104611476D01*
X185142285Y-104801952D01*
X185047047Y-104897190D01*
X184856571Y-104992428D01*
X184570857Y-104992428D01*
X184380380Y-104897190D01*
X185237523Y-104230523D02*
X185047047Y-104325761D01*
X184666095Y-104325761D01*
X184475619Y-104230523D01*
X184380380Y-104135285D01*
X184285142Y-103944809D01*
X184285142Y-103373380D01*
X184380380Y-103182904D01*
X184475619Y-103087666D01*
X184666095Y-102992428D01*
X185047047Y-102992428D01*
X185237523Y-103087666D01*
X186951809Y-104230523D02*
X186761333Y-104325761D01*
X186380380Y-104325761D01*
X186189904Y-104230523D01*
X186094666Y-104040047D01*
X186094666Y-103278142D01*
X186189904Y-103087666D01*
X186380380Y-102992428D01*
X186761333Y-102992428D01*
X186951809Y-103087666D01*
X187047047Y-103278142D01*
X187047047Y-103468619D01*
X186094666Y-103659095D01*
X178189904Y-107355285D02*
X178094666Y-107450523D01*
X177808952Y-107545761D01*
X177618476Y-107545761D01*
X177332761Y-107450523D01*
X177142285Y-107260047D01*
X177047047Y-107069571D01*
X176951809Y-106688619D01*
X176951809Y-106402904D01*
X177047047Y-106021952D01*
X177142285Y-105831476D01*
X177332761Y-105641000D01*
X177618476Y-105545761D01*
X177808952Y-105545761D01*
X178094666Y-105641000D01*
X178189904Y-105736238D01*
X179332761Y-107545761D02*
X179142285Y-107450523D01*
X179047047Y-107355285D01*
X178951809Y-107164809D01*
X178951809Y-106593380D01*
X179047047Y-106402904D01*
X179142285Y-106307666D01*
X179332761Y-106212428D01*
X179618476Y-106212428D01*
X179808952Y-106307666D01*
X179904190Y-106402904D01*
X179999428Y-106593380D01*
X179999428Y-107164809D01*
X179904190Y-107355285D01*
X179808952Y-107450523D01*
X179618476Y-107545761D01*
X179332761Y-107545761D01*
X180856571Y-106212428D02*
X180856571Y-107545761D01*
X180856571Y-106402904D02*
X180951809Y-106307666D01*
X181142285Y-106212428D01*
X181428000Y-106212428D01*
X181618476Y-106307666D01*
X181713714Y-106498142D01*
X181713714Y-107545761D01*
X182380380Y-106212428D02*
X183142285Y-106212428D01*
X182666095Y-105545761D02*
X182666095Y-107260047D01*
X182761333Y-107450523D01*
X182951809Y-107545761D01*
X183142285Y-107545761D01*
X183808952Y-107545761D02*
X183808952Y-106212428D01*
X183808952Y-106593380D02*
X183904190Y-106402904D01*
X183999428Y-106307666D01*
X184189904Y-106212428D01*
X184380380Y-106212428D01*
X185332761Y-107545761D02*
X185142285Y-107450523D01*
X185047047Y-107355285D01*
X184951809Y-107164809D01*
X184951809Y-106593380D01*
X185047047Y-106402904D01*
X185142285Y-106307666D01*
X185332761Y-106212428D01*
X185618476Y-106212428D01*
X185808952Y-106307666D01*
X185904190Y-106402904D01*
X185999428Y-106593380D01*
X185999428Y-107164809D01*
X185904190Y-107355285D01*
X185808952Y-107450523D01*
X185618476Y-107545761D01*
X185332761Y-107545761D01*
X187142285Y-107545761D02*
X186951809Y-107450523D01*
X186856571Y-107260047D01*
X186856571Y-105545761D01*
D10*
X123862971Y-128788171D02*
X125077257Y-128788171D01*
X125220114Y-128716742D01*
X125291542Y-128645314D01*
X125362971Y-128502457D01*
X125362971Y-128216742D01*
X125291542Y-128073885D01*
X125220114Y-128002457D01*
X125077257Y-127931028D01*
X123862971Y-127931028D01*
X125362971Y-127216742D02*
X123862971Y-127216742D01*
X123862971Y-126645314D01*
X123934400Y-126502457D01*
X124005828Y-126431028D01*
X124148685Y-126359600D01*
X124362971Y-126359600D01*
X124505828Y-126431028D01*
X124577257Y-126502457D01*
X124648685Y-126645314D01*
X124648685Y-127216742D01*
X148394685Y-106948171D02*
X149323257Y-106948171D01*
X148823257Y-107519600D01*
X149037542Y-107519600D01*
X149180400Y-107591028D01*
X149251828Y-107662457D01*
X149323257Y-107805314D01*
X149323257Y-108162457D01*
X149251828Y-108305314D01*
X149180400Y-108376742D01*
X149037542Y-108448171D01*
X148608971Y-108448171D01*
X148466114Y-108376742D01*
X148394685Y-108305314D01*
X149966114Y-108305314D02*
X150037542Y-108376742D01*
X149966114Y-108448171D01*
X149894685Y-108376742D01*
X149966114Y-108305314D01*
X149966114Y-108448171D01*
X150537542Y-106948171D02*
X151466114Y-106948171D01*
X150966114Y-107519600D01*
X151180400Y-107519600D01*
X151323257Y-107591028D01*
X151394685Y-107662457D01*
X151466114Y-107805314D01*
X151466114Y-108162457D01*
X151394685Y-108305314D01*
X151323257Y-108376742D01*
X151180400Y-108448171D01*
X150751828Y-108448171D01*
X150608971Y-108376742D01*
X150537542Y-108305314D01*
X151894685Y-106948171D02*
X152394685Y-108448171D01*
X152894685Y-106948171D01*
D13*
%TO.C,J1*%
X125149000Y-139879428D02*
X125149000Y-140308000D01*
X125120428Y-140393714D01*
X125063285Y-140450857D01*
X124977571Y-140479428D01*
X124920428Y-140479428D01*
X125749000Y-140479428D02*
X125406142Y-140479428D01*
X125577571Y-140479428D02*
X125577571Y-139879428D01*
X125520428Y-139965142D01*
X125463285Y-140022285D01*
X125406142Y-140050857D01*
%TO.C,J2*%
X114100000Y-139879428D02*
X114100000Y-140308000D01*
X114071428Y-140393714D01*
X114014285Y-140450857D01*
X113928571Y-140479428D01*
X113871428Y-140479428D01*
X114357142Y-139936571D02*
X114385714Y-139908000D01*
X114442857Y-139879428D01*
X114585714Y-139879428D01*
X114642857Y-139908000D01*
X114671428Y-139936571D01*
X114700000Y-139993714D01*
X114700000Y-140050857D01*
X114671428Y-140136571D01*
X114328571Y-140479428D01*
X114700000Y-140479428D01*
%TO.C,J3*%
X117341428Y-100900000D02*
X117770000Y-100900000D01*
X117855714Y-100928571D01*
X117912857Y-100985714D01*
X117941428Y-101071428D01*
X117941428Y-101128571D01*
X117341428Y-100671428D02*
X117341428Y-100300000D01*
X117570000Y-100500000D01*
X117570000Y-100414285D01*
X117598571Y-100357142D01*
X117627142Y-100328571D01*
X117684285Y-100300000D01*
X117827142Y-100300000D01*
X117884285Y-100328571D01*
X117912857Y-100357142D01*
X117941428Y-100414285D01*
X117941428Y-100585714D01*
X117912857Y-100642857D01*
X117884285Y-100671428D01*
%TO.C,Q1*%
X124271657Y-109243771D02*
X124214514Y-109215200D01*
X124157371Y-109158057D01*
X124071657Y-109072342D01*
X124014514Y-109043771D01*
X123957371Y-109043771D01*
X123985942Y-109186628D02*
X123928800Y-109158057D01*
X123871657Y-109100914D01*
X123843085Y-108986628D01*
X123843085Y-108786628D01*
X123871657Y-108672342D01*
X123928800Y-108615200D01*
X123985942Y-108586628D01*
X124100228Y-108586628D01*
X124157371Y-108615200D01*
X124214514Y-108672342D01*
X124243085Y-108786628D01*
X124243085Y-108986628D01*
X124214514Y-109100914D01*
X124157371Y-109158057D01*
X124100228Y-109186628D01*
X123985942Y-109186628D01*
X124814514Y-109186628D02*
X124471657Y-109186628D01*
X124643085Y-109186628D02*
X124643085Y-108586628D01*
X124585942Y-108672342D01*
X124528800Y-108729485D01*
X124471657Y-108758057D01*
%TO.C,Q2*%
X123895371Y-120351542D02*
X123866800Y-120408685D01*
X123809657Y-120465828D01*
X123723942Y-120551542D01*
X123695371Y-120608685D01*
X123695371Y-120665828D01*
X123838228Y-120637257D02*
X123809657Y-120694400D01*
X123752514Y-120751542D01*
X123638228Y-120780114D01*
X123438228Y-120780114D01*
X123323942Y-120751542D01*
X123266800Y-120694400D01*
X123238228Y-120637257D01*
X123238228Y-120522971D01*
X123266800Y-120465828D01*
X123323942Y-120408685D01*
X123438228Y-120380114D01*
X123638228Y-120380114D01*
X123752514Y-120408685D01*
X123809657Y-120465828D01*
X123838228Y-120522971D01*
X123838228Y-120637257D01*
X123295371Y-120151542D02*
X123266800Y-120122971D01*
X123238228Y-120065828D01*
X123238228Y-119922971D01*
X123266800Y-119865828D01*
X123295371Y-119837257D01*
X123352514Y-119808685D01*
X123409657Y-119808685D01*
X123495371Y-119837257D01*
X123838228Y-120180114D01*
X123838228Y-119808685D01*
%TO.C,Q4*%
X117037371Y-120351542D02*
X117008800Y-120408685D01*
X116951657Y-120465828D01*
X116865942Y-120551542D01*
X116837371Y-120608685D01*
X116837371Y-120665828D01*
X116980228Y-120637257D02*
X116951657Y-120694400D01*
X116894514Y-120751542D01*
X116780228Y-120780114D01*
X116580228Y-120780114D01*
X116465942Y-120751542D01*
X116408800Y-120694400D01*
X116380228Y-120637257D01*
X116380228Y-120522971D01*
X116408800Y-120465828D01*
X116465942Y-120408685D01*
X116580228Y-120380114D01*
X116780228Y-120380114D01*
X116894514Y-120408685D01*
X116951657Y-120465828D01*
X116980228Y-120522971D01*
X116980228Y-120637257D01*
X116580228Y-119865828D02*
X116980228Y-119865828D01*
X116351657Y-120008685D02*
X116780228Y-120151542D01*
X116780228Y-119780114D01*
%TO.C,R2*%
X124092228Y-115009600D02*
X123806514Y-115209600D01*
X124092228Y-115352457D02*
X123492228Y-115352457D01*
X123492228Y-115123885D01*
X123520800Y-115066742D01*
X123549371Y-115038171D01*
X123606514Y-115009600D01*
X123692228Y-115009600D01*
X123749371Y-115038171D01*
X123777942Y-115066742D01*
X123806514Y-115123885D01*
X123806514Y-115352457D01*
X123549371Y-114781028D02*
X123520800Y-114752457D01*
X123492228Y-114695314D01*
X123492228Y-114552457D01*
X123520800Y-114495314D01*
X123549371Y-114466742D01*
X123606514Y-114438171D01*
X123663657Y-114438171D01*
X123749371Y-114466742D01*
X124092228Y-114809600D01*
X124092228Y-114438171D01*
%TO.C,R3*%
X127445028Y-121359600D02*
X127159314Y-121559600D01*
X127445028Y-121702457D02*
X126845028Y-121702457D01*
X126845028Y-121473885D01*
X126873600Y-121416742D01*
X126902171Y-121388171D01*
X126959314Y-121359600D01*
X127045028Y-121359600D01*
X127102171Y-121388171D01*
X127130742Y-121416742D01*
X127159314Y-121473885D01*
X127159314Y-121702457D01*
X126845028Y-121159600D02*
X126845028Y-120788171D01*
X127073600Y-120988171D01*
X127073600Y-120902457D01*
X127102171Y-120845314D01*
X127130742Y-120816742D01*
X127187885Y-120788171D01*
X127330742Y-120788171D01*
X127387885Y-120816742D01*
X127416457Y-120845314D01*
X127445028Y-120902457D01*
X127445028Y-121073885D01*
X127416457Y-121131028D01*
X127387885Y-121159600D01*
%TO.C,R5*%
X116964400Y-117924228D02*
X116764400Y-117638514D01*
X116621542Y-117924228D02*
X116621542Y-117324228D01*
X116850114Y-117324228D01*
X116907257Y-117352800D01*
X116935828Y-117381371D01*
X116964400Y-117438514D01*
X116964400Y-117524228D01*
X116935828Y-117581371D01*
X116907257Y-117609942D01*
X116850114Y-117638514D01*
X116621542Y-117638514D01*
X117507257Y-117324228D02*
X117221542Y-117324228D01*
X117192971Y-117609942D01*
X117221542Y-117581371D01*
X117278685Y-117552800D01*
X117421542Y-117552800D01*
X117478685Y-117581371D01*
X117507257Y-117609942D01*
X117535828Y-117667085D01*
X117535828Y-117809942D01*
X117507257Y-117867085D01*
X117478685Y-117895657D01*
X117421542Y-117924228D01*
X117278685Y-117924228D01*
X117221542Y-117895657D01*
X117192971Y-117867085D01*
%TO.C,D1*%
X120736342Y-123563028D02*
X120736342Y-122963028D01*
X120879200Y-122963028D01*
X120964914Y-122991600D01*
X121022057Y-123048742D01*
X121050628Y-123105885D01*
X121079200Y-123220171D01*
X121079200Y-123305885D01*
X121050628Y-123420171D01*
X121022057Y-123477314D01*
X120964914Y-123534457D01*
X120879200Y-123563028D01*
X120736342Y-123563028D01*
X121650628Y-123563028D02*
X121307771Y-123563028D01*
X121479200Y-123563028D02*
X121479200Y-122963028D01*
X121422057Y-123048742D01*
X121364914Y-123105885D01*
X121307771Y-123134457D01*
%TO.C,D2*%
X118551942Y-123563028D02*
X118551942Y-122963028D01*
X118694800Y-122963028D01*
X118780514Y-122991600D01*
X118837657Y-123048742D01*
X118866228Y-123105885D01*
X118894800Y-123220171D01*
X118894800Y-123305885D01*
X118866228Y-123420171D01*
X118837657Y-123477314D01*
X118780514Y-123534457D01*
X118694800Y-123563028D01*
X118551942Y-123563028D01*
X119123371Y-123020171D02*
X119151942Y-122991600D01*
X119209085Y-122963028D01*
X119351942Y-122963028D01*
X119409085Y-122991600D01*
X119437657Y-123020171D01*
X119466228Y-123077314D01*
X119466228Y-123134457D01*
X119437657Y-123220171D01*
X119094800Y-123563028D01*
X119466228Y-123563028D01*
%TO.C,Q3*%
X118429657Y-108126171D02*
X118372514Y-108097600D01*
X118315371Y-108040457D01*
X118229657Y-107954742D01*
X118172514Y-107926171D01*
X118115371Y-107926171D01*
X118143942Y-108069028D02*
X118086800Y-108040457D01*
X118029657Y-107983314D01*
X118001085Y-107869028D01*
X118001085Y-107669028D01*
X118029657Y-107554742D01*
X118086800Y-107497600D01*
X118143942Y-107469028D01*
X118258228Y-107469028D01*
X118315371Y-107497600D01*
X118372514Y-107554742D01*
X118401085Y-107669028D01*
X118401085Y-107869028D01*
X118372514Y-107983314D01*
X118315371Y-108040457D01*
X118258228Y-108069028D01*
X118143942Y-108069028D01*
X118601085Y-107469028D02*
X118972514Y-107469028D01*
X118772514Y-107697600D01*
X118858228Y-107697600D01*
X118915371Y-107726171D01*
X118943942Y-107754742D01*
X118972514Y-107811885D01*
X118972514Y-107954742D01*
X118943942Y-108011885D01*
X118915371Y-108040457D01*
X118858228Y-108069028D01*
X118686800Y-108069028D01*
X118629657Y-108040457D01*
X118601085Y-108011885D01*
%TO.C,R6*%
X120587028Y-121359600D02*
X120301314Y-121559600D01*
X120587028Y-121702457D02*
X119987028Y-121702457D01*
X119987028Y-121473885D01*
X120015600Y-121416742D01*
X120044171Y-121388171D01*
X120101314Y-121359600D01*
X120187028Y-121359600D01*
X120244171Y-121388171D01*
X120272742Y-121416742D01*
X120301314Y-121473885D01*
X120301314Y-121702457D01*
X119987028Y-120845314D02*
X119987028Y-120959600D01*
X120015600Y-121016742D01*
X120044171Y-121045314D01*
X120129885Y-121102457D01*
X120244171Y-121131028D01*
X120472742Y-121131028D01*
X120529885Y-121102457D01*
X120558457Y-121073885D01*
X120587028Y-121016742D01*
X120587028Y-120902457D01*
X120558457Y-120845314D01*
X120529885Y-120816742D01*
X120472742Y-120788171D01*
X120329885Y-120788171D01*
X120272742Y-120816742D01*
X120244171Y-120845314D01*
X120215600Y-120902457D01*
X120215600Y-121016742D01*
X120244171Y-121073885D01*
X120272742Y-121102457D01*
X120329885Y-121131028D01*
%TO.C,R4*%
X118793200Y-106646628D02*
X118593200Y-106360914D01*
X118450342Y-106646628D02*
X118450342Y-106046628D01*
X118678914Y-106046628D01*
X118736057Y-106075200D01*
X118764628Y-106103771D01*
X118793200Y-106160914D01*
X118793200Y-106246628D01*
X118764628Y-106303771D01*
X118736057Y-106332342D01*
X118678914Y-106360914D01*
X118450342Y-106360914D01*
X119307485Y-106246628D02*
X119307485Y-106646628D01*
X119164628Y-106018057D02*
X119021771Y-106446628D01*
X119393200Y-106446628D01*
%TO.C,R1*%
X123517600Y-106646628D02*
X123317600Y-106360914D01*
X123174742Y-106646628D02*
X123174742Y-106046628D01*
X123403314Y-106046628D01*
X123460457Y-106075200D01*
X123489028Y-106103771D01*
X123517600Y-106160914D01*
X123517600Y-106246628D01*
X123489028Y-106303771D01*
X123460457Y-106332342D01*
X123403314Y-106360914D01*
X123174742Y-106360914D01*
X124089028Y-106646628D02*
X123746171Y-106646628D01*
X123917600Y-106646628D02*
X123917600Y-106046628D01*
X123860457Y-106132342D01*
X123803314Y-106189485D01*
X123746171Y-106218057D01*
%TO.C,C1*%
X173569285Y-115670000D02*
X173597857Y-115698571D01*
X173626428Y-115784285D01*
X173626428Y-115841428D01*
X173597857Y-115927142D01*
X173540714Y-115984285D01*
X173483571Y-116012857D01*
X173369285Y-116041428D01*
X173283571Y-116041428D01*
X173169285Y-116012857D01*
X173112142Y-115984285D01*
X173055000Y-115927142D01*
X173026428Y-115841428D01*
X173026428Y-115784285D01*
X173055000Y-115698571D01*
X173083571Y-115670000D01*
X173626428Y-115098571D02*
X173626428Y-115441428D01*
X173626428Y-115270000D02*
X173026428Y-115270000D01*
X173112142Y-115327142D01*
X173169285Y-115384285D01*
X173197857Y-115441428D01*
%TO.C,C2*%
X185244885Y-115670000D02*
X185273457Y-115698571D01*
X185302028Y-115784285D01*
X185302028Y-115841428D01*
X185273457Y-115927142D01*
X185216314Y-115984285D01*
X185159171Y-116012857D01*
X185044885Y-116041428D01*
X184959171Y-116041428D01*
X184844885Y-116012857D01*
X184787742Y-115984285D01*
X184730600Y-115927142D01*
X184702028Y-115841428D01*
X184702028Y-115784285D01*
X184730600Y-115698571D01*
X184759171Y-115670000D01*
X184759171Y-115441428D02*
X184730600Y-115412857D01*
X184702028Y-115355714D01*
X184702028Y-115212857D01*
X184730600Y-115155714D01*
X184759171Y-115127142D01*
X184816314Y-115098571D01*
X184873457Y-115098571D01*
X184959171Y-115127142D01*
X185302028Y-115470000D01*
X185302028Y-115098571D01*
%TO.C,C3*%
X171814285Y-115670000D02*
X171842857Y-115698571D01*
X171871428Y-115784285D01*
X171871428Y-115841428D01*
X171842857Y-115927142D01*
X171785714Y-115984285D01*
X171728571Y-116012857D01*
X171614285Y-116041428D01*
X171528571Y-116041428D01*
X171414285Y-116012857D01*
X171357142Y-115984285D01*
X171300000Y-115927142D01*
X171271428Y-115841428D01*
X171271428Y-115784285D01*
X171300000Y-115698571D01*
X171328571Y-115670000D01*
X171271428Y-115470000D02*
X171271428Y-115098571D01*
X171500000Y-115298571D01*
X171500000Y-115212857D01*
X171528571Y-115155714D01*
X171557142Y-115127142D01*
X171614285Y-115098571D01*
X171757142Y-115098571D01*
X171814285Y-115127142D01*
X171842857Y-115155714D01*
X171871428Y-115212857D01*
X171871428Y-115384285D01*
X171842857Y-115441428D01*
X171814285Y-115470000D01*
%TO.C,C4*%
X183505885Y-115670000D02*
X183534457Y-115698571D01*
X183563028Y-115784285D01*
X183563028Y-115841428D01*
X183534457Y-115927142D01*
X183477314Y-115984285D01*
X183420171Y-116012857D01*
X183305885Y-116041428D01*
X183220171Y-116041428D01*
X183105885Y-116012857D01*
X183048742Y-115984285D01*
X182991600Y-115927142D01*
X182963028Y-115841428D01*
X182963028Y-115784285D01*
X182991600Y-115698571D01*
X183020171Y-115670000D01*
X183163028Y-115155714D02*
X183563028Y-115155714D01*
X182934457Y-115298571D02*
X183363028Y-115441428D01*
X183363028Y-115070000D01*
%TO.C,J4*%
X168907000Y-139815628D02*
X168907000Y-140244200D01*
X168878428Y-140329914D01*
X168821285Y-140387057D01*
X168735571Y-140415628D01*
X168678428Y-140415628D01*
X169449857Y-140015628D02*
X169449857Y-140415628D01*
X169307000Y-139787057D02*
X169164142Y-140215628D01*
X169535571Y-140215628D01*
%TO.C,J5*%
X180017200Y-139815628D02*
X180017200Y-140244200D01*
X179988628Y-140329914D01*
X179931485Y-140387057D01*
X179845771Y-140415628D01*
X179788628Y-140415628D01*
X180588628Y-139815628D02*
X180302914Y-139815628D01*
X180274342Y-140101342D01*
X180302914Y-140072771D01*
X180360057Y-140044200D01*
X180502914Y-140044200D01*
X180560057Y-140072771D01*
X180588628Y-140101342D01*
X180617200Y-140158485D01*
X180617200Y-140301342D01*
X180588628Y-140358485D01*
X180560057Y-140387057D01*
X180502914Y-140415628D01*
X180360057Y-140415628D01*
X180302914Y-140387057D01*
X180274342Y-140358485D01*
%TO.C,L1*%
X172991428Y-121004000D02*
X172991428Y-121289714D01*
X172391428Y-121289714D01*
X172991428Y-120489714D02*
X172991428Y-120832571D01*
X172991428Y-120661142D02*
X172391428Y-120661142D01*
X172477142Y-120718285D01*
X172534285Y-120775428D01*
X172562857Y-120832571D01*
%TO.C,L2*%
X185945428Y-121004000D02*
X185945428Y-121289714D01*
X185345428Y-121289714D01*
X185402571Y-120832571D02*
X185374000Y-120804000D01*
X185345428Y-120746857D01*
X185345428Y-120604000D01*
X185374000Y-120546857D01*
X185402571Y-120518285D01*
X185459714Y-120489714D01*
X185516857Y-120489714D01*
X185602571Y-120518285D01*
X185945428Y-120861142D01*
X185945428Y-120489714D01*
%TO.C,C10*%
X173083285Y-95064714D02*
X173111857Y-95093285D01*
X173140428Y-95179000D01*
X173140428Y-95236142D01*
X173111857Y-95321857D01*
X173054714Y-95379000D01*
X172997571Y-95407571D01*
X172883285Y-95436142D01*
X172797571Y-95436142D01*
X172683285Y-95407571D01*
X172626142Y-95379000D01*
X172569000Y-95321857D01*
X172540428Y-95236142D01*
X172540428Y-95179000D01*
X172569000Y-95093285D01*
X172597571Y-95064714D01*
X173140428Y-94493285D02*
X173140428Y-94836142D01*
X173140428Y-94664714D02*
X172540428Y-94664714D01*
X172626142Y-94721857D01*
X172683285Y-94779000D01*
X172711857Y-94836142D01*
X172540428Y-94121857D02*
X172540428Y-94064714D01*
X172569000Y-94007571D01*
X172597571Y-93979000D01*
X172654714Y-93950428D01*
X172769000Y-93921857D01*
X172911857Y-93921857D01*
X173026142Y-93950428D01*
X173083285Y-93979000D01*
X173111857Y-94007571D01*
X173140428Y-94064714D01*
X173140428Y-94121857D01*
X173111857Y-94179000D01*
X173083285Y-94207571D01*
X173026142Y-94236142D01*
X172911857Y-94264714D01*
X172769000Y-94264714D01*
X172654714Y-94236142D01*
X172597571Y-94207571D01*
X172569000Y-94179000D01*
X172540428Y-94121857D01*
%TO.C,R14*%
X118761485Y-105173428D02*
X118561485Y-104887714D01*
X118418628Y-105173428D02*
X118418628Y-104573428D01*
X118647200Y-104573428D01*
X118704342Y-104602000D01*
X118732914Y-104630571D01*
X118761485Y-104687714D01*
X118761485Y-104773428D01*
X118732914Y-104830571D01*
X118704342Y-104859142D01*
X118647200Y-104887714D01*
X118418628Y-104887714D01*
X119332914Y-105173428D02*
X118990057Y-105173428D01*
X119161485Y-105173428D02*
X119161485Y-104573428D01*
X119104342Y-104659142D01*
X119047200Y-104716285D01*
X118990057Y-104744857D01*
X119847200Y-104773428D02*
X119847200Y-105173428D01*
X119704342Y-104544857D02*
X119561485Y-104973428D01*
X119932914Y-104973428D01*
%TO.C,R24*%
X167302285Y-124452428D02*
X167102285Y-124166714D01*
X166959428Y-124452428D02*
X166959428Y-123852428D01*
X167188000Y-123852428D01*
X167245142Y-123881000D01*
X167273714Y-123909571D01*
X167302285Y-123966714D01*
X167302285Y-124052428D01*
X167273714Y-124109571D01*
X167245142Y-124138142D01*
X167188000Y-124166714D01*
X166959428Y-124166714D01*
X167530857Y-123909571D02*
X167559428Y-123881000D01*
X167616571Y-123852428D01*
X167759428Y-123852428D01*
X167816571Y-123881000D01*
X167845142Y-123909571D01*
X167873714Y-123966714D01*
X167873714Y-124023857D01*
X167845142Y-124109571D01*
X167502285Y-124452428D01*
X167873714Y-124452428D01*
X168388000Y-124052428D02*
X168388000Y-124452428D01*
X168245142Y-123823857D02*
X168102285Y-124252428D01*
X168473714Y-124252428D01*
%TO.C,C9*%
X170737000Y-90448285D02*
X170708428Y-90476857D01*
X170622714Y-90505428D01*
X170565571Y-90505428D01*
X170479857Y-90476857D01*
X170422714Y-90419714D01*
X170394142Y-90362571D01*
X170365571Y-90248285D01*
X170365571Y-90162571D01*
X170394142Y-90048285D01*
X170422714Y-89991142D01*
X170479857Y-89934000D01*
X170565571Y-89905428D01*
X170622714Y-89905428D01*
X170708428Y-89934000D01*
X170737000Y-89962571D01*
X171022714Y-90505428D02*
X171137000Y-90505428D01*
X171194142Y-90476857D01*
X171222714Y-90448285D01*
X171279857Y-90362571D01*
X171308428Y-90248285D01*
X171308428Y-90019714D01*
X171279857Y-89962571D01*
X171251285Y-89934000D01*
X171194142Y-89905428D01*
X171079857Y-89905428D01*
X171022714Y-89934000D01*
X170994142Y-89962571D01*
X170965571Y-90019714D01*
X170965571Y-90162571D01*
X170994142Y-90219714D01*
X171022714Y-90248285D01*
X171079857Y-90276857D01*
X171194142Y-90276857D01*
X171251285Y-90248285D01*
X171279857Y-90219714D01*
X171308428Y-90162571D01*
%TO.C,R19*%
X172378428Y-85985714D02*
X172092714Y-86185714D01*
X172378428Y-86328571D02*
X171778428Y-86328571D01*
X171778428Y-86100000D01*
X171807000Y-86042857D01*
X171835571Y-86014285D01*
X171892714Y-85985714D01*
X171978428Y-85985714D01*
X172035571Y-86014285D01*
X172064142Y-86042857D01*
X172092714Y-86100000D01*
X172092714Y-86328571D01*
X172378428Y-85414285D02*
X172378428Y-85757142D01*
X172378428Y-85585714D02*
X171778428Y-85585714D01*
X171864142Y-85642857D01*
X171921285Y-85700000D01*
X171949857Y-85757142D01*
X172378428Y-85128571D02*
X172378428Y-85014285D01*
X172349857Y-84957142D01*
X172321285Y-84928571D01*
X172235571Y-84871428D01*
X172121285Y-84842857D01*
X171892714Y-84842857D01*
X171835571Y-84871428D01*
X171807000Y-84900000D01*
X171778428Y-84957142D01*
X171778428Y-85071428D01*
X171807000Y-85128571D01*
X171835571Y-85157142D01*
X171892714Y-85185714D01*
X172035571Y-85185714D01*
X172092714Y-85157142D01*
X172121285Y-85128571D01*
X172149857Y-85071428D01*
X172149857Y-84957142D01*
X172121285Y-84900000D01*
X172092714Y-84871428D01*
X172035571Y-84842857D01*
%TO.C,U11*%
X117947142Y-93196428D02*
X117947142Y-93682142D01*
X117975714Y-93739285D01*
X118004285Y-93767857D01*
X118061428Y-93796428D01*
X118175714Y-93796428D01*
X118232857Y-93767857D01*
X118261428Y-93739285D01*
X118290000Y-93682142D01*
X118290000Y-93196428D01*
X118890000Y-93796428D02*
X118547142Y-93796428D01*
X118718571Y-93796428D02*
X118718571Y-93196428D01*
X118661428Y-93282142D01*
X118604285Y-93339285D01*
X118547142Y-93367857D01*
X119461428Y-93796428D02*
X119118571Y-93796428D01*
X119290000Y-93796428D02*
X119290000Y-93196428D01*
X119232857Y-93282142D01*
X119175714Y-93339285D01*
X119118571Y-93367857D01*
%TO.C,C8*%
X159518600Y-107933085D02*
X159490028Y-107961657D01*
X159404314Y-107990228D01*
X159347171Y-107990228D01*
X159261457Y-107961657D01*
X159204314Y-107904514D01*
X159175742Y-107847371D01*
X159147171Y-107733085D01*
X159147171Y-107647371D01*
X159175742Y-107533085D01*
X159204314Y-107475942D01*
X159261457Y-107418800D01*
X159347171Y-107390228D01*
X159404314Y-107390228D01*
X159490028Y-107418800D01*
X159518600Y-107447371D01*
X159861457Y-107647371D02*
X159804314Y-107618800D01*
X159775742Y-107590228D01*
X159747171Y-107533085D01*
X159747171Y-107504514D01*
X159775742Y-107447371D01*
X159804314Y-107418800D01*
X159861457Y-107390228D01*
X159975742Y-107390228D01*
X160032885Y-107418800D01*
X160061457Y-107447371D01*
X160090028Y-107504514D01*
X160090028Y-107533085D01*
X160061457Y-107590228D01*
X160032885Y-107618800D01*
X159975742Y-107647371D01*
X159861457Y-107647371D01*
X159804314Y-107675942D01*
X159775742Y-107704514D01*
X159747171Y-107761657D01*
X159747171Y-107875942D01*
X159775742Y-107933085D01*
X159804314Y-107961657D01*
X159861457Y-107990228D01*
X159975742Y-107990228D01*
X160032885Y-107961657D01*
X160061457Y-107933085D01*
X160090028Y-107875942D01*
X160090028Y-107761657D01*
X160061457Y-107704514D01*
X160032885Y-107675942D01*
X159975742Y-107647371D01*
%TO.C,U10*%
X117947142Y-96696428D02*
X117947142Y-97182142D01*
X117975714Y-97239285D01*
X118004285Y-97267857D01*
X118061428Y-97296428D01*
X118175714Y-97296428D01*
X118232857Y-97267857D01*
X118261428Y-97239285D01*
X118290000Y-97182142D01*
X118290000Y-96696428D01*
X118890000Y-97296428D02*
X118547142Y-97296428D01*
X118718571Y-97296428D02*
X118718571Y-96696428D01*
X118661428Y-96782142D01*
X118604285Y-96839285D01*
X118547142Y-96867857D01*
X119261428Y-96696428D02*
X119318571Y-96696428D01*
X119375714Y-96725000D01*
X119404285Y-96753571D01*
X119432857Y-96810714D01*
X119461428Y-96925000D01*
X119461428Y-97067857D01*
X119432857Y-97182142D01*
X119404285Y-97239285D01*
X119375714Y-97267857D01*
X119318571Y-97296428D01*
X119261428Y-97296428D01*
X119204285Y-97267857D01*
X119175714Y-97239285D01*
X119147142Y-97182142D01*
X119118571Y-97067857D01*
X119118571Y-96925000D01*
X119147142Y-96810714D01*
X119175714Y-96753571D01*
X119204285Y-96725000D01*
X119261428Y-96696428D01*
%TO.C,R7*%
X175371428Y-115670000D02*
X175085714Y-115870000D01*
X175371428Y-116012857D02*
X174771428Y-116012857D01*
X174771428Y-115784285D01*
X174800000Y-115727142D01*
X174828571Y-115698571D01*
X174885714Y-115670000D01*
X174971428Y-115670000D01*
X175028571Y-115698571D01*
X175057142Y-115727142D01*
X175085714Y-115784285D01*
X175085714Y-116012857D01*
X174771428Y-115470000D02*
X174771428Y-115070000D01*
X175371428Y-115327142D01*
%TO.C,C14*%
X151811085Y-111313885D02*
X151782514Y-111342457D01*
X151696800Y-111371028D01*
X151639657Y-111371028D01*
X151553942Y-111342457D01*
X151496800Y-111285314D01*
X151468228Y-111228171D01*
X151439657Y-111113885D01*
X151439657Y-111028171D01*
X151468228Y-110913885D01*
X151496800Y-110856742D01*
X151553942Y-110799600D01*
X151639657Y-110771028D01*
X151696800Y-110771028D01*
X151782514Y-110799600D01*
X151811085Y-110828171D01*
X152382514Y-111371028D02*
X152039657Y-111371028D01*
X152211085Y-111371028D02*
X152211085Y-110771028D01*
X152153942Y-110856742D01*
X152096800Y-110913885D01*
X152039657Y-110942457D01*
X152896800Y-110971028D02*
X152896800Y-111371028D01*
X152753942Y-110742457D02*
X152611085Y-111171028D01*
X152982514Y-111171028D01*
%TO.C,C6*%
X156988085Y-114575200D02*
X157016657Y-114603771D01*
X157045228Y-114689485D01*
X157045228Y-114746628D01*
X157016657Y-114832342D01*
X156959514Y-114889485D01*
X156902371Y-114918057D01*
X156788085Y-114946628D01*
X156702371Y-114946628D01*
X156588085Y-114918057D01*
X156530942Y-114889485D01*
X156473800Y-114832342D01*
X156445228Y-114746628D01*
X156445228Y-114689485D01*
X156473800Y-114603771D01*
X156502371Y-114575200D01*
X156445228Y-114060914D02*
X156445228Y-114175200D01*
X156473800Y-114232342D01*
X156502371Y-114260914D01*
X156588085Y-114318057D01*
X156702371Y-114346628D01*
X156930942Y-114346628D01*
X156988085Y-114318057D01*
X157016657Y-114289485D01*
X157045228Y-114232342D01*
X157045228Y-114118057D01*
X157016657Y-114060914D01*
X156988085Y-114032342D01*
X156930942Y-114003771D01*
X156788085Y-114003771D01*
X156730942Y-114032342D01*
X156702371Y-114060914D01*
X156673800Y-114118057D01*
X156673800Y-114232342D01*
X156702371Y-114289485D01*
X156730942Y-114318057D01*
X156788085Y-114346628D01*
%TO.C,LED3*%
X125943371Y-102416428D02*
X125657657Y-102416428D01*
X125657657Y-101816428D01*
X126143371Y-102102142D02*
X126343371Y-102102142D01*
X126429085Y-102416428D02*
X126143371Y-102416428D01*
X126143371Y-101816428D01*
X126429085Y-101816428D01*
X126686228Y-102416428D02*
X126686228Y-101816428D01*
X126829085Y-101816428D01*
X126914800Y-101845000D01*
X126971942Y-101902142D01*
X127000514Y-101959285D01*
X127029085Y-102073571D01*
X127029085Y-102159285D01*
X127000514Y-102273571D01*
X126971942Y-102330714D01*
X126914800Y-102387857D01*
X126829085Y-102416428D01*
X126686228Y-102416428D01*
X127229085Y-101816428D02*
X127600514Y-101816428D01*
X127400514Y-102045000D01*
X127486228Y-102045000D01*
X127543371Y-102073571D01*
X127571942Y-102102142D01*
X127600514Y-102159285D01*
X127600514Y-102302142D01*
X127571942Y-102359285D01*
X127543371Y-102387857D01*
X127486228Y-102416428D01*
X127314800Y-102416428D01*
X127257657Y-102387857D01*
X127229085Y-102359285D01*
%TO.C,U1*%
X165944828Y-114932342D02*
X166430542Y-114932342D01*
X166487685Y-114903771D01*
X166516257Y-114875200D01*
X166544828Y-114818057D01*
X166544828Y-114703771D01*
X166516257Y-114646628D01*
X166487685Y-114618057D01*
X166430542Y-114589485D01*
X165944828Y-114589485D01*
X166544828Y-113989485D02*
X166544828Y-114332342D01*
X166544828Y-114160914D02*
X165944828Y-114160914D01*
X166030542Y-114218057D01*
X166087685Y-114275200D01*
X166116257Y-114332342D01*
%TO.C,R18*%
X179514285Y-90556228D02*
X179314285Y-90270514D01*
X179171428Y-90556228D02*
X179171428Y-89956228D01*
X179400000Y-89956228D01*
X179457142Y-89984800D01*
X179485714Y-90013371D01*
X179514285Y-90070514D01*
X179514285Y-90156228D01*
X179485714Y-90213371D01*
X179457142Y-90241942D01*
X179400000Y-90270514D01*
X179171428Y-90270514D01*
X180085714Y-90556228D02*
X179742857Y-90556228D01*
X179914285Y-90556228D02*
X179914285Y-89956228D01*
X179857142Y-90041942D01*
X179800000Y-90099085D01*
X179742857Y-90127657D01*
X180428571Y-90213371D02*
X180371428Y-90184800D01*
X180342857Y-90156228D01*
X180314285Y-90099085D01*
X180314285Y-90070514D01*
X180342857Y-90013371D01*
X180371428Y-89984800D01*
X180428571Y-89956228D01*
X180542857Y-89956228D01*
X180600000Y-89984800D01*
X180628571Y-90013371D01*
X180657142Y-90070514D01*
X180657142Y-90099085D01*
X180628571Y-90156228D01*
X180600000Y-90184800D01*
X180542857Y-90213371D01*
X180428571Y-90213371D01*
X180371428Y-90241942D01*
X180342857Y-90270514D01*
X180314285Y-90327657D01*
X180314285Y-90441942D01*
X180342857Y-90499085D01*
X180371428Y-90527657D01*
X180428571Y-90556228D01*
X180542857Y-90556228D01*
X180600000Y-90527657D01*
X180628571Y-90499085D01*
X180657142Y-90441942D01*
X180657142Y-90327657D01*
X180628571Y-90270514D01*
X180600000Y-90241942D01*
X180542857Y-90213371D01*
%TO.C,C16*%
X129205085Y-81748285D02*
X129176514Y-81776857D01*
X129090800Y-81805428D01*
X129033657Y-81805428D01*
X128947942Y-81776857D01*
X128890800Y-81719714D01*
X128862228Y-81662571D01*
X128833657Y-81548285D01*
X128833657Y-81462571D01*
X128862228Y-81348285D01*
X128890800Y-81291142D01*
X128947942Y-81234000D01*
X129033657Y-81205428D01*
X129090800Y-81205428D01*
X129176514Y-81234000D01*
X129205085Y-81262571D01*
X129776514Y-81805428D02*
X129433657Y-81805428D01*
X129605085Y-81805428D02*
X129605085Y-81205428D01*
X129547942Y-81291142D01*
X129490800Y-81348285D01*
X129433657Y-81376857D01*
X130290800Y-81205428D02*
X130176514Y-81205428D01*
X130119371Y-81234000D01*
X130090800Y-81262571D01*
X130033657Y-81348285D01*
X130005085Y-81462571D01*
X130005085Y-81691142D01*
X130033657Y-81748285D01*
X130062228Y-81776857D01*
X130119371Y-81805428D01*
X130233657Y-81805428D01*
X130290800Y-81776857D01*
X130319371Y-81748285D01*
X130347942Y-81691142D01*
X130347942Y-81548285D01*
X130319371Y-81491142D01*
X130290800Y-81462571D01*
X130233657Y-81434000D01*
X130119371Y-81434000D01*
X130062228Y-81462571D01*
X130033657Y-81491142D01*
X130005085Y-81548285D01*
%TO.C,R25*%
X167802285Y-132032428D02*
X167602285Y-131746714D01*
X167459428Y-132032428D02*
X167459428Y-131432428D01*
X167688000Y-131432428D01*
X167745142Y-131461000D01*
X167773714Y-131489571D01*
X167802285Y-131546714D01*
X167802285Y-131632428D01*
X167773714Y-131689571D01*
X167745142Y-131718142D01*
X167688000Y-131746714D01*
X167459428Y-131746714D01*
X168030857Y-131489571D02*
X168059428Y-131461000D01*
X168116571Y-131432428D01*
X168259428Y-131432428D01*
X168316571Y-131461000D01*
X168345142Y-131489571D01*
X168373714Y-131546714D01*
X168373714Y-131603857D01*
X168345142Y-131689571D01*
X168002285Y-132032428D01*
X168373714Y-132032428D01*
X168916571Y-131432428D02*
X168630857Y-131432428D01*
X168602285Y-131718142D01*
X168630857Y-131689571D01*
X168688000Y-131661000D01*
X168830857Y-131661000D01*
X168888000Y-131689571D01*
X168916571Y-131718142D01*
X168945142Y-131775285D01*
X168945142Y-131918142D01*
X168916571Y-131975285D01*
X168888000Y-132003857D01*
X168830857Y-132032428D01*
X168688000Y-132032428D01*
X168630857Y-132003857D01*
X168602285Y-131975285D01*
%TO.C,C13*%
X179801885Y-129449485D02*
X179773314Y-129478057D01*
X179687600Y-129506628D01*
X179630457Y-129506628D01*
X179544742Y-129478057D01*
X179487600Y-129420914D01*
X179459028Y-129363771D01*
X179430457Y-129249485D01*
X179430457Y-129163771D01*
X179459028Y-129049485D01*
X179487600Y-128992342D01*
X179544742Y-128935200D01*
X179630457Y-128906628D01*
X179687600Y-128906628D01*
X179773314Y-128935200D01*
X179801885Y-128963771D01*
X180373314Y-129506628D02*
X180030457Y-129506628D01*
X180201885Y-129506628D02*
X180201885Y-128906628D01*
X180144742Y-128992342D01*
X180087600Y-129049485D01*
X180030457Y-129078057D01*
X180573314Y-128906628D02*
X180944742Y-128906628D01*
X180744742Y-129135200D01*
X180830457Y-129135200D01*
X180887600Y-129163771D01*
X180916171Y-129192342D01*
X180944742Y-129249485D01*
X180944742Y-129392342D01*
X180916171Y-129449485D01*
X180887600Y-129478057D01*
X180830457Y-129506628D01*
X180659028Y-129506628D01*
X180601885Y-129478057D01*
X180573314Y-129449485D01*
%TO.C,Q5*%
X118429657Y-112748971D02*
X118372514Y-112720400D01*
X118315371Y-112663257D01*
X118229657Y-112577542D01*
X118172514Y-112548971D01*
X118115371Y-112548971D01*
X118143942Y-112691828D02*
X118086800Y-112663257D01*
X118029657Y-112606114D01*
X118001085Y-112491828D01*
X118001085Y-112291828D01*
X118029657Y-112177542D01*
X118086800Y-112120400D01*
X118143942Y-112091828D01*
X118258228Y-112091828D01*
X118315371Y-112120400D01*
X118372514Y-112177542D01*
X118401085Y-112291828D01*
X118401085Y-112491828D01*
X118372514Y-112606114D01*
X118315371Y-112663257D01*
X118258228Y-112691828D01*
X118143942Y-112691828D01*
X118943942Y-112091828D02*
X118658228Y-112091828D01*
X118629657Y-112377542D01*
X118658228Y-112348971D01*
X118715371Y-112320400D01*
X118858228Y-112320400D01*
X118915371Y-112348971D01*
X118943942Y-112377542D01*
X118972514Y-112434685D01*
X118972514Y-112577542D01*
X118943942Y-112634685D01*
X118915371Y-112663257D01*
X118858228Y-112691828D01*
X118715371Y-112691828D01*
X118658228Y-112663257D01*
X118629657Y-112634685D01*
%TO.C,C12*%
X176039285Y-90448285D02*
X176010714Y-90476857D01*
X175925000Y-90505428D01*
X175867857Y-90505428D01*
X175782142Y-90476857D01*
X175725000Y-90419714D01*
X175696428Y-90362571D01*
X175667857Y-90248285D01*
X175667857Y-90162571D01*
X175696428Y-90048285D01*
X175725000Y-89991142D01*
X175782142Y-89934000D01*
X175867857Y-89905428D01*
X175925000Y-89905428D01*
X176010714Y-89934000D01*
X176039285Y-89962571D01*
X176610714Y-90505428D02*
X176267857Y-90505428D01*
X176439285Y-90505428D02*
X176439285Y-89905428D01*
X176382142Y-89991142D01*
X176325000Y-90048285D01*
X176267857Y-90076857D01*
X176839285Y-89962571D02*
X176867857Y-89934000D01*
X176925000Y-89905428D01*
X177067857Y-89905428D01*
X177125000Y-89934000D01*
X177153571Y-89962571D01*
X177182142Y-90019714D01*
X177182142Y-90076857D01*
X177153571Y-90162571D01*
X176810714Y-90505428D01*
X177182142Y-90505428D01*
%TO.C,LED1*%
X121218971Y-133113428D02*
X120933257Y-133113428D01*
X120933257Y-132513428D01*
X121418971Y-132799142D02*
X121618971Y-132799142D01*
X121704685Y-133113428D02*
X121418971Y-133113428D01*
X121418971Y-132513428D01*
X121704685Y-132513428D01*
X121961828Y-133113428D02*
X121961828Y-132513428D01*
X122104685Y-132513428D01*
X122190400Y-132542000D01*
X122247542Y-132599142D01*
X122276114Y-132656285D01*
X122304685Y-132770571D01*
X122304685Y-132856285D01*
X122276114Y-132970571D01*
X122247542Y-133027714D01*
X122190400Y-133084857D01*
X122104685Y-133113428D01*
X121961828Y-133113428D01*
X122876114Y-133113428D02*
X122533257Y-133113428D01*
X122704685Y-133113428D02*
X122704685Y-132513428D01*
X122647542Y-132599142D01*
X122590400Y-132656285D01*
X122533257Y-132684857D01*
%TO.C,C15*%
X152801685Y-106487885D02*
X152773114Y-106516457D01*
X152687400Y-106545028D01*
X152630257Y-106545028D01*
X152544542Y-106516457D01*
X152487400Y-106459314D01*
X152458828Y-106402171D01*
X152430257Y-106287885D01*
X152430257Y-106202171D01*
X152458828Y-106087885D01*
X152487400Y-106030742D01*
X152544542Y-105973600D01*
X152630257Y-105945028D01*
X152687400Y-105945028D01*
X152773114Y-105973600D01*
X152801685Y-106002171D01*
X153373114Y-106545028D02*
X153030257Y-106545028D01*
X153201685Y-106545028D02*
X153201685Y-105945028D01*
X153144542Y-106030742D01*
X153087400Y-106087885D01*
X153030257Y-106116457D01*
X153915971Y-105945028D02*
X153630257Y-105945028D01*
X153601685Y-106230742D01*
X153630257Y-106202171D01*
X153687400Y-106173600D01*
X153830257Y-106173600D01*
X153887400Y-106202171D01*
X153915971Y-106230742D01*
X153944542Y-106287885D01*
X153944542Y-106430742D01*
X153915971Y-106487885D01*
X153887400Y-106516457D01*
X153830257Y-106545028D01*
X153687400Y-106545028D01*
X153630257Y-106516457D01*
X153601685Y-106487885D01*
%TO.C,R21*%
X153030285Y-126306228D02*
X152830285Y-126020514D01*
X152687428Y-126306228D02*
X152687428Y-125706228D01*
X152916000Y-125706228D01*
X152973142Y-125734800D01*
X153001714Y-125763371D01*
X153030285Y-125820514D01*
X153030285Y-125906228D01*
X153001714Y-125963371D01*
X152973142Y-125991942D01*
X152916000Y-126020514D01*
X152687428Y-126020514D01*
X153258857Y-125763371D02*
X153287428Y-125734800D01*
X153344571Y-125706228D01*
X153487428Y-125706228D01*
X153544571Y-125734800D01*
X153573142Y-125763371D01*
X153601714Y-125820514D01*
X153601714Y-125877657D01*
X153573142Y-125963371D01*
X153230285Y-126306228D01*
X153601714Y-126306228D01*
X154173142Y-126306228D02*
X153830285Y-126306228D01*
X154001714Y-126306228D02*
X154001714Y-125706228D01*
X153944571Y-125791942D01*
X153887428Y-125849085D01*
X153830285Y-125877657D01*
%TO.C,R9*%
X121688800Y-132300628D02*
X121488800Y-132014914D01*
X121345942Y-132300628D02*
X121345942Y-131700628D01*
X121574514Y-131700628D01*
X121631657Y-131729200D01*
X121660228Y-131757771D01*
X121688800Y-131814914D01*
X121688800Y-131900628D01*
X121660228Y-131957771D01*
X121631657Y-131986342D01*
X121574514Y-132014914D01*
X121345942Y-132014914D01*
X121974514Y-132300628D02*
X122088800Y-132300628D01*
X122145942Y-132272057D01*
X122174514Y-132243485D01*
X122231657Y-132157771D01*
X122260228Y-132043485D01*
X122260228Y-131814914D01*
X122231657Y-131757771D01*
X122203085Y-131729200D01*
X122145942Y-131700628D01*
X122031657Y-131700628D01*
X121974514Y-131729200D01*
X121945942Y-131757771D01*
X121917371Y-131814914D01*
X121917371Y-131957771D01*
X121945942Y-132014914D01*
X121974514Y-132043485D01*
X122031657Y-132072057D01*
X122145942Y-132072057D01*
X122203085Y-132043485D01*
X122231657Y-132014914D01*
X122260228Y-131957771D01*
%TO.C,U7*%
X141403428Y-122732742D02*
X141889142Y-122732742D01*
X141946285Y-122704171D01*
X141974857Y-122675600D01*
X142003428Y-122618457D01*
X142003428Y-122504171D01*
X141974857Y-122447028D01*
X141946285Y-122418457D01*
X141889142Y-122389885D01*
X141403428Y-122389885D01*
X141403428Y-122161314D02*
X141403428Y-121761314D01*
X142003428Y-122018457D01*
%TO.C,U5*%
X131342857Y-88371428D02*
X131342857Y-88857142D01*
X131371428Y-88914285D01*
X131400000Y-88942857D01*
X131457142Y-88971428D01*
X131571428Y-88971428D01*
X131628571Y-88942857D01*
X131657142Y-88914285D01*
X131685714Y-88857142D01*
X131685714Y-88371428D01*
X132257142Y-88371428D02*
X131971428Y-88371428D01*
X131942857Y-88657142D01*
X131971428Y-88628571D01*
X132028571Y-88600000D01*
X132171428Y-88600000D01*
X132228571Y-88628571D01*
X132257142Y-88657142D01*
X132285714Y-88714285D01*
X132285714Y-88857142D01*
X132257142Y-88914285D01*
X132228571Y-88942857D01*
X132171428Y-88971428D01*
X132028571Y-88971428D01*
X131971428Y-88942857D01*
X131942857Y-88914285D01*
%TO.C,R15*%
X166260285Y-91775428D02*
X166060285Y-91489714D01*
X165917428Y-91775428D02*
X165917428Y-91175428D01*
X166146000Y-91175428D01*
X166203142Y-91204000D01*
X166231714Y-91232571D01*
X166260285Y-91289714D01*
X166260285Y-91375428D01*
X166231714Y-91432571D01*
X166203142Y-91461142D01*
X166146000Y-91489714D01*
X165917428Y-91489714D01*
X166831714Y-91775428D02*
X166488857Y-91775428D01*
X166660285Y-91775428D02*
X166660285Y-91175428D01*
X166603142Y-91261142D01*
X166546000Y-91318285D01*
X166488857Y-91346857D01*
X167374571Y-91175428D02*
X167088857Y-91175428D01*
X167060285Y-91461142D01*
X167088857Y-91432571D01*
X167146000Y-91404000D01*
X167288857Y-91404000D01*
X167346000Y-91432571D01*
X167374571Y-91461142D01*
X167403142Y-91518285D01*
X167403142Y-91661142D01*
X167374571Y-91718285D01*
X167346000Y-91746857D01*
X167288857Y-91775428D01*
X167146000Y-91775428D01*
X167088857Y-91746857D01*
X167060285Y-91718285D01*
%TO.C,R13*%
X122977885Y-105173428D02*
X122777885Y-104887714D01*
X122635028Y-105173428D02*
X122635028Y-104573428D01*
X122863600Y-104573428D01*
X122920742Y-104602000D01*
X122949314Y-104630571D01*
X122977885Y-104687714D01*
X122977885Y-104773428D01*
X122949314Y-104830571D01*
X122920742Y-104859142D01*
X122863600Y-104887714D01*
X122635028Y-104887714D01*
X123549314Y-105173428D02*
X123206457Y-105173428D01*
X123377885Y-105173428D02*
X123377885Y-104573428D01*
X123320742Y-104659142D01*
X123263600Y-104716285D01*
X123206457Y-104744857D01*
X123749314Y-104573428D02*
X124120742Y-104573428D01*
X123920742Y-104802000D01*
X124006457Y-104802000D01*
X124063600Y-104830571D01*
X124092171Y-104859142D01*
X124120742Y-104916285D01*
X124120742Y-105059142D01*
X124092171Y-105116285D01*
X124063600Y-105144857D01*
X124006457Y-105173428D01*
X123835028Y-105173428D01*
X123777885Y-105144857D01*
X123749314Y-105116285D01*
%TO.C,J9*%
X127001628Y-84731200D02*
X127430200Y-84731200D01*
X127515914Y-84759771D01*
X127573057Y-84816914D01*
X127601628Y-84902628D01*
X127601628Y-84959771D01*
X127601628Y-84416914D02*
X127601628Y-84302628D01*
X127573057Y-84245485D01*
X127544485Y-84216914D01*
X127458771Y-84159771D01*
X127344485Y-84131200D01*
X127115914Y-84131200D01*
X127058771Y-84159771D01*
X127030200Y-84188342D01*
X127001628Y-84245485D01*
X127001628Y-84359771D01*
X127030200Y-84416914D01*
X127058771Y-84445485D01*
X127115914Y-84474057D01*
X127258771Y-84474057D01*
X127315914Y-84445485D01*
X127344485Y-84416914D01*
X127373057Y-84359771D01*
X127373057Y-84245485D01*
X127344485Y-84188342D01*
X127315914Y-84159771D01*
X127258771Y-84131200D01*
%TO.C,U8*%
X133841428Y-95682142D02*
X134327142Y-95682142D01*
X134384285Y-95653571D01*
X134412857Y-95625000D01*
X134441428Y-95567857D01*
X134441428Y-95453571D01*
X134412857Y-95396428D01*
X134384285Y-95367857D01*
X134327142Y-95339285D01*
X133841428Y-95339285D01*
X134098571Y-94967857D02*
X134070000Y-95025000D01*
X134041428Y-95053571D01*
X133984285Y-95082142D01*
X133955714Y-95082142D01*
X133898571Y-95053571D01*
X133870000Y-95025000D01*
X133841428Y-94967857D01*
X133841428Y-94853571D01*
X133870000Y-94796428D01*
X133898571Y-94767857D01*
X133955714Y-94739285D01*
X133984285Y-94739285D01*
X134041428Y-94767857D01*
X134070000Y-94796428D01*
X134098571Y-94853571D01*
X134098571Y-94967857D01*
X134127142Y-95025000D01*
X134155714Y-95053571D01*
X134212857Y-95082142D01*
X134327142Y-95082142D01*
X134384285Y-95053571D01*
X134412857Y-95025000D01*
X134441428Y-94967857D01*
X134441428Y-94853571D01*
X134412857Y-94796428D01*
X134384285Y-94767857D01*
X134327142Y-94739285D01*
X134212857Y-94739285D01*
X134155714Y-94767857D01*
X134127142Y-94796428D01*
X134098571Y-94853571D01*
%TO.C,LED4*%
X116392971Y-102023828D02*
X116107257Y-102023828D01*
X116107257Y-101423828D01*
X116592971Y-101709542D02*
X116792971Y-101709542D01*
X116878685Y-102023828D02*
X116592971Y-102023828D01*
X116592971Y-101423828D01*
X116878685Y-101423828D01*
X117135828Y-102023828D02*
X117135828Y-101423828D01*
X117278685Y-101423828D01*
X117364400Y-101452400D01*
X117421542Y-101509542D01*
X117450114Y-101566685D01*
X117478685Y-101680971D01*
X117478685Y-101766685D01*
X117450114Y-101880971D01*
X117421542Y-101938114D01*
X117364400Y-101995257D01*
X117278685Y-102023828D01*
X117135828Y-102023828D01*
X117992971Y-101623828D02*
X117992971Y-102023828D01*
X117850114Y-101395257D02*
X117707257Y-101823828D01*
X118078685Y-101823828D01*
%TO.C,LED2*%
X117662971Y-133113428D02*
X117377257Y-133113428D01*
X117377257Y-132513428D01*
X117862971Y-132799142D02*
X118062971Y-132799142D01*
X118148685Y-133113428D02*
X117862971Y-133113428D01*
X117862971Y-132513428D01*
X118148685Y-132513428D01*
X118405828Y-133113428D02*
X118405828Y-132513428D01*
X118548685Y-132513428D01*
X118634400Y-132542000D01*
X118691542Y-132599142D01*
X118720114Y-132656285D01*
X118748685Y-132770571D01*
X118748685Y-132856285D01*
X118720114Y-132970571D01*
X118691542Y-133027714D01*
X118634400Y-133084857D01*
X118548685Y-133113428D01*
X118405828Y-133113428D01*
X118977257Y-132570571D02*
X119005828Y-132542000D01*
X119062971Y-132513428D01*
X119205828Y-132513428D01*
X119262971Y-132542000D01*
X119291542Y-132570571D01*
X119320114Y-132627714D01*
X119320114Y-132684857D01*
X119291542Y-132770571D01*
X118948685Y-133113428D01*
X119320114Y-133113428D01*
%TO.C,R22*%
X153030285Y-125391828D02*
X152830285Y-125106114D01*
X152687428Y-125391828D02*
X152687428Y-124791828D01*
X152916000Y-124791828D01*
X152973142Y-124820400D01*
X153001714Y-124848971D01*
X153030285Y-124906114D01*
X153030285Y-124991828D01*
X153001714Y-125048971D01*
X152973142Y-125077542D01*
X152916000Y-125106114D01*
X152687428Y-125106114D01*
X153258857Y-124848971D02*
X153287428Y-124820400D01*
X153344571Y-124791828D01*
X153487428Y-124791828D01*
X153544571Y-124820400D01*
X153573142Y-124848971D01*
X153601714Y-124906114D01*
X153601714Y-124963257D01*
X153573142Y-125048971D01*
X153230285Y-125391828D01*
X153601714Y-125391828D01*
X153830285Y-124848971D02*
X153858857Y-124820400D01*
X153916000Y-124791828D01*
X154058857Y-124791828D01*
X154116000Y-124820400D01*
X154144571Y-124848971D01*
X154173142Y-124906114D01*
X154173142Y-124963257D01*
X154144571Y-125048971D01*
X153801714Y-125391828D01*
X154173142Y-125391828D01*
%TO.C,U3*%
X156616457Y-102744628D02*
X156616457Y-103230342D01*
X156645028Y-103287485D01*
X156673600Y-103316057D01*
X156730742Y-103344628D01*
X156845028Y-103344628D01*
X156902171Y-103316057D01*
X156930742Y-103287485D01*
X156959314Y-103230342D01*
X156959314Y-102744628D01*
X157187885Y-102744628D02*
X157559314Y-102744628D01*
X157359314Y-102973200D01*
X157445028Y-102973200D01*
X157502171Y-103001771D01*
X157530742Y-103030342D01*
X157559314Y-103087485D01*
X157559314Y-103230342D01*
X157530742Y-103287485D01*
X157502171Y-103316057D01*
X157445028Y-103344628D01*
X157273600Y-103344628D01*
X157216457Y-103316057D01*
X157187885Y-103287485D01*
%TO.C,J6*%
X132762800Y-139839828D02*
X132762800Y-140268400D01*
X132734228Y-140354114D01*
X132677085Y-140411257D01*
X132591371Y-140439828D01*
X132534228Y-140439828D01*
X133305657Y-139839828D02*
X133191371Y-139839828D01*
X133134228Y-139868400D01*
X133105657Y-139896971D01*
X133048514Y-139982685D01*
X133019942Y-140096971D01*
X133019942Y-140325542D01*
X133048514Y-140382685D01*
X133077085Y-140411257D01*
X133134228Y-140439828D01*
X133248514Y-140439828D01*
X133305657Y-140411257D01*
X133334228Y-140382685D01*
X133362800Y-140325542D01*
X133362800Y-140182685D01*
X133334228Y-140125542D01*
X133305657Y-140096971D01*
X133248514Y-140068400D01*
X133134228Y-140068400D01*
X133077085Y-140096971D01*
X133048514Y-140125542D01*
X133019942Y-140182685D01*
%TO.C,D3*%
X166790428Y-95502857D02*
X166190428Y-95502857D01*
X166190428Y-95360000D01*
X166219000Y-95274285D01*
X166276142Y-95217142D01*
X166333285Y-95188571D01*
X166447571Y-95160000D01*
X166533285Y-95160000D01*
X166647571Y-95188571D01*
X166704714Y-95217142D01*
X166761857Y-95274285D01*
X166790428Y-95360000D01*
X166790428Y-95502857D01*
X166190428Y-94960000D02*
X166190428Y-94588571D01*
X166419000Y-94788571D01*
X166419000Y-94702857D01*
X166447571Y-94645714D01*
X166476142Y-94617142D01*
X166533285Y-94588571D01*
X166676142Y-94588571D01*
X166733285Y-94617142D01*
X166761857Y-94645714D01*
X166790428Y-94702857D01*
X166790428Y-94874285D01*
X166761857Y-94931428D01*
X166733285Y-94960000D01*
%TO.C,R23*%
X136652285Y-100852428D02*
X136452285Y-100566714D01*
X136309428Y-100852428D02*
X136309428Y-100252428D01*
X136538000Y-100252428D01*
X136595142Y-100281000D01*
X136623714Y-100309571D01*
X136652285Y-100366714D01*
X136652285Y-100452428D01*
X136623714Y-100509571D01*
X136595142Y-100538142D01*
X136538000Y-100566714D01*
X136309428Y-100566714D01*
X136880857Y-100309571D02*
X136909428Y-100281000D01*
X136966571Y-100252428D01*
X137109428Y-100252428D01*
X137166571Y-100281000D01*
X137195142Y-100309571D01*
X137223714Y-100366714D01*
X137223714Y-100423857D01*
X137195142Y-100509571D01*
X136852285Y-100852428D01*
X137223714Y-100852428D01*
X137423714Y-100252428D02*
X137795142Y-100252428D01*
X137595142Y-100481000D01*
X137680857Y-100481000D01*
X137738000Y-100509571D01*
X137766571Y-100538142D01*
X137795142Y-100595285D01*
X137795142Y-100738142D01*
X137766571Y-100795285D01*
X137738000Y-100823857D01*
X137680857Y-100852428D01*
X137509428Y-100852428D01*
X137452285Y-100823857D01*
X137423714Y-100795285D01*
%TO.C,J7*%
X154362600Y-139966828D02*
X154362600Y-140395400D01*
X154334028Y-140481114D01*
X154276885Y-140538257D01*
X154191171Y-140566828D01*
X154134028Y-140566828D01*
X154591171Y-139966828D02*
X154991171Y-139966828D01*
X154734028Y-140566828D01*
%TO.C,L3*%
X174398000Y-113276028D02*
X174112285Y-113276028D01*
X174112285Y-112676028D01*
X174540857Y-112676028D02*
X174912285Y-112676028D01*
X174712285Y-112904600D01*
X174798000Y-112904600D01*
X174855142Y-112933171D01*
X174883714Y-112961742D01*
X174912285Y-113018885D01*
X174912285Y-113161742D01*
X174883714Y-113218885D01*
X174855142Y-113247457D01*
X174798000Y-113276028D01*
X174626571Y-113276028D01*
X174569428Y-113247457D01*
X174540857Y-113218885D01*
%TO.C,R8*%
X187068228Y-115670000D02*
X186782514Y-115870000D01*
X187068228Y-116012857D02*
X186468228Y-116012857D01*
X186468228Y-115784285D01*
X186496800Y-115727142D01*
X186525371Y-115698571D01*
X186582514Y-115670000D01*
X186668228Y-115670000D01*
X186725371Y-115698571D01*
X186753942Y-115727142D01*
X186782514Y-115784285D01*
X186782514Y-116012857D01*
X186725371Y-115327142D02*
X186696800Y-115384285D01*
X186668228Y-115412857D01*
X186611085Y-115441428D01*
X186582514Y-115441428D01*
X186525371Y-115412857D01*
X186496800Y-115384285D01*
X186468228Y-115327142D01*
X186468228Y-115212857D01*
X186496800Y-115155714D01*
X186525371Y-115127142D01*
X186582514Y-115098571D01*
X186611085Y-115098571D01*
X186668228Y-115127142D01*
X186696800Y-115155714D01*
X186725371Y-115212857D01*
X186725371Y-115327142D01*
X186753942Y-115384285D01*
X186782514Y-115412857D01*
X186839657Y-115441428D01*
X186953942Y-115441428D01*
X187011085Y-115412857D01*
X187039657Y-115384285D01*
X187068228Y-115327142D01*
X187068228Y-115212857D01*
X187039657Y-115155714D01*
X187011085Y-115127142D01*
X186953942Y-115098571D01*
X186839657Y-115098571D01*
X186782514Y-115127142D01*
X186753942Y-115155714D01*
X186725371Y-115212857D01*
%TO.C,D4*%
X178522142Y-96982428D02*
X178522142Y-96382428D01*
X178665000Y-96382428D01*
X178750714Y-96411000D01*
X178807857Y-96468142D01*
X178836428Y-96525285D01*
X178865000Y-96639571D01*
X178865000Y-96725285D01*
X178836428Y-96839571D01*
X178807857Y-96896714D01*
X178750714Y-96953857D01*
X178665000Y-96982428D01*
X178522142Y-96982428D01*
X179379285Y-96582428D02*
X179379285Y-96982428D01*
X179236428Y-96353857D02*
X179093571Y-96782428D01*
X179465000Y-96782428D01*
%TO.C,R10*%
X117847085Y-132300628D02*
X117647085Y-132014914D01*
X117504228Y-132300628D02*
X117504228Y-131700628D01*
X117732800Y-131700628D01*
X117789942Y-131729200D01*
X117818514Y-131757771D01*
X117847085Y-131814914D01*
X117847085Y-131900628D01*
X117818514Y-131957771D01*
X117789942Y-131986342D01*
X117732800Y-132014914D01*
X117504228Y-132014914D01*
X118418514Y-132300628D02*
X118075657Y-132300628D01*
X118247085Y-132300628D02*
X118247085Y-131700628D01*
X118189942Y-131786342D01*
X118132800Y-131843485D01*
X118075657Y-131872057D01*
X118789942Y-131700628D02*
X118847085Y-131700628D01*
X118904228Y-131729200D01*
X118932800Y-131757771D01*
X118961371Y-131814914D01*
X118989942Y-131929200D01*
X118989942Y-132072057D01*
X118961371Y-132186342D01*
X118932800Y-132243485D01*
X118904228Y-132272057D01*
X118847085Y-132300628D01*
X118789942Y-132300628D01*
X118732800Y-132272057D01*
X118704228Y-132243485D01*
X118675657Y-132186342D01*
X118647085Y-132072057D01*
X118647085Y-131929200D01*
X118675657Y-131814914D01*
X118704228Y-131757771D01*
X118732800Y-131729200D01*
X118789942Y-131700628D01*
%TO.C,Q6*%
X124271657Y-111783771D02*
X124214514Y-111755200D01*
X124157371Y-111698057D01*
X124071657Y-111612342D01*
X124014514Y-111583771D01*
X123957371Y-111583771D01*
X123985942Y-111726628D02*
X123928800Y-111698057D01*
X123871657Y-111640914D01*
X123843085Y-111526628D01*
X123843085Y-111326628D01*
X123871657Y-111212342D01*
X123928800Y-111155200D01*
X123985942Y-111126628D01*
X124100228Y-111126628D01*
X124157371Y-111155200D01*
X124214514Y-111212342D01*
X124243085Y-111326628D01*
X124243085Y-111526628D01*
X124214514Y-111640914D01*
X124157371Y-111698057D01*
X124100228Y-111726628D01*
X123985942Y-111726628D01*
X124757371Y-111126628D02*
X124643085Y-111126628D01*
X124585942Y-111155200D01*
X124557371Y-111183771D01*
X124500228Y-111269485D01*
X124471657Y-111383771D01*
X124471657Y-111612342D01*
X124500228Y-111669485D01*
X124528800Y-111698057D01*
X124585942Y-111726628D01*
X124700228Y-111726628D01*
X124757371Y-111698057D01*
X124785942Y-111669485D01*
X124814514Y-111612342D01*
X124814514Y-111469485D01*
X124785942Y-111412342D01*
X124757371Y-111383771D01*
X124700228Y-111355200D01*
X124585942Y-111355200D01*
X124528800Y-111383771D01*
X124500228Y-111412342D01*
X124471657Y-111469485D01*
%TO.C,C11*%
X175242285Y-95064714D02*
X175270857Y-95093285D01*
X175299428Y-95179000D01*
X175299428Y-95236142D01*
X175270857Y-95321857D01*
X175213714Y-95379000D01*
X175156571Y-95407571D01*
X175042285Y-95436142D01*
X174956571Y-95436142D01*
X174842285Y-95407571D01*
X174785142Y-95379000D01*
X174728000Y-95321857D01*
X174699428Y-95236142D01*
X174699428Y-95179000D01*
X174728000Y-95093285D01*
X174756571Y-95064714D01*
X175299428Y-94493285D02*
X175299428Y-94836142D01*
X175299428Y-94664714D02*
X174699428Y-94664714D01*
X174785142Y-94721857D01*
X174842285Y-94779000D01*
X174870857Y-94836142D01*
X175299428Y-93921857D02*
X175299428Y-94264714D01*
X175299428Y-94093285D02*
X174699428Y-94093285D01*
X174785142Y-94150428D01*
X174842285Y-94207571D01*
X174870857Y-94264714D01*
%TO.C,C7*%
X161306085Y-109800000D02*
X161334657Y-109828571D01*
X161363228Y-109914285D01*
X161363228Y-109971428D01*
X161334657Y-110057142D01*
X161277514Y-110114285D01*
X161220371Y-110142857D01*
X161106085Y-110171428D01*
X161020371Y-110171428D01*
X160906085Y-110142857D01*
X160848942Y-110114285D01*
X160791800Y-110057142D01*
X160763228Y-109971428D01*
X160763228Y-109914285D01*
X160791800Y-109828571D01*
X160820371Y-109800000D01*
X160763228Y-109600000D02*
X160763228Y-109200000D01*
X161363228Y-109457142D01*
%TO.C,R20*%
X176061428Y-85985714D02*
X175775714Y-86185714D01*
X176061428Y-86328571D02*
X175461428Y-86328571D01*
X175461428Y-86100000D01*
X175490000Y-86042857D01*
X175518571Y-86014285D01*
X175575714Y-85985714D01*
X175661428Y-85985714D01*
X175718571Y-86014285D01*
X175747142Y-86042857D01*
X175775714Y-86100000D01*
X175775714Y-86328571D01*
X175518571Y-85757142D02*
X175490000Y-85728571D01*
X175461428Y-85671428D01*
X175461428Y-85528571D01*
X175490000Y-85471428D01*
X175518571Y-85442857D01*
X175575714Y-85414285D01*
X175632857Y-85414285D01*
X175718571Y-85442857D01*
X176061428Y-85785714D01*
X176061428Y-85414285D01*
X175461428Y-85042857D02*
X175461428Y-84985714D01*
X175490000Y-84928571D01*
X175518571Y-84900000D01*
X175575714Y-84871428D01*
X175690000Y-84842857D01*
X175832857Y-84842857D01*
X175947142Y-84871428D01*
X176004285Y-84900000D01*
X176032857Y-84928571D01*
X176061428Y-84985714D01*
X176061428Y-85042857D01*
X176032857Y-85100000D01*
X176004285Y-85128571D01*
X175947142Y-85157142D01*
X175832857Y-85185714D01*
X175690000Y-85185714D01*
X175575714Y-85157142D01*
X175518571Y-85128571D01*
X175490000Y-85100000D01*
X175461428Y-85042857D01*
%TO.C,R16*%
X166260285Y-93299428D02*
X166060285Y-93013714D01*
X165917428Y-93299428D02*
X165917428Y-92699428D01*
X166146000Y-92699428D01*
X166203142Y-92728000D01*
X166231714Y-92756571D01*
X166260285Y-92813714D01*
X166260285Y-92899428D01*
X166231714Y-92956571D01*
X166203142Y-92985142D01*
X166146000Y-93013714D01*
X165917428Y-93013714D01*
X166831714Y-93299428D02*
X166488857Y-93299428D01*
X166660285Y-93299428D02*
X166660285Y-92699428D01*
X166603142Y-92785142D01*
X166546000Y-92842285D01*
X166488857Y-92870857D01*
X167346000Y-92699428D02*
X167231714Y-92699428D01*
X167174571Y-92728000D01*
X167146000Y-92756571D01*
X167088857Y-92842285D01*
X167060285Y-92956571D01*
X167060285Y-93185142D01*
X167088857Y-93242285D01*
X167117428Y-93270857D01*
X167174571Y-93299428D01*
X167288857Y-93299428D01*
X167346000Y-93270857D01*
X167374571Y-93242285D01*
X167403142Y-93185142D01*
X167403142Y-93042285D01*
X167374571Y-92985142D01*
X167346000Y-92956571D01*
X167288857Y-92928000D01*
X167174571Y-92928000D01*
X167117428Y-92956571D01*
X167088857Y-92985142D01*
X167060285Y-93042285D01*
%TO.C,R17*%
X181116028Y-93413714D02*
X180830314Y-93613714D01*
X181116028Y-93756571D02*
X180516028Y-93756571D01*
X180516028Y-93528000D01*
X180544600Y-93470857D01*
X180573171Y-93442285D01*
X180630314Y-93413714D01*
X180716028Y-93413714D01*
X180773171Y-93442285D01*
X180801742Y-93470857D01*
X180830314Y-93528000D01*
X180830314Y-93756571D01*
X181116028Y-92842285D02*
X181116028Y-93185142D01*
X181116028Y-93013714D02*
X180516028Y-93013714D01*
X180601742Y-93070857D01*
X180658885Y-93128000D01*
X180687457Y-93185142D01*
X180516028Y-92642285D02*
X180516028Y-92242285D01*
X181116028Y-92499428D01*
%TO.C,C5*%
X153620800Y-117359085D02*
X153592228Y-117387657D01*
X153506514Y-117416228D01*
X153449371Y-117416228D01*
X153363657Y-117387657D01*
X153306514Y-117330514D01*
X153277942Y-117273371D01*
X153249371Y-117159085D01*
X153249371Y-117073371D01*
X153277942Y-116959085D01*
X153306514Y-116901942D01*
X153363657Y-116844800D01*
X153449371Y-116816228D01*
X153506514Y-116816228D01*
X153592228Y-116844800D01*
X153620800Y-116873371D01*
X154163657Y-116816228D02*
X153877942Y-116816228D01*
X153849371Y-117101942D01*
X153877942Y-117073371D01*
X153935085Y-117044800D01*
X154077942Y-117044800D01*
X154135085Y-117073371D01*
X154163657Y-117101942D01*
X154192228Y-117159085D01*
X154192228Y-117301942D01*
X154163657Y-117359085D01*
X154135085Y-117387657D01*
X154077942Y-117416228D01*
X153935085Y-117416228D01*
X153877942Y-117387657D01*
X153849371Y-117359085D01*
%TO.C,R11*%
X119164628Y-115701714D02*
X118878914Y-115901714D01*
X119164628Y-116044571D02*
X118564628Y-116044571D01*
X118564628Y-115816000D01*
X118593200Y-115758857D01*
X118621771Y-115730285D01*
X118678914Y-115701714D01*
X118764628Y-115701714D01*
X118821771Y-115730285D01*
X118850342Y-115758857D01*
X118878914Y-115816000D01*
X118878914Y-116044571D01*
X119164628Y-115130285D02*
X119164628Y-115473142D01*
X119164628Y-115301714D02*
X118564628Y-115301714D01*
X118650342Y-115358857D01*
X118707485Y-115416000D01*
X118736057Y-115473142D01*
X119164628Y-114558857D02*
X119164628Y-114901714D01*
X119164628Y-114730285D02*
X118564628Y-114730285D01*
X118650342Y-114787428D01*
X118707485Y-114844571D01*
X118736057Y-114901714D01*
%TO.C,U4*%
X129414628Y-122732742D02*
X129900342Y-122732742D01*
X129957485Y-122704171D01*
X129986057Y-122675600D01*
X130014628Y-122618457D01*
X130014628Y-122504171D01*
X129986057Y-122447028D01*
X129957485Y-122418457D01*
X129900342Y-122389885D01*
X129414628Y-122389885D01*
X129614628Y-121847028D02*
X130014628Y-121847028D01*
X129386057Y-121989885D02*
X129814628Y-122132742D01*
X129814628Y-121761314D01*
%TO.C,U9*%
X133761428Y-97532142D02*
X134247142Y-97532142D01*
X134304285Y-97503571D01*
X134332857Y-97475000D01*
X134361428Y-97417857D01*
X134361428Y-97303571D01*
X134332857Y-97246428D01*
X134304285Y-97217857D01*
X134247142Y-97189285D01*
X133761428Y-97189285D01*
X134361428Y-96875000D02*
X134361428Y-96760714D01*
X134332857Y-96703571D01*
X134304285Y-96675000D01*
X134218571Y-96617857D01*
X134104285Y-96589285D01*
X133875714Y-96589285D01*
X133818571Y-96617857D01*
X133790000Y-96646428D01*
X133761428Y-96703571D01*
X133761428Y-96817857D01*
X133790000Y-96875000D01*
X133818571Y-96903571D01*
X133875714Y-96932142D01*
X134018571Y-96932142D01*
X134075714Y-96903571D01*
X134104285Y-96875000D01*
X134132857Y-96817857D01*
X134132857Y-96703571D01*
X134104285Y-96646428D01*
X134075714Y-96617857D01*
X134018571Y-96589285D01*
%TO.C,U6*%
X133742857Y-81771428D02*
X133742857Y-82257142D01*
X133771428Y-82314285D01*
X133800000Y-82342857D01*
X133857142Y-82371428D01*
X133971428Y-82371428D01*
X134028571Y-82342857D01*
X134057142Y-82314285D01*
X134085714Y-82257142D01*
X134085714Y-81771428D01*
X134628571Y-81771428D02*
X134514285Y-81771428D01*
X134457142Y-81800000D01*
X134428571Y-81828571D01*
X134371428Y-81914285D01*
X134342857Y-82028571D01*
X134342857Y-82257142D01*
X134371428Y-82314285D01*
X134400000Y-82342857D01*
X134457142Y-82371428D01*
X134571428Y-82371428D01*
X134628571Y-82342857D01*
X134657142Y-82314285D01*
X134685714Y-82257142D01*
X134685714Y-82114285D01*
X134657142Y-82057142D01*
X134628571Y-82028571D01*
X134571428Y-82000000D01*
X134457142Y-82000000D01*
X134400000Y-82028571D01*
X134371428Y-82057142D01*
X134342857Y-82114285D01*
%TO.C,R12*%
X127902228Y-116057314D02*
X127616514Y-116257314D01*
X127902228Y-116400171D02*
X127302228Y-116400171D01*
X127302228Y-116171600D01*
X127330800Y-116114457D01*
X127359371Y-116085885D01*
X127416514Y-116057314D01*
X127502228Y-116057314D01*
X127559371Y-116085885D01*
X127587942Y-116114457D01*
X127616514Y-116171600D01*
X127616514Y-116400171D01*
X127902228Y-115485885D02*
X127902228Y-115828742D01*
X127902228Y-115657314D02*
X127302228Y-115657314D01*
X127387942Y-115714457D01*
X127445085Y-115771600D01*
X127473657Y-115828742D01*
X127359371Y-115257314D02*
X127330800Y-115228742D01*
X127302228Y-115171600D01*
X127302228Y-115028742D01*
X127330800Y-114971600D01*
X127359371Y-114943028D01*
X127416514Y-114914457D01*
X127473657Y-114914457D01*
X127559371Y-114943028D01*
X127902228Y-115285885D01*
X127902228Y-114914457D01*
%TO.C,U2*%
X171492857Y-87924228D02*
X171492857Y-88409942D01*
X171521428Y-88467085D01*
X171550000Y-88495657D01*
X171607142Y-88524228D01*
X171721428Y-88524228D01*
X171778571Y-88495657D01*
X171807142Y-88467085D01*
X171835714Y-88409942D01*
X171835714Y-87924228D01*
X172092857Y-87981371D02*
X172121428Y-87952800D01*
X172178571Y-87924228D01*
X172321428Y-87924228D01*
X172378571Y-87952800D01*
X172407142Y-87981371D01*
X172435714Y-88038514D01*
X172435714Y-88095657D01*
X172407142Y-88181371D01*
X172064285Y-88524228D01*
X172435714Y-88524228D01*
D14*
%TO.C,J1*%
X129433800Y-135836400D02*
X129339800Y-135929400D01*
X125098800Y-131495400D02*
X125098800Y-139215400D01*
X125098800Y-137655400D02*
X132218800Y-137655400D01*
X124858800Y-139455400D02*
X125258800Y-139455400D01*
X125098800Y-139215400D02*
X132218800Y-139215400D01*
X132218800Y-131495400D02*
X132218800Y-139215400D01*
X131478800Y-133380400D02*
X131384800Y-133474400D01*
X129263800Y-135596400D02*
X129134800Y-135724400D01*
X131683800Y-133586400D02*
X131554800Y-133714400D01*
X124858800Y-138815400D02*
X124858800Y-139455400D01*
X125098800Y-138755400D02*
X132218800Y-138755400D01*
X125098800Y-131495400D02*
X132218800Y-131495400D01*
X125468799Y-133789400D02*
G75*
G03*
X125483442Y-135545294I1439999J-866000D01*
G01*
X126908800Y-136335400D02*
G75*
G03*
X127799064Y-136080121I3J1679990D01*
G01*
X128333800Y-135546400D02*
G75*
G03*
X128334304Y-133765207I-1425003J891000D01*
G01*
X126042800Y-136095400D02*
G75*
G03*
X126937474Y-136335499I866003J1440014D01*
G01*
X127774800Y-133215399D02*
G75*
G03*
X126018906Y-133230042I-866000J-1439999D01*
G01*
X132088800Y-134655400D02*
G75*
G03*
X132088800Y-134655400I-1680000J0D01*
G01*
%TO.C,J2*%
X118185800Y-135596400D02*
X118056800Y-135724400D01*
X113780800Y-138815400D02*
X113780800Y-139455400D01*
X124105800Y-133586400D02*
X123976800Y-133714400D01*
X120605800Y-133586400D02*
X120476800Y-133714400D01*
X118355800Y-135836400D02*
X118261800Y-135929400D01*
X124640800Y-131495400D02*
X124640800Y-139215400D01*
X114020800Y-139215400D02*
X124640800Y-139215400D01*
X114020800Y-138755400D02*
X124640800Y-138755400D01*
X121685800Y-135596400D02*
X121556800Y-135724400D01*
X121855800Y-135836400D02*
X121761800Y-135929400D01*
X123900800Y-133380400D02*
X123806800Y-133474400D01*
X114020800Y-131495400D02*
X124640800Y-131495400D01*
X114020800Y-131495400D02*
X114020800Y-139215400D01*
X120400800Y-133380400D02*
X120306800Y-133474400D01*
X113780800Y-139455400D02*
X114180800Y-139455400D01*
X114020800Y-137655400D02*
X124640800Y-137655400D01*
X115830800Y-136335400D02*
G75*
G03*
X116721064Y-136080121I3J1679990D01*
G01*
X114964800Y-136095400D02*
G75*
G03*
X115859474Y-136335499I866003J1440014D01*
G01*
X114390799Y-133789400D02*
G75*
G03*
X114405442Y-135545294I1439999J-866000D01*
G01*
X116696800Y-133215399D02*
G75*
G03*
X114940906Y-133230042I-866000J-1439999D01*
G01*
X117255800Y-135546400D02*
G75*
G03*
X117256304Y-133765207I-1425003J891000D01*
G01*
X121010800Y-134655400D02*
G75*
G03*
X121010800Y-134655400I-1680000J0D01*
G01*
X124510800Y-134655400D02*
G75*
G03*
X124510800Y-134655400I-1680000J0D01*
G01*
%TO.C,J3*%
X120000000Y-102030000D02*
X118670000Y-102030000D01*
X121270000Y-102030000D02*
X123870000Y-102030000D01*
X121270000Y-99370000D02*
X123870000Y-99370000D01*
X121270000Y-102030000D02*
X121270000Y-99370000D01*
X123870000Y-102030000D02*
X123870000Y-99370000D01*
X118670000Y-102030000D02*
X118670000Y-100700000D01*
%TO.C,Q1*%
X125659700Y-107335000D02*
X126309700Y-107335000D01*
X125659700Y-110455000D02*
X126309700Y-110455000D01*
X125659700Y-110455000D02*
X125009700Y-110455000D01*
X125659700Y-107335000D02*
X123984700Y-107335000D01*
%TO.C,Q2*%
X125076000Y-121693700D02*
X125076000Y-120018700D01*
X121956000Y-121693700D02*
X121956000Y-122343700D01*
X121956000Y-121693700D02*
X121956000Y-121043700D01*
X125076000Y-121693700D02*
X125076000Y-122343700D01*
%TO.C,Q4*%
X118218000Y-121693700D02*
X118218000Y-120018700D01*
X115098000Y-121693700D02*
X115098000Y-122343700D01*
X115098000Y-121693700D02*
X115098000Y-121043700D01*
X118218000Y-121693700D02*
X118218000Y-122343700D01*
%TO.C,R2*%
X124352000Y-115911858D02*
X124352000Y-115437342D01*
X125397000Y-115911858D02*
X125397000Y-115437342D01*
%TO.C,R3*%
X125533500Y-121022342D02*
X125533500Y-121496858D01*
X126578500Y-121022342D02*
X126578500Y-121496858D01*
%TO.C,R5*%
X115589000Y-115911858D02*
X115589000Y-115437342D01*
X116634000Y-115911858D02*
X116634000Y-115437342D01*
%TO.C,D1*%
X125202400Y-123866400D02*
X120902400Y-123866400D01*
X120902400Y-125866400D02*
X125202400Y-125866400D01*
X125202400Y-125866400D02*
X125202400Y-123866400D01*
%TO.C,D2*%
X119322400Y-123866400D02*
X115022400Y-123866400D01*
X115022400Y-125866400D02*
X119322400Y-125866400D01*
X115022400Y-123866400D02*
X115022400Y-125866400D01*
%TO.C,Q3*%
X116909700Y-107335000D02*
X115234700Y-107335000D01*
X116909700Y-110455000D02*
X117559700Y-110455000D01*
X116909700Y-107335000D02*
X117559700Y-107335000D01*
X116909700Y-110455000D02*
X116259700Y-110455000D01*
%TO.C,R6*%
X118675500Y-121022342D02*
X118675500Y-121496858D01*
X119720500Y-121022342D02*
X119720500Y-121496858D01*
%TO.C,R4*%
X116672442Y-105872500D02*
X117146958Y-105872500D01*
X116672442Y-106917500D02*
X117146958Y-106917500D01*
%TO.C,R1*%
X125896958Y-105872500D02*
X125422442Y-105872500D01*
X125896958Y-106917500D02*
X125422442Y-106917500D01*
%TO.C,C1*%
X172840000Y-117765580D02*
X172840000Y-117484420D01*
X173860000Y-117765580D02*
X173860000Y-117484420D01*
%TO.C,C2*%
X185551600Y-117793380D02*
X185551600Y-117512220D01*
X184531600Y-117793380D02*
X184531600Y-117512220D01*
%TO.C,C3*%
X172110000Y-117765580D02*
X172110000Y-117484420D01*
X171090000Y-117765580D02*
X171090000Y-117484420D01*
%TO.C,C4*%
X182781600Y-117793380D02*
X182781600Y-117512220D01*
X183801600Y-117793380D02*
X183801600Y-117512220D01*
%TO.C,J4*%
X179019000Y-133562200D02*
X178890000Y-133690200D01*
X168694000Y-138791200D02*
X168694000Y-139431200D01*
X176769000Y-135812200D02*
X176675000Y-135905200D01*
X168934000Y-131471200D02*
X168934000Y-139191200D01*
X173269000Y-135812200D02*
X173175000Y-135905200D01*
X168694000Y-139431200D02*
X169094000Y-139431200D01*
X168934000Y-138731200D02*
X179554000Y-138731200D01*
X168934000Y-137631200D02*
X179554000Y-137631200D01*
X176599000Y-135572200D02*
X176470000Y-135700200D01*
X168934000Y-131471200D02*
X179554000Y-131471200D01*
X179554000Y-131471200D02*
X179554000Y-139191200D01*
X173099000Y-135572200D02*
X172970000Y-135700200D01*
X175314000Y-133356200D02*
X175220000Y-133450200D01*
X168934000Y-139191200D02*
X179554000Y-139191200D01*
X175519000Y-133562200D02*
X175390000Y-133690200D01*
X178814000Y-133356200D02*
X178720000Y-133450200D01*
X170744000Y-136311200D02*
G75*
G03*
X171634264Y-136055921I3J1679990D01*
G01*
X169878000Y-136071200D02*
G75*
G03*
X170772674Y-136311299I866003J1440014D01*
G01*
X172169000Y-135522200D02*
G75*
G03*
X172169504Y-133741007I-1425003J891000D01*
G01*
X171610000Y-133191199D02*
G75*
G03*
X169854106Y-133205842I-866000J-1439999D01*
G01*
X169303999Y-133765200D02*
G75*
G03*
X169318642Y-135521094I1439999J-866000D01*
G01*
X179424000Y-134631200D02*
G75*
G03*
X179424000Y-134631200I-1680000J0D01*
G01*
X175924000Y-134631200D02*
G75*
G03*
X175924000Y-134631200I-1680000J0D01*
G01*
%TO.C,J5*%
X187894200Y-135812200D02*
X187800200Y-135905200D01*
X180059200Y-138731200D02*
X190679200Y-138731200D01*
X180059200Y-137631200D02*
X190679200Y-137631200D01*
X187724200Y-135572200D02*
X187595200Y-135700200D01*
X184394200Y-135812200D02*
X184300200Y-135905200D01*
X180059200Y-131471200D02*
X190679200Y-131471200D01*
X190679200Y-131471200D02*
X190679200Y-139191200D01*
X190144200Y-133562200D02*
X190015200Y-133690200D01*
X189939200Y-133356200D02*
X189845200Y-133450200D01*
X180059200Y-131471200D02*
X180059200Y-139191200D01*
X180059200Y-139191200D02*
X190679200Y-139191200D01*
X184224200Y-135572200D02*
X184095200Y-135700200D01*
X179819200Y-139431200D02*
X180219200Y-139431200D01*
X186644200Y-133562200D02*
X186515200Y-133690200D01*
X179819200Y-138791200D02*
X179819200Y-139431200D01*
X186439200Y-133356200D02*
X186345200Y-133450200D01*
X182735200Y-133191199D02*
G75*
G03*
X180979306Y-133205842I-866000J-1439999D01*
G01*
X183294200Y-135522200D02*
G75*
G03*
X183294704Y-133741007I-1425003J891000D01*
G01*
X181003200Y-136071200D02*
G75*
G03*
X181897874Y-136311299I866003J1440014D01*
G01*
X180429199Y-133765200D02*
G75*
G03*
X180443842Y-135521094I1439999J-866000D01*
G01*
X181869200Y-136311200D02*
G75*
G03*
X182759464Y-136055921I3J1679990D01*
G01*
X190549200Y-134631200D02*
G75*
G03*
X190549200Y-134631200I-1680000J0D01*
G01*
X187049200Y-134631200D02*
G75*
G03*
X187049200Y-134631200I-1680000J0D01*
G01*
%TO.C,L1*%
X171090000Y-121062779D02*
X171090000Y-120737221D01*
X172110000Y-121062779D02*
X172110000Y-120737221D01*
%TO.C,L2*%
X187310000Y-121062779D02*
X187310000Y-120737221D01*
X186290000Y-121062779D02*
X186290000Y-120737221D01*
%TO.C,C10*%
X172034420Y-92554000D02*
X172315580Y-92554000D01*
X172034420Y-93574000D02*
X172315580Y-93574000D01*
%TO.C,R14*%
X116672442Y-105417500D02*
X117146958Y-105417500D01*
X116672442Y-104372500D02*
X117146958Y-104372500D01*
%TO.C,R24*%
X167925258Y-123653500D02*
X167450742Y-123653500D01*
X167925258Y-122608500D02*
X167450742Y-122608500D01*
%TO.C,C9*%
X172034420Y-91952000D02*
X172315580Y-91952000D01*
X172034420Y-90932000D02*
X172315580Y-90932000D01*
%TO.C,R19*%
X172677500Y-85362742D02*
X172677500Y-85837258D01*
X173722500Y-85362742D02*
X173722500Y-85837258D01*
%TO.C,U11*%
X120490000Y-95085000D02*
X122290000Y-95085000D01*
X120490000Y-95085000D02*
X119690000Y-95085000D01*
X120490000Y-91965000D02*
X119690000Y-91965000D01*
X120490000Y-91965000D02*
X121290000Y-91965000D01*
%TO.C,C8*%
X157676380Y-107208800D02*
X157395220Y-107208800D01*
X157676380Y-108228800D02*
X157395220Y-108228800D01*
%TO.C,U10*%
X120490000Y-95465000D02*
X121290000Y-95465000D01*
X120490000Y-98585000D02*
X122290000Y-98585000D01*
X120490000Y-98585000D02*
X119690000Y-98585000D01*
X120490000Y-95465000D02*
X119690000Y-95465000D01*
%TO.C,R7*%
X175622500Y-117387742D02*
X175622500Y-117862258D01*
X174577500Y-117387742D02*
X174577500Y-117862258D01*
%TO.C,C14*%
X152963748Y-110610000D02*
X154386252Y-110610000D01*
X152963748Y-108790000D02*
X154386252Y-108790000D01*
%TO.C,C6*%
X156166200Y-114615780D02*
X156166200Y-114334620D01*
X155146200Y-114615780D02*
X155146200Y-114334620D01*
%TO.C,LED3*%
X126459700Y-102660000D02*
X124174700Y-102660000D01*
X124174700Y-102660000D02*
X124174700Y-104130000D01*
X124174700Y-104130000D02*
X126459700Y-104130000D01*
%TO.C,U1*%
X159258200Y-111025200D02*
X157758200Y-111025200D01*
X159258200Y-117925200D02*
X157758200Y-117925200D01*
X157758200Y-117655200D02*
X156658200Y-117655200D01*
X157758200Y-111025200D02*
X157758200Y-111295200D01*
X157758200Y-117925200D02*
X157758200Y-117655200D01*
X157758200Y-111295200D02*
X154928200Y-111295200D01*
%TO.C,R18*%
X178708742Y-92541500D02*
X179183258Y-92541500D01*
X178708742Y-93586500D02*
X179183258Y-93586500D01*
%TO.C,C16*%
X129080800Y-83909780D02*
X129080800Y-83628620D01*
X130100800Y-83909780D02*
X130100800Y-83628620D01*
%TO.C,R25*%
X168425258Y-129808500D02*
X167950742Y-129808500D01*
X168425258Y-130853500D02*
X167950742Y-130853500D01*
%TO.C,C13*%
X179793020Y-130761200D02*
X180074180Y-130761200D01*
X179793020Y-129741200D02*
X180074180Y-129741200D01*
%TO.C,Q5*%
X116909700Y-110835000D02*
X116259700Y-110835000D01*
X116909700Y-110835000D02*
X117559700Y-110835000D01*
X116909700Y-113955000D02*
X118584700Y-113955000D01*
X116909700Y-113955000D02*
X116259700Y-113955000D01*
%TO.C,C12*%
X175890580Y-91952000D02*
X175609420Y-91952000D01*
X175890580Y-90932000D02*
X175609420Y-90932000D01*
%TO.C,LED1*%
X120811800Y-127636600D02*
X120811800Y-129106600D01*
X123096800Y-127636600D02*
X120811800Y-127636600D01*
X120811800Y-129106600D02*
X123096800Y-129106600D01*
%TO.C,C15*%
X154347220Y-107208800D02*
X154628380Y-107208800D01*
X154347220Y-108228800D02*
X154628380Y-108228800D01*
%TO.C,R21*%
X153178742Y-130439900D02*
X153653258Y-130439900D01*
X153178742Y-131484900D02*
X153653258Y-131484900D01*
%TO.C,R9*%
X122059542Y-126274300D02*
X122534058Y-126274300D01*
X122059542Y-127319300D02*
X122534058Y-127319300D01*
%TO.C,U7*%
X135931600Y-125510600D02*
X141131600Y-125510600D01*
X141131600Y-125510600D02*
X141131600Y-119040600D01*
X141131600Y-119040600D02*
X135931600Y-119040600D01*
X135931600Y-119040600D02*
X135931600Y-121275600D01*
X135931600Y-123275600D02*
X135931600Y-125510600D01*
X135931600Y-123275600D02*
G75*
G03*
X135931600Y-121275600I0J1000000D01*
G01*
%TO.C,U5*%
X133550000Y-85640000D02*
X132150000Y-85640000D01*
X132150000Y-87960000D02*
X134050000Y-87960000D01*
%TO.C,R15*%
X168802742Y-91964500D02*
X169277258Y-91964500D01*
X168802742Y-90919500D02*
X169277258Y-90919500D01*
%TO.C,R13*%
X125896958Y-105417500D02*
X125422442Y-105417500D01*
X125896958Y-104372500D02*
X125422442Y-104372500D01*
%TO.C,J9*%
X122305000Y-78116200D02*
X116705000Y-78116200D01*
X123005000Y-90986200D02*
X116705000Y-90986200D01*
X125555000Y-78116200D02*
X126715000Y-78116200D01*
X126715000Y-78116200D02*
X126715000Y-89376200D01*
X126715000Y-90876200D02*
X126715000Y-90986200D01*
X126715000Y-90986200D02*
X124905000Y-90986200D01*
%TO.C,U8*%
X133325000Y-95225000D02*
X133325000Y-91775000D01*
X124455000Y-95225000D02*
X124455000Y-97175000D01*
X124455000Y-95225000D02*
X124455000Y-93275000D01*
X133325000Y-95225000D02*
X133325000Y-97175000D01*
%TO.C,LED4*%
X116109700Y-104130000D02*
X118394700Y-104130000D01*
X118394700Y-102660000D02*
X116109700Y-102660000D01*
X118394700Y-104130000D02*
X118394700Y-102660000D01*
%TO.C,LED2*%
X119362200Y-129106600D02*
X119362200Y-127636600D01*
X119362200Y-127636600D02*
X117077200Y-127636600D01*
X117077200Y-129106600D02*
X119362200Y-129106600D01*
%TO.C,R22*%
X153178742Y-129220700D02*
X153653258Y-129220700D01*
X153178742Y-130265700D02*
X153653258Y-130265700D01*
%TO.C,U3*%
X155961000Y-106738800D02*
X157761000Y-106738800D01*
X155961000Y-106738800D02*
X155161000Y-106738800D01*
X155961000Y-103618800D02*
X156761000Y-103618800D01*
X155961000Y-103618800D02*
X155161000Y-103618800D01*
%TO.C,J6*%
X132448800Y-139455400D02*
X132848800Y-139455400D01*
X132448800Y-138815400D02*
X132448800Y-139455400D01*
X147353800Y-135596400D02*
X147224800Y-135724400D01*
X142773800Y-133586400D02*
X142644800Y-133714400D01*
X150853800Y-135596400D02*
X150724800Y-135724400D01*
X151023800Y-135836400D02*
X150929800Y-135929400D01*
X136853800Y-135596400D02*
X136724800Y-135724400D01*
X153068800Y-133380400D02*
X152974800Y-133474400D01*
X132688800Y-131495400D02*
X153809800Y-131495400D01*
X140353800Y-135596400D02*
X140224800Y-135724400D01*
X137023800Y-135836400D02*
X136929800Y-135929400D01*
X149568800Y-133380400D02*
X149474800Y-133474400D01*
X132688800Y-137655400D02*
X153809800Y-137655400D01*
X139068800Y-133380400D02*
X138974800Y-133474400D01*
X153273800Y-133586400D02*
X153144800Y-133714400D01*
X140523800Y-135836400D02*
X140429800Y-135929400D01*
X144023800Y-135836400D02*
X143929800Y-135929400D01*
X153809800Y-131495400D02*
X153809800Y-139215400D01*
X139273800Y-133586400D02*
X139144800Y-133714400D01*
X132688800Y-131495400D02*
X132688800Y-139215400D01*
X146068800Y-133380400D02*
X145974800Y-133474400D01*
X142568800Y-133380400D02*
X142474800Y-133474400D01*
X132688800Y-139215400D02*
X153809800Y-139215400D01*
X147523800Y-135836400D02*
X147429800Y-135929400D01*
X149773800Y-133586400D02*
X149644800Y-133714400D01*
X146273800Y-133586400D02*
X146144800Y-133714400D01*
X143853800Y-135596400D02*
X143724800Y-135724400D01*
X132688800Y-138755400D02*
X153809800Y-138755400D01*
X133058799Y-133789400D02*
G75*
G03*
X133073442Y-135545294I1439999J-866000D01*
G01*
X134498800Y-136335400D02*
G75*
G03*
X135389064Y-136080121I3J1679990D01*
G01*
X135364800Y-133215399D02*
G75*
G03*
X133608906Y-133230042I-866000J-1439999D01*
G01*
X133632800Y-136095400D02*
G75*
G03*
X134527474Y-136335499I866003J1440014D01*
G01*
X135923800Y-135546400D02*
G75*
G03*
X135924304Y-133765207I-1425003J891000D01*
G01*
X146678800Y-134655400D02*
G75*
G03*
X146678800Y-134655400I-1680000J0D01*
G01*
X150178800Y-134655400D02*
G75*
G03*
X150178800Y-134655400I-1680000J0D01*
G01*
X143178800Y-134655400D02*
G75*
G03*
X143178800Y-134655400I-1680000J0D01*
G01*
X153678800Y-134655400D02*
G75*
G03*
X153678800Y-134655400I-1680000J0D01*
G01*
X139678800Y-134655400D02*
G75*
G03*
X139678800Y-134655400I-1680000J0D01*
G01*
%TO.C,D3*%
X167900000Y-96064000D02*
X172200000Y-96064000D01*
X172200000Y-94064000D02*
X167900000Y-94064000D01*
X172200000Y-96064000D02*
X172200000Y-94064000D01*
%TO.C,R23*%
X136327258Y-98952500D02*
X135852742Y-98952500D01*
X136327258Y-99997500D02*
X135852742Y-99997500D01*
%TO.C,J7*%
X154063600Y-138815400D02*
X154063600Y-139455400D01*
X158638600Y-135836400D02*
X158544600Y-135929400D01*
X154303600Y-131495400D02*
X168423600Y-131495400D01*
X154303600Y-139215400D02*
X168423600Y-139215400D01*
X154063600Y-139455400D02*
X154463600Y-139455400D01*
X167888600Y-133586400D02*
X167759600Y-133714400D01*
X154303600Y-131495400D02*
X154303600Y-139215400D01*
X154303600Y-137655400D02*
X168423600Y-137655400D01*
X168423600Y-131495400D02*
X168423600Y-139215400D01*
X164183600Y-133380400D02*
X164089600Y-133474400D01*
X158468600Y-135596400D02*
X158339600Y-135724400D01*
X160888600Y-133586400D02*
X160759600Y-133714400D01*
X165638600Y-135836400D02*
X165544600Y-135929400D01*
X162138600Y-135836400D02*
X162044600Y-135929400D01*
X165468600Y-135596400D02*
X165339600Y-135724400D01*
X161968600Y-135596400D02*
X161839600Y-135724400D01*
X167683600Y-133380400D02*
X167589600Y-133474400D01*
X164388600Y-133586400D02*
X164259600Y-133714400D01*
X160683600Y-133380400D02*
X160589600Y-133474400D01*
X154303600Y-138755400D02*
X168423600Y-138755400D01*
X154673599Y-133789400D02*
G75*
G03*
X154688242Y-135545294I1439999J-866000D01*
G01*
X155247600Y-136095400D02*
G75*
G03*
X156142274Y-136335499I866003J1440014D01*
G01*
X156979600Y-133215399D02*
G75*
G03*
X155223706Y-133230042I-866000J-1439999D01*
G01*
X157538600Y-135546400D02*
G75*
G03*
X157539104Y-133765207I-1425003J891000D01*
G01*
X156113600Y-136335400D02*
G75*
G03*
X157003864Y-136080121I3J1679990D01*
G01*
X161293600Y-134655400D02*
G75*
G03*
X161293600Y-134655400I-1680000J0D01*
G01*
X164793600Y-134655400D02*
G75*
G03*
X164793600Y-134655400I-1680000J0D01*
G01*
X168293600Y-134655400D02*
G75*
G03*
X168293600Y-134655400I-1680000J0D01*
G01*
%TO.C,L3*%
X174055821Y-114632200D02*
X174381379Y-114632200D01*
X174055821Y-113612200D02*
X174381379Y-113612200D01*
%TO.C,R8*%
X187314100Y-117415542D02*
X187314100Y-117890058D01*
X186269100Y-117415542D02*
X186269100Y-117890058D01*
%TO.C,D4*%
X180000000Y-94064000D02*
X175700000Y-94064000D01*
X175700000Y-96064000D02*
X180000000Y-96064000D01*
X175700000Y-94064000D02*
X175700000Y-96064000D01*
%TO.C,R10*%
X118114458Y-127319300D02*
X117639942Y-127319300D01*
X118114458Y-126274300D02*
X117639942Y-126274300D01*
%TO.C,Q6*%
X125659700Y-110835000D02*
X126309700Y-110835000D01*
X125659700Y-113955000D02*
X125009700Y-113955000D01*
X125659700Y-113955000D02*
X127334700Y-113955000D01*
X125659700Y-110835000D02*
X125009700Y-110835000D01*
%TO.C,C11*%
X175865580Y-93574000D02*
X175584420Y-93574000D01*
X175865580Y-92554000D02*
X175584420Y-92554000D01*
%TO.C,C7*%
X159059852Y-108790000D02*
X157637348Y-108790000D01*
X159059852Y-110610000D02*
X157637348Y-110610000D01*
%TO.C,R20*%
X174177500Y-85362742D02*
X174177500Y-85837258D01*
X175222500Y-85362742D02*
X175222500Y-85837258D01*
%TO.C,R16*%
X169277258Y-93586500D02*
X168802742Y-93586500D01*
X169277258Y-92541500D02*
X168802742Y-92541500D01*
%TO.C,R17*%
X179183258Y-90919500D02*
X178708742Y-90919500D01*
X179183258Y-91964500D02*
X178708742Y-91964500D01*
%TO.C,C5*%
X152511000Y-115186452D02*
X152511000Y-113763948D01*
X154331000Y-115186452D02*
X154331000Y-113763948D01*
%TO.C,R11*%
X118285000Y-115437342D02*
X118285000Y-115911858D01*
X117240000Y-115437342D02*
X117240000Y-115911858D01*
%TO.C,U4*%
X130242000Y-119040600D02*
X130242000Y-121275600D01*
X135442000Y-125510600D02*
X135442000Y-119040600D01*
X135442000Y-119040600D02*
X130242000Y-119040600D01*
X130242000Y-123275600D02*
X130242000Y-125510600D01*
X130242000Y-125510600D02*
X135442000Y-125510600D01*
X130242000Y-123275600D02*
G75*
G03*
X130242000Y-121275600I0J1000000D01*
G01*
%TO.C,U9*%
X137250000Y-97775000D02*
X137250000Y-96375000D01*
X134930000Y-96375000D02*
X134930000Y-98275000D01*
%TO.C,U6*%
X132150000Y-85060000D02*
X134050000Y-85060000D01*
X133550000Y-82740000D02*
X132150000Y-82740000D01*
%TO.C,R12*%
X127048000Y-115437342D02*
X127048000Y-115911858D01*
X126003000Y-115437342D02*
X126003000Y-115911858D01*
%TO.C,U2*%
X175110000Y-89668000D02*
X175110000Y-88268000D01*
X172790000Y-88268000D02*
X172790000Y-90168000D01*
%TD*%
%LPC*%
D15*
%TO.C,J1*%
X126908800Y-134655400D03*
D16*
X130408800Y-134655400D03*
%TD*%
D15*
%TO.C,J2*%
X115830800Y-134655400D03*
D16*
X119330800Y-134655400D03*
X122830800Y-134655400D03*
%TD*%
D17*
%TO.C,J3*%
X120000000Y-100700000D03*
D18*
X122540000Y-100700000D03*
%TD*%
D19*
%TO.C,Q1*%
X124722200Y-107945000D03*
X124722200Y-109845000D03*
X126597200Y-108895000D03*
%TD*%
D20*
%TO.C,Q2*%
X124466000Y-120756200D03*
X122566000Y-120756200D03*
X123516000Y-122631200D03*
%TD*%
%TO.C,Q4*%
X117608000Y-120756200D03*
X115708000Y-120756200D03*
X116658000Y-122631200D03*
%TD*%
D21*
%TO.C,R2*%
X124874500Y-116499600D03*
X124874500Y-114849600D03*
%TD*%
D22*
%TO.C,R3*%
X126056000Y-120434600D03*
X126056000Y-122084600D03*
%TD*%
D21*
%TO.C,R5*%
X116111500Y-116499600D03*
X116111500Y-114849600D03*
%TD*%
D23*
%TO.C,D1*%
X124402400Y-124866400D03*
X120902400Y-124866400D03*
%TD*%
D24*
%TO.C,D2*%
X115822400Y-124866400D03*
X119322400Y-124866400D03*
%TD*%
D19*
%TO.C,Q3*%
X115972200Y-107945000D03*
X115972200Y-109845000D03*
X117847200Y-108895000D03*
%TD*%
D22*
%TO.C,R6*%
X119198000Y-120434600D03*
X119198000Y-122084600D03*
%TD*%
D25*
%TO.C,R4*%
X116084700Y-106395000D03*
X117734700Y-106395000D03*
%TD*%
D26*
%TO.C,R1*%
X126484700Y-106395000D03*
X124834700Y-106395000D03*
%TD*%
D27*
%TO.C,C1*%
X173350000Y-118400000D03*
X173350000Y-116850000D03*
%TD*%
%TO.C,C2*%
X185041600Y-118427800D03*
X185041600Y-116877800D03*
%TD*%
%TO.C,C3*%
X171600000Y-118400000D03*
X171600000Y-116850000D03*
%TD*%
%TO.C,C4*%
X183291600Y-118427800D03*
X183291600Y-116877800D03*
%TD*%
D15*
%TO.C,J4*%
X170744000Y-134631200D03*
D16*
X174244000Y-134631200D03*
X177744000Y-134631200D03*
%TD*%
D15*
%TO.C,J5*%
X181869200Y-134631200D03*
D16*
X185369200Y-134631200D03*
X188869200Y-134631200D03*
%TD*%
D28*
%TO.C,L1*%
X171600000Y-121687500D03*
X171600000Y-120112500D03*
%TD*%
%TO.C,L2*%
X186800000Y-121687500D03*
X186800000Y-120112500D03*
%TD*%
D29*
%TO.C,C10*%
X171400000Y-93064000D03*
X172950000Y-93064000D03*
%TD*%
D25*
%TO.C,R14*%
X116084700Y-104895000D03*
X117734700Y-104895000D03*
%TD*%
D26*
%TO.C,R24*%
X168513000Y-123131000D03*
X166863000Y-123131000D03*
%TD*%
D29*
%TO.C,C9*%
X171400000Y-91442000D03*
X172950000Y-91442000D03*
%TD*%
D22*
%TO.C,R19*%
X173200000Y-84775000D03*
X173200000Y-86425000D03*
%TD*%
D30*
%TO.C,U11*%
X121627500Y-94475000D03*
X121627500Y-93525000D03*
X121627500Y-92575000D03*
X119352500Y-92575000D03*
X119352500Y-94475000D03*
%TD*%
D31*
%TO.C,C8*%
X158310800Y-107718800D03*
X156760800Y-107718800D03*
%TD*%
D30*
%TO.C,U10*%
X121627500Y-97975000D03*
X121627500Y-97025000D03*
X121627500Y-96075000D03*
X119352500Y-96075000D03*
X119352500Y-97975000D03*
%TD*%
D22*
%TO.C,R7*%
X175100000Y-116800000D03*
X175100000Y-118450000D03*
%TD*%
D32*
%TO.C,C14*%
X152200000Y-109700000D03*
X155150000Y-109700000D03*
%TD*%
D27*
%TO.C,C6*%
X155656200Y-115250200D03*
X155656200Y-113700200D03*
%TD*%
D33*
%TO.C,LED3*%
X124872200Y-103395000D03*
X126447200Y-103395000D03*
%TD*%
D34*
%TO.C,U1*%
X156028200Y-112195200D03*
D35*
X162328200Y-114475200D03*
D34*
X156028200Y-116755200D03*
%TD*%
D25*
%TO.C,R18*%
X178121000Y-93064000D03*
X179771000Y-93064000D03*
%TD*%
D27*
%TO.C,C16*%
X129590800Y-84544200D03*
X129590800Y-82994200D03*
%TD*%
D26*
%TO.C,R25*%
X169013000Y-130331000D03*
X167363000Y-130331000D03*
%TD*%
D29*
%TO.C,C13*%
X179158600Y-130251200D03*
X180708600Y-130251200D03*
%TD*%
D36*
%TO.C,Q5*%
X117847200Y-113345000D03*
X117847200Y-111445000D03*
X115972200Y-112395000D03*
%TD*%
D31*
%TO.C,C12*%
X176525000Y-91442000D03*
X174975000Y-91442000D03*
%TD*%
D33*
%TO.C,LED1*%
X121509300Y-128371600D03*
X123084300Y-128371600D03*
%TD*%
D29*
%TO.C,C15*%
X153712800Y-107718800D03*
X155262800Y-107718800D03*
%TD*%
D25*
%TO.C,R21*%
X152591000Y-130962400D03*
X154241000Y-130962400D03*
%TD*%
%TO.C,R9*%
X121471800Y-126796800D03*
X123121800Y-126796800D03*
%TD*%
D37*
%TO.C,U7*%
X137261600Y-127040600D03*
X139801600Y-127040600D03*
X139801600Y-117510600D03*
X137261600Y-117510600D03*
%TD*%
D38*
%TO.C,U5*%
X133800000Y-87450000D03*
X133800000Y-86800000D03*
X133800000Y-86150000D03*
X131900000Y-86150000D03*
X131900000Y-86800000D03*
X131900000Y-87450000D03*
%TD*%
D25*
%TO.C,R15*%
X168215000Y-91442000D03*
X169865000Y-91442000D03*
%TD*%
D26*
%TO.C,R13*%
X126484700Y-104895000D03*
X124834700Y-104895000D03*
%TD*%
D39*
%TO.C,J9*%
X115580000Y-87726200D03*
X115580000Y-86626200D03*
X115580000Y-85526200D03*
X115580000Y-84426200D03*
X115580000Y-83326200D03*
X115580000Y-82226200D03*
X115580000Y-81126200D03*
X115580000Y-80026200D03*
D40*
X124805000Y-78901200D03*
D41*
X126380000Y-90126200D03*
D42*
X115705000Y-90176200D03*
D43*
X123305000Y-78576200D03*
D44*
X115705000Y-78826200D03*
D45*
X123955000Y-90526200D03*
%TD*%
D46*
%TO.C,U8*%
X132700000Y-92750000D03*
X131430000Y-92750000D03*
X130160000Y-92750000D03*
X128890000Y-92750000D03*
X127620000Y-92750000D03*
X126350000Y-92750000D03*
X125080000Y-92750000D03*
X125080000Y-97700000D03*
X126350000Y-97700000D03*
X127620000Y-97700000D03*
X128890000Y-97700000D03*
X130160000Y-97700000D03*
X131430000Y-97700000D03*
X132700000Y-97700000D03*
%TD*%
D47*
%TO.C,LED4*%
X117697200Y-103395000D03*
X116122200Y-103395000D03*
%TD*%
%TO.C,LED2*%
X118664700Y-128371600D03*
X117089700Y-128371600D03*
%TD*%
D25*
%TO.C,R22*%
X152591000Y-129743200D03*
X154241000Y-129743200D03*
%TD*%
D30*
%TO.C,U3*%
X157098500Y-106128800D03*
X157098500Y-105178800D03*
X157098500Y-104228800D03*
X154823500Y-104228800D03*
X154823500Y-106128800D03*
%TD*%
D15*
%TO.C,J6*%
X134498800Y-134655400D03*
D16*
X137998800Y-134655400D03*
X141498800Y-134655400D03*
X144998800Y-134655400D03*
X148498800Y-134655400D03*
X151998800Y-134655400D03*
%TD*%
D23*
%TO.C,D3*%
X171400000Y-95064000D03*
X167900000Y-95064000D03*
%TD*%
D26*
%TO.C,R23*%
X136915000Y-99475000D03*
X135265000Y-99475000D03*
%TD*%
D15*
%TO.C,J7*%
X156113600Y-134655400D03*
D16*
X159613600Y-134655400D03*
X163113600Y-134655400D03*
X166613600Y-134655400D03*
%TD*%
D33*
%TO.C,L3*%
X173431100Y-114122200D03*
X175006100Y-114122200D03*
%TD*%
D22*
%TO.C,R8*%
X186791600Y-116827800D03*
X186791600Y-118477800D03*
%TD*%
D24*
%TO.C,D4*%
X176500000Y-95064000D03*
X180000000Y-95064000D03*
%TD*%
D26*
%TO.C,R10*%
X118702200Y-126796800D03*
X117052200Y-126796800D03*
%TD*%
D36*
%TO.C,Q6*%
X126597200Y-113345000D03*
X126597200Y-111445000D03*
X124722200Y-112395000D03*
%TD*%
D31*
%TO.C,C11*%
X176500000Y-93064000D03*
X174950000Y-93064000D03*
%TD*%
D48*
%TO.C,C7*%
X159823600Y-109700000D03*
X156873600Y-109700000D03*
%TD*%
D22*
%TO.C,R20*%
X174700000Y-84775000D03*
X174700000Y-86425000D03*
%TD*%
D26*
%TO.C,R16*%
X169865000Y-93064000D03*
X168215000Y-93064000D03*
%TD*%
%TO.C,R17*%
X179771000Y-91442000D03*
X178121000Y-91442000D03*
%TD*%
D49*
%TO.C,C5*%
X153421000Y-115950200D03*
X153421000Y-113000200D03*
%TD*%
D22*
%TO.C,R11*%
X117762500Y-114849600D03*
X117762500Y-116499600D03*
%TD*%
D37*
%TO.C,U4*%
X131572000Y-127040600D03*
X134112000Y-127040600D03*
X134112000Y-117510600D03*
X131572000Y-117510600D03*
%TD*%
D50*
%TO.C,U9*%
X135440000Y-98025000D03*
X136090000Y-98025000D03*
X136740000Y-98025000D03*
X136740000Y-96125000D03*
X136090000Y-96125000D03*
X135440000Y-96125000D03*
%TD*%
D38*
%TO.C,U6*%
X133800000Y-84550000D03*
X133800000Y-83900000D03*
X133800000Y-83250000D03*
X131900000Y-83250000D03*
X131900000Y-83900000D03*
X131900000Y-84550000D03*
%TD*%
D22*
%TO.C,R12*%
X126525500Y-114849600D03*
X126525500Y-116499600D03*
%TD*%
D50*
%TO.C,U2*%
X173300000Y-89918000D03*
X173950000Y-89918000D03*
X174600000Y-89918000D03*
X174600000Y-88018000D03*
X173950000Y-88018000D03*
X173300000Y-88018000D03*
%TD*%
D51*
%TO.C,TP4*%
X135238000Y-101181000D03*
%TD*%
%TO.C,TP1*%
X154863800Y-120675400D03*
%TD*%
D52*
%TO.C,J10*%
X140843000Y-82372200D03*
D53*
X143383000Y-82372200D03*
X145923000Y-82372200D03*
X148463000Y-82372200D03*
X151003000Y-82372200D03*
X153543000Y-82372200D03*
X156083000Y-82372200D03*
X158623000Y-82372200D03*
X161163000Y-82372200D03*
X163703000Y-82372200D03*
%TD*%
D52*
%TO.C,A1*%
X149987000Y-127635000D03*
D54*
X152527000Y-127635000D03*
X155067000Y-127635000D03*
X157607000Y-127635000D03*
X160147000Y-127635000D03*
X162687000Y-127635000D03*
X165227000Y-127635000D03*
X167767000Y-127635000D03*
X172847000Y-127635000D03*
X175387000Y-127635000D03*
X177927000Y-127635000D03*
X180467000Y-127635000D03*
X183007000Y-127635000D03*
X185547000Y-127635000D03*
X185547000Y-79375000D03*
X183007000Y-79375000D03*
X180467000Y-79375000D03*
X177927000Y-79375000D03*
X175387000Y-79375000D03*
X172847000Y-79375000D03*
X170307000Y-79375000D03*
X167767000Y-79375000D03*
X163707000Y-79375000D03*
X161167000Y-79375000D03*
X158627000Y-79375000D03*
X156087000Y-79375000D03*
X153547000Y-79375000D03*
X151007000Y-79375000D03*
X148467000Y-79375000D03*
X145927000Y-79375000D03*
X143387000Y-79375000D03*
X140847000Y-79375000D03*
%TD*%
D51*
%TO.C,TP2*%
X165404800Y-110032800D03*
%TD*%
D55*
%TO.C,SW1*%
X121325000Y-105525000D03*
D18*
X121325000Y-108065000D03*
%TD*%
D56*
%TO.C,J8*%
X177546000Y-118857000D03*
D18*
X177546000Y-116317000D03*
X177546000Y-113777000D03*
X177546000Y-111237000D03*
%TD*%
D55*
%TO.C,JP1*%
X121318500Y-113129600D03*
D18*
X121318500Y-115669600D03*
%TD*%
D57*
%TO.C,J12*%
X185521600Y-123926600D03*
D53*
X182981600Y-123926600D03*
X180441600Y-123926600D03*
X177901600Y-123926600D03*
X175361600Y-123926600D03*
X172821600Y-123926600D03*
%TD*%
D51*
%TO.C,TP3*%
X150342600Y-109702600D03*
%TD*%
D57*
%TO.C,J11*%
X185552400Y-82372200D03*
D53*
X183012400Y-82372200D03*
X180472400Y-82372200D03*
X177932400Y-82372200D03*
X175392400Y-82372200D03*
X172852400Y-82372200D03*
X170312400Y-82372200D03*
X167772400Y-82372200D03*
%TD*%
M02*
