%TF.GenerationSoftware,KiCad,Pcbnew,(6.0.1-0)*%
%TF.CreationDate,2022-02-06T09:10:28-08:00*%
%TF.ProjectId,power-wedge-control,706f7765-722d-4776-9564-67652d636f6e,1*%
%TF.SameCoordinates,Original*%
%TF.FileFunction,Soldermask,Top*%
%TF.FilePolarity,Negative*%
%FSLAX46Y46*%
G04 Gerber Fmt 4.6, Leading zero omitted, Abs format (unit mm)*
G04 Created by KiCad (PCBNEW (6.0.1-0)) date 2022-02-06 09:10:28*
%MOMM*%
%LPD*%
G01*
G04 APERTURE LIST*
G04 Aperture macros list*
%AMRoundRect*
0 Rectangle with rounded corners*
0 $1 Rounding radius*
0 $2 $3 $4 $5 $6 $7 $8 $9 X,Y pos of 4 corners*
0 Add a 4 corners polygon primitive as box body*
4,1,4,$2,$3,$4,$5,$6,$7,$8,$9,$2,$3,0*
0 Add four circle primitives for the rounded corners*
1,1,$1+$1,$2,$3*
1,1,$1+$1,$4,$5*
1,1,$1+$1,$6,$7*
1,1,$1+$1,$8,$9*
0 Add four rect primitives between the rounded corners*
20,1,$1+$1,$2,$3,$4,$5,0*
20,1,$1+$1,$4,$5,$6,$7,0*
20,1,$1+$1,$6,$7,$8,$9,0*
20,1,$1+$1,$8,$9,$2,$3,0*%
G04 Aperture macros list end*
%ADD10RoundRect,0.050800X-1.200000X-1.200000X1.200000X-1.200000X1.200000X1.200000X-1.200000X1.200000X0*%
%ADD11C,2.501600*%
%ADD12RoundRect,0.050800X0.850000X-0.850000X0.850000X0.850000X-0.850000X0.850000X-0.850000X-0.850000X0*%
%ADD13O,1.801600X1.801600*%
%ADD14RoundRect,0.200800X-0.587500X-0.150000X0.587500X-0.150000X0.587500X0.150000X-0.587500X0.150000X0*%
%ADD15RoundRect,0.200800X-0.150000X0.587500X-0.150000X-0.587500X0.150000X-0.587500X0.150000X0.587500X0*%
%ADD16RoundRect,0.250800X0.275000X-0.200000X0.275000X0.200000X-0.275000X0.200000X-0.275000X-0.200000X0*%
%ADD17RoundRect,0.250800X-0.275000X0.200000X-0.275000X-0.200000X0.275000X-0.200000X0.275000X0.200000X0*%
%ADD18RoundRect,0.050800X0.650000X0.850000X-0.650000X0.850000X-0.650000X-0.850000X0.650000X-0.850000X0*%
%ADD19RoundRect,0.050800X-0.650000X-0.850000X0.650000X-0.850000X0.650000X0.850000X-0.650000X0.850000X0*%
%ADD20RoundRect,0.250800X-0.200000X-0.275000X0.200000X-0.275000X0.200000X0.275000X-0.200000X0.275000X0*%
%ADD21RoundRect,0.250800X0.200000X0.275000X-0.200000X0.275000X-0.200000X-0.275000X0.200000X-0.275000X0*%
%ADD22RoundRect,0.275800X0.250000X-0.225000X0.250000X0.225000X-0.250000X0.225000X-0.250000X-0.225000X0*%
%ADD23RoundRect,0.269550X0.256250X-0.218750X0.256250X0.218750X-0.256250X0.218750X-0.256250X-0.218750X0*%
%ADD24RoundRect,0.275800X-0.225000X-0.250000X0.225000X-0.250000X0.225000X0.250000X-0.225000X0.250000X0*%
%ADD25RoundRect,0.200800X0.512500X0.150000X-0.512500X0.150000X-0.512500X-0.150000X0.512500X-0.150000X0*%
%ADD26RoundRect,0.275800X0.225000X0.250000X-0.225000X0.250000X-0.225000X-0.250000X0.225000X-0.250000X0*%
%ADD27RoundRect,0.300800X-0.325000X-0.650000X0.325000X-0.650000X0.325000X0.650000X-0.325000X0.650000X0*%
%ADD28RoundRect,0.269550X-0.218750X-0.256250X0.218750X-0.256250X0.218750X0.256250X-0.218750X0.256250X0*%
%ADD29RoundRect,0.050800X-1.100000X-0.600000X1.100000X-0.600000X1.100000X0.600000X-1.100000X0.600000X0*%
%ADD30RoundRect,0.050800X-3.200000X-2.900000X3.200000X-2.900000X3.200000X2.900000X-3.200000X2.900000X0*%
%ADD31RoundRect,0.200800X0.587500X0.150000X-0.587500X0.150000X-0.587500X-0.150000X0.587500X-0.150000X0*%
%ADD32RoundRect,0.050800X0.890000X-1.000000X0.890000X1.000000X-0.890000X1.000000X-0.890000X-1.000000X0*%
%ADD33RoundRect,0.050800X0.325000X0.200000X-0.325000X0.200000X-0.325000X-0.200000X0.325000X-0.200000X0*%
%ADD34RoundRect,0.050800X-0.875000X0.350000X-0.875000X-0.350000X0.875000X-0.350000X0.875000X0.350000X0*%
%ADD35RoundRect,0.050800X-0.500000X0.725000X-0.500000X-0.725000X0.500000X-0.725000X0.500000X0.725000X0*%
%ADD36RoundRect,0.050800X-0.775000X0.500000X-0.775000X-0.500000X0.775000X-0.500000X0.775000X0.500000X0*%
%ADD37RoundRect,0.050800X-0.750000X0.750000X-0.750000X-0.750000X0.750000X-0.750000X0.750000X0.750000X0*%
%ADD38RoundRect,0.050800X-0.750000X0.400000X-0.750000X-0.400000X0.750000X-0.400000X0.750000X0.400000X0*%
%ADD39RoundRect,0.050800X-0.750000X0.650000X-0.750000X-0.650000X0.750000X-0.650000X0.750000X0.650000X0*%
%ADD40RoundRect,0.050800X-0.700000X0.400000X-0.700000X-0.400000X0.700000X-0.400000X0.700000X0.400000X0*%
%ADD41RoundRect,0.200800X-0.150000X0.825000X-0.150000X-0.825000X0.150000X-0.825000X0.150000X0.825000X0*%
%ADD42RoundRect,0.269550X0.218750X0.256250X-0.218750X0.256250X-0.218750X-0.256250X0.218750X-0.256250X0*%
%ADD43RoundRect,0.300800X0.325000X0.650000X-0.325000X0.650000X-0.325000X-0.650000X0.325000X-0.650000X0*%
%ADD44RoundRect,0.300800X0.650000X-0.325000X0.650000X0.325000X-0.650000X0.325000X-0.650000X-0.325000X0*%
%ADD45RoundRect,0.050800X0.200000X-0.325000X0.200000X0.325000X-0.200000X0.325000X-0.200000X-0.325000X0*%
%ADD46C,1.601600*%
%ADD47RoundRect,0.050800X-0.800000X0.800000X-0.800000X-0.800000X0.800000X-0.800000X0.800000X0.800000X0*%
%ADD48C,1.701600*%
%ADD49O,1.701600X1.701600*%
%ADD50RoundRect,0.050800X0.850000X0.850000X-0.850000X0.850000X-0.850000X-0.850000X0.850000X-0.850000X0*%
%ADD51RoundRect,0.050800X-0.850000X-0.850000X0.850000X-0.850000X0.850000X0.850000X-0.850000X0.850000X0*%
%ADD52RoundRect,0.050800X0.800000X-0.800000X0.800000X0.800000X-0.800000X0.800000X-0.800000X-0.800000X0*%
G04 APERTURE END LIST*
D10*
%TO.C,J1*%
X126908800Y-134655400D03*
D11*
X130408800Y-134655400D03*
%TD*%
D10*
%TO.C,J2*%
X115830800Y-134655400D03*
D11*
X119330800Y-134655400D03*
X122830800Y-134655400D03*
%TD*%
D12*
%TO.C,J3*%
X120000000Y-100700000D03*
D13*
X122540000Y-100700000D03*
%TD*%
D14*
%TO.C,Q1*%
X124722200Y-107945000D03*
X124722200Y-109845000D03*
X126597200Y-108895000D03*
%TD*%
D15*
%TO.C,Q2*%
X124466000Y-120756200D03*
X122566000Y-120756200D03*
X123516000Y-122631200D03*
%TD*%
%TO.C,Q4*%
X117608000Y-120756200D03*
X115708000Y-120756200D03*
X116658000Y-122631200D03*
%TD*%
D16*
%TO.C,R2*%
X124874500Y-116499600D03*
X124874500Y-114849600D03*
%TD*%
D17*
%TO.C,R3*%
X126056000Y-120434600D03*
X126056000Y-122084600D03*
%TD*%
D16*
%TO.C,R5*%
X116111500Y-116499600D03*
X116111500Y-114849600D03*
%TD*%
D18*
%TO.C,D1*%
X124402400Y-124866400D03*
X120902400Y-124866400D03*
%TD*%
D19*
%TO.C,D2*%
X115822400Y-124866400D03*
X119322400Y-124866400D03*
%TD*%
D14*
%TO.C,Q3*%
X115972200Y-107945000D03*
X115972200Y-109845000D03*
X117847200Y-108895000D03*
%TD*%
D17*
%TO.C,R6*%
X119198000Y-120434600D03*
X119198000Y-122084600D03*
%TD*%
D20*
%TO.C,R4*%
X116084700Y-106395000D03*
X117734700Y-106395000D03*
%TD*%
D21*
%TO.C,R1*%
X126484700Y-106395000D03*
X124834700Y-106395000D03*
%TD*%
D22*
%TO.C,C1*%
X173350000Y-118400000D03*
X173350000Y-116850000D03*
%TD*%
%TO.C,C2*%
X185041600Y-118427800D03*
X185041600Y-116877800D03*
%TD*%
%TO.C,C3*%
X171600000Y-118400000D03*
X171600000Y-116850000D03*
%TD*%
%TO.C,C4*%
X183291600Y-118427800D03*
X183291600Y-116877800D03*
%TD*%
D10*
%TO.C,J4*%
X170744000Y-134631200D03*
D11*
X174244000Y-134631200D03*
X177744000Y-134631200D03*
%TD*%
D10*
%TO.C,J5*%
X181869200Y-134631200D03*
D11*
X185369200Y-134631200D03*
X188869200Y-134631200D03*
%TD*%
D23*
%TO.C,L1*%
X171600000Y-121687500D03*
X171600000Y-120112500D03*
%TD*%
%TO.C,L2*%
X186800000Y-121687500D03*
X186800000Y-120112500D03*
%TD*%
D24*
%TO.C,C10*%
X171400000Y-93064000D03*
X172950000Y-93064000D03*
%TD*%
D20*
%TO.C,R14*%
X116084700Y-104895000D03*
X117734700Y-104895000D03*
%TD*%
D21*
%TO.C,R24*%
X168513000Y-123131000D03*
X166863000Y-123131000D03*
%TD*%
D24*
%TO.C,C9*%
X171400000Y-91442000D03*
X172950000Y-91442000D03*
%TD*%
D17*
%TO.C,R19*%
X173200000Y-84775000D03*
X173200000Y-86425000D03*
%TD*%
D25*
%TO.C,U11*%
X121627500Y-94475000D03*
X121627500Y-93525000D03*
X121627500Y-92575000D03*
X119352500Y-92575000D03*
X119352500Y-94475000D03*
%TD*%
D26*
%TO.C,C8*%
X158310800Y-107718800D03*
X156760800Y-107718800D03*
%TD*%
D25*
%TO.C,U10*%
X121627500Y-97975000D03*
X121627500Y-97025000D03*
X121627500Y-96075000D03*
X119352500Y-96075000D03*
X119352500Y-97975000D03*
%TD*%
D17*
%TO.C,R7*%
X175100000Y-116800000D03*
X175100000Y-118450000D03*
%TD*%
D27*
%TO.C,C14*%
X152200000Y-109700000D03*
X155150000Y-109700000D03*
%TD*%
D22*
%TO.C,C6*%
X155656200Y-115250200D03*
X155656200Y-113700200D03*
%TD*%
D28*
%TO.C,LED3*%
X124872200Y-103395000D03*
X126447200Y-103395000D03*
%TD*%
D29*
%TO.C,U1*%
X156028200Y-112195200D03*
D30*
X162328200Y-114475200D03*
D29*
X156028200Y-116755200D03*
%TD*%
D20*
%TO.C,R18*%
X178121000Y-93064000D03*
X179771000Y-93064000D03*
%TD*%
D22*
%TO.C,C16*%
X129590800Y-84544200D03*
X129590800Y-82994200D03*
%TD*%
D21*
%TO.C,R25*%
X169013000Y-130331000D03*
X167363000Y-130331000D03*
%TD*%
D24*
%TO.C,C13*%
X179158600Y-130251200D03*
X180708600Y-130251200D03*
%TD*%
D31*
%TO.C,Q5*%
X117847200Y-113345000D03*
X117847200Y-111445000D03*
X115972200Y-112395000D03*
%TD*%
D26*
%TO.C,C12*%
X176525000Y-91442000D03*
X174975000Y-91442000D03*
%TD*%
D28*
%TO.C,LED1*%
X121509300Y-128371600D03*
X123084300Y-128371600D03*
%TD*%
D24*
%TO.C,C15*%
X153712800Y-107718800D03*
X155262800Y-107718800D03*
%TD*%
D20*
%TO.C,R21*%
X152591000Y-130962400D03*
X154241000Y-130962400D03*
%TD*%
%TO.C,R9*%
X121471800Y-126796800D03*
X123121800Y-126796800D03*
%TD*%
D32*
%TO.C,U7*%
X137261600Y-127040600D03*
X139801600Y-127040600D03*
X139801600Y-117510600D03*
X137261600Y-117510600D03*
%TD*%
D33*
%TO.C,U5*%
X133800000Y-87450000D03*
X133800000Y-86800000D03*
X133800000Y-86150000D03*
X131900000Y-86150000D03*
X131900000Y-86800000D03*
X131900000Y-87450000D03*
%TD*%
D20*
%TO.C,R15*%
X168215000Y-91442000D03*
X169865000Y-91442000D03*
%TD*%
D21*
%TO.C,R13*%
X126484700Y-104895000D03*
X124834700Y-104895000D03*
%TD*%
D34*
%TO.C,J9*%
X115580000Y-87726200D03*
X115580000Y-86626200D03*
X115580000Y-85526200D03*
X115580000Y-84426200D03*
X115580000Y-83326200D03*
X115580000Y-82226200D03*
X115580000Y-81126200D03*
X115580000Y-80026200D03*
D35*
X124805000Y-78901200D03*
D36*
X126380000Y-90126200D03*
D37*
X115705000Y-90176200D03*
D38*
X123305000Y-78576200D03*
D39*
X115705000Y-78826200D03*
D40*
X123955000Y-90526200D03*
%TD*%
D41*
%TO.C,U8*%
X132700000Y-92750000D03*
X131430000Y-92750000D03*
X130160000Y-92750000D03*
X128890000Y-92750000D03*
X127620000Y-92750000D03*
X126350000Y-92750000D03*
X125080000Y-92750000D03*
X125080000Y-97700000D03*
X126350000Y-97700000D03*
X127620000Y-97700000D03*
X128890000Y-97700000D03*
X130160000Y-97700000D03*
X131430000Y-97700000D03*
X132700000Y-97700000D03*
%TD*%
D42*
%TO.C,LED4*%
X117697200Y-103395000D03*
X116122200Y-103395000D03*
%TD*%
%TO.C,LED2*%
X118664700Y-128371600D03*
X117089700Y-128371600D03*
%TD*%
D20*
%TO.C,R22*%
X152591000Y-129743200D03*
X154241000Y-129743200D03*
%TD*%
D25*
%TO.C,U3*%
X157098500Y-106128800D03*
X157098500Y-105178800D03*
X157098500Y-104228800D03*
X154823500Y-104228800D03*
X154823500Y-106128800D03*
%TD*%
D10*
%TO.C,J6*%
X134498800Y-134655400D03*
D11*
X137998800Y-134655400D03*
X141498800Y-134655400D03*
X144998800Y-134655400D03*
X148498800Y-134655400D03*
X151998800Y-134655400D03*
%TD*%
D18*
%TO.C,D3*%
X171400000Y-95064000D03*
X167900000Y-95064000D03*
%TD*%
D21*
%TO.C,R23*%
X136915000Y-99475000D03*
X135265000Y-99475000D03*
%TD*%
D10*
%TO.C,J7*%
X156113600Y-134655400D03*
D11*
X159613600Y-134655400D03*
X163113600Y-134655400D03*
X166613600Y-134655400D03*
%TD*%
D28*
%TO.C,L3*%
X173431100Y-114122200D03*
X175006100Y-114122200D03*
%TD*%
D17*
%TO.C,R8*%
X186791600Y-116827800D03*
X186791600Y-118477800D03*
%TD*%
D19*
%TO.C,D4*%
X176500000Y-95064000D03*
X180000000Y-95064000D03*
%TD*%
D21*
%TO.C,R10*%
X118702200Y-126796800D03*
X117052200Y-126796800D03*
%TD*%
D31*
%TO.C,Q6*%
X126597200Y-113345000D03*
X126597200Y-111445000D03*
X124722200Y-112395000D03*
%TD*%
D26*
%TO.C,C11*%
X176500000Y-93064000D03*
X174950000Y-93064000D03*
%TD*%
D43*
%TO.C,C7*%
X159823600Y-109700000D03*
X156873600Y-109700000D03*
%TD*%
D17*
%TO.C,R20*%
X174700000Y-84775000D03*
X174700000Y-86425000D03*
%TD*%
D21*
%TO.C,R16*%
X169865000Y-93064000D03*
X168215000Y-93064000D03*
%TD*%
%TO.C,R17*%
X179771000Y-91442000D03*
X178121000Y-91442000D03*
%TD*%
D44*
%TO.C,C5*%
X153421000Y-115950200D03*
X153421000Y-113000200D03*
%TD*%
D17*
%TO.C,R11*%
X117762500Y-114849600D03*
X117762500Y-116499600D03*
%TD*%
D32*
%TO.C,U4*%
X131572000Y-127040600D03*
X134112000Y-127040600D03*
X134112000Y-117510600D03*
X131572000Y-117510600D03*
%TD*%
D45*
%TO.C,U9*%
X135440000Y-98025000D03*
X136090000Y-98025000D03*
X136740000Y-98025000D03*
X136740000Y-96125000D03*
X136090000Y-96125000D03*
X135440000Y-96125000D03*
%TD*%
D33*
%TO.C,U6*%
X133800000Y-84550000D03*
X133800000Y-83900000D03*
X133800000Y-83250000D03*
X131900000Y-83250000D03*
X131900000Y-83900000D03*
X131900000Y-84550000D03*
%TD*%
D17*
%TO.C,R12*%
X126525500Y-114849600D03*
X126525500Y-116499600D03*
%TD*%
D45*
%TO.C,U2*%
X173300000Y-89918000D03*
X173950000Y-89918000D03*
X174600000Y-89918000D03*
X174600000Y-88018000D03*
X173950000Y-88018000D03*
X173300000Y-88018000D03*
%TD*%
D46*
%TO.C,TP4*%
X135238000Y-101181000D03*
%TD*%
%TO.C,TP1*%
X154863800Y-120675400D03*
%TD*%
D47*
%TO.C,J10*%
X140843000Y-82372200D03*
D48*
X143383000Y-82372200D03*
X145923000Y-82372200D03*
X148463000Y-82372200D03*
X151003000Y-82372200D03*
X153543000Y-82372200D03*
X156083000Y-82372200D03*
X158623000Y-82372200D03*
X161163000Y-82372200D03*
X163703000Y-82372200D03*
%TD*%
D47*
%TO.C,A1*%
X149987000Y-127635000D03*
D49*
X152527000Y-127635000D03*
X155067000Y-127635000D03*
X157607000Y-127635000D03*
X160147000Y-127635000D03*
X162687000Y-127635000D03*
X165227000Y-127635000D03*
X167767000Y-127635000D03*
X172847000Y-127635000D03*
X175387000Y-127635000D03*
X177927000Y-127635000D03*
X180467000Y-127635000D03*
X183007000Y-127635000D03*
X185547000Y-127635000D03*
X185547000Y-79375000D03*
X183007000Y-79375000D03*
X180467000Y-79375000D03*
X177927000Y-79375000D03*
X175387000Y-79375000D03*
X172847000Y-79375000D03*
X170307000Y-79375000D03*
X167767000Y-79375000D03*
X163707000Y-79375000D03*
X161167000Y-79375000D03*
X158627000Y-79375000D03*
X156087000Y-79375000D03*
X153547000Y-79375000D03*
X151007000Y-79375000D03*
X148467000Y-79375000D03*
X145927000Y-79375000D03*
X143387000Y-79375000D03*
X140847000Y-79375000D03*
%TD*%
D46*
%TO.C,TP2*%
X165404800Y-110032800D03*
%TD*%
D50*
%TO.C,SW1*%
X121325000Y-105525000D03*
D13*
X121325000Y-108065000D03*
%TD*%
D51*
%TO.C,J8*%
X177546000Y-118857000D03*
D13*
X177546000Y-116317000D03*
X177546000Y-113777000D03*
X177546000Y-111237000D03*
%TD*%
D50*
%TO.C,JP1*%
X121318500Y-113129600D03*
D13*
X121318500Y-115669600D03*
%TD*%
D52*
%TO.C,J12*%
X185521600Y-123926600D03*
D48*
X182981600Y-123926600D03*
X180441600Y-123926600D03*
X177901600Y-123926600D03*
X175361600Y-123926600D03*
X172821600Y-123926600D03*
%TD*%
D46*
%TO.C,TP3*%
X150342600Y-109702600D03*
%TD*%
D52*
%TO.C,J11*%
X185552400Y-82372200D03*
D48*
X183012400Y-82372200D03*
X180472400Y-82372200D03*
X177932400Y-82372200D03*
X175392400Y-82372200D03*
X172852400Y-82372200D03*
X170312400Y-82372200D03*
X167772400Y-82372200D03*
%TD*%
M02*
